<?xml version="1.0" encoding="UTF-8" standalone="no"?><svg xmlns="http://www.w3.org/2000/svg" xmlns:xlink="http://www.w3.org/1999/xlink" clip-rule="evenodd" stroke-miterlimit="10" viewBox="0 0 520 576"><desc>SVG generated by Keynote</desc><defs></defs><g transform="matrix(1.00, 0.00, -0.00, -1.00, 0.0, 576.0)"><g><clipPath id="clip0x7fda9b7bada0"><path d="M 141.0 574.0 L 379.0 574.0 L 379.0 174.0 L 141.0 174.0 Z M 141.2 573.6 "></path></clipPath><g clip-path="url(#clip0x7fda9b7bada0)"><g><clipPath id="clip0x7fda9b7bdc90"><path d="M 262.3 573.6 C 260.2 573.5 259.3 573.5 257.5 573.5 C 256.1 573.2 254.6 572.9 252.9 572.8 C 251.5 572.7 250.1 572.6 248.9 572.6 C 248.7 572.6 248.6 572.6 248.5 572.6 C 246.9 572.4 245.7 572.2 243.8 571.7 C 242.0 571.3 240.8 571.1 239.6 570.8 C 238.8 570.6 237.8 570.2 237.2 570.1 C 236.6 569.8 235.9 569.5 235.2 569.5 C 234.0 569.5 231.0 568.8 228.6 568.0 C 226.8 567.4 225.6 567.1 224.5 566.8 C 223.4 566.3 222.0 565.6 220.7 565.0 C 220.6 565.0 220.5 564.9 220.4 564.9 C 220.3 564.9 218.9 564.2 218.4 564.0 C 217.6 563.6 217.0 563.4 216.3 563.0 C 215.9 562.8 215.6 562.7 215.2 562.5 C 214.0 562.0 213.7 561.9 212.4 561.3 C 206.9 558.5 203.6 556.1 198.6 550.9 C 197.3 549.6 196.3 548.5 195.3 547.3 C 194.0 545.7 192.5 543.3 191.0 540.8 C 190.5 540.0 190.1 539.4 189.6 538.5 C 189.2 537.6 189.1 537.3 188.6 536.3 C 188.0 535.3 187.9 535.2 187.5 534.3 C 186.7 532.7 186.3 531.5 185.6 530.0 C 185.2 529.0 184.7 527.6 183.6 525.0 C 182.5 522.4 181.5 519.3 180.7 516.9 C 180.3 515.5 179.6 513.5 179.3 512.4 C 178.7 509.9 178.4 508.3 178.2 506.9 C 178.2 506.6 178.1 506.3 178.1 506.0 C 178.1 505.9 178.0 505.8 178.0 505.7 C 177.9 504.1 177.7 502.4 177.7 500.6 C 177.6 500.3 177.7 500.3 177.7 500.0 C 177.9 499.8 177.9 499.5 177.7 499.1 C 177.6 497.0 177.6 495.2 177.7 494.0 C 177.9 492.9 177.9 492.3 178.4 490.7 C 178.5 490.2 179.4 488.6 180.3 487.2 C 181.1 486.0 181.9 484.9 182.1 483.8 C 182.2 483.7 182.2 483.5 182.3 483.3 C 184.3 479.1 185.7 473.3 184.6 472.6 C 184.6 472.6 184.6 472.6 184.6 472.5 C 184.8 471.3 184.9 470.8 185.1 469.1 C 185.1 469.0 185.1 468.9 185.2 468.9 C 185.3 468.3 185.4 467.8 185.4 467.2 C 185.6 464.7 185.9 463.0 186.1 461.0 C 186.3 460.5 186.4 459.9 186.4 459.0 C 186.6 457.4 186.9 455.8 187.1 453.4 C 187.4 450.1 187.5 450.7 187.6 449.2 C 188.5 443.6 189.2 440.0 190.3 437.9 C 191.9 436.1 194.1 434.2 196.3 433.2 C 196.3 433.2 196.3 433.2 196.4 433.2 C 196.4 433.1 196.4 433.2 196.5 433.1 C 197.9 432.5 198.7 432.0 199.3 431.5 C 199.3 431.5 199.5 431.4 199.5 431.3 C 199.8 431.1 199.9 430.8 200.0 430.5 C 200.1 430.3 200.1 430.2 200.1 430.0 C 200.2 429.8 200.2 429.6 200.2 429.4 C 200.2 429.1 200.3 428.9 200.3 428.6 C 200.3 427.7 200.1 426.9 199.9 426.2 C 199.6 424.7 199.2 423.2 198.9 422.9 C 198.8 422.8 197.6 422.5 197.2 422.4 C 196.2 421.7 194.6 421.1 193.2 421.1 C 192.9 421.1 192.5 421.0 192.1 421.0 C 190.8 420.7 189.3 420.4 188.1 420.0 C 186.7 419.6 185.5 419.1 185.0 418.7 C 184.0 418.1 183.2 417.9 183.0 418.1 C 183.0 418.1 183.0 418.0 183.0 418.0 C 182.4 417.7 181.9 417.4 181.4 417.1 C 181.1 416.8 181.0 416.9 180.6 416.5 C 180.0 416.0 179.1 414.7 178.2 413.3 C 178.2 413.2 178.1 413.1 178.1 413.0 C 177.9 412.4 177.4 411.6 176.6 410.5 C 175.4 408.2 174.1 406.3 173.7 406.3 C 173.2 406.3 172.9 405.6 173.0 404.8 C 173.1 403.3 172.0 403.0 166.2 402.5 C 164.7 402.4 161.2 401.6 158.1 400.8 C 157.9 400.5 157.4 400.2 156.4 399.8 C 154.7 399.1 153.4 399.0 152.6 399.4 C 149.1 398.5 145.4 397.5 144.1 396.8 C 144.0 396.1 143.7 395.6 143.2 395.3 C 141.8 394.5 141.1 392.4 141.2 389.6 C 141.2 388.7 141.2 388.2 141.2 387.5 C 141.3 386.7 141.4 386.1 141.4 385.4 C 141.6 383.4 142.0 381.1 142.4 380.3 C 143.1 378.7 145.5 365.0 146.3 357.6 C 146.5 355.1 147.0 352.4 147.3 351.6 C 147.6 350.8 148.0 348.7 148.2 347.0 C 148.7 342.6 149.9 336.1 150.4 335.6 C 150.5 335.5 150.8 333.7 150.9 331.6 C 151.1 329.6 151.5 326.7 151.7 325.2 C 152.0 323.6 152.4 320.8 152.6 319.0 C 152.8 316.5 153.5 314.8 154.4 313.9 C 155.5 313.8 156.6 313.7 157.3 313.9 C 159.9 314.6 160.6 313.8 159.5 311.7 C 160.3 310.2 161.0 307.6 161.6 303.2 C 162.7 295.4 164.3 289.3 165.2 289.9 C 165.5 290.1 166.4 289.9 167.1 289.5 C 167.4 289.3 167.8 289.3 168.2 289.3 C 168.3 289.4 168.4 289.3 168.5 289.4 C 168.8 289.9 169.7 290.2 170.6 290.2 C 170.8 290.2 171.2 290.4 171.4 290.4 C 171.7 292.0 173.0 293.2 174.4 292.7 C 175.3 292.5 177.2 292.6 178.7 293.0 C 180.1 293.4 181.5 293.3 182.9 292.9 C 185.8 293.8 189.8 293.6 189.6 292.4 C 189.4 291.7 189.1 284.6 188.9 276.6 C 188.6 268.6 188.3 260.2 188.0 257.9 C 187.8 255.6 187.4 251.7 187.1 249.1 C 186.8 246.6 186.4 238.6 186.1 231.5 C 185.8 224.4 185.4 217.8 185.1 217.0 C 184.9 216.3 184.6 215.1 184.4 214.0 C 184.4 213.3 184.4 212.5 184.2 211.7 C 183.4 207.9 183.1 198.5 183.7 197.3 C 184.1 196.4 184.9 183.3 184.8 178.5 C 184.8 176.8 185.2 175.2 185.7 174.9 C 185.9 174.8 186.0 174.6 186.1 174.4 C 188.6 173.6 205.4 173.8 219.0 174.9 C 222.4 175.2 230.5 175.6 237.1 175.8 C 264.2 176.9 278.1 177.4 281.0 177.6 C 282.2 177.7 283.2 177.4 284.1 177.1 C 286.0 177.2 287.1 177.2 289.1 177.3 C 295.7 177.8 304.7 178.4 309.0 178.6 C 312.8 178.9 315.3 179.1 317.7 179.3 C 318.3 180.1 319.0 180.9 319.3 181.7 C 319.5 182.3 319.8 182.8 320.1 183.0 C 320.1 183.0 320.2 183.0 320.2 183.0 C 320.2 183.1 320.2 183.2 320.2 183.2 C 319.9 185.3 319.7 188.4 319.6 192.5 C 319.5 198.1 318.7 205.1 317.9 207.9 C 316.8 212.0 316.6 216.8 317.0 232.0 C 317.1 237.5 317.3 242.9 317.5 247.4 C 317.7 252.2 317.9 255.7 318.2 256.4 C 318.4 256.8 318.5 258.3 318.7 259.4 C 318.8 260.3 318.9 261.1 319.1 262.1 C 319.3 264.5 319.5 267.2 319.7 270.1 C 319.7 270.2 319.7 270.2 319.7 270.3 C 319.1 275.4 318.9 288.3 319.6 292.2 C 320.7 298.7 320.9 300.2 321.0 303.2 C 321.0 305.6 321.7 306.6 323.8 307.8 C 327.7 310.0 327.7 309.8 321.0 351.1 C 320.6 354.1 320.5 357.0 320.9 357.4 C 322.5 359.0 325.1 354.0 327.6 344.1 C 329.0 338.4 330.7 333.4 331.4 333.0 C 332.0 332.6 333.8 332.4 335.4 332.7 C 346.8 334.6 362.7 338.7 373.2 342.5 C 379.4 344.7 379.7 345.7 376.8 354.9 C 375.8 357.9 374.6 362.1 374.0 364.1 C 370.9 375.5 367.9 384.6 367.1 385.1 C 366.6 385.4 363.5 384.9 360.1 384.0 C 354.1 382.2 354.0 382.2 352.0 384.1 C 350.9 385.2 349.7 387.2 349.3 388.5 C 348.7 391.1 346.1 394.9 340.3 401.8 C 338.5 404.0 334.7 408.5 332.0 411.9 C 326.4 418.7 321.1 421.8 313.7 422.7 C 310.0 423.1 308.5 423.8 307.4 425.5 C 305.7 428.1 306.2 428.7 310.7 430.0 C 313.4 430.7 314.7 432.0 317.1 435.9 C 322.3 444.6 324.4 452.8 326.6 471.6 C 327.1 476.7 328.0 480.4 329.0 481.4 C 331.6 484.4 332.9 491.8 332.7 503.6 C 332.7 507.6 332.9 509.8 333.0 511.7 C 332.8 513.2 332.6 514.8 332.3 516.1 C 330.8 521.8 326.3 532.2 323.7 536.4 C 322.8 537.8 321.7 539.3 320.3 541.1 C 319.6 542.1 319.1 542.6 318.2 543.9 C 313.2 551.0 298.7 562.6 289.1 567.3 C 283.7 569.8 277.9 571.8 272.6 572.9 C 270.8 573.2 269.0 573.3 267.2 573.5 C 265.6 573.6 263.9 573.7 262.3 573.6 Z M 249.3 253.3 C 249.9 253.2 250.8 252.8 251.9 252.0 C 254.1 250.6 255.7 244.4 254.0 243.4 C 253.6 243.1 253.4 242.4 253.7 241.7 C 253.9 241.1 253.8 240.2 253.3 239.7 C 252.8 239.2 252.3 236.2 252.0 232.9 C 251.8 229.6 251.4 224.8 251.2 222.4 C 250.7 217.5 249.4 215.3 248.2 217.3 C 247.7 217.9 247.4 226.2 247.3 235.5 C 247.2 249.3 247.4 253.3 249.3 253.3 Z M 249.3 253.3 "></path></clipPath><g clip-path="url(#clip0x7fda9b7bdc90)"><g><clipPath id="clip0x7fda9b7d2440"><path d="M 139.1 171.9 L 380.5 171.9 L 380.5 575.6 L 139.1 575.6 Z M 139.1 171.9 "></path></clipPath><g clip-path="url(#clip0x7fda9b7d2440)"><image xlink:href="A8B18854E537F7773D9978010459CB51.jpeg" width="500.00" height="539.00" transform="matrix(0.93, 0.00, -0.00, -0.93, 25.2, 611.2)"></image></g></g></g></g></g></g><g><clipPath id="clip0x7fda9b831730"><path d="M 139.1 171.9 L 380.5 171.9 L 380.5 575.6 L 139.1 575.6 Z M 139.1 171.9 "></path></clipPath><g clip-path="url(#clip0x7fda9b831730)"><path d="M 121.2 0.0 C 119.0 0.1 118.1 0.1 116.3 0.2 C 114.9 0.4 113.5 0.7 111.7 0.8 C 110.3 0.9 108.9 1.0 107.7 1.0 C 107.6 1.0 107.5 1.0 107.3 1.0 C 105.8 1.3 104.6 1.4 102.7 1.9 C 100.8 2.4 99.7 2.5 98.4 2.8 C 97.6 3.1 96.6 3.4 96.1 3.6 C 95.4 3.9 94.7 4.1 94.0 4.1 C 92.8 4.1 89.8 4.8 87.4 5.7 C 85.6 6.3 84.4 6.6 83.4 6.8 C 82.2 7.3 80.8 8.0 79.5 8.6 C 79.5 8.6 79.3 8.8 79.3 8.8 C 79.1 8.8 77.8 9.5 77.2 9.7 C 76.5 10.0 75.9 10.3 75.1 10.7 C 74.7 10.8 74.4 10.9 74.0 11.1 C 72.9 11.7 72.5 11.7 71.2 12.3 C 65.8 15.2 62.5 17.5 57.4 22.7 C 56.1 24.0 55.1 25.2 54.1 26.3 C 52.9 28.0 51.3 30.3 49.8 32.9 C 49.4 33.7 48.9 34.3 48.5 35.2 C 48.0 36.0 48.0 36.4 47.4 37.3 C 46.8 38.3 46.8 38.5 46.3 39.3 C 45.5 40.9 45.1 42.1 44.4 43.6 C 44.0 44.6 43.5 46.1 42.4 48.7 C 41.3 51.3 40.3 54.3 39.5 56.8 C 39.1 58.1 38.5 60.2 38.2 61.2 C 37.5 63.7 37.2 65.3 37.0 66.8 C 37.0 67.1 37.0 67.4 37.0 67.6 C 37.0 67.7 36.9 67.9 36.9 68.0 C 36.7 69.6 36.6 71.3 36.5 73.0 C 36.5 73.3 36.5 73.3 36.5 73.6 C 36.7 73.9 36.8 74.2 36.5 74.5 C 36.4 76.7 36.4 78.4 36.5 79.7 C 36.7 80.7 36.8 81.3 37.2 83.0 C 37.3 83.5 38.3 85.1 39.1 86.5 C 39.9 87.6 40.7 88.8 40.9 89.8 C 41.0 90.0 41.0 90.2 41.1 90.3 C 43.1 94.6 44.5 100.3 43.4 101.1 C 43.4 101.1 43.4 101.1 43.4 101.1 C 43.6 102.3 43.8 102.9 44.0 104.6 C 44.0 104.6 44.0 104.7 44.0 104.8 C 44.1 105.3 44.2 105.9 44.2 106.5 C 44.5 109.0 44.8 110.6 45.0 112.7 C 45.1 113.2 45.2 113.7 45.2 114.7 C 45.5 116.2 45.8 117.8 46.0 120.3 C 46.2 123.5 46.3 123.0 46.5 124.4 C 47.3 130.0 48.1 133.6 49.2 135.7 C 50.7 137.5 52.9 139.4 55.1 140.4 C 55.1 140.5 55.2 140.5 55.2 140.5 C 55.3 140.5 55.3 140.5 55.3 140.5 C 56.7 141.2 57.6 141.6 58.1 142.1 C 58.2 142.2 58.3 142.3 58.4 142.3 C 58.6 142.6 58.8 142.9 58.9 143.2 C 58.9 143.3 58.9 143.5 59.0 143.6 C 59.0 143.8 59.0 144.0 59.0 144.2 C 59.1 144.5 59.1 144.7 59.1 145.0 C 59.2 146.0 59.0 146.8 58.7 147.4 C 58.5 149.0 58.1 150.4 57.8 150.8 C 57.6 150.9 56.5 151.1 56.0 151.2 C 55.0 151.9 53.4 152.5 52.0 152.5 C 51.7 152.5 51.3 152.6 51.0 152.7 C 49.6 153.0 48.2 153.3 46.9 153.7 C 45.5 154.1 44.4 154.5 43.8 154.9 C 42.8 155.6 42.1 155.8 41.9 155.6 C 41.9 155.6 41.8 155.6 41.8 155.6 C 41.3 155.9 40.8 156.2 40.2 156.6 C 39.9 156.8 39.8 156.8 39.4 157.1 C 38.8 157.7 37.9 158.9 37.1 160.3 C 37.1 160.4 36.9 160.6 36.9 160.7 C 36.8 161.2 36.2 162.1 35.4 163.1 C 34.2 165.5 33.0 167.3 32.5 167.3 C 32.1 167.3 31.8 168.0 31.8 168.9 C 32.0 170.3 30.9 170.7 25.0 171.2 C 23.5 171.3 20.1 172.1 16.9 172.8 C 16.7 173.1 16.2 173.5 15.2 173.9 C 13.5 174.5 12.2 174.6 11.4 174.2 C 7.9 175.2 4.3 176.2 2.9 176.8 C 2.8 177.5 2.5 178.1 2.0 178.4 C 0.6 179.2 -0.1 181.2 0.0 184.0 C 0.0 185.0 -0.0 185.4 0.0 186.2 C 0.1 186.9 0.2 187.6 0.3 188.2 C 0.4 190.3 0.9 192.6 1.2 193.4 C 2.0 195.0 4.3 208.7 5.1 216.0 C 5.4 218.6 5.9 221.3 6.2 222.1 C 6.5 222.8 6.9 224.9 7.1 226.7 C 7.5 231.1 8.7 237.5 9.2 238.1 C 9.3 238.2 9.6 240.0 9.8 242.0 C 10.0 244.0 10.3 247.0 10.6 248.5 C 10.9 250.0 11.2 252.8 11.4 254.7 C 11.6 257.2 12.3 258.8 13.3 259.7 C 14.3 259.9 15.4 259.9 16.1 259.7 C 18.8 259.1 19.4 259.9 18.3 261.9 C 19.1 263.4 19.8 266.1 20.4 270.4 C 21.5 278.2 23.2 284.3 24.0 283.8 C 24.4 283.5 25.2 283.7 25.9 284.2 C 26.2 284.3 26.6 284.4 27.1 284.3 C 27.1 284.3 27.3 284.3 27.3 284.2 C 27.6 283.8 28.6 283.4 29.5 283.4 C 29.6 283.4 30.0 283.3 30.2 283.2 C 30.6 281.6 31.9 280.5 33.3 280.9 C 34.1 281.2 36.0 281.1 37.6 280.6 C 38.9 280.2 40.3 280.4 41.8 280.7 C 44.7 279.8 48.7 280.1 48.4 281.3 C 48.3 282.0 47.9 289.1 47.7 297.0 C 47.5 305.0 47.1 313.4 46.9 315.7 C 46.6 318.0 46.2 322.0 45.9 324.5 C 45.7 327.1 45.2 335.0 44.9 342.2 C 44.7 349.3 44.2 355.8 43.9 356.7 C 43.7 357.3 43.4 358.6 43.2 359.6 C 43.3 360.3 43.2 361.1 43.0 362.0 C 42.3 365.8 42.0 375.1 42.5 376.3 C 42.9 377.2 43.7 390.4 43.6 395.2 C 43.6 396.8 44.0 398.4 44.5 398.7 C 44.7 398.8 44.8 399.0 44.9 399.2 C 47.5 400.0 64.3 399.8 77.9 398.8 C 81.2 398.5 89.3 398.1 96.0 397.8 C 123.1 396.8 136.9 396.2 139.9 396.0 C 141.0 396.0 142.0 396.2 142.9 396.6 C 144.9 396.4 146.0 396.4 147.9 396.3 C 154.5 395.9 163.5 395.3 167.8 395.0 C 171.6 394.8 174.1 394.6 176.5 394.3 C 177.2 393.6 177.8 392.8 178.1 392.0 C 178.4 391.4 178.7 390.9 179.0 390.6 C 179.0 390.6 179.0 390.6 179.0 390.6 C 179.0 390.6 179.0 390.4 179.0 390.4 C 178.8 388.4 178.5 385.2 178.4 381.2 C 178.3 375.5 177.6 368.6 176.8 365.8 C 175.7 361.7 175.5 356.8 175.8 341.7 C 175.9 336.2 176.1 330.8 176.4 326.3 C 176.5 321.5 176.8 317.9 177.0 317.2 C 177.2 316.9 177.4 315.4 177.5 314.2 C 177.7 313.3 177.8 312.5 177.9 311.5 C 178.1 309.2 178.4 306.4 178.5 303.5 C 178.5 303.5 178.5 303.4 178.5 303.4 C 177.9 298.2 177.7 285.3 178.4 281.4 C 179.6 274.9 179.7 273.5 179.8 270.5 C 179.9 268.1 180.5 267.1 182.7 265.8 C 186.5 263.6 186.6 263.9 179.9 222.6 C 179.4 219.5 179.3 216.7 179.8 216.2 C 181.4 214.6 183.9 219.6 186.4 229.5 C 187.9 235.3 189.5 240.3 190.2 240.7 C 190.8 241.1 192.6 241.2 194.2 241.0 C 205.6 239.1 221.6 234.9 232.1 231.2 C 238.3 228.9 238.6 227.9 235.7 218.8 C 234.7 215.7 233.4 211.6 232.9 209.5 C 229.7 198.1 226.8 189.1 226.0 188.5 C 225.5 188.2 222.3 188.7 219.0 189.7 C 212.9 191.4 212.9 191.5 210.8 189.5 C 209.7 188.5 208.5 186.5 208.2 185.2 C 207.5 182.6 204.9 178.7 199.2 171.9 C 197.3 169.7 193.6 165.1 190.8 161.8 C 185.2 154.9 180.0 151.8 172.6 150.9 C 168.8 150.5 167.4 149.8 166.2 148.2 C 164.5 145.6 165.0 144.9 169.5 143.7 C 172.2 142.9 173.5 141.7 175.9 137.7 C 181.1 129.1 183.3 120.9 185.4 102.1 C 186.0 97.0 186.9 93.2 187.8 92.2 C 190.5 89.3 191.7 81.8 191.6 70.0 C 191.5 66.0 191.7 63.9 191.9 61.9 C 191.6 60.4 191.4 58.9 191.1 57.6 C 189.7 51.8 185.2 41.5 182.5 37.2 C 181.7 35.9 180.5 34.3 179.2 32.5 C 178.4 31.5 177.9 31.0 177.0 29.8 C 172.1 22.7 157.6 11.1 147.9 6.4 C 142.5 3.8 136.7 1.9 131.5 0.7 C 129.6 0.4 127.9 0.3 126.1 0.1 C 124.4 0.0 122.8 -0.0 121.2 0.0 Z M 108.1 320.4 C 108.8 320.4 109.6 320.9 110.7 321.6 C 113.0 323.1 114.5 329.2 112.9 330.2 C 112.4 330.5 112.3 331.3 112.5 331.9 C 112.8 332.6 112.6 333.5 112.1 333.9 C 111.7 334.4 111.1 337.5 110.9 340.8 C 110.7 344.1 110.3 348.8 110.0 351.3 C 109.6 356.2 108.2 358.4 107.0 356.4 C 106.6 355.7 106.2 347.5 106.2 338.1 C 106.1 324.3 106.2 320.3 108.1 320.4 Z M 108.1 320.4 " fill="none" stroke="#FEFFFE" stroke-width="4.00" transform="matrix(1.00, 0.00, 0.00, -1.00, 141.2, 573.6)"></path></g></g><g><clipPath id="clip0x7fda9b809540"><path d="M -7.7 -7.4 L 527.4 -7.4 L 527.4 175.0 L -7.7 175.0 Z M -7.7 -7.4 "></path></clipPath><g clip-path="url(#clip0x7fda9b809540)"><text xml:space="preserve" font-family="SourceSansPro-Regular,Source Sans Pro" font-size="31.5" fill="#FEFFFF" transform="matrix(1.00, 0.00, -0.00, -1.00, 5.5, 124.4)">•</text><text xml:space="preserve" font-family="SourceSansPro-Regular,Source Sans Pro" font-size="42.0" fill="#FEFFFF" transform="matrix(1.00, 0.00, -0.00, -1.00, 50.1, 121.2)">r</text><text xml:space="preserve" font-family="SourceSansPro-Regular,Source Sans Pro" font-size="42.0" fill="#FEFFFF" transform="matrix(1.00, 0.00, -0.00, -1.00, 64.3, 121.2)">e</text><text xml:space="preserve" font-family="SourceSansPro-Regular,Source Sans Pro" font-size="42.0" fill="#FEFFFF" transform="matrix(1.00, 0.00, -0.00, -1.00, 85.1, 121.2)">n</text><text xml:space="preserve" font-family="SourceSansPro-Regular,Source Sans Pro" font-size="42.0" fill="#FEFFFF" transform="matrix(1.00, 0.00, -0.00, -1.00, 108.1, 121.2)">d</text><text xml:space="preserve" font-family="SourceSansPro-Regular,Source Sans Pro" font-size="42.0" fill="#FEFFFF" transform="matrix(1.00, 0.00, -0.00, -1.00, 131.4, 121.2)">e</text><text xml:space="preserve" font-family="SourceSansPro-Regular,Source Sans Pro" font-size="42.0" fill="#FEFFFF" transform="matrix(1.00, 0.00, -0.00, -1.00, 152.2, 121.2)">r</text><text xml:space="preserve" font-family="SourceSansPro-Regular,Source Sans Pro" font-size="42.0" fill="#FEFFFF" transform="matrix(1.00, 0.00, -0.00, -1.00, 166.4, 121.2)">e</text><text xml:space="preserve" font-family="SourceSansPro-Regular,Source Sans Pro" font-size="42.0" fill="#FEFFFF" transform="matrix(1.00, 0.00, -0.00, -1.00, 187.2, 121.2)">d</text><text xml:space="preserve" font-family="SourceSansPro-Regular,Source Sans Pro" font-size="42.0" fill="#FEFFFF" transform="matrix(1.00, 0.00, -0.00, -1.00, 210.5, 121.2)"> </text><text xml:space="preserve" font-family="SourceSansPro-Regular,Source Sans Pro" font-size="42.0" fill="#FEFFFF" transform="matrix(1.00, 0.00, -0.00, -1.00, 219.0, 121.2)">i</text><text xml:space="preserve" font-family="SourceSansPro-Regular,Source Sans Pro" font-size="42.0" fill="#FEFFFF" transform="matrix(1.00, 0.00, -0.00, -1.00, 229.3, 121.2)">n</text><text xml:space="preserve" font-family="SourceSansPro-Regular,Source Sans Pro" font-size="42.0" fill="#FEFFFF" transform="matrix(1.00, 0.00, -0.00, -1.00, 252.3, 121.2)"> </text><text xml:space="preserve" font-family="SourceSansPro-Regular,Source Sans Pro" font-size="42.0" fill="#FEFFFF" transform="matrix(1.00, 0.00, -0.00, -1.00, 260.8, 121.2)">t</text><text xml:space="preserve" font-family="SourceSansPro-Regular,Source Sans Pro" font-size="42.0" fill="#FEFFFF" transform="matrix(1.00, 0.00, -0.00, -1.00, 275.0, 121.2)">h</text><text xml:space="preserve" font-family="SourceSansPro-Regular,Source Sans Pro" font-size="42.0" fill="#FEFFFF" transform="matrix(1.00, 0.00, -0.00, -1.00, 297.8, 121.2)">e</text><text xml:space="preserve" font-family="SourceSansPro-Regular,Source Sans Pro" font-size="42.0" fill="#FEFFFF" transform="matrix(1.00, 0.00, -0.00, -1.00, 318.7, 121.2)"> </text><text xml:space="preserve" font-family="SourceSansPro-Regular,Source Sans Pro" font-size="42.0" fill="#FEFFFF" transform="matrix(1.00, 0.00, -0.00, -1.00, 327.2, 121.2)">b</text><text xml:space="preserve" font-family="SourceSansPro-Regular,Source Sans Pro" font-size="42.0" fill="#FEFFFF" transform="matrix(1.00, 0.00, -0.00, -1.00, 350.5, 121.2)">r</text><text xml:space="preserve" font-family="SourceSansPro-Regular,Source Sans Pro" font-size="42.0" fill="#FEFFFF" transform="matrix(1.00, 0.00, -0.00, -1.00, 364.6, 121.2)">o</text><text xml:space="preserve" font-family="SourceSansPro-Regular,Source Sans Pro" font-size="42.0" fill="#FEFFFF" transform="matrix(1.00, 0.00, -0.00, -1.00, 387.2, 121.2)">w</text><text xml:space="preserve" font-family="SourceSansPro-Regular,Source Sans Pro" font-size="42.0" fill="#FEFFFF" transform="matrix(1.00, 0.00, -0.00, -1.00, 417.4, 121.2)">s</text><text xml:space="preserve" font-family="SourceSansPro-Regular,Source Sans Pro" font-size="42.0" fill="#FEFFFF" transform="matrix(1.00, 0.00, -0.00, -1.00, 435.0, 121.2)">e</text><text xml:space="preserve" font-family="SourceSansPro-Regular,Source Sans Pro" font-size="42.0" fill="#FEFFFF" transform="matrix(1.00, 0.00, -0.00, -1.00, 455.8, 121.2)">r</text><text xml:space="preserve" font-family="SourceSansPro-Regular,Source Sans Pro" font-size="42.0" fill="#FEFFFF" transform="matrix(1.00, 0.00, -0.00, -1.00, 470.4, 121.2)"> </text><text xml:space="preserve" font-family="SourceSansPro-Regular,Source Sans Pro" font-size="31.5" fill="#FEFFFF" transform="matrix(1.00, 0.00, -0.00, -1.00, 5.5, 72.4)">•</text><text xml:space="preserve" font-family="SourceSansPro-Regular,Source Sans Pro" font-size="42.0" fill="#FEFFFF" transform="matrix(1.00, 0.00, -0.00, -1.00, 50.1, 69.2)">J</text><text xml:space="preserve" font-family="SourceSansPro-Regular,Source Sans Pro" font-size="42.0" fill="#FEFFFF" transform="matrix(1.00, 0.00, -0.00, -1.00, 70.3, 69.2)">S</text><text xml:space="preserve" font-family="SourceSansPro-Regular,Source Sans Pro" font-size="42.0" fill="#FEFFFF" transform="matrix(1.00, 0.00, -0.00, -1.00, 92.7, 69.2)">O</text><text xml:space="preserve" font-family="SourceSansPro-Regular,Source Sans Pro" font-size="42.0" fill="#FEFFFF" transform="matrix(1.00, 0.00, -0.00, -1.00, 120.6, 69.2)">N</text><text xml:space="preserve" font-family="SourceSansPro-Regular,Source Sans Pro" font-size="42.0" fill="#FEFFFF" transform="matrix(1.00, 0.00, -0.00, -1.00, 147.8, 69.2)"> </text><text xml:space="preserve" font-family="SourceSansPro-Regular,Source Sans Pro" font-size="42.0" fill="#FEFFFF" transform="matrix(1.00, 0.00, -0.00, -1.00, 156.3, 69.2)">o</text><text xml:space="preserve" font-family="SourceSansPro-Regular,Source Sans Pro" font-size="42.0" fill="#FEFFFF" transform="matrix(1.00, 0.00, -0.00, -1.00, 178.8, 69.2)">v</text><text xml:space="preserve" font-family="SourceSansPro-Regular,Source Sans Pro" font-size="42.0" fill="#FEFFFF" transform="matrix(1.00, 0.00, -0.00, -1.00, 198.3, 69.2)">e</text><text xml:space="preserve" font-family="SourceSansPro-Regular,Source Sans Pro" font-size="42.0" fill="#FEFFFF" transform="matrix(1.00, 0.00, -0.00, -1.00, 219.1, 69.2)">r</text><text xml:space="preserve" font-family="SourceSansPro-Regular,Source Sans Pro" font-size="42.0" fill="#FEFFFF" transform="matrix(1.00, 0.00, -0.00, -1.00, 233.7, 69.2)"> </text><text xml:space="preserve" font-family="SourceSansPro-Regular,Source Sans Pro" font-size="42.0" fill="#FEFFFF" transform="matrix(1.00, 0.00, -0.00, -1.00, 242.2, 69.2)">R</text><text xml:space="preserve" font-family="SourceSansPro-Regular,Source Sans Pro" font-size="42.0" fill="#FEFFFF" transform="matrix(1.00, 0.00, -0.00, -1.00, 266.6, 69.2)">E</text><text xml:space="preserve" font-family="SourceSansPro-Regular,Source Sans Pro" font-size="42.0" fill="#FEFFFF" transform="matrix(1.00, 0.00, -0.00, -1.00, 288.7, 69.2)">S</text><text xml:space="preserve" font-family="SourceSansPro-Regular,Source Sans Pro" font-size="42.0" fill="#FEFFFF" transform="matrix(1.00, 0.00, -0.00, -1.00, 310.3, 69.2)">T</text><text xml:space="preserve" font-family="SourceSansPro-Regular,Source Sans Pro" font-size="42.0" fill="#FEFFFF" transform="matrix(1.00, 0.00, -0.00, -1.00, 332.8, 69.2)"> </text><text xml:space="preserve" font-family="SourceSansPro-Regular,Source Sans Pro" font-size="31.5" fill="#FEFFFF" transform="matrix(1.00, 0.00, -0.00, -1.00, 5.5, 20.4)">•</text><text xml:space="preserve" font-family="SourceSansPro-Regular,Source Sans Pro" font-size="42.0" fill="#FEFFFF" transform="matrix(1.00, 0.00, -0.00, -1.00, 50.1, 17.2)">e</text><text xml:space="preserve" font-family="SourceSansPro-Regular,Source Sans Pro" font-size="42.0" fill="#FEFFFF" transform="matrix(1.00, 0.00, -0.00, -1.00, 71.0, 17.2)">.</text><text xml:space="preserve" font-family="SourceSansPro-Regular,Source Sans Pro" font-size="42.0" fill="#FEFFFF" transform="matrix(1.00, 0.00, -0.00, -1.00, 81.4, 17.2)">g</text><text xml:space="preserve" font-family="SourceSansPro-Regular,Source Sans Pro" font-size="42.0" fill="#FEFFFF" transform="matrix(1.00, 0.00, -0.00, -1.00, 102.6, 17.2)">.</text><text xml:space="preserve" font-family="SourceSansPro-Regular,Source Sans Pro" font-size="42.0" fill="#FEFFFF" transform="matrix(1.00, 0.00, -0.00, -1.00, 113.0, 17.2)"> </text><text xml:space="preserve" font-family="SourceSansPro-Regular,Source Sans Pro" font-size="42.0" fill="#FEFFFF" transform="matrix(1.00, 0.00, -0.00, -1.00, 121.5, 17.2)">B</text><text xml:space="preserve" font-family="SourceSansPro-Regular,Source Sans Pro" font-size="42.0" fill="#FEFFFF" transform="matrix(1.00, 0.00, -0.00, -1.00, 146.2, 17.2)">a</text><text xml:space="preserve" font-family="SourceSansPro-Regular,Source Sans Pro" font-size="42.0" fill="#FEFFFF" transform="matrix(1.00, 0.00, -0.00, -1.00, 167.7, 17.2)">c</text><text xml:space="preserve" font-family="SourceSansPro-Regular,Source Sans Pro" font-size="42.0" fill="#FEFFFF" transform="matrix(1.00, 0.00, -0.00, -1.00, 186.9, 17.2)">k</text><text xml:space="preserve" font-family="SourceSansPro-Regular,Source Sans Pro" font-size="42.0" fill="#FEFFFF" transform="matrix(1.00, 0.00, -0.00, -1.00, 207.7, 17.2)">b</text><text xml:space="preserve" font-family="SourceSansPro-Regular,Source Sans Pro" font-size="42.0" fill="#FEFFFF" transform="matrix(1.00, 0.00, -0.00, -1.00, 231.0, 17.2)">o</text><text xml:space="preserve" font-family="SourceSansPro-Regular,Source Sans Pro" font-size="42.0" fill="#FEFFFF" transform="matrix(1.00, 0.00, -0.00, -1.00, 253.7, 17.2)">n</text><text xml:space="preserve" font-family="SourceSansPro-Regular,Source Sans Pro" font-size="42.0" fill="#FEFFFF" transform="matrix(1.00, 0.00, -0.00, -1.00, 276.7, 17.2)">e</text><text xml:space="preserve" font-family="SourceSansPro-Regular,Source Sans Pro" font-size="42.0" fill="#FEFFFF" transform="matrix(1.00, 0.00, -0.00, -1.00, 297.5, 17.2)">,</text><text xml:space="preserve" font-family="SourceSansPro-Regular,Source Sans Pro" font-size="42.0" fill="#FEFFFF" transform="matrix(1.00, 0.00, -0.00, -1.00, 308.0, 17.2)"> </text><text xml:space="preserve" font-family="SourceSansPro-Regular,Source Sans Pro" font-size="42.0" fill="#FEFFFF" transform="matrix(1.00, 0.00, -0.00, -1.00, 316.5, 17.2)">E</text><text xml:space="preserve" font-family="SourceSansPro-Regular,Source Sans Pro" font-size="42.0" fill="#FEFFFF" transform="matrix(1.00, 0.00, -0.00, -1.00, 338.6, 17.2)">m</text><text xml:space="preserve" font-family="SourceSansPro-Regular,Source Sans Pro" font-size="42.0" fill="#FEFFFF" transform="matrix(1.00, 0.00, -0.00, -1.00, 373.4, 17.2)">b</text><text xml:space="preserve" font-family="SourceSansPro-Regular,Source Sans Pro" font-size="42.0" fill="#FEFFFF" transform="matrix(1.00, 0.00, -0.00, -1.00, 396.7, 17.2)">e</text><text xml:space="preserve" font-family="SourceSansPro-Regular,Source Sans Pro" font-size="42.0" fill="#FEFFFF" transform="matrix(1.00, 0.00, -0.00, -1.00, 417.6, 17.2)">r</text></g></g></g></svg>