<?xml version="1.0" encoding="UTF-8" standalone="no"?><svg xmlns="http://www.w3.org/2000/svg" xmlns:xlink="http://www.w3.org/1999/xlink" clip-rule="evenodd" stroke-miterlimit="10" viewBox="0 0 520 576"><desc>SVG generated by Keynote</desc><defs></defs><g transform="matrix(1.00, 0.00, -0.00, -1.00, 0.0, 576.0)"><g><clipPath id="clip0x7fda9b7bb440"><path d="M 118.0 574.0 L 402.0 574.0 L 402.0 174.0 L 118.0 174.0 Z M 117.8 573.7 "></path></clipPath><g clip-path="url(#clip0x7fda9b7bb440)"><g><clipPath id="clip0x7fda9b7b9cf0"><path d="M 311.7 573.7 C 303.1 574.1 292.6 572.5 289.5 569.9 C 288.7 569.3 287.0 568.8 285.7 568.8 C 284.4 568.8 283.3 568.4 283.3 567.9 C 283.3 567.4 282.2 565.9 280.9 564.6 C 279.6 563.3 278.5 562.6 278.5 562.9 C 278.5 563.2 276.2 560.6 273.4 557.2 C 270.6 553.7 266.9 550.2 265.2 549.3 C 260.8 547.0 255.1 538.6 255.1 534.4 C 255.1 533.6 255.2 532.8 255.3 532.2 C 255.3 532.1 255.3 532.0 255.4 531.9 C 255.5 531.4 255.6 530.9 255.8 530.8 C 256.2 530.6 256.7 528.8 257.0 526.9 C 257.3 525.1 258.4 521.7 259.5 519.5 C 260.6 517.2 261.5 515.0 261.5 514.4 C 261.6 513.8 262.5 511.6 263.5 509.5 C 264.9 506.9 265.2 504.6 265.3 500.4 C 265.4 498.8 265.5 497.2 265.5 495.4 C 265.5 495.2 265.5 494.9 265.5 494.7 C 265.6 489.4 266.0 486.8 267.2 484.2 C 269.5 479.2 272.9 476.2 277.5 475.0 L 281.0 474.0 L 282.0 470.4 C 282.1 468.4 281.3 466.5 280.9 466.3 C 280.5 466.0 275.0 465.6 268.7 465.3 C 262.3 465.1 256.7 464.5 256.1 464.0 C 255.6 463.6 255.1 462.0 255.1 460.5 C 255.1 457.1 253.7 453.5 252.7 454.2 C 252.2 454.5 248.6 451.5 244.6 447.6 C 240.6 443.7 236.6 440.2 235.8 439.9 C 234.9 439.6 233.9 438.6 233.4 437.7 C 231.9 434.8 224.3 429.9 220.2 429.0 C 216.5 428.2 216.2 428.2 215.6 430.0 C 214.7 432.4 212.4 433.6 209.0 433.6 C 205.6 433.6 204.3 434.8 204.3 438.0 C 204.3 441.2 201.8 446.4 199.1 448.9 C 197.2 450.7 196.2 450.9 191.1 450.9 C 186.0 450.9 184.9 450.6 180.8 448.1 C 168.4 440.5 167.2 440.0 161.3 439.3 C 140.1 436.5 122.4 430.6 118.4 424.9 C 117.1 423.1 117.9 415.9 120.1 409.9 C 121.5 405.9 121.4 406.6 124.0 394.1 C 129.3 368.5 131.0 360.2 132.5 357.0 C 133.0 356.4 133.4 355.9 134.1 355.3 C 134.3 355.2 134.4 355.0 134.6 354.9 C 134.8 354.8 135.1 354.6 135.5 354.5 C 136.8 354.0 137.4 352.8 138.2 349.2 C 139.9 340.6 140.6 339.2 143.7 337.9 C 154.7 333.3 177.8 336.7 189.8 343.7 C 189.9 343.7 190.0 343.8 190.0 343.8 C 190.1 343.8 190.1 343.9 190.1 343.9 C 191.8 344.9 193.2 345.9 194.4 347.1 C 196.7 349.4 197.1 350.3 197.0 353.6 C 197.0 355.7 196.7 359.0 196.3 361.0 C 195.7 363.7 195.8 364.9 196.6 365.8 C 199.0 368.5 199.3 371.0 198.2 378.3 C 197.5 382.3 197.2 385.9 197.4 386.5 C 197.6 387.0 199.2 387.6 201.0 387.9 C 202.7 388.2 205.2 388.8 206.5 389.4 C 209.5 390.6 210.5 390.8 214.8 391.4 C 217.1 391.7 219.2 392.6 220.6 393.9 C 222.1 395.3 223.9 396.0 226.3 396.2 C 228.2 396.3 230.4 396.6 231.3 396.8 C 232.2 397.0 235.4 397.4 238.4 397.7 C 242.9 398.2 243.9 398.1 244.3 397.0 C 244.5 396.3 243.9 390.4 242.9 383.8 C 240.8 370.4 240.7 364.7 242.5 362.7 C 243.4 361.7 243.7 359.9 243.4 355.3 C 243.1 348.4 243.6 345.7 245.0 345.7 C 246.6 345.7 248.1 343.5 247.4 342.3 C 247.0 341.7 246.7 340.7 246.6 340.1 C 246.5 339.4 246.1 337.4 245.6 335.6 C 244.6 332.1 244.0 316.7 244.8 315.4 C 245.0 315.0 245.5 313.4 245.8 311.8 C 246.2 310.3 247.0 308.4 247.6 307.6 C 248.3 306.9 248.7 305.7 248.4 305.1 C 248.2 304.4 248.4 303.7 249.0 303.5 C 249.7 303.2 250.0 302.2 249.9 300.8 C 249.7 299.5 249.5 291.2 249.4 282.2 C 249.2 264.0 249.0 263.4 244.0 261.8 C 238.9 260.1 239.0 260.3 239.0 247.8 L 239.0 236.0 L 241.2 235.0 C 242.4 234.5 245.1 234.3 247.0 234.0 C 249.0 233.7 252.5 233.0 254.7 232.4 C 256.9 231.8 261.3 230.7 264.4 230.0 C 267.5 229.3 272.9 228.0 276.3 227.1 C 284.0 225.2 286.7 225.2 290.0 226.8 C 292.4 228.1 292.5 228.1 293.9 226.2 C 294.7 225.2 295.4 223.9 295.4 223.4 C 295.4 222.9 296.0 222.3 296.7 222.0 C 297.4 221.7 297.8 221.2 297.5 220.8 C 296.6 219.4 304.3 213.3 312.9 208.6 C 314.1 207.9 327.5 199.6 336.8 193.8 C 344.9 188.9 348.4 186.8 357.5 181.1 L 367.2 175.1 C 367.5 175.0 367.8 175.1 368.1 175.0 L 376.9 174.0 C 386.5 173.3 389.0 173.8 389.0 176.2 C 389.0 176.9 389.5 182.6 390.2 188.8 C 391.8 203.8 392.1 206.7 393.0 216.7 C 393.3 220.2 394.6 232.5 395.8 243.7 C 396.1 247.2 396.2 248.6 396.6 252.1 C 398.2 267.0 399.6 281.2 399.9 283.6 C 400.6 291.7 401.9 304.1 402.3 307.3 C 402.7 310.5 402.6 310.7 394.5 318.8 C 386.9 326.4 386.3 327.2 387.1 328.9 C 389.4 333.6 389.7 342.0 387.6 344.2 C 386.9 345.0 386.6 345.7 386.9 345.7 C 387.6 345.7 382.7 352.1 380.9 353.5 C 380.2 354.1 380.0 354.5 380.4 354.5 C 380.8 354.5 380.7 355.1 380.2 355.7 C 379.1 356.9 380.3 358.3 381.6 357.4 C 383.3 356.4 389.5 382.2 391.0 396.2 C 391.7 402.2 390.5 407.3 385.5 418.7 C 384.3 421.3 383.2 424.6 383.1 425.9 C 383.0 427.2 382.3 428.9 381.5 429.7 C 380.8 430.5 379.9 432.1 379.6 433.4 C 379.3 434.6 378.6 436.2 378.0 436.9 C 377.3 437.6 377.1 438.8 377.4 439.7 C 377.8 440.6 377.6 440.9 377.1 440.6 C 376.6 440.3 375.8 440.6 375.3 441.2 C 374.7 441.9 374.5 442.5 374.9 442.5 C 375.2 442.5 374.9 443.2 374.1 444.0 C 373.2 445.0 372.8 446.3 373.1 447.3 C 373.4 448.5 373.2 448.9 372.5 448.6 C 371.9 448.4 370.6 449.1 369.6 450.2 C 368.6 451.2 367.2 452.1 366.6 452.1 C 365.1 452.1 363.5 456.0 364.6 457.1 C 365.5 458.0 365.3 458.5 363.0 463.0 L 361.7 465.0 L 349.9 466.0 C 343.4 466.1 337.9 465.9 337.6 466.2 C 337.3 466.5 336.9 467.7 336.8 468.8 C 336.4 471.2 340.0 475.5 342.3 475.5 C 344.2 475.5 348.4 479.1 350.6 482.7 C 352.2 485.3 352.5 487.0 352.9 496.1 C 353.2 505.1 353.6 507.3 355.5 511.8 C 356.7 514.6 357.8 517.4 357.9 518.0 C 357.9 518.0 357.9 518.0 357.9 518.1 C 357.9 518.1 357.9 518.2 357.9 518.3 C 357.7 518.6 358.4 519.5 359.4 520.4 C 359.5 520.6 359.6 520.7 359.7 520.9 C 360.8 522.1 361.5 524.2 361.8 527.1 C 361.9 527.9 362.0 528.5 362.1 529.4 C 362.2 529.6 362.2 529.9 362.2 530.1 C 362.4 531.7 362.6 533.5 362.8 534.5 C 363.7 539.7 358.7 546.7 351.1 550.7 C 349.1 551.8 347.1 553.4 346.6 554.4 C 345.6 556.4 337.2 565.8 336.4 565.8 C 336.1 565.8 334.2 567.0 332.1 568.3 C 330.1 569.7 327.4 570.9 326.2 571.1 C 325.0 571.2 321.9 571.9 319.2 572.7 C 317.2 573.2 314.5 573.6 311.7 573.7 Z M 311.7 573.7 "></path></clipPath><g clip-path="url(#clip0x7fda9b7b9cf0)"><g><clipPath id="clip0x7fda9b7bd780"><path d="M 115.8 171.8 L 404.5 171.8 L 404.5 575.7 L 115.8 575.7 Z M 115.8 171.8 "></path></clipPath><g clip-path="url(#clip0x7fda9b7bd780)"><image xlink:href="BA8B385A69A8B2CC944AF9F33A00930E.png" width="600.00" height="600.00" transform="matrix(0.81, 0.00, -0.00, -0.81, 18.8, 617.4)"></image></g></g></g></g></g></g><g><clipPath id="clip0x7fda9b856470"><path d="M 115.8 171.8 L 404.5 171.8 L 404.5 575.7 L 115.8 575.7 Z M 115.8 171.8 "></path></clipPath><g clip-path="url(#clip0x7fda9b856470)"><path d="M 193.9 0.1 C 185.3 -0.3 174.8 1.2 171.7 3.8 C 170.9 4.5 169.2 5.0 167.9 5.0 C 166.6 5.0 165.6 5.4 165.6 5.9 C 165.6 6.4 164.5 7.9 163.1 9.1 C 161.8 10.4 160.7 11.2 160.7 10.9 C 160.7 10.6 158.4 13.1 155.6 16.5 C 152.8 20.0 149.2 23.5 147.4 24.4 C 143.0 26.7 137.3 35.2 137.3 39.4 C 137.3 40.2 137.4 41.0 137.5 41.6 C 137.6 41.7 137.6 41.8 137.6 41.8 C 137.7 42.4 137.9 42.8 138.0 42.9 C 138.4 43.1 138.9 44.9 139.2 46.8 C 139.5 48.7 140.6 52.1 141.7 54.3 C 142.8 56.5 143.7 58.8 143.8 59.3 C 143.8 59.9 144.7 62.1 145.8 64.2 C 147.1 66.9 147.4 69.2 147.5 73.3 C 147.7 74.9 147.7 76.6 147.8 78.3 C 147.8 78.6 147.8 78.8 147.8 79.1 C 147.8 84.4 148.2 86.9 149.4 89.5 C 151.7 94.5 155.1 97.5 159.7 98.6 L 163.5 99.6 L 163.7 103.3 C 163.8 105.4 163.6 107.2 163.2 107.5 C 162.8 107.7 157.2 108.1 150.9 108.4 C 144.5 108.7 138.9 109.3 138.3 109.7 C 137.8 110.2 137.3 111.7 137.3 113.2 C 137.3 116.6 135.9 120.2 134.9 119.6 C 134.4 119.3 130.8 122.3 126.8 126.2 C 122.8 130.1 118.8 133.6 118.0 133.9 C 117.2 134.2 116.1 135.2 115.6 136.1 C 114.1 138.9 106.5 143.9 102.4 144.8 C 98.7 145.6 98.5 145.5 97.8 143.8 C 96.9 141.4 94.7 140.2 91.2 140.2 C 87.8 140.2 86.5 139.0 86.5 135.8 C 86.5 132.5 84.1 127.3 81.3 124.8 C 79.4 123.1 78.4 122.8 73.3 122.8 C 68.2 122.9 67.1 123.2 63.0 125.7 C 50.6 133.2 49.4 133.8 43.6 134.5 C 22.3 137.2 4.6 143.1 0.6 148.8 C -0.7 150.7 0.2 157.8 2.3 163.8 C 3.8 167.8 3.6 167.1 6.2 179.7 C 11.5 205.2 13.2 213.6 14.8 216.8 C 15.2 217.3 15.7 217.9 16.3 218.4 C 16.5 218.6 16.6 218.7 16.8 218.9 C 17.1 219.0 17.3 219.1 17.7 219.2 C 19.1 219.8 19.7 221.0 20.4 224.6 C 22.1 233.2 22.8 234.6 25.9 235.9 C 36.9 240.5 60.1 237.1 72.0 230.1 C 72.1 230.0 72.2 230.0 72.3 229.9 C 72.3 229.9 72.3 229.9 72.4 229.8 C 74.0 228.8 75.4 227.8 76.6 226.7 C 78.9 224.4 79.3 223.4 79.2 220.2 C 79.2 218.1 78.9 214.7 78.5 212.8 C 78.0 210.0 78.1 208.8 78.9 207.9 C 81.2 205.3 81.5 202.7 80.4 195.4 C 79.7 191.5 79.4 187.8 79.6 187.3 C 79.8 186.8 81.4 186.1 83.2 185.8 C 85.0 185.5 87.4 184.9 88.7 184.4 C 91.7 183.1 92.7 182.9 97.0 182.4 C 99.3 182.1 101.4 181.2 102.8 179.8 C 104.4 178.4 106.1 177.7 108.5 177.6 C 110.4 177.4 112.6 177.2 113.5 177.0 C 114.4 176.8 117.6 176.4 120.6 176.1 C 125.1 175.6 126.1 175.7 126.5 176.7 C 126.8 177.4 126.1 183.4 125.1 189.9 C 123.0 203.4 122.9 209.1 124.7 211.0 C 125.6 212.0 125.9 213.9 125.7 218.4 C 125.3 225.3 125.8 228.1 127.2 228.1 C 128.8 228.1 130.3 230.3 129.6 231.4 C 129.2 232.0 128.9 233.0 128.8 233.7 C 128.7 234.4 128.3 236.4 127.8 238.1 C 126.8 241.7 126.2 257.0 127.0 258.3 C 127.2 258.8 127.7 260.4 128.1 261.9 C 128.4 263.5 129.2 265.4 129.8 266.1 C 130.5 266.9 130.9 268.0 130.6 268.7 C 130.4 269.3 130.6 270.1 131.2 270.3 C 131.9 270.5 132.3 271.6 132.1 273.0 C 131.9 274.2 131.7 282.6 131.6 291.6 C 131.4 309.7 131.3 310.4 126.2 312.0 C 121.2 313.6 121.2 313.5 121.2 325.9 L 121.2 337.3 L 123.4 338.3 C 124.6 338.8 127.3 339.5 129.3 339.8 C 131.3 340.1 134.7 340.8 136.9 341.3 C 139.2 341.9 143.5 343.0 146.6 343.7 C 149.7 344.4 155.1 345.8 158.6 346.6 C 166.2 348.6 168.9 348.6 172.2 346.9 C 174.6 345.7 174.7 345.7 176.1 347.5 C 176.9 348.5 177.6 349.8 177.6 350.3 C 177.6 350.9 178.2 351.5 178.9 351.8 C 179.6 352.0 180.0 352.6 179.8 352.9 C 178.9 354.4 186.5 360.4 195.1 365.2 C 196.3 365.9 209.7 374.2 219.1 379.9 C 227.1 384.9 230.7 387.0 239.8 392.6 L 249.4 398.6 C 249.7 398.7 250.0 398.8 250.3 398.9 L 259.1 399.6 C 268.7 400.3 271.2 399.9 271.2 397.6 C 271.2 396.8 271.7 391.1 272.4 384.9 C 274.0 370.0 274.3 367.1 275.2 357.1 C 275.5 353.5 276.8 341.2 278.0 330.1 C 278.3 326.6 278.4 325.1 278.8 321.6 C 280.4 306.7 281.8 292.6 282.1 290.2 C 282.8 282.1 284.1 269.6 284.5 266.4 C 284.9 263.3 284.8 263.1 276.7 254.9 C 269.1 247.3 268.5 246.5 269.3 244.8 C 271.6 240.1 271.9 231.8 269.8 229.5 C 269.1 228.7 268.8 228.1 269.1 228.1 C 269.8 228.1 264.9 221.7 263.1 220.2 C 262.5 219.7 262.2 219.2 262.6 219.2 C 263.0 219.2 262.9 218.7 262.4 218.1 C 261.4 216.8 262.5 215.5 263.8 216.3 C 265.5 217.3 271.7 191.5 273.2 177.5 C 273.9 171.5 272.7 166.5 267.7 155.1 C 266.5 152.4 265.5 149.2 265.3 147.8 C 265.2 146.5 264.5 144.8 263.8 144.0 C 263.0 143.2 262.1 141.6 261.8 140.4 C 261.6 139.1 260.8 137.6 260.2 136.9 C 259.5 136.1 259.3 134.9 259.6 134.1 C 260.0 133.2 259.9 132.8 259.3 133.2 C 258.8 133.4 258.0 133.2 257.5 132.5 C 256.9 131.8 256.7 131.3 257.1 131.3 C 257.4 131.3 257.1 130.6 256.3 129.7 C 255.4 128.8 255.0 127.5 255.3 126.4 C 255.6 125.2 255.4 124.8 254.7 125.1 C 254.1 125.3 252.8 124.7 251.8 123.6 C 250.8 122.5 249.5 121.6 248.9 121.6 C 247.3 121.6 245.7 117.8 246.8 116.7 C 247.7 115.8 247.6 115.3 245.2 110.8 L 243.9 108.4 L 232.1 108.2 C 225.6 108.2 220.1 107.8 219.8 107.6 C 219.5 107.3 219.1 106.1 219.0 104.9 C 218.6 102.5 222.2 98.2 224.5 98.2 C 226.4 98.2 230.6 94.6 232.9 91.0 C 234.5 88.5 234.7 86.7 235.1 77.7 C 235.5 68.6 235.8 66.5 237.7 62.0 C 238.9 59.1 240.0 56.4 240.1 55.8 C 240.1 55.8 240.1 55.7 240.1 55.7 C 240.1 55.7 240.2 55.5 240.2 55.5 C 239.9 55.2 240.6 54.2 241.6 53.4 C 241.7 53.2 241.8 53.1 241.9 52.9 C 243.1 51.7 243.8 49.6 244.1 46.6 C 244.1 45.9 244.2 45.2 244.3 44.3 C 244.4 44.1 244.4 43.9 244.4 43.7 C 244.6 42.1 244.8 40.2 245.0 39.3 C 246.0 34.0 240.9 27.0 233.3 23.0 C 231.3 21.9 229.3 20.3 228.8 19.4 C 227.8 17.3 219.4 8.0 218.6 7.9 C 218.3 7.9 216.4 6.8 214.3 5.4 C 212.3 4.0 209.6 2.8 208.4 2.7 C 207.2 2.6 204.1 1.8 201.4 1.1 C 199.4 0.5 196.7 0.2 193.9 0.1 Z M 193.9 0.1 " fill="none" stroke="#FEFFFE" stroke-width="4.00" transform="matrix(1.00, 0.00, 0.00, -1.00, 117.8, 573.7)"></path></g></g><g><clipPath id="clip0x7fda9b835790"><path d="M -7.4 -7.4 L 527.7 -7.4 L 527.7 175.0 L -7.4 175.0 Z M -7.4 -7.4 "></path></clipPath><g clip-path="url(#clip0x7fda9b835790)"><text xml:space="preserve" font-family="SourceSansPro-Regular,Source Sans Pro" font-size="31.5" fill="#FEFFFF" transform="matrix(1.00, 0.00, -0.00, -1.00, 5.8, 124.4)">•</text><text xml:space="preserve" font-family="SourceSansPro-Regular,Source Sans Pro" font-size="42.0" fill="#FEFFFF" transform="matrix(1.00, 0.00, -0.00, -1.00, 43.3, 121.2)">r</text><text xml:space="preserve" font-family="SourceSansPro-Regular,Source Sans Pro" font-size="42.0" fill="#FEFFFF" transform="matrix(1.00, 0.00, -0.00, -1.00, 57.4, 121.2)">e</text><text xml:space="preserve" font-family="SourceSansPro-Regular,Source Sans Pro" font-size="42.0" fill="#FEFFFF" transform="matrix(1.00, 0.00, -0.00, -1.00, 78.2, 121.2)">n</text><text xml:space="preserve" font-family="SourceSansPro-Regular,Source Sans Pro" font-size="42.0" fill="#FEFFFF" transform="matrix(1.00, 0.00, -0.00, -1.00, 101.2, 121.2)">d</text><text xml:space="preserve" font-family="SourceSansPro-Regular,Source Sans Pro" font-size="42.0" fill="#FEFFFF" transform="matrix(1.00, 0.00, -0.00, -1.00, 124.5, 121.2)">e</text><text xml:space="preserve" font-family="SourceSansPro-Regular,Source Sans Pro" font-size="42.0" fill="#FEFFFF" transform="matrix(1.00, 0.00, -0.00, -1.00, 145.4, 121.2)">r</text><text xml:space="preserve" font-family="SourceSansPro-Regular,Source Sans Pro" font-size="42.0" fill="#FEFFFF" transform="matrix(1.00, 0.00, -0.00, -1.00, 159.5, 121.2)">e</text><text xml:space="preserve" font-family="SourceSansPro-Regular,Source Sans Pro" font-size="42.0" fill="#FEFFFF" transform="matrix(1.00, 0.00, -0.00, -1.00, 180.3, 121.2)">d</text><text xml:space="preserve" font-family="SourceSansPro-Regular,Source Sans Pro" font-size="42.0" fill="#FEFFFF" transform="matrix(1.00, 0.00, -0.00, -1.00, 203.6, 121.2)"> </text><text xml:space="preserve" font-family="SourceSansPro-Regular,Source Sans Pro" font-size="42.0" fill="#FEFFFF" transform="matrix(1.00, 0.00, -0.00, -1.00, 212.1, 121.2)">o</text><text xml:space="preserve" font-family="SourceSansPro-Regular,Source Sans Pro" font-size="42.0" fill="#FEFFFF" transform="matrix(1.00, 0.00, -0.00, -1.00, 234.9, 121.2)">n</text><text xml:space="preserve" font-family="SourceSansPro-Regular,Source Sans Pro" font-size="42.0" fill="#FEFFFF" transform="matrix(1.00, 0.00, -0.00, -1.00, 257.9, 121.2)"> </text><text xml:space="preserve" font-family="SourceSansPro-Regular,Source Sans Pro" font-size="42.0" fill="#FEFFFF" transform="matrix(1.00, 0.00, -0.00, -1.00, 266.4, 121.2)">t</text><text xml:space="preserve" font-family="SourceSansPro-Regular,Source Sans Pro" font-size="42.0" fill="#FEFFFF" transform="matrix(1.00, 0.00, -0.00, -1.00, 280.6, 121.2)">h</text><text xml:space="preserve" font-family="SourceSansPro-Regular,Source Sans Pro" font-size="42.0" fill="#FEFFFF" transform="matrix(1.00, 0.00, -0.00, -1.00, 303.4, 121.2)">e</text><text xml:space="preserve" font-family="SourceSansPro-Regular,Source Sans Pro" font-size="42.0" fill="#FEFFFF" transform="matrix(1.00, 0.00, -0.00, -1.00, 324.2, 121.2)"> </text><text xml:space="preserve" font-family="SourceSansPro-Regular,Source Sans Pro" font-size="42.0" fill="#FEFFFF" transform="matrix(1.00, 0.00, -0.00, -1.00, 332.7, 121.2)">s</text><text xml:space="preserve" font-family="SourceSansPro-Regular,Source Sans Pro" font-size="42.0" fill="#FEFFFF" transform="matrix(1.00, 0.00, -0.00, -1.00, 350.3, 121.2)">e</text><text xml:space="preserve" font-family="SourceSansPro-Regular,Source Sans Pro" font-size="42.0" fill="#FEFFFF" transform="matrix(1.00, 0.00, -0.00, -1.00, 371.1, 121.2)">r</text><text xml:space="preserve" font-family="SourceSansPro-Regular,Source Sans Pro" font-size="42.0" fill="#FEFFFF" transform="matrix(1.00, 0.00, -0.00, -1.00, 386.5, 121.2)">v</text><text xml:space="preserve" font-family="SourceSansPro-Regular,Source Sans Pro" font-size="42.0" fill="#FEFFFF" transform="matrix(1.00, 0.00, -0.00, -1.00, 406.0, 121.2)">e</text><text xml:space="preserve" font-family="SourceSansPro-Regular,Source Sans Pro" font-size="42.0" fill="#FEFFFF" transform="matrix(1.00, 0.00, -0.00, -1.00, 426.8, 121.2)">r</text><text xml:space="preserve" font-family="SourceSansPro-Regular,Source Sans Pro" font-size="42.0" fill="#FEFFFF" transform="matrix(1.00, 0.00, -0.00, -1.00, 441.4, 121.2)"> </text><text xml:space="preserve" font-family="SourceSansPro-Regular,Source Sans Pro" font-size="31.5" fill="#FEFFFF" transform="matrix(1.00, 0.00, -0.00, -1.00, 5.8, 72.4)">•</text><text xml:space="preserve" font-family="SourceSansPro-Regular,Source Sans Pro" font-size="42.0" fill="#FEFFFF" transform="matrix(1.00, 0.00, -0.00, -1.00, 43.3, 69.2)">s</text><text xml:space="preserve" font-family="SourceSansPro-Regular,Source Sans Pro" font-size="42.0" fill="#FEFFFF" transform="matrix(1.00, 0.00, -0.00, -1.00, 60.8, 69.2)">e</text><text xml:space="preserve" font-family="SourceSansPro-Regular,Source Sans Pro" font-size="42.0" fill="#FEFFFF" transform="matrix(1.00, 0.00, -0.00, -1.00, 81.7, 69.2)">r</text><text xml:space="preserve" font-family="SourceSansPro-Regular,Source Sans Pro" font-size="42.0" fill="#FEFFFF" transform="matrix(1.00, 0.00, -0.00, -1.00, 97.1, 69.2)">v</text><text xml:space="preserve" font-family="SourceSansPro-Regular,Source Sans Pro" font-size="42.0" fill="#FEFFFF" transform="matrix(1.00, 0.00, -0.00, -1.00, 116.5, 69.2)">e</text><text xml:space="preserve" font-family="SourceSansPro-Regular,Source Sans Pro" font-size="42.0" fill="#FEFFFF" transform="matrix(1.00, 0.00, -0.00, -1.00, 137.3, 69.2)">s</text><text xml:space="preserve" font-family="SourceSansPro-Regular,Source Sans Pro" font-size="42.0" fill="#FEFFFF" transform="matrix(1.00, 0.00, -0.00, -1.00, 154.9, 69.2)"> </text><text xml:space="preserve" font-family="SourceSansPro-Regular,Source Sans Pro" font-size="42.0" fill="#FEFFFF" transform="matrix(1.00, 0.00, -0.00, -1.00, 163.4, 69.2)">H</text><text xml:space="preserve" font-family="SourceSansPro-Regular,Source Sans Pro" font-size="42.0" fill="#FEFFFF" transform="matrix(1.00, 0.00, -0.00, -1.00, 190.8, 69.2)">T</text><text xml:space="preserve" font-family="SourceSansPro-Regular,Source Sans Pro" font-size="42.0" fill="#FEFFFF" transform="matrix(1.00, 0.00, -0.00, -1.00, 213.3, 69.2)">M</text><text xml:space="preserve" font-family="SourceSansPro-Regular,Source Sans Pro" font-size="42.0" fill="#FEFFFF" transform="matrix(1.00, 0.00, -0.00, -1.00, 243.8, 69.2)">L</text><text xml:space="preserve" font-family="SourceSansPro-Regular,Source Sans Pro" font-size="42.0" fill="#FEFFFF" transform="matrix(1.00, 0.00, -0.00, -1.00, 264.3, 69.2)"> </text><text xml:space="preserve" font-family="SourceSansPro-Regular,Source Sans Pro" font-size="42.0" fill="#FEFFFF" transform="matrix(1.00, 0.00, -0.00, -1.00, 272.7, 69.2)">d</text><text xml:space="preserve" font-family="SourceSansPro-Regular,Source Sans Pro" font-size="42.0" fill="#FEFFFF" transform="matrix(1.00, 0.00, -0.00, -1.00, 296.0, 69.2)">o</text><text xml:space="preserve" font-family="SourceSansPro-Regular,Source Sans Pro" font-size="42.0" fill="#FEFFFF" transform="matrix(1.00, 0.00, -0.00, -1.00, 318.8, 69.2)">c</text><text xml:space="preserve" font-family="SourceSansPro-Regular,Source Sans Pro" font-size="42.0" fill="#FEFFFF" transform="matrix(1.00, 0.00, -0.00, -1.00, 338.0, 69.2)">u</text><text xml:space="preserve" font-family="SourceSansPro-Regular,Source Sans Pro" font-size="42.0" fill="#FEFFFF" transform="matrix(1.00, 0.00, -0.00, -1.00, 360.8, 69.2)">m</text><text xml:space="preserve" font-family="SourceSansPro-Regular,Source Sans Pro" font-size="42.0" fill="#FEFFFF" transform="matrix(1.00, 0.00, -0.00, -1.00, 395.6, 69.2)">e</text><text xml:space="preserve" font-family="SourceSansPro-Regular,Source Sans Pro" font-size="42.0" fill="#FEFFFF" transform="matrix(1.00, 0.00, -0.00, -1.00, 416.5, 69.2)">n</text><text xml:space="preserve" font-family="SourceSansPro-Regular,Source Sans Pro" font-size="42.0" fill="#FEFFFF" transform="matrix(1.00, 0.00, -0.00, -1.00, 439.4, 69.2)">t</text><text xml:space="preserve" font-family="SourceSansPro-Regular,Source Sans Pro" font-size="42.0" fill="#FEFFFF" transform="matrix(1.00, 0.00, -0.00, -1.00, 453.6, 69.2)"> </text><text xml:space="preserve" font-family="SourceSansPro-Regular,Source Sans Pro" font-size="31.5" fill="#FEFFFF" transform="matrix(1.00, 0.00, -0.00, -1.00, 5.8, 20.4)">•</text><text xml:space="preserve" font-family="SourceSansPro-Regular,Source Sans Pro" font-size="42.0" fill="#FEFFFF" transform="matrix(1.00, 0.00, -0.00, -1.00, 43.3, 17.2)">e</text><text xml:space="preserve" font-family="SourceSansPro-Regular,Source Sans Pro" font-size="42.0" fill="#FEFFFF" transform="matrix(1.00, 0.00, -0.00, -1.00, 64.1, 17.2)">.</text><text xml:space="preserve" font-family="SourceSansPro-Regular,Source Sans Pro" font-size="42.0" fill="#FEFFFF" transform="matrix(1.00, 0.00, -0.00, -1.00, 74.5, 17.2)">g</text><text xml:space="preserve" font-family="SourceSansPro-Regular,Source Sans Pro" font-size="42.0" fill="#FEFFFF" transform="matrix(1.00, 0.00, -0.00, -1.00, 95.7, 17.2)">.</text><text xml:space="preserve" font-family="SourceSansPro-Regular,Source Sans Pro" font-size="42.0" fill="#FEFFFF" transform="matrix(1.00, 0.00, -0.00, -1.00, 106.2, 17.2)"> </text><text xml:space="preserve" font-family="SourceSansPro-Regular,Source Sans Pro" font-size="42.0" fill="#FEFFFF" transform="matrix(1.00, 0.00, -0.00, -1.00, 114.7, 17.2)">s</text><text xml:space="preserve" font-family="SourceSansPro-Regular,Source Sans Pro" font-size="42.0" fill="#FEFFFF" transform="matrix(1.00, 0.00, -0.00, -1.00, 132.2, 17.2)">t</text><text xml:space="preserve" font-family="SourceSansPro-Regular,Source Sans Pro" font-size="42.0" fill="#FEFFFF" transform="matrix(1.00, 0.00, -0.00, -1.00, 145.7, 17.2)">a</text><text xml:space="preserve" font-family="SourceSansPro-Regular,Source Sans Pro" font-size="42.0" fill="#FEFFFF" transform="matrix(1.00, 0.00, -0.00, -1.00, 167.2, 17.2)">t</text><text xml:space="preserve" font-family="SourceSansPro-Regular,Source Sans Pro" font-size="42.0" fill="#FEFFFF" transform="matrix(1.00, 0.00, -0.00, -1.00, 181.4, 17.2)">i</text><text xml:space="preserve" font-family="SourceSansPro-Regular,Source Sans Pro" font-size="42.0" fill="#FEFFFF" transform="matrix(1.00, 0.00, -0.00, -1.00, 191.7, 17.2)">c</text><text xml:space="preserve" font-family="SourceSansPro-Regular,Source Sans Pro" font-size="42.0" fill="#FEFFFF" transform="matrix(1.00, 0.00, -0.00, -1.00, 210.9, 17.2)"> </text><text xml:space="preserve" font-family="SourceSansPro-Regular,Source Sans Pro" font-size="42.0" fill="#FEFFFF" transform="matrix(1.00, 0.00, -0.00, -1.00, 219.4, 17.2)">f</text><text xml:space="preserve" font-family="SourceSansPro-Regular,Source Sans Pro" font-size="42.0" fill="#FEFFFF" transform="matrix(1.00, 0.00, -0.00, -1.00, 231.6, 17.2)">i</text><text xml:space="preserve" font-family="SourceSansPro-Regular,Source Sans Pro" font-size="42.0" fill="#FEFFFF" transform="matrix(1.00, 0.00, -0.00, -1.00, 242.0, 17.2)">l</text><text xml:space="preserve" font-family="SourceSansPro-Regular,Source Sans Pro" font-size="42.0" fill="#FEFFFF" transform="matrix(1.00, 0.00, -0.00, -1.00, 252.7, 17.2)">e</text><text xml:space="preserve" font-family="SourceSansPro-Regular,Source Sans Pro" font-size="42.0" fill="#FEFFFF" transform="matrix(1.00, 0.00, -0.00, -1.00, 273.5, 17.2)">s</text><text xml:space="preserve" font-family="SourceSansPro-Regular,Source Sans Pro" font-size="42.0" fill="#FEFFFF" transform="matrix(1.00, 0.00, -0.00, -1.00, 291.1, 17.2)">,</text><text xml:space="preserve" font-family="SourceSansPro-Regular,Source Sans Pro" font-size="42.0" fill="#FEFFFF" transform="matrix(1.00, 0.00, -0.00, -1.00, 301.6, 17.2)"> </text><text xml:space="preserve" font-family="SourceSansPro-Regular,Source Sans Pro" font-size="42.0" fill="#FEFFFF" transform="matrix(1.00, 0.00, -0.00, -1.00, 310.0, 17.2)">P</text><text xml:space="preserve" font-family="SourceSansPro-Regular,Source Sans Pro" font-size="42.0" fill="#FEFFFF" transform="matrix(1.00, 0.00, -0.00, -1.00, 334.2, 17.2)">H</text><text xml:space="preserve" font-family="SourceSansPro-Regular,Source Sans Pro" font-size="42.0" fill="#FEFFFF" transform="matrix(1.00, 0.00, -0.00, -1.00, 361.6, 17.2)">P</text><text xml:space="preserve" font-family="SourceSansPro-Regular,Source Sans Pro" font-size="42.0" fill="#FEFFFF" transform="matrix(1.00, 0.00, -0.00, -1.00, 381.1, 17.2)">,</text><text xml:space="preserve" font-family="SourceSansPro-Regular,Source Sans Pro" font-size="42.0" fill="#FEFFFF" transform="matrix(1.00, 0.00, -0.00, -1.00, 391.6, 17.2)"> </text><text xml:space="preserve" font-family="SourceSansPro-Regular,Source Sans Pro" font-size="42.0" fill="#FEFFFF" transform="matrix(1.00, 0.00, -0.00, -1.00, 400.0, 17.2)">G</text><text xml:space="preserve" font-family="SourceSansPro-Regular,Source Sans Pro" font-size="42.0" fill="#FEFFFF" transform="matrix(1.00, 0.00, -0.00, -1.00, 426.0, 17.2)">S</text><text xml:space="preserve" font-family="SourceSansPro-Regular,Source Sans Pro" font-size="42.0" fill="#FEFFFF" transform="matrix(1.00, 0.00, -0.00, -1.00, 448.4, 17.2)">P</text></g></g></g></svg>