<?xml version="1.0" encoding="UTF-8" standalone="no"?><svg xmlns="http://www.w3.org/2000/svg" xmlns:xlink="http://www.w3.org/1999/xlink" clip-rule="evenodd" stroke-miterlimit="10" viewBox="0 0 648 82"><desc>SVG generated by Keynote</desc><defs><pattern id="patternP1" patternUnits="userSpaceOnUse" width="256" height="256" viewBox="0 0 256 256"><image xlink:href="8E13FF0D2A86B705C84DE77C8D855D85.png" width="256.00" height="256.00"></image></pattern></defs><g transform="matrix(1.00, 0.00, -0.00, -1.00, 0.0, 82.0)"><g><clipPath id="clip0x7fda82d6f050"><path d="M 60.7 80.0 C 52.4 80.5 46.0 73.8 46.0 65.5 L 46.0 54.3 L 1.2 39.3 L 46.0 24.3 L 46.0 17.0 C 46.0 8.7 52.4 2.0 60.7 2.0 L 631.5 2.0 C 639.8 2.0 646.0 8.7 646.0 17.0 L 646.0 65.5 C 646.0 73.8 639.8 80.0 631.5 80.0 L 60.7 80.0 Z M 60.7 80.5 "></path></clipPath><g clip-path="url(#clip0x7fda82d6f050)"><path d="M 1.2 2.0 L 646.0 2.0 L 646.0 80.5 L 1.2 80.5 Z M 1.2 2.0 " fill="url(#patternP1)"></path></g></g><g><clipPath id="clip0x7fda82d72320"><path d="M 36.6 -1.2 L 655.6 -1.2 L 655.6 82.7 L 36.6 82.7 Z M 36.6 -1.2 "></path></clipPath><g clip-path="url(#clip0x7fda82d72320)"><text xml:space="preserve" font-family="FiraSans-Regular,Fira Sans" font-size="36.0" fill="#FEFFFF" transform="matrix(1.00, 0.00, -0.00, -1.00, 77.3, 30.7)">I</text><text xml:space="preserve" font-family="FiraSans-Regular,Fira Sans" font-size="36.0" fill="#FEFFFF" transform="matrix(1.00, 0.00, -0.00, -1.00, 88.0, 30.7)">n</text><text xml:space="preserve" font-family="FiraSans-Regular,Fira Sans" font-size="36.0" fill="#FEFFFF" transform="matrix(1.00, 0.00, -0.00, -1.00, 109.1, 30.7)">j</text><text xml:space="preserve" font-family="FiraSans-Regular,Fira Sans" font-size="36.0" fill="#FEFFFF" transform="matrix(1.00, 0.00, -0.00, -1.00, 119.2, 30.7)">e</text><text xml:space="preserve" font-family="FiraSans-Regular,Fira Sans" font-size="36.0" fill="#FEFFFF" transform="matrix(1.00, 0.00, -0.00, -1.00, 139.0, 30.7)">c</text><text xml:space="preserve" font-family="FiraSans-Regular,Fira Sans" font-size="36.0" fill="#FEFFFF" transform="matrix(1.00, 0.00, -0.00, -1.00, 156.2, 30.7)">t</text><text xml:space="preserve" font-family="FiraSans-Regular,Fira Sans" font-size="36.0" fill="#FEFFFF" transform="matrix(1.00, 0.00, -0.00, -1.00, 168.8, 30.7)">e</text><text xml:space="preserve" font-family="FiraSans-Regular,Fira Sans" font-size="36.0" fill="#FEFFFF" transform="matrix(1.00, 0.00, -0.00, -1.00, 188.6, 30.7)">d</text><text xml:space="preserve" font-family="FiraSans-Regular,Fira Sans" font-size="36.0" fill="#FEFFFF" transform="matrix(1.00, 0.00, -0.00, -1.00, 210.1, 30.7)"> </text><text xml:space="preserve" font-family="FiraSans-Regular,Fira Sans" font-size="36.0" fill="#FEFFFF" transform="matrix(1.00, 0.00, -0.00, -1.00, 219.7, 30.7)">b</text><text xml:space="preserve" font-family="FiraSans-Regular,Fira Sans" font-size="36.0" fill="#FEFFFF" transform="matrix(1.00, 0.00, -0.00, -1.00, 240.7, 30.7)">y</text><text xml:space="preserve" font-family="FiraSans-Regular,Fira Sans" font-size="36.0" fill="#FEFFFF" transform="matrix(1.00, 0.00, -0.00, -1.00, 258.4, 30.7)"> </text><text xml:space="preserve" font-family="FiraSans-Regular,Fira Sans" font-size="36.0" fill="#FEFFFF" transform="matrix(1.00, 0.00, -0.00, -1.00, 268.0, 30.7)">a</text><text xml:space="preserve" font-family="FiraSans-Regular,Fira Sans" font-size="36.0" fill="#FEFFFF" transform="matrix(1.00, 0.00, -0.00, -1.00, 287.5, 30.7)">s</text><text xml:space="preserve" font-family="FiraSans-Regular,Fira Sans" font-size="36.0" fill="#FEFFFF" transform="matrix(1.00, 0.00, -0.00, -1.00, 304.3, 30.7)">s</text><text xml:space="preserve" font-family="FiraSans-Regular,Fira Sans" font-size="36.0" fill="#FEFFFF" transform="matrix(1.00, 0.00, -0.00, -1.00, 321.2, 30.7)">e</text><text xml:space="preserve" font-family="FiraSans-Regular,Fira Sans" font-size="36.0" fill="#FEFFFF" transform="matrix(1.00, 0.00, -0.00, -1.00, 341.0, 30.7)">t</text><text xml:space="preserve" font-family="FiraSans-Regular,Fira Sans" font-size="36.0" fill="#FEFFFF" transform="matrix(1.00, 0.00, -0.00, -1.00, 353.6, 30.7)">-</text><text xml:space="preserve" font-family="FiraSans-Regular,Fira Sans" font-size="36.0" fill="#FEFFFF" transform="matrix(1.00, 0.00, -0.00, -1.00, 368.1, 30.7)">p</text><text xml:space="preserve" font-family="FiraSans-Regular,Fira Sans" font-size="36.0" fill="#FEFFFF" transform="matrix(1.00, 0.00, -0.00, -1.00, 389.5, 30.7)">i</text><text xml:space="preserve" font-family="FiraSans-Regular,Fira Sans" font-size="36.0" fill="#FEFFFF" transform="matrix(1.00, 0.00, -0.00, -1.00, 399.6, 30.7)">p</text><text xml:space="preserve" font-family="FiraSans-Regular,Fira Sans" font-size="36.0" fill="#FEFFFF" transform="matrix(1.00, 0.00, -0.00, -1.00, 421.0, 30.7)">e</text><text xml:space="preserve" font-family="FiraSans-Regular,Fira Sans" font-size="36.0" fill="#FEFFFF" transform="matrix(1.00, 0.00, -0.00, -1.00, 440.8, 30.7)">l</text><text xml:space="preserve" font-family="FiraSans-Regular,Fira Sans" font-size="36.0" fill="#FEFFFF" transform="matrix(1.00, 0.00, -0.00, -1.00, 451.4, 30.7)">i</text><text xml:space="preserve" font-family="FiraSans-Regular,Fira Sans" font-size="36.0" fill="#FEFFFF" transform="matrix(1.00, 0.00, -0.00, -1.00, 461.5, 30.7)">n</text><text xml:space="preserve" font-family="FiraSans-Regular,Fira Sans" font-size="36.0" fill="#FEFFFF" transform="matrix(1.00, 0.00, -0.00, -1.00, 482.6, 30.7)">e</text><text xml:space="preserve" font-family="FiraSans-Regular,Fira Sans" font-size="36.0" fill="#FEFFFF" transform="matrix(1.00, 0.00, -0.00, -1.00, 502.4, 30.7)"> </text><text xml:space="preserve" font-family="FiraSans-Regular,Fira Sans" font-size="36.0" fill="#FEFFFF" transform="matrix(1.00, 0.00, -0.00, -1.00, 512.0, 30.7)">p</text><text xml:space="preserve" font-family="FiraSans-Regular,Fira Sans" font-size="36.0" fill="#FEFFFF" transform="matrix(1.00, 0.00, -0.00, -1.00, 533.3, 30.7)">l</text><text xml:space="preserve" font-family="FiraSans-Regular,Fira Sans" font-size="36.0" fill="#FEFFFF" transform="matrix(1.00, 0.00, -0.00, -1.00, 543.9, 30.7)">u</text><text xml:space="preserve" font-family="FiraSans-Regular,Fira Sans" font-size="36.0" fill="#FEFFFF" transform="matrix(1.00, 0.00, -0.00, -1.00, 564.8, 30.7)">g</text><text xml:space="preserve" font-family="FiraSans-Regular,Fira Sans" font-size="36.0" fill="#FEFFFF" transform="matrix(1.00, 0.00, -0.00, -1.00, 583.6, 30.7)">i</text><text xml:space="preserve" font-family="FiraSans-Regular,Fira Sans" font-size="36.0" fill="#FEFFFF" transform="matrix(1.00, 0.00, -0.00, -1.00, 593.7, 30.7)">n</text></g></g></g></svg>