<?xml version="1.0" encoding="UTF-8" standalone="no"?><svg xmlns="http://www.w3.org/2000/svg" xmlns:xlink="http://www.w3.org/1999/xlink" clip-rule="evenodd" stroke-miterlimit="10" viewBox="0 0 394 243"><desc>SVG generated by Keynote</desc><defs><pattern id="patternP1" patternUnits="userSpaceOnUse" width="256" height="256" viewBox="0 0 256 256"><image xlink:href="../../CB4EAC8E-8850-4736-B759-79FBA24E8723/assets/8E13FF0D2A86B705C84DE77C8D855D85.png" width="256.00" height="256.00"></image></pattern></defs><g transform="matrix(1.00, 0.00, -0.00, -1.00, 0.0, 243.0)"><g><clipPath id="clip0x7fdaa28c11f0"><path d="M 55.4 241.0 C 47.1 241.5 40.0 234.8 40.0 226.5 L 40.0 84.9 L 1.9 69.9 L 40.0 54.9 L 40.0 16.6 C 40.0 8.3 47.1 2.0 55.4 2.0 L 377.9 2.0 C 386.2 2.0 393.0 8.3 393.0 16.6 L 393.0 226.5 C 393.0 234.8 386.2 241.0 377.9 241.0 L 55.4 241.0 Z M 55.4 241.5 "></path></clipPath><g clip-path="url(#clip0x7fdaa28c11f0)"><path d="M 1.9 2.0 L 393.0 2.0 L 393.0 241.5 L 1.9 241.5 Z M 1.9 2.0 " fill="url(#patternP1)"></path></g></g><g><clipPath id="clip0x7fdaa28c55e0"><path d="M 30.5 -4.1 L 402.8 -4.1 L 402.8 247.8 L 30.5 247.8 Z M 30.5 -4.1 "></path></clipPath><g clip-path="url(#clip0x7fdaa28c55e0)"><text xml:space="preserve" font-family="FiraSans-Regular,Fira Sans" font-size="36.0" fill="#FEFFFF" transform="matrix(1.00, 0.00, -0.00, -1.00, 58.8, 195.9)">L</text><text xml:space="preserve" font-family="FiraSans-Regular,Fira Sans" font-size="36.0" fill="#FEFFFF" transform="matrix(1.00, 0.00, -0.00, -1.00, 76.7, 195.9)">o</text><text xml:space="preserve" font-family="FiraSans-Regular,Fira Sans" font-size="36.0" fill="#FEFFFF" transform="matrix(1.00, 0.00, -0.00, -1.00, 97.7, 195.9)">a</text><text xml:space="preserve" font-family="FiraSans-Regular,Fira Sans" font-size="36.0" fill="#FEFFFF" transform="matrix(1.00, 0.00, -0.00, -1.00, 117.3, 195.9)">d</text><text xml:space="preserve" font-family="FiraSans-Regular,Fira Sans" font-size="36.0" fill="#FEFFFF" transform="matrix(1.00, 0.00, -0.00, -1.00, 138.8, 195.9)"> </text><text xml:space="preserve" font-family="FiraSans-Regular,Fira Sans" font-size="36.0" fill="#FEFFFF" transform="matrix(1.00, 0.00, -0.00, -1.00, 148.4, 195.9)">t</text><text xml:space="preserve" font-family="FiraSans-Regular,Fira Sans" font-size="36.0" fill="#FEFFFF" transform="matrix(1.00, 0.00, -0.00, -1.00, 161.4, 195.9)">h</text><text xml:space="preserve" font-family="FiraSans-Regular,Fira Sans" font-size="36.0" fill="#FEFFFF" transform="matrix(1.00, 0.00, -0.00, -1.00, 182.5, 195.9)">e</text><text xml:space="preserve" font-family="FiraSans-Regular,Fira Sans" font-size="36.0" fill="#FEFFFF" transform="matrix(1.00, 0.00, -0.00, -1.00, 202.3, 195.9)"> </text><text xml:space="preserve" font-family="FiraSans-Regular,Fira Sans" font-size="36.0" fill="#FEFFFF" transform="matrix(1.00, 0.00, -0.00, -1.00, 211.8, 195.9)">J</text><text xml:space="preserve" font-family="FiraSans-Regular,Fira Sans" font-size="36.0" fill="#FEFFFF" transform="matrix(1.00, 0.00, -0.00, -1.00, 222.8, 195.9)">a</text><text xml:space="preserve" font-family="FiraSans-Regular,Fira Sans" font-size="36.0" fill="#FEFFFF" transform="matrix(1.00, 0.00, -0.00, -1.00, 242.0, 195.9)">v</text><text xml:space="preserve" font-family="FiraSans-Regular,Fira Sans" font-size="36.0" fill="#FEFFFF" transform="matrix(1.00, 0.00, -0.00, -1.00, 259.7, 195.9)">a</text><text xml:space="preserve" font-family="FiraSans-Regular,Fira Sans" font-size="36.0" fill="#FEFFFF" transform="matrix(1.00, 0.00, -0.00, -1.00, 279.3, 195.9)">S</text><text xml:space="preserve" font-family="FiraSans-Regular,Fira Sans" font-size="36.0" fill="#FEFFFF" transform="matrix(1.00, 0.00, -0.00, -1.00, 298.9, 195.9)">c</text><text xml:space="preserve" font-family="FiraSans-Regular,Fira Sans" font-size="36.0" fill="#FEFFFF" transform="matrix(1.00, 0.00, -0.00, -1.00, 316.1, 195.9)">r</text><text xml:space="preserve" font-family="FiraSans-Regular,Fira Sans" font-size="36.0" fill="#FEFFFF" transform="matrix(1.00, 0.00, -0.00, -1.00, 330.0, 195.9)">i</text><text xml:space="preserve" font-family="FiraSans-Regular,Fira Sans" font-size="36.0" fill="#FEFFFF" transform="matrix(1.00, 0.00, -0.00, -1.00, 340.2, 195.9)">p</text><text xml:space="preserve" font-family="FiraSans-Regular,Fira Sans" font-size="36.0" fill="#FEFFFF" transform="matrix(1.00, 0.00, -0.00, -1.00, 361.6, 195.9)">t</text><text xml:space="preserve" font-family="FiraSans-Regular,Fira Sans" font-size="36.0" fill="#FEFFFF" transform="matrix(1.00, 0.00, -0.00, -1.00, 374.6, 195.9)"> </text><text xml:space="preserve" font-family="FiraSans-Regular,Fira Sans" font-size="36.0" fill="#FEFFFF" transform="matrix(1.00, 0.00, -0.00, -1.00, 157.0, 139.9)">e</text><text xml:space="preserve" font-family="FiraSans-Regular,Fira Sans" font-size="36.0" fill="#FEFFFF" transform="matrix(1.00, 0.00, -0.00, -1.00, 176.8, 139.9)">n</text><text xml:space="preserve" font-family="FiraSans-Regular,Fira Sans" font-size="36.0" fill="#FEFFFF" transform="matrix(1.00, 0.00, -0.00, -1.00, 197.9, 139.9)">g</text><text xml:space="preserve" font-family="FiraSans-Regular,Fira Sans" font-size="36.0" fill="#FEFFFF" transform="matrix(1.00, 0.00, -0.00, -1.00, 216.6, 139.9)">i</text><text xml:space="preserve" font-family="FiraSans-Regular,Fira Sans" font-size="36.0" fill="#FEFFFF" transform="matrix(1.00, 0.00, -0.00, -1.00, 226.8, 139.9)">n</text><text xml:space="preserve" font-family="FiraSans-Regular,Fira Sans" font-size="36.0" fill="#FEFFFF" transform="matrix(1.00, 0.00, -0.00, -1.00, 247.9, 139.9)">e</text><text xml:space="preserve" font-family="FiraSans-Regular,Fira Sans" font-size="36.0" fill="#FEFFFF" transform="matrix(1.00, 0.00, -0.00, -1.00, 267.7, 139.9)">:</text><text xml:space="preserve" font-family="FiraSans-Regular,Fira Sans" font-size="36.0" fill="#FEFFFF" transform="matrix(1.00, 0.00, -0.00, -1.00, 276.3, 139.9)"> </text><text xml:space="preserve" font-family="FiraSans-Regular,Fira Sans" font-size="36.0" fill="#FEFFFF" transform="matrix(1.00, 0.00, -0.00, -1.00, 90.1, 83.9)">J</text><text xml:space="preserve" font-family="FiraSans-Regular,Fira Sans" font-size="36.0" fill="#FEFFFF" transform="matrix(1.00, 0.00, -0.00, -1.00, 101.1, 83.9)">a</text><text xml:space="preserve" font-family="FiraSans-Regular,Fira Sans" font-size="36.0" fill="#FEFFFF" transform="matrix(1.00, 0.00, -0.00, -1.00, 120.3, 83.9)">v</text><text xml:space="preserve" font-family="FiraSans-Regular,Fira Sans" font-size="36.0" fill="#FEFFFF" transform="matrix(1.00, 0.00, -0.00, -1.00, 138.0, 83.9)">a</text><text xml:space="preserve" font-family="FiraSans-Regular,Fira Sans" font-size="36.0" fill="#FEFFFF" transform="matrix(1.00, 0.00, -0.00, -1.00, 157.6, 83.9)"> </text><text xml:space="preserve" font-family="FiraSans-Regular,Fira Sans" font-size="36.0" fill="#FEFFFF" transform="matrix(1.00, 0.00, -0.00, -1.00, 167.1, 83.9)">8</text><text xml:space="preserve" font-family="FiraSans-Regular,Fira Sans" font-size="36.0" fill="#FEFFFF" transform="matrix(1.00, 0.00, -0.00, -1.00, 187.0, 83.9)">:</text><text xml:space="preserve" font-family="FiraSans-Regular,Fira Sans" font-size="36.0" fill="#FEFFFF" transform="matrix(1.00, 0.00, -0.00, -1.00, 195.6, 83.9)"> </text><text xml:space="preserve" font-family="FiraSans-Regular,Fira Sans" font-size="36.0" fill="#FEFFFF" transform="matrix(1.00, 0.00, -0.00, -1.00, 205.1, 83.9)">N</text><text xml:space="preserve" font-family="FiraSans-Regular,Fira Sans" font-size="36.0" fill="#FEFFFF" transform="matrix(1.00, 0.00, -0.00, -1.00, 229.7, 83.9)">a</text><text xml:space="preserve" font-family="FiraSans-Regular,Fira Sans" font-size="36.0" fill="#FEFFFF" transform="matrix(1.00, 0.00, -0.00, -1.00, 249.3, 83.9)">s</text><text xml:space="preserve" font-family="FiraSans-Regular,Fira Sans" font-size="36.0" fill="#FEFFFF" transform="matrix(1.00, 0.00, -0.00, -1.00, 266.1, 83.9)">h</text><text xml:space="preserve" font-family="FiraSans-Regular,Fira Sans" font-size="36.0" fill="#FEFFFF" transform="matrix(1.00, 0.00, -0.00, -1.00, 287.2, 83.9)">o</text><text xml:space="preserve" font-family="FiraSans-Regular,Fira Sans" font-size="36.0" fill="#FEFFFF" transform="matrix(1.00, 0.00, -0.00, -1.00, 308.2, 83.9)">r</text><text xml:space="preserve" font-family="FiraSans-Regular,Fira Sans" font-size="36.0" fill="#FEFFFF" transform="matrix(1.00, 0.00, -0.00, -1.00, 322.1, 83.9)">n</text><text xml:space="preserve" font-family="FiraSans-Regular,Fira Sans" font-size="36.0" fill="#FEFFFF" transform="matrix(1.00, 0.00, -0.00, -1.00, 343.2, 83.9)"> </text><text xml:space="preserve" font-family="FiraSans-Regular,Fira Sans" font-size="36.0" fill="#FEFFFF" transform="matrix(1.00, 0.00, -0.00, -1.00, 97.5, 27.9)">J</text><text xml:space="preserve" font-family="FiraSans-Regular,Fira Sans" font-size="36.0" fill="#FEFFFF" transform="matrix(1.00, 0.00, -0.00, -1.00, 108.5, 27.9)">a</text><text xml:space="preserve" font-family="FiraSans-Regular,Fira Sans" font-size="36.0" fill="#FEFFFF" transform="matrix(1.00, 0.00, -0.00, -1.00, 127.7, 27.9)">v</text><text xml:space="preserve" font-family="FiraSans-Regular,Fira Sans" font-size="36.0" fill="#FEFFFF" transform="matrix(1.00, 0.00, -0.00, -1.00, 145.4, 27.9)">a</text><text xml:space="preserve" font-family="FiraSans-Regular,Fira Sans" font-size="36.0" fill="#FEFFFF" transform="matrix(1.00, 0.00, -0.00, -1.00, 165.0, 27.9)"> </text><text xml:space="preserve" font-family="FiraSans-Regular,Fira Sans" font-size="36.0" fill="#FEFFFF" transform="matrix(1.00, 0.00, -0.00, -1.00, 174.6, 27.9)">6</text><text xml:space="preserve" font-family="FiraSans-Regular,Fira Sans" font-size="36.0" fill="#FEFFFF" transform="matrix(1.00, 0.00, -0.00, -1.00, 193.8, 27.9)">-</text><text xml:space="preserve" font-family="FiraSans-Regular,Fira Sans" font-size="36.0" fill="#FEFFFF" transform="matrix(1.00, 0.00, -0.00, -1.00, 206.8, 27.9)">7</text><text xml:space="preserve" font-family="FiraSans-Regular,Fira Sans" font-size="36.0" fill="#FEFFFF" transform="matrix(1.00, 0.00, -0.00, -1.00, 222.5, 27.9)">:</text><text xml:space="preserve" font-family="FiraSans-Regular,Fira Sans" font-size="36.0" fill="#FEFFFF" transform="matrix(1.00, 0.00, -0.00, -1.00, 231.1, 27.9)"> </text><text xml:space="preserve" font-family="FiraSans-Regular,Fira Sans" font-size="36.0" fill="#FEFFFF" transform="matrix(1.00, 0.00, -0.00, -1.00, 240.6, 27.9)">R</text><text xml:space="preserve" font-family="FiraSans-Regular,Fira Sans" font-size="36.0" fill="#FEFFFF" transform="matrix(1.00, 0.00, -0.00, -1.00, 262.4, 27.9)">h</text><text xml:space="preserve" font-family="FiraSans-Regular,Fira Sans" font-size="36.0" fill="#FEFFFF" transform="matrix(1.00, 0.00, -0.00, -1.00, 283.5, 27.9)">i</text><text xml:space="preserve" font-family="FiraSans-Regular,Fira Sans" font-size="36.0" fill="#FEFFFF" transform="matrix(1.00, 0.00, -0.00, -1.00, 293.7, 27.9)">n</text><text xml:space="preserve" font-family="FiraSans-Regular,Fira Sans" font-size="36.0" fill="#FEFFFF" transform="matrix(1.00, 0.00, -0.00, -1.00, 314.8, 27.9)">o</text></g></g></g></svg>