<?xml version="1.0" encoding="UTF-8" standalone="no"?><svg xmlns="http://www.w3.org/2000/svg" xmlns:xlink="http://www.w3.org/1999/xlink" clip-rule="evenodd" stroke-miterlimit="10" viewBox="0 0 1920 1080"><desc>SVG generated by Keynote</desc><defs></defs><g transform="matrix(1.00, 0.00, -0.00, -1.00, 0.0, 1080.0)"><g><clipPath id="clip0x7fda9be920a0"><path d="M 0.0 1080.0 L 1920.0 1080.0 L 1920.0 0.0 L 0.0 0.0 Z M 0.0 1080.0 "></path></clipPath><g clip-path="url(#clip0x7fda9be920a0)"><image xlink:href="A81AF0278930B93F47F55E5BB6D3A023.png" width="1920.00" height="1080.00" transform="matrix(1.00, 0.00, -0.00, -1.00, 0.0, 1080.0)"></image></g></g><text xml:space="preserve" font-family="Marion-Regular,Marion" font-size="112.0" fill="#FEFFFF" transform="matrix(1.00, 0.00, -0.00, -1.00, 404.0, 939.3)">S</text><text xml:space="preserve" font-family="Marion-Regular,Marion" font-size="112.0" fill="#FEFFFF" transform="matrix(1.00, 0.00, -0.00, -1.00, 464.7, 939.3)">e</text><text xml:space="preserve" font-family="Marion-Regular,Marion" font-size="112.0" fill="#FEFFFF" transform="matrix(1.00, 0.00, -0.00, -1.00, 512.9, 939.3)">r</text><text xml:space="preserve" font-family="Marion-Regular,Marion" font-size="112.0" fill="#FEFFFF" transform="matrix(1.00, 0.00, -0.00, -1.00, 555.6, 939.3)">v</text><text xml:space="preserve" font-family="Marion-Regular,Marion" font-size="112.0" fill="#FEFFFF" transform="matrix(1.00, 0.00, -0.00, -1.00, 602.5, 939.3)">e</text><text xml:space="preserve" font-family="Marion-Regular,Marion" font-size="112.0" fill="#FEFFFF" transform="matrix(1.00, 0.00, -0.00, -1.00, 650.7, 939.3)">r</text><text xml:space="preserve" font-family="Marion-Regular,Marion" font-size="112.0" fill="#FEFFFF" transform="matrix(1.00, 0.00, -0.00, -1.00, 693.3, 939.3)">,</text><text xml:space="preserve" font-family="Marion-Regular,Marion" font-size="112.0" fill="#FEFFFF" transform="matrix(1.00, 0.00, -0.00, -1.00, 721.6, 939.3)"> </text><text xml:space="preserve" font-family="Marion-Regular,Marion" font-size="112.0" fill="#FEFFFF" transform="matrix(1.00, 0.00, -0.00, -1.00, 755.2, 939.3)">C</text><text xml:space="preserve" font-family="Marion-Regular,Marion" font-size="112.0" fill="#FEFFFF" transform="matrix(1.00, 0.00, -0.00, -1.00, 828.4, 939.3)">l</text><text xml:space="preserve" font-family="Marion-Regular,Marion" font-size="112.0" fill="#FEFFFF" transform="matrix(1.00, 0.00, -0.00, -1.00, 861.3, 939.3)">i</text><text xml:space="preserve" font-family="Marion-Regular,Marion" font-size="112.0" fill="#FEFFFF" transform="matrix(1.00, 0.00, -0.00, -1.00, 894.3, 939.3)">e</text><text xml:space="preserve" font-family="Marion-Regular,Marion" font-size="112.0" fill="#FEFFFF" transform="matrix(1.00, 0.00, -0.00, -1.00, 942.4, 939.3)">n</text><text xml:space="preserve" font-family="Marion-Regular,Marion" font-size="112.0" fill="#FEFFFF" transform="matrix(1.00, 0.00, -0.00, -1.00, 1004.4, 939.3)">t</text><text xml:space="preserve" font-family="Marion-Regular,Marion" font-size="112.0" fill="#FEFFFF" transform="matrix(1.00, 0.00, -0.00, -1.00, 1037.6, 939.3)"> </text><text xml:space="preserve" font-family="Marion-Regular,Marion" font-size="112.0" fill="#FEFFFF" transform="matrix(1.00, 0.00, -0.00, -1.00, 1071.2, 939.3)">&amp;</text><text xml:space="preserve" font-family="Marion-Regular,Marion" font-size="112.0" fill="#FEFFFF" transform="matrix(1.00, 0.00, -0.00, -1.00, 1155.3, 939.3)"> </text><text xml:space="preserve" font-family="Marion-Regular,Marion" font-size="112.0" fill="#FEFFFF" transform="matrix(1.00, 0.00, -0.00, -1.00, 1188.9, 939.3)">H</text><text xml:space="preserve" font-family="Marion-Regular,Marion" font-size="112.0" fill="#FEFFFF" transform="matrix(1.00, 0.00, -0.00, -1.00, 1280.2, 939.3)">y</text><text xml:space="preserve" font-family="Marion-Regular,Marion" font-size="112.0" fill="#FEFFFF" transform="matrix(1.00, 0.00, -0.00, -1.00, 1328.9, 939.3)">b</text><text xml:space="preserve" font-family="Marion-Regular,Marion" font-size="112.0" fill="#FEFFFF" transform="matrix(1.00, 0.00, -0.00, -1.00, 1384.3, 939.3)">r</text><text xml:space="preserve" font-family="Marion-Regular,Marion" font-size="112.0" fill="#FEFFFF" transform="matrix(1.00, 0.00, -0.00, -1.00, 1426.9, 939.3)">i</text><text xml:space="preserve" font-family="Marion-Regular,Marion" font-size="112.0" fill="#FEFFFF" transform="matrix(1.00, 0.00, -0.00, -1.00, 1459.9, 939.3)">d</text></g></svg>