<?xml version="1.0" encoding="UTF-8" standalone="no"?><svg xmlns="http://www.w3.org/2000/svg" xmlns:xlink="http://www.w3.org/1999/xlink" clip-rule="evenodd" stroke-miterlimit="10" viewBox="0 0 1920 1080"><desc>SVG generated by Keynote</desc><defs></defs><g transform="matrix(1.00, 0.00, -0.00, -1.00, 0.0, 1080.0)"><g><clipPath id="clip0x7fdaa11f24b0"><path d="M 0.0 1080.0 L 1920.0 1080.0 L 1920.0 0.0 L 0.0 0.0 Z M 0.0 1080.0 "></path></clipPath><g clip-path="url(#clip0x7fdaa11f24b0)"><image xlink:href="../../18DBF37F-4768-4907-A96E-9B8555C8012F/assets/A81AF0278930B93F47F55E5BB6D3A023.png" width="1920.00" height="1080.00" transform="matrix(1.00, 0.00, -0.00, -1.00, 0.0, 1080.0)"></image></g></g><text xml:space="preserve" font-family="Marion-Regular,Marion" font-size="112.0" fill="#FEFFFF" transform="matrix(1.00, 0.00, -0.00, -1.00, 496.0, 939.3)">N</text><text xml:space="preserve" font-family="Marion-Regular,Marion" font-size="112.0" fill="#FEFFFF" transform="matrix(1.00, 0.00, -0.00, -1.00, 579.3, 939.3)">o</text><text xml:space="preserve" font-family="Marion-Regular,Marion" font-size="112.0" fill="#FEFFFF" transform="matrix(1.00, 0.00, -0.00, -1.00, 631.4, 939.3)">d</text><text xml:space="preserve" font-family="Marion-Regular,Marion" font-size="112.0" fill="#FEFFFF" transform="matrix(1.00, 0.00, -0.00, -1.00, 687.6, 939.3)">e</text><text xml:space="preserve" font-family="Marion-Regular,Marion" font-size="112.0" fill="#FEFFFF" transform="matrix(1.00, 0.00, -0.00, -1.00, 735.7, 939.3)">.</text><text xml:space="preserve" font-family="Marion-Regular,Marion" font-size="112.0" fill="#FEFFFF" transform="matrix(1.00, 0.00, -0.00, -1.00, 761.9, 939.3)">j</text><text xml:space="preserve" font-family="Marion-Regular,Marion" font-size="112.0" fill="#FEFFFF" transform="matrix(1.00, 0.00, -0.00, -1.00, 788.7, 939.3)">s</text><text xml:space="preserve" font-family="Marion-Regular,Marion" font-size="112.0" fill="#FEFFFF" transform="matrix(1.00, 0.00, -0.00, -1.00, 829.2, 939.3)"> </text><text xml:space="preserve" font-family="Marion-Regular,Marion" font-size="112.0" fill="#FEFFFF" transform="matrix(1.00, 0.00, -0.00, -1.00, 862.8, 939.3)">F</text><text xml:space="preserve" font-family="Marion-Regular,Marion" font-size="112.0" fill="#FEFFFF" transform="matrix(1.00, 0.00, -0.00, -1.00, 928.2, 939.3)">r</text><text xml:space="preserve" font-family="Marion-Regular,Marion" font-size="112.0" fill="#FEFFFF" transform="matrix(1.00, 0.00, -0.00, -1.00, 970.9, 939.3)">a</text><text xml:space="preserve" font-family="Marion-Regular,Marion" font-size="112.0" fill="#FEFFFF" transform="matrix(1.00, 0.00, -0.00, -1.00, 1020.5, 939.3)">m</text><text xml:space="preserve" font-family="Marion-Regular,Marion" font-size="112.0" fill="#FEFFFF" transform="matrix(1.00, 0.00, -0.00, -1.00, 1110.1, 939.3)">e</text><text xml:space="preserve" font-family="Marion-Regular,Marion" font-size="112.0" fill="#FEFFFF" transform="matrix(1.00, 0.00, -0.00, -1.00, 1158.3, 939.3)">w</text><text xml:space="preserve" font-family="Marion-Regular,Marion" font-size="112.0" fill="#FEFFFF" transform="matrix(1.00, 0.00, -0.00, -1.00, 1231.4, 939.3)">o</text><text xml:space="preserve" font-family="Marion-Regular,Marion" font-size="112.0" fill="#FEFFFF" transform="matrix(1.00, 0.00, -0.00, -1.00, 1283.6, 939.3)">r</text><text xml:space="preserve" font-family="Marion-Regular,Marion" font-size="112.0" fill="#FEFFFF" transform="matrix(1.00, 0.00, -0.00, -1.00, 1326.3, 939.3)">k</text><text xml:space="preserve" font-family="Marion-Regular,Marion" font-size="112.0" fill="#FEFFFF" transform="matrix(1.00, 0.00, -0.00, -1.00, 1383.4, 939.3)">s</text></g></svg>