<?xml version="1.0" encoding="UTF-8" standalone="no"?><svg xmlns="http://www.w3.org/2000/svg" xmlns:xlink="http://www.w3.org/1999/xlink" clip-rule="evenodd" stroke-miterlimit="10" viewBox="0 0 1920 1080"><desc>SVG generated by Keynote</desc><defs></defs><g transform="matrix(1.00, 0.00, -0.00, -1.00, 0.0, 1080.0)"><g><clipPath id="clip0x7fda9be1cb20"><path d="M 0.0 1080.0 L 1920.0 1080.0 L 1920.0 0.0 L 0.0 0.0 Z M 0.0 1080.0 "></path></clipPath><g clip-path="url(#clip0x7fda9be1cb20)"><image xlink:href="../../18DBF37F-4768-4907-A96E-9B8555C8012F/assets/A81AF0278930B93F47F55E5BB6D3A023.png" width="1920.00" height="1080.00" transform="matrix(1.00, 0.00, -0.00, -1.00, 0.0, 1080.0)"></image></g></g><text xml:space="preserve" font-family="Marion-Regular,Marion" font-size="112.0" fill="#FEFFFF" transform="matrix(1.00, 0.00, -0.00, -1.00, 607.5, 234.3)">O</text><text xml:space="preserve" font-family="Marion-Regular,Marion" font-size="112.0" fill="#FEFFFF" transform="matrix(1.00, 0.00, -0.00, -1.00, 691.1, 234.3)">n</text><text xml:space="preserve" font-family="Marion-Regular,Marion" font-size="112.0" fill="#FEFFFF" transform="matrix(1.00, 0.00, -0.00, -1.00, 753.0, 234.3)">e</text><text xml:space="preserve" font-family="Marion-Regular,Marion" font-size="112.0" fill="#FEFFFF" transform="matrix(1.00, 0.00, -0.00, -1.00, 801.2, 234.3)"> </text><text xml:space="preserve" font-family="Marion-Regular,Marion" font-size="112.0" fill="#FEFFFF" transform="matrix(1.00, 0.00, -0.00, -1.00, 834.8, 234.3)">P</text><text xml:space="preserve" font-family="Marion-Regular,Marion" font-size="112.0" fill="#FEFFFF" transform="matrix(1.00, 0.00, -0.00, -1.00, 905.2, 234.3)">a</text><text xml:space="preserve" font-family="Marion-Regular,Marion" font-size="112.0" fill="#FEFFFF" transform="matrix(1.00, 0.00, -0.00, -1.00, 954.8, 234.3)">g</text><text xml:space="preserve" font-family="Marion-Regular,Marion" font-size="112.0" fill="#FEFFFF" transform="matrix(1.00, 0.00, -0.00, -1.00, 1005.4, 234.3)">e</text><text xml:space="preserve" font-family="Marion-Regular,Marion" font-size="112.0" fill="#FEFFFF" transform="matrix(1.00, 0.00, -0.00, -1.00, 1053.5, 234.3)"> </text><text xml:space="preserve" font-family="Marion-Regular,Marion" font-size="112.0" fill="#FEFFFF" transform="matrix(1.00, 0.00, -0.00, -1.00, 1087.1, 234.3)">A</text><text xml:space="preserve" font-family="Marion-Regular,Marion" font-size="112.0" fill="#FEFFFF" transform="matrix(1.00, 0.00, -0.00, -1.00, 1160.6, 234.3)">p</text><text xml:space="preserve" font-family="Marion-Regular,Marion" font-size="112.0" fill="#FEFFFF" transform="matrix(1.00, 0.00, -0.00, -1.00, 1216.3, 234.3)">p</text><text xml:space="preserve" font-family="Marion-Regular,Marion" font-size="112.0" fill="#FEFFFF" transform="matrix(1.00, 0.00, -0.00, -1.00, 1271.9, 234.3)">s</text><text xml:space="preserve" font-family="Marion-Italic,Marion" font-style="italic" font-size="44.0" fill="#FEFFFF" transform="matrix(1.00, 0.00, -0.00, -1.00, 768.6, 138.4)">e</text><text xml:space="preserve" font-family="Marion-Italic,Marion" font-style="italic" font-size="44.0" fill="#FEFFFF" transform="matrix(1.00, 0.00, -0.00, -1.00, 783.9, 138.4)">.</text><text xml:space="preserve" font-family="Marion-Italic,Marion" font-style="italic" font-size="44.0" fill="#FEFFFF" transform="matrix(1.00, 0.00, -0.00, -1.00, 793.2, 138.4)">g</text><text xml:space="preserve" font-family="Marion-Italic,Marion" font-style="italic" font-size="44.0" fill="#FEFFFF" transform="matrix(1.00, 0.00, -0.00, -1.00, 808.8, 138.4)">.</text><text xml:space="preserve" font-family="Marion-Regular,Marion" font-size="44.0" fill="#FEFFFF" transform="matrix(1.00, 0.00, -0.00, -1.00, 818.1, 138.4)"> </text><text xml:space="preserve" font-family="Marion-Regular,Marion" font-size="44.0" fill="#FEFFFF" transform="matrix(1.00, 0.00, -0.00, -1.00, 831.3, 138.4)">B</text><text xml:space="preserve" font-family="Marion-Regular,Marion" font-size="44.0" fill="#FEFFFF" transform="matrix(1.00, 0.00, -0.00, -1.00, 861.0, 138.4)">a</text><text xml:space="preserve" font-family="Marion-Regular,Marion" font-size="44.0" fill="#FEFFFF" transform="matrix(1.00, 0.00, -0.00, -1.00, 880.5, 138.4)">c</text><text xml:space="preserve" font-family="Marion-Regular,Marion" font-size="44.0" fill="#FEFFFF" transform="matrix(1.00, 0.00, -0.00, -1.00, 898.2, 138.4)">k</text><text xml:space="preserve" font-family="Marion-Regular,Marion" font-size="44.0" fill="#FEFFFF" transform="matrix(1.00, 0.00, -0.00, -1.00, 920.6, 138.4)">b</text><text xml:space="preserve" font-family="Marion-Regular,Marion" font-size="44.0" fill="#FEFFFF" transform="matrix(1.00, 0.00, -0.00, -1.00, 942.4, 138.4)">o</text><text xml:space="preserve" font-family="Marion-Regular,Marion" font-size="44.0" fill="#FEFFFF" transform="matrix(1.00, 0.00, -0.00, -1.00, 962.9, 138.4)">n</text><text xml:space="preserve" font-family="Marion-Regular,Marion" font-size="44.0" fill="#FEFFFF" transform="matrix(1.00, 0.00, -0.00, -1.00, 987.2, 138.4)">e</text><text xml:space="preserve" font-family="Marion-Regular,Marion" font-size="44.0" fill="#FEFFFF" transform="matrix(1.00, 0.00, -0.00, -1.00, 1006.1, 138.4)">,</text><text xml:space="preserve" font-family="Marion-Regular,Marion" font-size="44.0" fill="#FEFFFF" transform="matrix(1.00, 0.00, -0.00, -1.00, 1017.2, 138.4)"> </text><text xml:space="preserve" font-family="Marion-Regular,Marion" font-size="44.0" fill="#FEFFFF" transform="matrix(1.00, 0.00, -0.00, -1.00, 1030.4, 138.4)">E</text><text xml:space="preserve" font-family="Marion-Regular,Marion" font-size="44.0" fill="#FEFFFF" transform="matrix(1.00, 0.00, -0.00, -1.00, 1058.8, 138.4)">m</text><text xml:space="preserve" font-family="Marion-Regular,Marion" font-size="44.0" fill="#FEFFFF" transform="matrix(1.00, 0.00, -0.00, -1.00, 1094.0, 138.4)">b</text><text xml:space="preserve" font-family="Marion-Regular,Marion" font-size="44.0" fill="#FEFFFF" transform="matrix(1.00, 0.00, -0.00, -1.00, 1115.7, 138.4)">e</text><text xml:space="preserve" font-family="Marion-Regular,Marion" font-size="44.0" fill="#FEFFFF" transform="matrix(1.00, 0.00, -0.00, -1.00, 1134.7, 138.4)">r</text></g></svg>