<?xml version="1.0" encoding="UTF-8" standalone="no"?><svg xmlns="http://www.w3.org/2000/svg" xmlns:xlink="http://www.w3.org/1999/xlink" clip-rule="evenodd" stroke-miterlimit="10" viewBox="0 0 301 42"><desc>SVG generated by Keynote</desc><defs></defs><g transform="matrix(1.00, 0.00, -0.00, -1.00, 0.0, 42.0)"><text xml:space="preserve" font-family="FiraMono-Regular,Fira Mono" font-size="42.0" fill="#FEFFFF" transform="matrix(1.00, 0.00, -0.00, -1.00, 0.1, 6.1)">/</text><text xml:space="preserve" font-family="FiraMono-Regular,Fira Mono" font-size="42.0" fill="#FEFFFF" transform="matrix(1.00, 0.00, -0.00, -1.00, 25.3, 6.1)">u</text><text xml:space="preserve" font-family="FiraMono-Regular,Fira Mono" font-size="42.0" fill="#FEFFFF" transform="matrix(1.00, 0.00, -0.00, -1.00, 50.5, 6.1)">s</text><text xml:space="preserve" font-family="FiraMono-Regular,Fira Mono" font-size="42.0" fill="#FEFFFF" transform="matrix(1.00, 0.00, -0.00, -1.00, 75.7, 6.1)">e</text><text xml:space="preserve" font-family="FiraMono-Regular,Fira Mono" font-size="42.0" fill="#FEFFFF" transform="matrix(1.00, 0.00, -0.00, -1.00, 100.9, 6.1)">r</text><text xml:space="preserve" font-family="FiraMono-Regular,Fira Mono" font-size="42.0" fill="#FEFFFF" transform="matrix(1.00, 0.00, -0.00, -1.00, 126.1, 6.1)">s</text><text xml:space="preserve" font-family="FiraMono-Regular,Fira Mono" font-size="42.0" fill="#FEFFFF" transform="matrix(1.00, 0.00, -0.00, -1.00, 151.3, 6.1)">/</text><text xml:space="preserve" font-family="FiraMono-Regular,Fira Mono" font-size="42.0" fill="#FEFFFF" transform="matrix(1.00, 0.00, -0.00, -1.00, 176.5, 6.1)">h</text><text xml:space="preserve" font-family="FiraMono-Regular,Fira Mono" font-size="42.0" fill="#FEFFFF" transform="matrix(1.00, 0.00, -0.00, -1.00, 201.7, 6.1)">o</text><text xml:space="preserve" font-family="FiraMono-Regular,Fira Mono" font-size="42.0" fill="#FEFFFF" transform="matrix(1.00, 0.00, -0.00, -1.00, 226.9, 6.1)">d</text><text xml:space="preserve" font-family="FiraMono-Regular,Fira Mono" font-size="42.0" fill="#FEFFFF" transform="matrix(1.00, 0.00, -0.00, -1.00, 252.1, 6.1)">o</text><text xml:space="preserve" font-family="FiraMono-Regular,Fira Mono" font-size="42.0" fill="#FEFFFF" transform="matrix(1.00, 0.00, -0.00, -1.00, 277.3, 6.1)">r</text></g></svg>