<?xml version="1.0" encoding="UTF-8" standalone="no"?><svg xmlns="http://www.w3.org/2000/svg" xmlns:xlink="http://www.w3.org/1999/xlink" clip-rule="evenodd" stroke-miterlimit="10" viewBox="0 0 814 904"><desc>SVG generated by Keynote</desc><defs></defs><g transform="matrix(1.00, 0.00, -0.00, -1.00, 0.0, 904.0)"><g><clipPath id="clip0x7fda8515c9f0"><path d="M 1.0 902.0 L 813.0 902.0 L 813.0 2.0 L 1.0 2.0 Z M 1.4 902.2 "></path></clipPath><g clip-path="url(#clip0x7fda8515c9f0)"><g><clipPath id="clip0x7fda8515e590"><path d="M -73.1 971.0 L -73.0 417.8 L -73.0 -136.0 L 384.8 -136.0 L 843.0 -136.0 L 843.0 -118.6 L 843.0 -102.0 L 411.3 -102.0 C 174.1 -102.0 -21.1 -100.4 -22.3 -99.2 C -23.5 -98.0 -24.6 140.3 -24.7 430.4 C -24.8 828.8 -24.0 958.7 -21.5 961.7 C -18.6 965.2 44.8 965.6 412.3 965.0 C 755.1 964.4 842.7 964.9 842.7 967.8 C 842.7 970.6 749.2 971.0 384.8 971.0 L -73.1 971.0 Z M 247.9 880.0 C 241.8 880.0 214.8 859.0 215.6 854.9 C 215.8 853.8 214.5 849.3 212.6 844.9 C 207.5 832.4 208.7 820.6 216.8 803.8 C 222.2 792.9 227.4 786.9 234.7 783.0 C 247.9 776.1 252.6 776.1 267.0 783.0 C 278.2 788.4 279.1 788.4 284.2 783.8 C 290.2 778.5 325.2 775.7 330.6 780.2 C 332.4 781.7 335.4 781.6 337.8 780.1 C 344.2 776.1 353.7 776.8 357.7 781.7 C 361.0 785.6 361.9 785.5 366.4 781.5 C 369.3 778.9 375.0 777.5 379.6 778.0 L 388.0 779.0 L 388.0 805.2 C 388.2 829.1 387.5 832.4 381.6 838.8 C 375.4 845.4 373.1 845.9 345.7 846.1 C 297.4 846.4 291.9 845.9 284.8 840.8 C 277.1 835.2 274.7 830.7 273.2 819.2 C 271.7 807.7 269.5 805.0 264.7 808.9 C 261.7 811.5 259.7 811.5 256.7 809.0 C 252.1 805.2 236.5 809.8 239.2 814.2 C 240.1 815.7 239.5 817.7 237.9 818.7 C 233.6 821.4 234.6 837.9 239.6 844.4 C 242.6 848.4 247.2 850.1 255.5 850.1 C 265.7 850.1 267.6 851.2 272.3 859.9 L 277.6 869.6 L 266.0 874.9 C 259.6 877.7 251.4 880.0 247.9 880.0 Z M 429.6 878.6 C 422.2 879.0 415.2 878.3 412.6 876.4 C 407.9 872.8 407.5 785.7 412.1 781.1 C 416.7 776.5 440.8 777.4 449.0 782.3 C 452.9 784.7 458.4 789.3 461.1 792.7 L 466.2 798.8 L 475.0 788.1 C 483.1 778.1 484.9 777.3 499.0 777.3 C 507.4 777.3 515.1 778.7 516.2 780.4 C 517.6 782.7 519.0 782.7 521.2 780.4 C 525.3 776.3 535.4 776.5 539.7 780.8 C 542.4 783.4 543.9 783.4 546.6 780.8 C 551.3 776.0 561.7 776.5 565.9 781.6 C 567.9 784.0 568.4 785.9 567.1 785.9 C 565.8 785.9 566.3 787.4 568.2 789.3 C 570.8 792.0 573.4 790.9 579.8 784.9 C 587.1 777.8 589.8 777.2 604.8 778.0 L 622.0 779.0 L 622.0 825.1 L 623.0 871.0 L 613.1 871.0 C 603.6 871.0 603.0 871.0 603.0 862.1 C 603.0 851.6 598.8 845.8 591.0 845.8 C 588.1 845.8 582.6 843.7 578.7 841.2 C 570.5 835.8 569.2 837.4 568.0 857.2 L 567.0 870.0 L 544.5 871.0 C 523.0 871.4 521.5 870.5 518.4 864.2 C 515.9 858.8 516.1 856.7 519.3 854.0 C 526.1 848.3 521.9 844.5 509.7 845.4 C 503.3 845.8 497.2 844.8 496.1 843.0 C 494.7 840.7 493.1 840.7 490.2 843.0 C 488.1 844.8 481.9 845.9 476.4 845.4 C 464.8 844.4 463.9 845.0 462.6 854.4 C 461.2 864.2 457.4 870.0 449.0 874.5 C 444.8 876.8 437.0 878.3 429.6 878.6 Z M 100.1 878.3 C 96.4 878.5 92.1 877.4 87.5 874.9 C 83.5 872.6 80.7 872.5 79.5 874.4 C 78.6 875.9 72.6 877.2 66.3 877.2 C 56.8 877.2 55.1 876.4 56.3 872.2 C 57.9 866.2 61.4 847.0 62.6 837.2 C 66.2 808.5 71.5 786.2 75.9 780.9 C 80.3 775.5 88.9 776.6 92.4 783.0 C 96.3 790.4 102.7 790.3 106.7 782.8 C 111.1 774.5 122.0 776.6 123.3 785.9 C 125.3 800.4 129.3 801.0 142.6 788.8 C 152.2 779.9 157.3 777.3 165.1 777.3 C 180.9 777.3 193.9 786.2 189.5 794.0 C 188.3 796.2 188.9 801.3 190.9 805.5 C 195.7 815.5 193.1 829.7 184.9 838.6 C 176.2 848.0 159.7 849.2 147.5 841.4 C 142.5 838.2 140.8 838.2 138.3 841.2 C 136.6 843.3 135.9 845.5 136.7 846.4 C 138.6 848.2 141.2 859.0 142.3 869.3 C 143.1 876.7 142.4 877.2 132.4 877.2 C 126.0 877.2 120.0 875.3 117.8 872.6 C 114.3 868.4 113.6 868.5 109.6 873.4 C 107.1 876.3 103.8 878.0 100.1 878.3 Z M 668.0 877.5 L 657.8 877.0 L 647.0 876.0 L 646.0 830.5 C 645.4 798.7 646.7 784.0 649.1 781.1 C 651.0 778.9 655.8 777.5 659.8 777.9 C 666.8 778.7 667.3 779.7 668.0 797.3 C 669.0 821.2 670.2 824.7 675.8 820.1 C 678.7 817.7 680.1 811.2 680.1 800.1 C 680.1 782.1 683.9 776.3 694.9 777.8 C 700.9 778.7 701.5 780.4 702.3 798.0 C 703.0 813.6 704.2 817.8 708.7 820.2 C 716.4 824.3 716.4 841.6 708.8 845.7 C 705.7 847.4 702.9 852.2 702.4 856.5 C 700.8 870.5 681.6 868.0 679.5 853.5 C 679.0 850.1 676.7 847.2 674.4 847.2 C 671.2 847.2 669.6 851.2 669.0 862.4 L 668.0 877.5 Z M 725.5 878.0 L 726.0 831.0 C 726.3 805.1 727.7 782.9 729.3 780.9 C 733.0 776.2 737.4 776.4 744.6 781.5 C 749.8 785.1 751.9 794.9 748.3 798.5 C 747.6 799.2 747.4 811.8 748.0 826.4 C 748.6 841.0 749.8 858.1 750.0 864.4 L 750.0 876.0 L 737.7 877.0 L 725.5 878.0 Z M 436.9 847.5 C 437.7 847.3 438.4 846.8 438.8 846.1 C 439.7 844.6 439.3 842.6 437.8 841.7 C 436.3 840.7 434.3 841.2 433.4 842.7 C 432.5 844.2 433.0 846.1 434.5 847.1 C 435.2 847.5 436.1 847.7 436.9 847.5 Z M 165.8 824.7 C 166.6 824.5 167.3 824.0 167.8 823.2 C 168.7 821.7 168.3 819.8 166.8 818.9 C 165.3 818.0 163.3 818.4 162.4 819.9 C 161.5 821.4 162.0 823.4 163.4 824.3 C 164.2 824.7 165.0 824.9 165.8 824.7 Z M 302.6 821.0 C 306.4 820.5 309.8 815.4 308.7 809.8 C 307.5 803.5 302.8 802.0 298.4 806.4 C 293.8 811.0 294.0 815.8 298.8 819.8 C 300.0 820.8 301.3 821.2 302.6 821.0 Z M 597.2 820.4 C 598.8 820.2 600.5 819.1 601.8 817.0 C 602.9 815.3 601.0 811.2 597.8 807.9 C 592.4 802.6 591.7 802.4 590.0 806.7 C 587.2 814.2 592.2 821.0 597.2 820.4 Z M 439.7 816.1 C 440.5 815.9 441.3 815.4 441.7 814.7 C 442.6 813.2 442.1 811.2 440.6 810.3 C 439.2 809.4 437.2 809.8 436.3 811.3 C 435.4 812.8 435.8 814.8 437.3 815.7 C 438.1 816.1 438.9 816.3 439.7 816.1 Z M 771.6 761.5 C 770.1 762.4 764.2 758.8 758.4 753.5 C 747.3 743.3 714.2 728.8 702.0 728.8 C 698.0 728.8 693.9 727.6 693.0 726.2 C 692.1 724.7 689.2 723.4 686.5 723.3 C 683.7 723.2 632.0 722.0 571.5 720.7 C 499.0 719.1 459.4 717.1 455.4 715.0 C 452.1 713.2 445.5 711.7 440.8 711.7 C 436.0 711.7 429.1 710.6 425.5 709.2 C 421.9 707.8 413.2 705.0 406.2 703.0 C 399.1 700.9 391.8 698.1 389.9 696.7 C 383.0 691.5 380.4 697.4 384.8 707.9 C 390.7 722.1 390.2 724.7 380.4 731.7 C 371.9 737.8 370.2 737.8 242.1 737.9 C 170.7 737.9 111.7 739.0 110.9 740.2 C 110.2 741.4 103.1 742.5 95.2 742.5 C 87.3 742.5 79.0 744.1 76.6 746.0 C 74.2 748.0 71.4 748.8 70.4 747.7 C 69.4 746.7 65.6 747.9 61.9 750.3 C 58.3 752.7 55.3 753.8 55.3 752.7 C 55.3 751.6 52.9 752.9 50.1 755.5 C 46.1 759.1 44.2 759.3 41.5 756.7 C 36.3 751.5 36.8 21.8 42.1 14.8 C 45.5 10.4 51.7 9.8 98.6 9.8 C 127.6 9.8 152.0 10.5 152.9 11.4 C 153.8 12.3 201.4 12.9 258.7 12.8 C 330.7 12.6 363.5 13.5 364.8 15.6 C 366.2 17.8 367.8 17.7 370.6 15.5 C 373.1 13.4 389.6 12.5 418.1 12.8 C 442.2 13.1 464.1 12.4 466.9 11.3 C 469.6 10.1 475.0 9.8 478.9 10.5 C 483.3 11.4 487.6 10.0 490.6 6.7 C 497.1 -0.5 493.4 -4.3 481.9 -2.5 C 473.2 -1.0 471.9 -1.7 470.3 -8.2 C 469.3 -12.2 469.3 -17.0 470.4 -18.7 C 471.8 -21.0 473.3 -21.0 476.1 -18.7 C 478.4 -16.8 480.5 -16.6 481.5 -18.3 C 483.6 -21.7 523.4 -21.6 527.9 -18.1 C 529.9 -16.6 531.9 -16.7 532.9 -18.3 C 535.1 -21.8 572.0 -21.7 576.4 -18.2 C 578.2 -16.7 580.4 -16.7 581.2 -18.1 C 583.1 -21.0 677.2 -20.9 682.0 -17.9 C 683.8 -16.7 686.0 -16.8 686.8 -18.1 C 687.6 -19.4 705.4 -20.1 726.3 -20.0 L 764.0 -20.0 L 764.0 -11.6 L 764.0 -3.0 L 650.1 -3.0 C 584.1 -2.8 534.6 -3.4 532.7 -4.9 C 530.6 -6.6 528.7 -6.5 527.5 -4.6 C 526.5 -3.0 520.7 -1.6 514.6 -1.6 C 508.5 -1.6 502.8 -0.3 501.8 1.3 C 497.2 8.7 519.4 10.0 641.0 9.9 C 757.7 9.7 766.7 10.1 770.2 14.8 C 773.4 18.9 774.1 84.7 774.1 389.8 C 774.2 614.5 773.2 760.5 771.6 761.5 Z M 128.6 -7.1 C 121.1 -6.7 113.5 -7.8 111.7 -9.6 C 109.5 -11.8 107.4 -11.9 105.0 -9.9 C 99.9 -5.7 46.1 -7.8 44.6 -12.3 C 43.9 -14.2 46.3 -16.9 49.8 -18.2 C 57.4 -21.1 118.2 -20.7 122.9 -17.8 C 124.7 -16.7 127.0 -17.1 128.0 -18.6 C 129.4 -21.0 136.9 -21.0 143.7 -18.6 C 144.5 -18.4 148.3 -17.9 152.2 -17.7 C 162.7 -17.0 161.6 -8.8 150.9 -8.2 C 146.2 -8.0 136.1 -7.4 128.6 -7.1 Z M 128.6 -7.1 "></path></clipPath><g clip-path="url(#clip0x7fda8515e590)"><image xlink:href="ABA2403D7C7E4459644367BCE04BFF8C.png" width="455.00" height="550.00" transform="matrix(2.01, 0.00, -0.00, -2.01, -73.1, 971.3)"></image></g></g></g></g></g></svg>