<?xml version="1.0" encoding="UTF-8" standalone="no"?><svg xmlns="http://www.w3.org/2000/svg" xmlns:xlink="http://www.w3.org/1999/xlink" clip-rule="evenodd" stroke-miterlimit="10" viewBox="0 0 1920 1080"><desc>SVG generated by Keynote</desc><defs></defs><g transform="matrix(1.00, 0.00, -0.00, -1.00, 0.0, 1080.0)"><g><clipPath id="clip0x7fdaa2896a80"><path d="M 0.0 1080.0 L 1920.0 1080.0 L 1920.0 0.0 L 0.0 0.0 Z M 0.0 1080.0 "></path></clipPath><g clip-path="url(#clip0x7fdaa2896a80)"><image xlink:href="../../18DBF37F-4768-4907-A96E-9B8555C8012F/assets/A81AF0278930B93F47F55E5BB6D3A023.png" width="1920.00" height="1080.00" transform="matrix(1.00, 0.00, -0.00, -1.00, 0.0, 1080.0)"></image></g></g><text xml:space="preserve" font-family="Marion-Regular,Marion" font-size="112.0" fill="#FEFFFF" transform="matrix(1.00, 0.00, -0.00, -1.00, 352.7, 939.3)">H</text><text xml:space="preserve" font-family="Marion-Regular,Marion" font-size="112.0" fill="#FEFFFF" transform="matrix(1.00, 0.00, -0.00, -1.00, 444.0, 939.3)">a</text><text xml:space="preserve" font-family="Marion-Regular,Marion" font-size="112.0" fill="#FEFFFF" transform="matrix(1.00, 0.00, -0.00, -1.00, 493.6, 939.3)">n</text><text xml:space="preserve" font-family="Marion-Regular,Marion" font-size="112.0" fill="#FEFFFF" transform="matrix(1.00, 0.00, -0.00, -1.00, 555.6, 939.3)">d</text><text xml:space="preserve" font-family="Marion-Regular,Marion" font-size="112.0" fill="#FEFFFF" transform="matrix(1.00, 0.00, -0.00, -1.00, 611.7, 939.3)">l</text><text xml:space="preserve" font-family="Marion-Regular,Marion" font-size="112.0" fill="#FEFFFF" transform="matrix(1.00, 0.00, -0.00, -1.00, 644.6, 939.3)">e</text><text xml:space="preserve" font-family="Marion-Regular,Marion" font-size="112.0" fill="#FEFFFF" transform="matrix(1.00, 0.00, -0.00, -1.00, 692.8, 939.3)">b</text><text xml:space="preserve" font-family="Marion-Regular,Marion" font-size="112.0" fill="#FEFFFF" transform="matrix(1.00, 0.00, -0.00, -1.00, 748.1, 939.3)">a</text><text xml:space="preserve" font-family="Marion-Regular,Marion" font-size="112.0" fill="#FEFFFF" transform="matrix(1.00, 0.00, -0.00, -1.00, 797.7, 939.3)">r</text><text xml:space="preserve" font-family="Marion-Regular,Marion" font-size="112.0" fill="#FEFFFF" transform="matrix(1.00, 0.00, -0.00, -1.00, 840.4, 939.3)">s</text><text xml:space="preserve" font-family="Marion-Regular,Marion" font-size="112.0" fill="#FEFFFF" transform="matrix(1.00, 0.00, -0.00, -1.00, 880.9, 939.3)"> </text><text xml:space="preserve" font-family="Marion-Regular,Marion" font-size="112.0" fill="#FEFFFF" transform="matrix(1.00, 0.00, -0.00, -1.00, 914.5, 939.3)">A</text><text xml:space="preserve" font-family="Marion-Regular,Marion" font-size="112.0" fill="#FEFFFF" transform="matrix(1.00, 0.00, -0.00, -1.00, 988.0, 939.3)">s</text><text xml:space="preserve" font-family="Marion-Regular,Marion" font-size="112.0" fill="#FEFFFF" transform="matrix(1.00, 0.00, -0.00, -1.00, 1028.5, 939.3)">s</text><text xml:space="preserve" font-family="Marion-Regular,Marion" font-size="112.0" fill="#FEFFFF" transform="matrix(1.00, 0.00, -0.00, -1.00, 1069.1, 939.3)">e</text><text xml:space="preserve" font-family="Marion-Regular,Marion" font-size="112.0" fill="#FEFFFF" transform="matrix(1.00, 0.00, -0.00, -1.00, 1117.2, 939.3)">t</text><text xml:space="preserve" font-family="Marion-Regular,Marion" font-size="112.0" fill="#FEFFFF" transform="matrix(1.00, 0.00, -0.00, -1.00, 1150.5, 939.3)"> </text><text xml:space="preserve" font-family="Marion-Regular,Marion" font-size="112.0" fill="#FEFFFF" transform="matrix(1.00, 0.00, -0.00, -1.00, 1184.1, 939.3)">P</text><text xml:space="preserve" font-family="Marion-Regular,Marion" font-size="112.0" fill="#FEFFFF" transform="matrix(1.00, 0.00, -0.00, -1.00, 1254.6, 939.3)">i</text><text xml:space="preserve" font-family="Marion-Regular,Marion" font-size="112.0" fill="#FEFFFF" transform="matrix(1.00, 0.00, -0.00, -1.00, 1287.5, 939.3)">p</text><text xml:space="preserve" font-family="Marion-Regular,Marion" font-size="112.0" fill="#FEFFFF" transform="matrix(1.00, 0.00, -0.00, -1.00, 1343.2, 939.3)">e</text><text xml:space="preserve" font-family="Marion-Regular,Marion" font-size="112.0" fill="#FEFFFF" transform="matrix(1.00, 0.00, -0.00, -1.00, 1391.3, 939.3)">l</text><text xml:space="preserve" font-family="Marion-Regular,Marion" font-size="112.0" fill="#FEFFFF" transform="matrix(1.00, 0.00, -0.00, -1.00, 1424.2, 939.3)">i</text><text xml:space="preserve" font-family="Marion-Regular,Marion" font-size="112.0" fill="#FEFFFF" transform="matrix(1.00, 0.00, -0.00, -1.00, 1457.2, 939.3)">n</text><text xml:space="preserve" font-family="Marion-Regular,Marion" font-size="112.0" fill="#FEFFFF" transform="matrix(1.00, 0.00, -0.00, -1.00, 1519.1, 939.3)">e</text><text xml:space="preserve" font-family="FiraMono-Regular,Fira Mono" font-size="46.0" fill="#FEFFFF" transform="matrix(1.00, 0.00, -0.00, -1.00, 644.9, 527.5)">h</text><text xml:space="preserve" font-family="FiraMono-Regular,Fira Mono" font-size="46.0" fill="#FEFFFF" transform="matrix(1.00, 0.00, -0.00, -1.00, 672.5, 527.5)">t</text><text xml:space="preserve" font-family="FiraMono-Regular,Fira Mono" font-size="46.0" fill="#FEFFFF" transform="matrix(1.00, 0.00, -0.00, -1.00, 700.1, 527.5)">t</text><text xml:space="preserve" font-family="FiraMono-Regular,Fira Mono" font-size="46.0" fill="#FEFFFF" transform="matrix(1.00, 0.00, -0.00, -1.00, 727.7, 527.5)">p</text><text xml:space="preserve" font-family="FiraMono-Regular,Fira Mono" font-size="46.0" fill="#FEFFFF" transform="matrix(1.00, 0.00, -0.00, -1.00, 755.3, 527.5)">:</text><text xml:space="preserve" font-family="FiraMono-Regular,Fira Mono" font-size="46.0" fill="#FEFFFF" transform="matrix(1.00, 0.00, -0.00, -1.00, 782.9, 527.5)">/</text><text xml:space="preserve" font-family="FiraMono-Regular,Fira Mono" font-size="46.0" fill="#FEFFFF" transform="matrix(1.00, 0.00, -0.00, -1.00, 810.5, 527.5)">/</text><text xml:space="preserve" font-family="FiraMono-Regular,Fira Mono" font-size="46.0" fill="#FEFFFF" transform="matrix(1.00, 0.00, -0.00, -1.00, 838.1, 527.5)">g</text><text xml:space="preserve" font-family="FiraMono-Regular,Fira Mono" font-size="46.0" fill="#FEFFFF" transform="matrix(1.00, 0.00, -0.00, -1.00, 865.7, 527.5)">i</text><text xml:space="preserve" font-family="FiraMono-Regular,Fira Mono" font-size="46.0" fill="#FEFFFF" transform="matrix(1.00, 0.00, -0.00, -1.00, 893.3, 527.5)">t</text><text xml:space="preserve" font-family="FiraMono-Regular,Fira Mono" font-size="46.0" fill="#FEFFFF" transform="matrix(1.00, 0.00, -0.00, -1.00, 920.9, 527.5)">.</text><text xml:space="preserve" font-family="FiraMono-Regular,Fira Mono" font-size="46.0" fill="#FEFFFF" transform="matrix(1.00, 0.00, -0.00, -1.00, 948.5, 527.5)">i</text><text xml:space="preserve" font-family="FiraMono-Regular,Fira Mono" font-size="46.0" fill="#FEFFFF" transform="matrix(1.00, 0.00, -0.00, -1.00, 976.1, 527.5)">o</text><text xml:space="preserve" font-family="FiraMono-Regular,Fira Mono" font-size="46.0" fill="#FEFFFF" transform="matrix(1.00, 0.00, -0.00, -1.00, 1003.7, 527.5)">/</text><text xml:space="preserve" font-family="FiraMono-Regular,Fira Mono" font-size="46.0" fill="#FEFFFF" transform="matrix(1.00, 0.00, -0.00, -1.00, 1031.3, 527.5)">h</text><text xml:space="preserve" font-family="FiraMono-Regular,Fira Mono" font-size="46.0" fill="#FEFFFF" transform="matrix(1.00, 0.00, -0.00, -1.00, 1058.9, 527.5)">a</text><text xml:space="preserve" font-family="FiraMono-Regular,Fira Mono" font-size="46.0" fill="#FEFFFF" transform="matrix(1.00, 0.00, -0.00, -1.00, 1086.5, 527.5)">n</text><text xml:space="preserve" font-family="FiraMono-Regular,Fira Mono" font-size="46.0" fill="#FEFFFF" transform="matrix(1.00, 0.00, -0.00, -1.00, 1114.1, 527.5)">d</text><text xml:space="preserve" font-family="FiraMono-Regular,Fira Mono" font-size="46.0" fill="#FEFFFF" transform="matrix(1.00, 0.00, -0.00, -1.00, 1141.7, 527.5)">l</text><text xml:space="preserve" font-family="FiraMono-Regular,Fira Mono" font-size="46.0" fill="#FEFFFF" transform="matrix(1.00, 0.00, -0.00, -1.00, 1169.3, 527.5)">e</text><text xml:space="preserve" font-family="FiraMono-Regular,Fira Mono" font-size="46.0" fill="#FEFFFF" transform="matrix(1.00, 0.00, -0.00, -1.00, 1196.9, 527.5)">b</text><text xml:space="preserve" font-family="FiraMono-Regular,Fira Mono" font-size="46.0" fill="#FEFFFF" transform="matrix(1.00, 0.00, -0.00, -1.00, 1224.5, 527.5)">a</text><text xml:space="preserve" font-family="FiraMono-Regular,Fira Mono" font-size="46.0" fill="#FEFFFF" transform="matrix(1.00, 0.00, -0.00, -1.00, 1252.1, 527.5)">r</text><text xml:space="preserve" font-family="FiraMono-Regular,Fira Mono" font-size="46.0" fill="#FEFFFF" transform="matrix(1.00, 0.00, -0.00, -1.00, 1279.7, 527.5)">s</text><text xml:space="preserve" font-family="FiraMono-Regular,Fira Mono" font-size="46.0" fill="#FEFFFF" transform="matrix(1.00, 0.00, -0.00, -1.00, 1307.3, 527.5)">-</text><text xml:space="preserve" font-family="FiraMono-Regular,Fira Mono" font-size="46.0" fill="#FEFFFF" transform="matrix(1.00, 0.00, -0.00, -1.00, 1334.9, 527.5)">a</text><text xml:space="preserve" font-family="FiraMono-Regular,Fira Mono" font-size="46.0" fill="#FEFFFF" transform="matrix(1.00, 0.00, -0.00, -1.00, 1362.5, 527.5)">s</text><text xml:space="preserve" font-family="FiraMono-Regular,Fira Mono" font-size="46.0" fill="#FEFFFF" transform="matrix(1.00, 0.00, -0.00, -1.00, 1390.1, 527.5)">s</text><text xml:space="preserve" font-family="FiraMono-Regular,Fira Mono" font-size="46.0" fill="#FEFFFF" transform="matrix(1.00, 0.00, -0.00, -1.00, 1417.7, 527.5)">e</text><text xml:space="preserve" font-family="FiraMono-Regular,Fira Mono" font-size="46.0" fill="#FEFFFF" transform="matrix(1.00, 0.00, -0.00, -1.00, 1445.3, 527.5)">t</text><text xml:space="preserve" font-family="FiraMono-Regular,Fira Mono" font-size="46.0" fill="#FEFFFF" transform="matrix(1.00, 0.00, -0.00, -1.00, 1472.9, 527.5)">-</text><text xml:space="preserve" font-family="FiraMono-Regular,Fira Mono" font-size="46.0" fill="#FEFFFF" transform="matrix(1.00, 0.00, -0.00, -1.00, 1500.5, 527.5)">p</text><text xml:space="preserve" font-family="FiraMono-Regular,Fira Mono" font-size="46.0" fill="#FEFFFF" transform="matrix(1.00, 0.00, -0.00, -1.00, 1528.1, 527.5)">i</text><text xml:space="preserve" font-family="FiraMono-Regular,Fira Mono" font-size="46.0" fill="#FEFFFF" transform="matrix(1.00, 0.00, -0.00, -1.00, 1555.7, 527.5)">p</text><text xml:space="preserve" font-family="FiraMono-Regular,Fira Mono" font-size="46.0" fill="#FEFFFF" transform="matrix(1.00, 0.00, -0.00, -1.00, 1583.3, 527.5)">e</text><text xml:space="preserve" font-family="FiraMono-Regular,Fira Mono" font-size="46.0" fill="#FEFFFF" transform="matrix(1.00, 0.00, -0.00, -1.00, 1610.9, 527.5)">l</text><text xml:space="preserve" font-family="FiraMono-Regular,Fira Mono" font-size="46.0" fill="#FEFFFF" transform="matrix(1.00, 0.00, -0.00, -1.00, 1638.5, 527.5)">i</text><text xml:space="preserve" font-family="FiraMono-Regular,Fira Mono" font-size="46.0" fill="#FEFFFF" transform="matrix(1.00, 0.00, -0.00, -1.00, 1666.1, 527.5)">n</text><text xml:space="preserve" font-family="FiraMono-Regular,Fira Mono" font-size="46.0" fill="#FEFFFF" transform="matrix(1.00, 0.00, -0.00, -1.00, 1693.7, 527.5)">e</text><g><clipPath id="clip0x7fdaa28b8ed0"><path d="M 0.0 827.0 L 606.0 827.0 L 606.0 0.0 L 0.0 0.0 Z M -0.2 827.0 "></path></clipPath><g clip-path="url(#clip0x7fdaa28b8ed0)"><g><clipPath id="clip0x7fdaa28b92d0"><path d="M 413.4 795.1 C 408.0 795.2 403.4 794.0 399.9 791.4 C 394.3 787.3 376.3 781.3 370.1 781.4 C 369.4 781.3 368.5 781.1 368.0 781.1 C 367.5 781.1 366.7 780.9 365.9 780.8 C 356.7 778.1 333.3 766.2 327.6 760.7 C 324.4 757.7 318.9 750.5 315.3 744.7 C 313.6 742.0 311.5 738.9 309.4 736.0 C 309.4 736.0 309.4 736.0 309.4 736.0 C 309.4 735.1 307.0 731.7 304.0 728.5 C 301.3 725.7 299.5 722.4 298.2 718.1 C 297.7 716.3 297.4 714.2 297.2 711.6 C 296.6 705.5 295.3 698.9 294.2 696.9 C 293.7 695.9 293.1 693.8 292.5 691.4 C 292.5 691.3 292.5 691.3 292.5 691.2 C 292.5 691.2 292.5 691.1 292.5 691.1 C 292.0 688.7 291.5 685.8 291.3 683.1 C 290.5 674.8 288.5 666.6 285.8 658.9 C 285.3 656.8 284.9 654.7 284.4 653.1 C 284.4 652.2 284.3 651.3 284.4 650.6 C 284.6 648.8 283.9 646.9 282.7 646.2 C 282.4 645.9 282.1 645.5 281.9 644.9 C 281.8 644.1 281.7 643.0 281.7 641.9 C 281.7 640.9 281.6 639.8 281.8 638.5 C 282.5 635.2 282.2 632.5 281.3 631.4 C 281.2 627.2 281.2 623.6 281.3 619.3 C 281.4 609.6 281.9 600.7 282.8 600.1 C 283.8 599.5 283.2 597.0 281.4 594.3 C 281.1 593.8 281.0 593.4 280.8 593.0 C 280.5 583.9 280.7 578.9 282.3 572.4 C 283.3 568.3 285.4 561.6 287.5 555.1 C 288.2 553.2 288.9 551.2 289.6 549.2 C 291.3 544.5 293.0 539.4 294.1 537.0 C 295.6 533.9 297.2 522.7 298.4 510.5 C 301.0 506.6 301.8 499.2 301.8 484.4 C 301.8 484.3 301.8 484.3 301.8 484.2 C 301.8 475.8 303.1 465.9 304.8 461.2 C 305.9 457.8 306.5 455.8 306.6 454.4 C 306.6 454.4 306.6 454.4 306.6 454.4 C 308.1 451.6 309.6 449.1 311.0 446.7 C 315.1 444.8 323.2 434.5 322.1 431.7 C 322.0 431.5 322.0 431.4 321.9 431.2 C 323.2 429.0 324.6 426.7 325.9 424.1 L 332.0 411.5 L 333.0 372.5 C 333.4 337.1 332.9 333.0 329.8 329.6 C 327.9 327.5 325.3 321.6 324.0 316.5 C 322.1 309.0 320.8 307.2 317.0 306.7 C 314.4 306.3 302.7 303.6 290.9 300.5 C 279.1 297.5 256.8 293.2 241.2 291.0 C 225.7 288.8 206.9 286.1 199.5 284.9 C 183.5 282.3 151.9 271.7 137.4 264.0 C 131.6 261.0 126.1 258.5 125.2 258.5 C 124.2 258.5 120.5 256.3 117.0 253.6 C 111.6 249.4 110.4 249.1 109.4 251.7 C 108.8 253.3 108.9 258.5 109.6 263.2 C 110.5 269.7 110.0 273.4 106.9 279.3 C 104.8 283.5 102.3 287.4 101.4 287.9 C 99.0 289.4 103.9 321.2 108.9 336.8 C 109.9 339.9 110.8 342.3 111.7 344.3 L 115.9 356.9 L 128.7 361.6 C 132.4 363.5 137.2 365.4 138.8 365.3 C 142.4 366.6 146.6 368.0 150.9 369.5 C 156.2 371.6 164.2 374.7 175.6 378.7 C 190.9 384.0 197.4 386.7 199.9 388.9 C 200.3 389.6 200.5 390.3 200.7 391.3 C 201.2 393.9 202.9 395.2 217.1 399.5 C 217.2 399.5 217.4 399.6 217.6 399.6 C 224.1 401.8 232.4 404.3 245.4 408.2 C 269.6 415.3 291.8 421.3 294.8 421.5 C 300.7 421.8 303.6 425.9 300.2 429.3 C 298.6 430.9 296.9 430.8 293.7 429.2 C 291.3 427.9 268.7 421.3 243.5 414.5 C 201.4 403.1 197.4 402.3 195.2 405.3 C 193.4 407.7 190.1 407.4 171.5 402.0 C 170.6 401.1 167.9 399.8 164.4 398.6 C 159.8 397.1 157.3 396.7 155.0 397.1 C 142.0 393.2 132.2 390.4 127.1 389.2 C 127.1 388.6 126.7 388.2 126.0 387.7 C 122.1 385.3 118.3 388.4 118.3 394.0 C 118.3 401.1 111.5 407.3 103.0 408.1 C 102.2 408.2 101.7 408.3 101.0 408.4 C 99.8 408.0 98.9 407.8 98.0 407.7 C 97.9 407.6 97.7 407.5 97.7 407.4 C 96.8 406.5 95.9 406.6 94.9 407.8 C 93.0 408.6 91.7 411.0 90.5 415.8 C 90.5 415.8 90.5 415.9 90.5 415.9 C 89.2 418.4 87.9 420.7 86.7 421.9 C 82.6 423.3 62.1 418.0 48.7 411.8 C 43.7 409.6 40.8 408.1 38.9 406.6 C 38.2 405.3 37.4 403.9 36.2 402.5 C 36.0 402.0 35.8 401.5 35.8 400.8 C 35.5 398.5 35.0 397.2 34.2 396.4 C 34.0 396.3 33.8 396.2 33.6 396.1 C 33.3 395.9 32.8 395.8 32.3 395.8 C 32.0 395.8 31.7 395.8 31.3 395.8 C 31.3 395.8 31.3 395.8 31.3 395.8 C 30.0 395.9 28.0 395.8 25.9 395.6 C 22.7 394.3 18.8 390.3 15.4 385.5 C 14.7 382.3 13.9 379.0 13.4 378.1 C 12.8 377.1 12.1 374.7 11.8 372.9 C 11.6 371.6 10.0 367.6 8.1 363.2 C 7.5 356.2 3.8 343.1 1.5 341.7 C 0.5 341.0 -0.2 274.9 -0.2 174.2 C -0.2 173.6 -0.2 173.3 -0.2 172.6 C -0.2 171.7 0.0 171.3 0.0 170.3 L 0.0 0.0 L 302.8 0.0 L 606.0 0.0 L 606.0 131.3 L 606.0 132.0 L 606.0 262.5 L 600.2 264.4 C 599.4 264.7 598.1 265.6 596.5 266.9 C 594.5 267.5 592.1 269.6 588.3 273.9 C 587.2 275.2 586.4 276.4 585.4 277.7 C 574.9 288.6 562.7 302.9 558.9 310.0 C 552.5 321.9 548.8 326.1 544.2 326.4 C 543.3 326.5 542.5 326.7 541.8 327.1 C 541.3 327.3 540.9 327.6 540.4 328.2 C 540.4 328.3 540.3 328.5 540.3 328.6 C 539.4 329.7 538.8 331.4 538.2 333.9 C 537.3 337.8 534.4 343.3 531.9 346.0 C 531.9 346.0 531.9 346.0 531.9 346.1 C 530.5 347.6 529.6 348.8 529.0 350.1 C 528.9 350.3 528.9 350.4 528.8 350.6 C 528.5 351.2 528.2 351.8 528.1 352.6 C 528.1 352.6 528.1 352.7 528.1 352.7 C 527.0 357.2 527.5 364.0 529.2 378.2 C 530.2 386.6 531.4 398.6 531.9 404.9 C 533.1 420.3 535.3 431.7 538.9 440.4 C 539.0 440.5 539.0 440.5 539.0 440.6 C 540.1 443.4 541.3 445.6 542.5 447.3 C 543.8 449.5 545.2 451.5 546.8 453.2 C 548.5 455.1 549.7 456.6 550.8 458.2 C 550.2 458.3 549.7 459.0 549.2 460.3 C 548.5 462.1 548.8 464.5 550.0 465.7 C 551.5 467.2 552.5 466.9 553.4 464.4 C 553.5 464.1 553.4 463.8 553.5 463.5 C 553.9 464.8 554.1 466.2 554.1 467.6 C 554.1 472.1 555.6 475.1 559.7 478.6 C 563.5 481.9 568.1 490.4 574.2 505.3 C 582.6 526.0 586.2 537.5 587.7 549.3 C 587.9 552.4 587.8 555.8 588.0 560.2 L 588.0 566.3 C 587.8 576.3 587.1 581.7 584.3 584.0 L 583.1 585.0 C 582.1 585.4 581.1 585.8 579.9 585.8 C 576.0 585.8 574.5 589.4 577.1 592.5 C 577.5 593.1 577.7 593.9 577.9 594.8 C 578.0 595.1 578.2 595.3 578.3 595.8 C 578.4 597.0 578.3 598.3 577.9 599.6 C 577.1 602.0 576.3 608.3 576.0 613.6 C 575.7 618.9 573.2 631.8 570.4 642.3 C 566.9 655.5 565.2 667.3 564.8 680.6 C 564.4 695.3 563.4 701.5 560.4 707.4 C 558.3 711.6 555.0 718.1 553.2 721.8 C 551.3 725.4 547.9 731.0 545.5 734.2 C 543.2 737.3 540.7 741.8 540.0 744.0 C 539.9 744.4 539.6 744.8 539.3 745.3 C 539.0 745.8 538.5 746.5 538.1 747.1 C 536.2 749.6 533.1 752.8 529.8 755.5 C 526.7 758.1 523.8 760.8 520.8 763.6 C 520.6 763.7 520.4 763.8 520.3 763.8 C 519.0 763.8 516.5 766.0 514.8 768.5 C 514.0 769.8 512.8 771.0 511.5 772.0 C 510.8 772.5 510.2 772.9 510.2 772.6 C 510.2 771.9 508.4 772.3 506.3 773.5 C 504.6 774.4 503.4 775.5 503.2 776.3 C 502.2 776.8 501.2 777.4 500.3 778.0 C 498.8 778.2 496.9 778.4 494.6 778.4 C 489.1 778.5 484.9 779.6 481.4 781.6 C 481.1 781.2 480.3 781.5 479.3 782.5 C 479.0 782.8 478.9 783.0 478.7 783.3 C 475.9 785.2 473.1 786.8 472.2 786.8 C 471.2 786.8 468.7 788.9 466.6 791.5 C 464.0 792.3 461.2 792.9 457.7 793.3 C 447.5 794.5 445.9 794.2 443.3 790.7 L 440.3 787.0 L 439.4 787.0 L 431.1 790.8 C 428.0 792.1 424.9 793.2 421.9 793.9 C 418.9 794.6 416.1 795.0 413.4 795.1 Z M 44.7 351.2 C 46.3 351.5 48.6 350.9 51.6 349.3 C 60.2 345.0 70.5 335.1 70.5 331.1 C 70.5 326.6 66.2 323.4 62.9 325.5 C 61.4 326.4 59.5 326.8 58.8 326.3 C 58.0 325.8 56.8 326.3 56.2 327.3 C 55.5 328.4 53.0 329.3 50.5 329.3 C 44.7 329.3 42.1 332.7 41.5 341.3 C 41.1 347.5 42.0 350.7 44.7 351.2 Z M 96.8 236.6 C 97.3 236.5 97.8 236.2 98.1 235.7 C 98.4 235.2 98.5 234.6 98.3 234.1 C 98.2 233.5 97.9 233.0 97.4 232.7 C 96.9 232.4 96.3 232.4 95.8 232.5 C 95.3 232.6 94.8 232.9 94.5 233.4 C 93.9 234.4 94.2 235.7 95.2 236.3 C 95.7 236.7 96.3 236.8 96.8 236.6 Z M 65.3 184.2 C 67.5 184.5 69.5 183.6 71.7 181.7 C 73.7 180.0 73.5 178.3 70.7 172.6 C 68.7 168.8 65.7 160.4 63.9 154.1 C 54.6 121.5 46.7 98.8 42.8 94.2 C 40.4 91.4 33.2 81.1 26.7 71.3 C 20.2 61.6 14.6 53.6 14.1 53.6 C 12.8 53.6 11.7 56.2 10.4 62.4 C 8.6 70.9 18.8 107.3 28.0 125.5 C 30.1 129.7 33.5 138.8 35.6 145.9 C 38.6 155.7 42.0 161.7 50.6 171.7 C 57.5 179.9 61.7 183.7 65.3 184.2 Z M 65.3 184.2 "></path></clipPath><g clip-path="url(#clip0x7fdaa28b92d0)"><g><clipPath id="clip0x7fdaa28b9bb0"><path d="M -1.7 -1.5 L 607.3 -1.5 L 607.3 827.0 L -1.7 827.0 Z M -1.7 -1.5 "></path></clipPath><g clip-path="url(#clip0x7fdaa28b9bb0)"><image xlink:href="7BB23F760DA8E1FF7BDDDCD7C5A4C681.jpeg" width="606.00" height="827.00" transform="matrix(1.00, 0.00, -0.00, -1.00, -0.2, 827.0)"></image></g></g></g></g></g></g><g><clipPath id="clip0x7fdaa28baca0"><path d="M -1.7 -1.5 L 607.3 -1.5 L 607.3 827.0 L -1.7 827.0 Z M -1.7 -1.5 "></path></clipPath><g clip-path="url(#clip0x7fdaa28baca0)"><path d="M 413.7 32.0 C 408.3 31.9 403.6 33.1 400.1 35.6 C 394.5 39.8 376.5 45.7 370.3 45.6 C 369.7 45.7 368.8 45.9 368.2 45.9 C 367.7 45.9 366.9 46.1 366.2 46.3 C 357.0 48.9 333.6 60.9 327.8 66.3 C 324.7 69.3 319.2 76.5 315.6 82.3 C 313.9 85.1 311.7 88.2 309.7 91.0 C 309.7 91.0 309.7 91.0 309.7 91.0 C 309.7 91.9 307.2 95.3 304.2 98.5 C 301.6 101.3 299.8 104.6 298.4 108.9 C 298.0 110.8 297.6 112.8 297.4 115.4 C 296.8 121.5 295.5 128.1 294.4 130.1 C 293.9 131.1 293.3 133.2 292.8 135.7 C 292.8 135.7 292.7 135.8 292.7 135.8 C 292.7 135.9 292.7 135.9 292.7 135.9 C 292.2 138.4 291.8 141.2 291.5 144.0 C 290.7 152.3 288.8 160.4 286.0 168.1 C 285.6 170.2 285.1 172.3 284.7 173.9 C 284.6 174.8 284.5 175.7 284.6 176.4 C 284.8 178.2 284.1 180.2 283.0 180.9 C 282.6 181.1 282.4 181.5 282.2 182.1 C 282.1 182.9 282.0 184.0 281.9 185.1 C 281.9 186.2 281.9 187.2 282.1 188.5 C 282.7 191.8 282.5 194.5 281.5 195.7 C 281.5 199.8 281.4 203.4 281.5 207.7 C 281.7 217.4 282.1 226.4 283.0 226.9 C 284.0 227.5 283.5 230.1 281.7 232.8 C 281.4 233.2 281.2 233.6 281.0 234.0 C 280.8 243.2 281.0 248.1 282.5 254.6 C 283.5 258.8 285.6 265.5 287.8 271.9 C 288.5 273.9 289.2 275.8 289.8 277.8 C 291.5 282.6 293.3 287.6 294.4 290.0 C 295.8 293.1 297.5 304.3 298.7 316.5 C 301.2 320.4 302.0 327.8 302.0 342.7 C 302.0 342.7 302.0 342.8 302.0 342.8 C 302.0 351.3 303.3 361.1 305.0 365.8 C 306.2 369.2 306.8 371.2 306.9 372.6 C 306.9 372.6 306.9 372.6 306.9 372.7 C 308.3 375.4 309.8 377.9 311.2 380.3 C 315.3 382.2 323.5 392.5 322.4 395.3 C 322.3 395.5 322.2 395.6 322.1 395.8 C 323.5 398.1 324.8 400.3 326.1 402.9 L 332.6 415.5 L 333.0 454.6 C 333.4 489.9 333.2 494.0 330.0 497.4 C 328.1 499.5 325.5 505.4 324.2 510.5 C 322.3 518.0 321.0 519.9 317.2 520.4 C 314.7 520.7 302.9 523.5 291.2 526.5 C 279.4 529.5 257.0 533.8 241.5 536.0 C 225.9 538.2 207.1 540.9 199.8 542.1 C 183.7 544.7 152.2 555.3 137.6 563.0 C 131.8 566.1 126.4 568.6 125.4 568.6 C 124.5 568.6 120.8 570.8 117.2 573.5 C 111.8 577.6 110.7 577.9 109.7 575.3 C 109.1 573.7 109.1 568.5 109.8 563.9 C 110.8 557.3 110.2 553.7 107.2 547.8 C 105.0 543.5 102.6 539.7 101.7 539.1 C 99.3 537.6 104.1 505.9 109.2 490.2 C 110.2 487.2 111.0 484.8 111.9 482.7 L 116.2 470.1 L 128.9 465.4 C 132.7 463.5 137.5 461.6 139.0 461.8 C 142.6 460.5 146.8 459.1 151.2 457.5 C 156.4 455.4 164.4 452.4 175.9 448.3 C 191.1 443.0 197.6 440.3 200.2 438.1 C 200.5 437.4 200.8 436.7 201.0 435.8 C 201.5 433.1 203.2 431.8 217.3 427.5 C 217.5 427.5 217.7 427.4 217.8 427.4 C 224.4 425.3 232.6 422.7 245.7 418.8 C 269.8 411.7 292.1 405.7 295.1 405.6 C 301.0 405.2 303.8 401.1 300.4 397.7 C 298.9 396.2 297.2 396.2 294.0 397.9 C 291.6 399.1 269.0 405.8 243.8 412.6 C 201.6 423.9 197.7 424.7 195.5 421.8 C 193.7 419.3 190.3 419.6 171.8 425.1 C 170.9 425.9 168.2 427.2 164.7 428.4 C 160.1 429.9 157.6 430.4 155.2 429.9 C 142.2 433.8 132.4 436.6 127.4 437.9 C 127.3 438.4 127.0 438.9 126.2 439.3 C 122.3 441.7 118.5 438.6 118.5 433.0 C 118.5 425.9 111.8 419.7 103.2 418.9 C 102.4 418.8 101.9 418.7 101.3 418.6 C 100.1 419.1 99.1 419.2 98.2 419.4 C 98.1 419.5 98.0 419.5 97.9 419.6 C 97.0 420.5 96.2 420.4 95.2 419.3 C 93.2 418.5 92.0 416.0 90.8 411.2 C 90.8 411.2 90.7 411.2 90.7 411.1 C 89.4 408.6 88.1 406.4 86.9 405.2 C 82.9 403.7 62.4 409.1 48.9 415.2 C 44.0 417.4 41.1 418.9 39.2 420.4 C 38.5 421.7 37.6 423.1 36.4 424.5 C 36.3 425.1 36.1 425.6 36.0 426.2 C 35.7 428.6 35.3 429.9 34.4 430.6 C 34.3 430.7 34.1 430.8 33.9 430.9 C 33.5 431.1 33.1 431.2 32.6 431.2 C 32.3 431.2 31.9 431.3 31.6 431.2 C 31.6 431.2 31.5 431.3 31.5 431.2 C 30.2 431.1 28.2 431.2 26.2 431.4 C 23.0 432.8 19.0 436.7 15.6 441.6 C 15.0 444.7 14.2 448.0 13.7 448.9 C 13.0 450.0 12.3 452.3 12.0 454.1 C 11.8 455.4 10.2 459.4 8.3 463.8 C 7.8 470.8 4.1 483.9 1.8 485.4 C 0.7 486.0 0.0 552.1 0.0 652.8 C -0.0 653.5 0.0 653.7 0.0 654.4 C -0.0 655.4 0.0 655.8 0.0 656.8 L 0.0 827.0 L 303.0 827.0 L 606.0 827.0 L 606.0 695.8 L 606.0 695.1 L 606.0 564.5 L 600.4 562.6 C 599.6 562.3 598.3 561.4 596.8 560.2 C 594.8 559.5 592.3 557.5 588.6 553.1 C 587.4 551.8 586.6 550.6 585.7 549.3 C 575.2 538.5 562.9 524.1 559.2 517.1 C 552.8 505.2 549.0 501.0 544.5 500.6 C 543.5 500.6 542.8 500.3 542.1 499.9 C 541.6 499.8 541.1 499.4 540.7 498.8 C 540.6 498.7 540.6 498.6 540.5 498.5 C 539.7 497.3 539.0 495.7 538.4 493.1 C 537.5 489.2 534.7 483.7 532.2 481.0 C 532.2 481.0 532.2 481.0 532.2 481.0 C 530.8 479.5 529.9 478.2 529.2 476.9 C 529.2 476.8 529.1 476.6 529.1 476.5 C 528.8 475.8 528.5 475.2 528.3 474.4 C 528.3 474.4 528.4 474.4 528.3 474.3 C 527.3 469.9 527.8 463.0 529.4 448.9 C 530.4 440.5 531.7 428.4 532.2 422.1 C 533.4 406.8 535.6 395.3 539.2 386.6 C 539.2 386.5 539.2 386.5 539.2 386.4 C 540.3 383.6 541.5 381.5 542.8 379.7 C 544.1 377.6 545.5 375.6 547.1 373.8 C 548.7 372.0 550.0 370.4 551.0 368.9 C 550.4 368.7 549.9 368.1 549.4 366.8 C 548.7 365.0 549.1 362.5 550.2 361.4 C 551.8 359.8 552.7 360.2 553.6 362.6 C 553.7 362.9 553.7 363.2 553.7 363.6 C 554.1 362.2 554.4 360.9 554.4 359.5 C 554.4 354.9 555.9 351.9 560.0 348.4 C 563.8 345.1 568.4 336.6 574.4 321.7 C 582.8 301.0 586.5 289.5 587.9 277.8 C 588.1 274.6 588.3 271.3 588.5 266.8 L 588.7 260.7 C 588.5 250.8 587.3 245.0 584.5 242.7 L 583.3 242.0 C 582.4 241.5 581.4 241.2 580.2 241.2 C 576.3 241.2 574.8 237.6 577.3 234.5 C 577.8 234.0 578.0 233.1 578.2 232.2 C 578.3 231.9 578.5 231.7 578.5 231.3 C 578.7 230.0 578.6 228.7 578.2 227.4 C 577.4 225.0 576.5 218.7 576.2 213.4 C 576.0 208.2 573.4 195.3 570.7 184.8 C 567.1 171.5 565.4 159.7 565.1 146.4 C 564.7 131.8 563.6 125.5 560.7 119.7 C 558.5 115.4 555.3 109.0 553.4 105.3 C 551.5 101.6 548.1 96.0 545.8 92.8 C 543.5 89.7 541.0 85.2 540.2 83.0 C 540.1 82.7 539.8 82.2 539.6 81.8 C 539.2 81.2 538.8 80.6 538.3 80.0 C 536.4 77.5 533.4 74.3 530.0 71.5 C 526.9 69.0 524.0 66.2 521.0 63.4 C 520.8 63.4 520.6 63.2 520.5 63.2 C 519.2 63.2 516.8 61.1 515.1 58.5 C 514.3 57.2 513.1 56.0 511.8 55.1 C 511.0 54.5 510.4 54.1 510.4 54.4 C 510.4 55.1 508.7 54.7 506.5 53.6 C 504.8 52.7 503.7 51.5 503.5 50.7 C 502.4 50.3 501.5 49.7 500.6 49.1 C 499.0 48.8 497.2 48.7 494.9 48.6 C 489.3 48.5 485.1 47.5 481.6 45.4 C 481.4 45.8 480.6 45.5 479.5 44.5 C 479.3 44.3 479.1 44.0 479.0 43.8 C 476.2 41.8 473.3 40.2 472.4 40.2 C 471.4 40.2 468.9 38.1 466.9 35.6 C 464.3 34.7 461.5 34.1 457.9 33.7 C 447.7 32.6 446.2 32.8 443.5 36.4 L 440.5 40.3 L 439.6 40.0 L 431.3 36.3 C 428.2 34.9 425.1 33.8 422.2 33.1 C 419.2 32.4 416.3 32.0 413.7 32.0 Z M 45.0 475.8 C 46.6 475.5 48.9 476.2 51.9 477.7 C 60.5 482.0 70.7 492.0 70.7 496.0 C 70.7 500.5 66.4 503.6 63.1 501.6 C 61.6 500.6 59.8 500.3 59.0 500.8 C 58.2 501.2 57.1 500.8 56.4 499.7 C 55.7 498.6 53.2 497.7 50.8 497.7 C 44.9 497.7 42.3 494.3 41.8 485.7 C 41.3 479.5 42.3 476.4 45.0 475.8 Z M 97.0 590.4 C 97.6 590.5 98.0 590.9 98.3 591.4 C 98.7 591.9 98.7 592.4 98.6 593.0 C 98.5 593.5 98.2 594.0 97.7 594.3 C 97.2 594.6 96.6 594.7 96.1 594.6 C 95.5 594.4 95.0 594.1 94.7 593.6 C 94.1 592.6 94.4 591.3 95.4 590.7 C 95.9 590.4 96.5 590.3 97.0 590.4 Z M 65.5 642.8 C 67.7 642.6 69.7 643.5 72.0 645.3 C 74.0 647.0 73.8 648.7 70.9 654.4 C 69.0 658.3 65.9 666.6 64.1 672.9 C 54.9 705.5 46.9 728.2 43.1 732.8 C 40.7 735.7 33.5 745.9 27.0 755.7 C 20.5 765.4 14.8 773.4 14.4 773.4 C 13.1 773.4 12.0 770.8 10.7 764.6 C 8.8 756.1 19.0 719.7 28.2 701.5 C 30.3 697.4 33.8 688.2 35.9 681.2 C 38.8 671.3 42.3 665.3 50.8 655.3 C 57.8 647.1 61.9 643.3 65.5 642.8 Z M 65.5 642.8 " fill="none" stroke="#000000" stroke-width="3.00" transform="matrix(1.00, 0.00, 0.00, -1.00, -0.2, 827.0)"></path></g></g><g><clipPath id="clip0x7fdaa28bb6c0"><path d="M 604.7 -1.6 L 866.8 -1.6 L 866.8 259.2 L 604.7 259.2 Z M 604.7 -1.6 "></path></clipPath><g clip-path="url(#clip0x7fdaa28bb6c0)"><path d="M 606.0 258.0 L 606.0 -1.0 L 865.8 -1.0 Z M 605.7 258.2 " fill="#000000"></path></g></g></g></svg>