<?xml version="1.0" encoding="UTF-8" standalone="no"?><svg xmlns="http://www.w3.org/2000/svg" xmlns:xlink="http://www.w3.org/1999/xlink" clip-rule="evenodd" stroke-miterlimit="10" viewBox="0 0 753 736"><desc>SVG generated by Keynote</desc><defs></defs><g transform="matrix(1.00, 0.00, -0.00, -1.00, 0.0, 736.0)"><g><clipPath id="clip0x7fda85192130"><path d="M 1.0 734.0 L 751.0 734.0 L 751.0 2.0 L 1.0 2.0 Z M 1.0 734.0 "></path></clipPath><g clip-path="url(#clip0x7fda85192130)"><g><clipPath id="clip0x7fda85192570"><path d="M 365.6 3.1 C 361.6 5.3 323.7 26.7 317.2 30.5 C 313.6 32.6 307.9 35.8 304.5 37.6 C 301.2 39.5 291.1 45.2 282.1 50.3 C 273.2 55.5 262.6 61.4 258.7 63.6 C 254.8 65.7 249.9 68.5 247.8 69.8 C 245.7 71.2 243.8 72.2 243.5 72.2 C 243.2 72.2 237.6 75.3 231.0 79.1 C 210.9 90.7 201.9 95.9 197.6 98.2 C 195.4 99.4 188.3 103.4 181.9 107.0 C 175.4 110.7 162.1 118.1 152.3 123.6 C 142.5 129.1 133.3 134.4 131.8 135.5 C 130.3 136.5 128.8 137.4 128.5 137.4 C 128.3 137.4 124.6 139.4 120.3 142.0 C 116.1 144.5 112.4 146.5 112.2 146.5 C 111.6 146.5 86.8 160.9 85.9 161.8 C 85.1 162.5 83.2 176.7 79.6 207.6 C 78.8 214.6 77.4 226.3 76.5 233.6 C 75.6 240.9 74.2 252.6 73.4 259.6 C 72.6 266.6 71.5 275.5 70.9 279.4 C 70.4 283.3 69.2 292.9 68.3 300.8 C 67.5 308.6 66.1 320.1 65.3 326.2 C 64.5 332.4 63.6 340.2 63.3 343.5 C 62.9 346.9 62.2 352.6 61.7 356.3 C 61.1 359.9 59.6 372.7 58.2 384.8 C 56.8 396.8 55.2 409.9 54.7 413.8 C 54.2 417.7 53.0 427.8 52.1 436.2 C 51.2 444.6 50.1 454.2 49.5 457.6 C 49.0 460.9 48.0 468.7 47.4 474.9 C 46.8 481.0 46.1 486.3 45.9 486.6 C 45.8 486.9 45.3 489.9 45.0 493.2 C 44.6 496.6 43.2 508.7 41.8 520.2 C 40.5 531.7 38.9 545.0 38.3 549.7 C 35.3 575.4 34.1 585.5 33.3 591.5 C 32.7 595.1 32.4 601.6 32.0 605.8 L 31.0 613.6 L 34.4 614.8 C 36.3 615.5 44.2 618.3 52.1 621.0 C 59.9 623.8 73.0 628.3 81.1 631.2 C 89.2 634.1 105.5 639.8 117.2 643.9 C 129.0 648.0 145.2 653.8 153.4 656.6 C 180.8 666.4 194.5 671.2 204.3 674.5 C 209.6 676.3 219.9 679.9 227.2 682.6 C 234.4 685.2 244.3 688.7 249.0 690.3 C 253.8 691.9 260.2 694.1 263.3 695.2 C 290.4 704.8 307.2 710.7 322.8 716.2 C 332.9 719.7 348.4 725.1 357.3 728.3 C 366.2 731.4 374.7 734.0 376.2 734.0 C 377.7 734.0 388.3 730.7 399.8 726.8 C 423.1 718.7 446.5 710.6 457.2 707.0 C 461.1 705.7 471.7 702.0 480.6 698.9 C 489.6 695.7 500.8 691.8 505.6 690.2 C 510.3 688.7 522.9 684.3 533.5 680.6 C 544.2 676.9 556.8 672.5 561.5 670.9 C 566.3 669.3 581.0 664.3 594.1 659.7 C 607.3 655.1 621.2 650.3 625.2 648.9 C 629.1 647.6 641.0 643.5 651.6 639.8 C 662.3 636.1 674.4 631.9 678.6 630.5 C 690.3 626.5 720.8 615.8 721.1 615.5 C 721.3 615.2 716.5 571.6 715.8 568.0 C 715.3 565.8 714.7 560.5 711.1 529.9 C 710.6 525.4 709.2 513.9 708.1 504.4 C 706.9 494.9 705.3 481.6 704.6 474.9 C 701.4 446.6 701.0 443.2 700.5 440.8 C 700.2 439.4 699.3 432.5 698.5 425.5 C 697.7 418.5 696.3 406.8 695.4 399.5 C 694.5 392.3 693.2 380.6 692.4 373.6 C 690.9 361.3 688.0 336.5 685.7 318.6 C 683.8 303.1 680.7 276.9 677.6 250.4 C 675.9 236.1 673.6 217.1 672.5 208.1 C 668.7 178.1 667.4 167.4 667.4 165.7 C 667.4 164.8 666.1 163.4 664.6 162.6 C 661.0 160.8 638.0 148.3 630.2 144.0 C 626.2 141.7 619.8 138.3 605.8 130.7 C 598.1 126.6 590.1 122.3 582.9 118.3 C 580.4 116.9 571.9 112.3 564.1 108.1 C 556.2 103.9 547.5 99.2 544.7 97.7 C 541.9 96.1 528.9 89.0 515.7 81.9 C 502.6 74.7 488.8 67.3 485.2 65.3 C 481.6 63.3 476.1 60.4 473.0 58.7 C 469.9 57.0 461.9 52.7 455.2 49.0 C 448.4 45.3 440.4 41.0 437.4 39.4 C 434.3 37.8 431.1 36.1 430.2 35.5 C 427.2 33.6 368.4 2.0 367.9 2.0 C 367.8 2.0 366.7 2.5 365.6 3.1 "></path></clipPath><g clip-path="url(#clip0x7fda85192570)"><image xlink:href="27DD56AB4F61B9491098F8C89B4CD459.png" width="942.00" height="990.00" transform="matrix(0.75, 0.00, -0.00, -0.75, 28.2, 737.1)"></image></g></g></g></g></g></svg>