<?xml version="1.0" encoding="UTF-8" standalone="no"?><svg xmlns="http://www.w3.org/2000/svg" xmlns:xlink="http://www.w3.org/1999/xlink" clip-rule="evenodd" stroke-miterlimit="10" viewBox="0 0 1920 1080"><desc>SVG generated by Keynote</desc><defs></defs><g transform="matrix(1.00, 0.00, -0.00, -1.00, 0.0, 1080.0)"><g><clipPath id="clip0x7fda85041100"><path d="M 0.0 1080.0 L 1920.0 1080.0 L 1920.0 0.0 L 0.0 0.0 Z M 0.0 1080.0 "></path></clipPath><g clip-path="url(#clip0x7fda85041100)"><image xlink:href="../../18DBF37F-4768-4907-A96E-9B8555C8012F/assets/A81AF0278930B93F47F55E5BB6D3A023.png" width="1920.00" height="1080.00" transform="matrix(1.00, 0.00, -0.00, -1.00, 0.0, 1080.0)"></image></g></g><g opacity="0.75"><g><clipPath id="clip0x7fda850470e0"><path d="M 352.0 673.0 L 1568.0 673.0 L 1568.0 685.0 L 352.0 685.0 Z M 352.0 673.0 "></path></clipPath><g clip-path="url(#clip0x7fda850470e0)"><path d="M 0.4 0.0 L 1212.4 0.0 " fill="none" stroke="#FEFFFE" stroke-width="9.00" stroke-dasharray="9.0, 9.0" transform="matrix(1.00, 0.00, 0.00, -1.00, 353.6, 678.5)"></path></g></g></g><text xml:space="preserve" font-family="Marion-Regular,Marion" font-size="112.0" fill="#FEFFFF" transform="matrix(1.00, 0.00, -0.00, -1.00, 401.8, 234.3)">H</text><text xml:space="preserve" font-family="Marion-Regular,Marion" font-size="112.0" fill="#FEFFFF" transform="matrix(1.00, 0.00, -0.00, -1.00, 493.1, 234.3)">e</text><text xml:space="preserve" font-family="Marion-Regular,Marion" font-size="112.0" fill="#FEFFFF" transform="matrix(1.00, 0.00, -0.00, -1.00, 541.2, 234.3)">a</text><text xml:space="preserve" font-family="Marion-Regular,Marion" font-size="112.0" fill="#FEFFFF" transform="matrix(1.00, 0.00, -0.00, -1.00, 590.8, 234.3)">d</text><text xml:space="preserve" font-family="Marion-Regular,Marion" font-size="112.0" fill="#FEFFFF" transform="matrix(1.00, 0.00, -0.00, -1.00, 647.0, 234.3)">l</text><text xml:space="preserve" font-family="Marion-Regular,Marion" font-size="112.0" fill="#FEFFFF" transform="matrix(1.00, 0.00, -0.00, -1.00, 679.9, 234.3)">e</text><text xml:space="preserve" font-family="Marion-Regular,Marion" font-size="112.0" fill="#FEFFFF" transform="matrix(1.00, 0.00, -0.00, -1.00, 728.0, 234.3)">s</text><text xml:space="preserve" font-family="Marion-Regular,Marion" font-size="112.0" fill="#FEFFFF" transform="matrix(1.00, 0.00, -0.00, -1.00, 768.6, 234.3)">s</text><text xml:space="preserve" font-family="Marion-Regular,Marion" font-size="112.0" fill="#FEFFFF" transform="matrix(1.00, 0.00, -0.00, -1.00, 809.1, 234.3)"> </text><text xml:space="preserve" font-family="Marion-Regular,Marion" font-size="112.0" fill="#FEFFFF" transform="matrix(1.00, 0.00, -0.00, -1.00, 842.7, 234.3)">B</text><text xml:space="preserve" font-family="Marion-Regular,Marion" font-size="112.0" fill="#FEFFFF" transform="matrix(1.00, 0.00, -0.00, -1.00, 918.2, 234.3)">r</text><text xml:space="preserve" font-family="Marion-Regular,Marion" font-size="112.0" fill="#FEFFFF" transform="matrix(1.00, 0.00, -0.00, -1.00, 960.9, 234.3)">o</text><text xml:space="preserve" font-family="Marion-Regular,Marion" font-size="112.0" fill="#FEFFFF" transform="matrix(1.00, 0.00, -0.00, -1.00, 1012.1, 234.3)">w</text><text xml:space="preserve" font-family="Marion-Regular,Marion" font-size="112.0" fill="#FEFFFF" transform="matrix(1.00, 0.00, -0.00, -1.00, 1086.2, 234.3)">s</text><text xml:space="preserve" font-family="Marion-Regular,Marion" font-size="112.0" fill="#FEFFFF" transform="matrix(1.00, 0.00, -0.00, -1.00, 1126.8, 234.3)">e</text><text xml:space="preserve" font-family="Marion-Regular,Marion" font-size="112.0" fill="#FEFFFF" transform="matrix(1.00, 0.00, -0.00, -1.00, 1174.9, 234.3)">r</text><text xml:space="preserve" font-family="Marion-Regular,Marion" font-size="112.0" fill="#FEFFFF" transform="matrix(1.00, 0.00, -0.00, -1.00, 1217.6, 234.3)"> </text><text xml:space="preserve" font-family="Marion-Regular,Marion" font-size="112.0" fill="#FEFFFF" transform="matrix(1.00, 0.00, -0.00, -1.00, 1251.2, 234.3)">P</text><text xml:space="preserve" font-family="Marion-Regular,Marion" font-size="112.0" fill="#FEFFFF" transform="matrix(1.00, 0.00, -0.00, -1.00, 1321.6, 234.3)">r</text><text xml:space="preserve" font-family="Marion-Regular,Marion" font-size="112.0" fill="#FEFFFF" transform="matrix(1.00, 0.00, -0.00, -1.00, 1364.3, 234.3)">o</text><text xml:space="preserve" font-family="Marion-Regular,Marion" font-size="112.0" fill="#FEFFFF" transform="matrix(1.00, 0.00, -0.00, -1.00, 1416.5, 234.3)">x</text><text xml:space="preserve" font-family="Marion-Regular,Marion" font-size="112.0" fill="#FEFFFF" transform="matrix(1.00, 0.00, -0.00, -1.00, 1469.5, 234.3)">y</text><text xml:space="preserve" font-family="Marion-Regular,Marion" font-size="44.0" fill="#FEFFFF" transform="matrix(1.00, 0.00, -0.00, -1.00, 725.5, 138.4)">P</text><text xml:space="preserve" font-family="Marion-Regular,Marion" font-size="44.0" fill="#FEFFFF" transform="matrix(1.00, 0.00, -0.00, -1.00, 753.2, 138.4)">h</text><text xml:space="preserve" font-family="Marion-Regular,Marion" font-size="44.0" fill="#FEFFFF" transform="matrix(1.00, 0.00, -0.00, -1.00, 778.2, 138.4)">a</text><text xml:space="preserve" font-family="Marion-Regular,Marion" font-size="44.0" fill="#FEFFFF" transform="matrix(1.00, 0.00, -0.00, -1.00, 797.7, 138.4)">n</text><text xml:space="preserve" font-family="Marion-Regular,Marion" font-size="44.0" fill="#FEFFFF" transform="matrix(1.00, 0.00, -0.00, -1.00, 822.1, 138.4)">t</text><text xml:space="preserve" font-family="Marion-Regular,Marion" font-size="44.0" fill="#FEFFFF" transform="matrix(1.00, 0.00, -0.00, -1.00, 835.1, 138.4)">o</text><text xml:space="preserve" font-family="Marion-Regular,Marion" font-size="44.0" fill="#FEFFFF" transform="matrix(1.00, 0.00, -0.00, -1.00, 855.6, 138.4)">m</text><text xml:space="preserve" font-family="Marion-Regular,Marion" font-size="44.0" fill="#FEFFFF" transform="matrix(1.00, 0.00, -0.00, -1.00, 890.8, 138.4)"> </text><text xml:space="preserve" font-family="Marion-Regular,Marion" font-size="44.0" fill="#FEFFFF" transform="matrix(1.00, 0.00, -0.00, -1.00, 904.0, 138.4)">J</text><text xml:space="preserve" font-family="Marion-Regular,Marion" font-size="44.0" fill="#FEFFFF" transform="matrix(1.00, 0.00, -0.00, -1.00, 923.4, 138.4)">S</text><text xml:space="preserve" font-family="Marion-Regular,Marion" font-size="44.0" fill="#FEFFFF" transform="matrix(1.00, 0.00, -0.00, -1.00, 947.3, 138.4)"> </text><text xml:space="preserve" font-family="Marion-Regular,Marion" font-size="44.0" fill="#FEFFFF" transform="matrix(1.00, 0.00, -0.00, -1.00, 960.5, 138.4)">o</text><text xml:space="preserve" font-family="Marion-Regular,Marion" font-size="44.0" fill="#FEFFFF" transform="matrix(1.00, 0.00, -0.00, -1.00, 981.0, 138.4)">n</text><text xml:space="preserve" font-family="Marion-Regular,Marion" font-size="44.0" fill="#FEFFFF" transform="matrix(1.00, 0.00, -0.00, -1.00, 1005.3, 138.4)"> </text><text xml:space="preserve" font-family="Marion-Regular,Marion" font-size="44.0" fill="#FEFFFF" transform="matrix(1.00, 0.00, -0.00, -1.00, 1018.5, 138.4)">t</text><text xml:space="preserve" font-family="Marion-Regular,Marion" font-size="44.0" fill="#FEFFFF" transform="matrix(1.00, 0.00, -0.00, -1.00, 1031.6, 138.4)">h</text><text xml:space="preserve" font-family="Marion-Regular,Marion" font-size="44.0" fill="#FEFFFF" transform="matrix(1.00, 0.00, -0.00, -1.00, 1056.7, 138.4)">e</text><text xml:space="preserve" font-family="Marion-Regular,Marion" font-size="44.0" fill="#FEFFFF" transform="matrix(1.00, 0.00, -0.00, -1.00, 1075.6, 138.4)"> </text><text xml:space="preserve" font-family="Marion-Regular,Marion" font-size="44.0" fill="#FEFFFF" transform="matrix(1.00, 0.00, -0.00, -1.00, 1088.8, 138.4)">s</text><text xml:space="preserve" font-family="Marion-Regular,Marion" font-size="44.0" fill="#FEFFFF" transform="matrix(1.00, 0.00, -0.00, -1.00, 1104.7, 138.4)">e</text><text xml:space="preserve" font-family="Marion-Regular,Marion" font-size="44.0" fill="#FEFFFF" transform="matrix(1.00, 0.00, -0.00, -1.00, 1123.6, 138.4)">r</text><text xml:space="preserve" font-family="Marion-Regular,Marion" font-size="44.0" fill="#FEFFFF" transform="matrix(1.00, 0.00, -0.00, -1.00, 1140.4, 138.4)">v</text><text xml:space="preserve" font-family="Marion-Regular,Marion" font-size="44.0" fill="#FEFFFF" transform="matrix(1.00, 0.00, -0.00, -1.00, 1158.8, 138.4)">e</text><text xml:space="preserve" font-family="Marion-Regular,Marion" font-size="44.0" fill="#FEFFFF" transform="matrix(1.00, 0.00, -0.00, -1.00, 1177.8, 138.4)">r</text><image xlink:href="FD3E06BCDB80A4E9BC20353439956FF1.png" width="739.00" height="800.00" transform="matrix(0.25, 0.00, -0.00, -0.25, 1090.7, 975.3)"></image><image xlink:href="9E99385CB6DDEC06E4A1C8FDCFE3DA25.png" width="300.00" height="300.00" transform="matrix(0.67, 0.00, -0.00, -0.67, 653.2, 975.3)"></image><g><clipPath id="clip0x7fda84f88780"><path d="M 1133.0 582.0 L 1233.0 582.0 L 1233.0 382.0 L 1133.0 382.0 Z M 1132.9 581.9 "></path></clipPath><g clip-path="url(#clip0x7fda84f88780)"><g><clipPath id="clip0x7fda84f8d410"><path d="M 1186.7 581.9 C 1184.4 581.8 1182.2 581.6 1181.9 581.3 C 1181.6 580.9 1181.3 579.6 1181.1 578.3 C 1180.6 574.8 1178.5 573.2 1173.9 572.4 C 1172.0 572.1 1170.1 571.7 1169.6 571.5 C 1168.2 570.9 1168.1 572.6 1169.5 574.2 C 1170.9 575.9 1171.0 576.5 1170.0 577.9 C 1169.1 579.2 1167.5 579.3 1166.0 578.2 C 1164.8 577.4 1164.7 577.1 1165.5 575.3 C 1166.8 572.2 1166.4 571.2 1163.8 570.6 C 1163.0 570.4 1162.3 569.8 1162.0 569.0 C 1161.2 567.1 1160.8 539.0 1161.5 537.7 C 1161.8 537.1 1162.9 536.5 1164.2 536.1 C 1165.4 535.8 1166.4 535.4 1166.6 535.2 C 1167.0 534.5 1165.9 533.8 1164.0 533.5 C 1163.0 533.3 1160.8 532.9 1159.0 532.5 C 1157.1 532.1 1154.6 531.8 1153.4 531.8 C 1152.1 531.8 1150.7 531.6 1150.2 531.4 C 1149.7 531.1 1148.4 530.5 1147.4 530.0 C 1144.5 528.6 1143.0 525.1 1143.0 519.7 C 1143.0 516.7 1143.2 515.1 1143.9 514.0 C 1144.8 512.3 1146.1 505.9 1146.1 503.2 C 1146.1 501.1 1142.7 493.3 1140.7 490.7 C 1138.3 487.5 1137.3 484.6 1137.2 480.2 C 1137.1 476.5 1137.0 476.1 1135.8 475.1 C 1133.5 473.2 1132.1 467.3 1133.3 464.4 C 1134.2 462.3 1136.7 459.9 1138.0 459.9 C 1139.5 459.9 1143.6 462.2 1144.3 463.4 C 1144.6 464.0 1145.4 465.7 1145.9 467.3 C 1146.5 468.9 1147.2 470.4 1147.6 470.6 C 1148.7 471.3 1151.9 469.7 1152.4 468.2 C 1152.7 467.4 1153.4 466.5 1154.0 466.0 C 1154.9 465.4 1155.0 464.7 1155.0 462.2 L 1155.0 459.2 L 1157.0 458.2 C 1158.7 457.2 1158.9 457.0 1159.1 455.1 C 1159.2 453.6 1158.9 452.6 1158.3 451.7 C 1157.6 450.8 1157.3 449.3 1157.1 446.4 C 1156.9 444.1 1156.5 441.0 1156.0 439.4 C 1155.1 435.8 1155.1 433.5 1156.0 431.0 C 1156.4 429.9 1156.8 427.1 1157.0 424.8 C 1157.3 421.1 1157.3 420.6 1156.5 420.0 C 1154.5 418.6 1151.3 415.2 1150.2 413.6 C 1149.3 412.2 1149.2 410.9 1149.0 406.0 L 1149.0 400.0 L 1150.1 399.0 C 1151.8 398.0 1156.1 397.0 1163.7 395.7 C 1167.0 395.2 1168.5 394.7 1168.4 394.3 C 1168.3 394.0 1168.2 392.5 1168.0 390.9 C 1167.7 388.1 1167.7 388.1 1169.3 387.1 C 1171.5 385.7 1174.2 384.9 1181.4 383.2 C 1184.7 382.4 1188.7 382.0 1190.3 382.0 L 1193.3 382.0 L 1200.0 389.3 C 1210.3 401.1 1209.7 400.0 1209.8 405.4 C 1209.8 407.9 1209.9 410.4 1209.9 411.1 C 1209.9 412.4 1208.0 414.5 1206.9 414.5 C 1205.1 414.5 1204.8 415.7 1205.2 422.1 C 1205.3 425.5 1205.8 430.7 1206.2 433.6 C 1206.5 436.5 1207.0 440.5 1207.2 442.5 C 1207.3 444.5 1207.7 446.5 1207.9 446.9 C 1208.3 447.7 1208.5 447.7 1209.8 447.0 C 1210.6 446.6 1211.2 446.1 1211.2 445.8 C 1211.2 444.7 1213.4 444.6 1215.7 445.7 C 1219.2 447.5 1220.3 449.6 1221.1 456.1 C 1221.3 457.9 1221.9 459.0 1223.3 460.6 C 1224.4 461.8 1225.7 463.7 1226.2 464.6 C 1227.3 466.8 1228.2 471.9 1227.9 473.5 C 1227.5 475.0 1229.3 482.0 1230.8 484.9 C 1232.5 488.1 1233.4 491.9 1233.4 495.6 C 1233.4 498.2 1233.2 499.3 1232.0 501.5 C 1230.1 505.1 1229.2 508.2 1228.9 512.3 C 1228.5 517.1 1227.7 518.7 1224.7 521.1 C 1222.1 523.1 1220.9 525.2 1221.9 526.1 C 1223.3 527.6 1221.4 528.2 1212.2 529.3 C 1209.7 529.6 1206.5 530.0 1205.2 530.3 C 1203.9 530.5 1202.3 530.8 1201.6 530.9 C 1200.7 531.0 1200.4 531.3 1200.4 532.2 C 1200.4 533.3 1200.7 533.5 1203.3 534.3 C 1208.5 535.9 1209.2 536.3 1209.5 538.3 C 1209.8 540.5 1210.7 556.3 1210.8 562.5 C 1210.8 565.3 1211.1 567.2 1211.5 567.8 C 1211.9 568.2 1212.2 569.0 1212.2 569.4 C 1212.2 569.8 1212.6 570.7 1213.2 571.4 C 1214.7 573.4 1214.3 576.0 1212.4 576.2 C 1210.2 576.4 1209.3 576.0 1208.7 574.9 C 1208.3 573.8 1208.3 573.4 1209.0 572.2 C 1209.7 571.0 1209.8 570.6 1209.3 570.0 C 1208.6 569.2 1204.9 569.5 1203.2 570.6 C 1202.7 571.0 1200.9 571.4 1199.4 571.6 C 1197.2 571.8 1196.1 572.2 1194.9 573.2 C 1193.5 574.4 1193.2 574.9 1192.9 577.8 C 1192.7 579.7 1192.3 581.2 1191.9 581.4 C 1191.4 581.8 1189.0 581.9 1186.7 581.9 Z M 1183.5 453.0 C 1184.3 453.6 1185.4 453.3 1185.9 452.9 C 1186.9 452.2 1186.9 452.2 1185.5 450.8 C 1184.7 450.0 1184.1 448.6 1183.9 447.3 C 1183.5 445.2 1182.5 444.2 1182.0 445.5 C 1181.9 445.9 1181.9 447.8 1182.0 449.8 L 1182.0 453.0 L 1183.5 453.0 Z M 1183.5 453.5 "></path></clipPath><g clip-path="url(#clip0x7fda84f8d410)"><image xlink:href="2B39679947C39F1251B97CDE7DBB89F0.png" width="446.00" height="432.00" transform="matrix(0.48, 0.00, -0.00, -0.48, 1080.5, 585.3)"></image></g></g></g></g><g><clipPath id="clip0x7fda84e38710"><path d="M 662.0 582.0 L 844.0 582.0 L 844.0 382.0 L 662.0 382.0 Z M 662.3 581.9 "></path></clipPath><g clip-path="url(#clip0x7fda84e38710)"><g><clipPath id="clip0x7fda84e397b0"><path d="M 677.0 382.0 C 676.8 382.2 675.9 381.9 674.9 382.0 L 673.0 383.0 L 673.0 386.3 C 672.4 389.9 672.0 394.1 672.5 400.4 C 672.6 401.2 672.8 404.4 672.9 407.5 C 673.2 415.4 673.3 417.7 673.7 424.4 C 673.9 427.7 674.0 430.7 674.0 431.0 C 674.0 432.4 676.9 434.6 678.8 434.6 C 679.7 434.6 680.1 435.7 679.9 437.8 C 679.8 440.3 679.4 440.5 676.7 440.3 C 675.0 440.2 674.3 440.3 674.0 440.6 C 673.8 440.9 673.0 441.3 672.2 441.5 C 670.9 441.8 670.6 442.0 670.2 443.2 C 669.9 444.0 669.5 445.3 669.4 446.2 C 669.2 447.1 668.9 447.7 668.7 447.6 C 668.4 447.5 668.3 448.1 668.5 450.0 C 668.6 451.3 668.5 453.7 668.3 455.3 C 667.4 462.7 666.9 466.4 666.6 466.7 C 666.4 466.9 666.3 467.4 666.5 467.7 C 666.6 468.0 666.4 470.2 666.1 472.6 C 665.8 475.0 665.6 477.1 665.6 477.3 C 665.6 477.4 665.6 477.6 665.6 477.7 C 665.6 477.8 665.5 478.5 665.4 479.3 C 665.3 480.0 665.2 481.1 665.1 481.6 C 665.0 482.2 664.8 484.6 664.6 486.9 C 664.3 489.2 664.1 491.4 664.0 491.6 C 663.9 491.9 663.7 492.6 663.7 493.2 C 663.7 493.7 663.5 495.3 663.4 496.7 C 663.2 498.1 663.1 500.1 663.0 501.1 C 663.0 502.2 662.9 503.0 662.9 503.0 C 662.7 503.0 662.6 504.1 662.4 507.3 C 662.2 509.7 662.2 510.5 662.8 512.3 C 663.2 513.4 663.8 515.6 664.2 517.2 C 664.6 518.7 665.1 520.5 665.3 521.0 C 665.5 521.6 665.9 522.8 666.1 523.7 C 666.4 524.7 666.9 526.8 667.4 528.5 C 669.5 535.7 669.8 537.4 669.5 540.5 C 668.8 548.6 668.8 555.1 669.5 557.5 C 669.8 558.5 670.4 560.9 670.8 562.7 C 671.3 564.6 672.2 568.1 672.8 570.6 C 673.5 573.0 674.2 575.9 674.4 577.0 C 674.8 578.4 675.2 579.4 676.0 580.2 L 677.1 581.0 L 684.9 581.0 C 689.2 581.0 692.9 581.6 693.1 581.8 C 693.3 581.9 693.7 581.8 693.9 581.6 C 694.2 581.4 694.5 581.3 694.6 581.5 C 694.8 581.9 699.9 581.8 700.5 581.4 C 700.7 581.3 700.9 581.4 701.0 581.5 C 701.2 581.8 718.4 581.8 718.7 581.5 C 718.9 581.4 719.2 581.4 719.4 581.6 C 719.8 581.9 720.1 581.9 720.7 581.6 C 721.4 581.2 721.7 581.2 722.1 581.6 C 722.3 581.8 722.8 581.9 723.0 581.7 C 723.5 581.4 725.9 581.4 726.2 581.7 C 726.3 581.8 726.6 581.8 726.9 581.6 C 727.2 581.3 727.5 581.3 728.0 581.6 C 728.6 581.9 728.9 581.9 729.2 581.6 C 729.6 581.3 729.9 581.3 730.2 581.5 C 730.4 581.7 730.8 581.8 731.0 581.6 C 731.3 581.5 732.1 581.4 732.9 581.5 C 735.9 581.8 737.0 581.8 737.6 581.5 C 737.9 581.4 738.2 581.4 738.3 581.5 C 738.7 581.9 741.4 581.9 741.8 581.5 C 742.1 581.3 742.3 581.3 742.4 581.6 C 742.6 581.8 742.9 581.8 743.5 581.6 C 744.0 581.4 744.4 581.4 744.5 581.6 C 744.6 581.8 745.0 581.8 745.5 581.6 C 746.0 581.4 746.4 581.4 746.6 581.6 C 746.9 581.9 747.2 581.9 747.6 581.6 C 748.0 581.4 748.5 581.4 748.7 581.6 C 749.4 582.0 770.0 582.0 770.3 581.6 C 770.4 581.4 770.7 581.4 771.2 581.6 C 771.7 581.9 772.0 581.9 772.2 581.6 C 772.5 581.4 772.8 581.4 773.3 581.6 C 773.7 581.9 774.0 581.9 774.3 581.6 C 774.5 581.4 774.9 581.4 775.4 581.6 C 775.9 581.8 776.3 581.8 776.4 581.6 C 776.5 581.4 776.9 581.4 777.3 581.6 C 777.8 581.9 778.1 581.9 778.3 581.6 C 778.6 581.4 778.9 581.4 779.2 581.6 C 779.8 581.8 791.8 581.8 811.7 581.4 C 819.4 581.3 821.0 581.1 822.0 580.6 C 822.7 580.3 823.3 579.9 823.5 579.7 C 824.5 578.3 834.6 565.8 836.5 563.8 C 837.5 562.6 838.6 561.3 839.1 560.7 C 839.5 560.2 840.4 559.0 841.2 558.1 C 844.2 554.7 844.1 554.7 844.1 551.6 C 844.0 550.0 843.8 547.5 843.6 546.1 C 843.3 544.6 842.8 541.3 842.4 538.7 C 841.4 532.3 840.1 526.3 839.5 525.3 C 839.2 524.9 838.3 524.4 837.4 524.0 L 835.8 523.0 L 836.7 522.0 C 837.2 521.6 837.5 521.5 837.4 521.4 C 837.3 521.3 837.5 520.8 837.9 520.4 C 838.3 520.0 838.9 519.0 839.4 518.1 C 839.8 517.3 840.6 515.9 841.2 515.1 C 842.8 512.8 844.5 509.3 844.3 508.6 C 844.2 508.3 844.0 507.5 843.9 506.7 C 843.9 506.0 843.5 504.0 843.1 502.3 C 842.4 499.0 838.8 480.5 838.5 478.9 C 838.5 478.4 838.2 477.2 838.0 476.2 C 837.6 474.3 837.3 473.0 837.1 471.1 C 837.0 470.4 836.8 469.4 836.7 469.1 C 836.2 468.1 835.4 464.2 834.8 460.3 C 834.5 458.4 834.0 456.0 833.7 455.0 C 833.4 454.0 832.9 451.4 832.6 449.4 C 832.2 447.3 831.7 444.9 831.5 444.0 C 831.1 442.4 830.9 442.3 829.5 441.9 C 828.5 441.6 825.8 441.4 821.6 441.3 C 814.2 441.3 814.3 441.3 815.0 438.3 C 815.3 437.3 815.6 436.3 815.7 436.1 C 815.9 435.8 817.8 435.9 821.7 436.0 L 827.6 436.0 L 828.7 434.9 C 829.3 434.3 830.0 433.3 830.2 432.6 C 830.4 432.0 830.7 431.1 830.9 430.7 C 831.0 430.4 831.3 429.1 831.6 428.0 C 831.8 426.9 832.1 425.8 832.2 425.6 C 832.4 425.4 832.6 424.8 832.7 424.1 C 833.3 420.0 833.5 419.0 833.9 418.5 C 834.0 418.1 834.3 417.0 834.4 416.0 C 834.6 414.9 834.8 413.9 834.9 413.6 C 835.1 413.3 835.3 412.3 835.5 411.4 C 835.6 410.4 835.9 409.3 836.2 408.9 C 836.4 408.5 836.6 408.0 836.5 407.8 C 836.4 407.7 836.5 406.9 836.8 406.1 C 837.1 405.3 837.3 404.2 837.3 403.7 C 837.3 403.2 837.6 402.2 837.9 401.5 C 838.2 400.8 838.5 400.0 838.5 399.7 C 838.6 399.4 839.1 397.7 839.7 396.0 C 840.4 393.9 840.8 391.8 840.9 389.9 C 841.1 387.1 841.1 386.8 840.2 385.4 C 839.6 384.2 839.0 383.7 838.4 383.6 C 837.9 383.5 826.3 383.3 812.5 383.2 C 798.8 383.1 782.6 383.0 776.4 382.9 C 761.7 382.6 718.4 382.1 695.5 381.8 C 682.9 381.7 677.2 381.7 677.0 382.0 "></path></clipPath><g clip-path="url(#clip0x7fda84e397b0)"><image xlink:href="9451B166C0DB0A098FE21F0ECDC7DAFD.jpeg" width="838.00" height="838.00" transform="matrix(0.34, 0.00, -0.00, -0.34, 613.0, 611.4)"></image></g></g></g></g><g><clipPath id="clip0x7fda8506e4c0"><path d="M 991.0 929.0 L 991.0 914.6 L 1033.9 949.4 L 991.0 984.3 L 991.0 969.0 L 910.0 969.0 L 910.0 929.0 Z M 991.3 929.4 "></path></clipPath><g clip-path="url(#clip0x7fda8506e4c0)"><image xlink:href="../../CB4EAC8E-8850-4736-B759-79FBA24E8723/assets/8E13FF0D2A86B705C84DE77C8D855D85.png" width="256.00" height="256.00" transform="matrix(0.50, 0.00, -0.00, -0.50, 910.0, 984.3)"></image></g></g><g><clipPath id="clip0x7fda851d1460"><path d="M 906.4 914.6 L 1033.9 914.6 L 1033.9 984.3 L 906.4 984.3 Z M 906.4 914.6 "></path></clipPath><g clip-path="url(#clip0x7fda851d1460)"><text xml:space="preserve" font-family="FiraSans-Regular,Fira Sans" font-size="20.0" fill="#FEFFFF" transform="matrix(1.00, 0.00, -0.00, -1.00, 936.5, 944.3)">H</text><text xml:space="preserve" font-family="FiraSans-Regular,Fira Sans" font-size="20.0" fill="#FEFFFF" transform="matrix(1.00, 0.00, -0.00, -1.00, 950.1, 944.3)">T</text><text xml:space="preserve" font-family="FiraSans-Regular,Fira Sans" font-size="20.0" fill="#FEFFFF" transform="matrix(1.00, 0.00, -0.00, -1.00, 960.0, 944.3)">M</text><text xml:space="preserve" font-family="FiraSans-Regular,Fira Sans" font-size="20.0" fill="#FEFFFF" transform="matrix(1.00, 0.00, -0.00, -1.00, 975.9, 944.3)">L</text></g></g><g><clipPath id="clip0x7fda851e2370"><path d="M 991.0 855.0 L 991.0 840.4 L 1033.9 875.2 L 991.0 910.1 L 991.0 895.0 L 910.0 895.0 L 910.0 855.0 Z M 991.3 855.2 "></path></clipPath><g clip-path="url(#clip0x7fda851e2370)"><image xlink:href="../../CB4EAC8E-8850-4736-B759-79FBA24E8723/assets/8E13FF0D2A86B705C84DE77C8D855D85.png" width="256.00" height="256.00" transform="matrix(0.50, 0.00, -0.00, -0.50, 910.0, 910.1)"></image></g></g><g><clipPath id="clip0x7fda84f931b0"><path d="M 906.4 840.4 L 1033.9 840.4 L 1033.9 910.1 L 906.4 910.1 Z M 906.4 840.4 "></path></clipPath><g clip-path="url(#clip0x7fda84f931b0)"><text xml:space="preserve" font-family="FiraSans-Regular,Fira Sans" font-size="20.0" fill="#FEFFFF" transform="matrix(1.00, 0.00, -0.00, -1.00, 952.7, 870.1)">J</text><text xml:space="preserve" font-family="FiraSans-Regular,Fira Sans" font-size="20.0" fill="#FEFFFF" transform="matrix(1.00, 0.00, -0.00, -1.00, 958.8, 870.1)">S</text></g></g><g><clipPath id="clip0x7fda84f90370"><path d="M 991.0 781.0 L 991.0 766.2 L 1033.9 801.1 L 991.0 835.9 L 991.0 821.0 L 910.0 821.0 L 910.0 781.0 Z M 991.3 781.1 "></path></clipPath><g clip-path="url(#clip0x7fda84f90370)"><image xlink:href="../../CB4EAC8E-8850-4736-B759-79FBA24E8723/assets/8E13FF0D2A86B705C84DE77C8D855D85.png" width="256.00" height="256.00" transform="matrix(0.50, 0.00, -0.00, -0.50, 910.0, 835.9)"></image></g></g><g><clipPath id="clip0x7fda84e44530"><path d="M 906.4 766.2 L 1033.9 766.2 L 1033.9 835.9 L 906.4 835.9 Z M 906.4 766.2 "></path></clipPath><g clip-path="url(#clip0x7fda84e44530)"><text xml:space="preserve" font-family="FiraSans-Regular,Fira Sans" font-size="20.0" fill="#FEFFFF" transform="matrix(1.00, 0.00, -0.00, -1.00, 938.9, 795.9)">J</text><text xml:space="preserve" font-family="FiraSans-Regular,Fira Sans" font-size="20.0" fill="#FEFFFF" transform="matrix(1.00, 0.00, -0.00, -1.00, 945.0, 795.9)">S</text><text xml:space="preserve" font-family="FiraSans-Regular,Fira Sans" font-size="20.0" fill="#FEFFFF" transform="matrix(1.00, 0.00, -0.00, -1.00, 955.9, 795.9)">O</text><text xml:space="preserve" font-family="FiraSans-Regular,Fira Sans" font-size="20.0" fill="#FEFFFF" transform="matrix(1.00, 0.00, -0.00, -1.00, 969.8, 795.9)">N</text></g></g><g><clipPath id="clip0x7fda84e45af0"><path d="M 659.0 660.0 L 644.4 660.0 L 679.2 616.6 L 714.1 660.0 L 699.0 660.0 L 699.0 740.0 L 659.0 740.0 Z M 659.2 659.6 "></path></clipPath><g clip-path="url(#clip0x7fda84e45af0)"><image xlink:href="../../CB4EAC8E-8850-4736-B759-79FBA24E8723/assets/8E13FF0D2A86B705C84DE77C8D855D85.png" width="256.00" height="256.00" transform="matrix(0.00, -0.50, -0.50, 0.00, 714.1, 740.0)"></image></g></g><g><clipPath id="clip0x7fda85070060"><path d="M 714.1 744.2 L 714.1 616.6 L 644.4 616.6 L 644.4 744.2 Z M 714.1 744.2 "></path></clipPath><g clip-path="url(#clip0x7fda85070060)"><text xml:space="preserve" font-family="FiraSans-Regular,Fira Sans" font-size="20.0" fill="#FEFFFF" transform="matrix(0.00, -1.00, -1.00, -0.00, 674.1, 714.2)">H</text><text xml:space="preserve" font-family="FiraSans-Regular,Fira Sans" font-size="20.0" fill="#FEFFFF" transform="matrix(0.00, -1.00, -1.00, -0.00, 674.1, 700.6)">T</text><text xml:space="preserve" font-family="FiraSans-Regular,Fira Sans" font-size="20.0" fill="#FEFFFF" transform="matrix(0.00, -1.00, -1.00, -0.00, 674.1, 690.6)">M</text><text xml:space="preserve" font-family="FiraSans-Regular,Fira Sans" font-size="20.0" fill="#FEFFFF" transform="matrix(0.00, -1.00, -1.00, -0.00, 674.1, 674.7)">L</text></g></g><g><clipPath id="clip0x7fda85072ef0"><path d="M 733.0 660.0 L 718.4 660.0 L 753.3 616.6 L 788.1 660.0 L 773.0 660.0 L 773.0 740.0 L 733.0 740.0 Z M 733.2 659.6 "></path></clipPath><g clip-path="url(#clip0x7fda85072ef0)"><image xlink:href="../../CB4EAC8E-8850-4736-B759-79FBA24E8723/assets/8E13FF0D2A86B705C84DE77C8D855D85.png" width="256.00" height="256.00" transform="matrix(0.00, -0.50, -0.50, 0.00, 788.1, 740.0)"></image></g></g><g><clipPath id="clip0x7fda85073bb0"><path d="M 788.1 744.2 L 788.1 616.6 L 718.4 616.6 L 718.4 744.2 Z M 788.1 744.2 "></path></clipPath><g clip-path="url(#clip0x7fda85073bb0)"><text xml:space="preserve" font-family="FiraSans-Regular,Fira Sans" font-size="20.0" fill="#FEFFFF" transform="matrix(0.00, -1.00, -1.00, -0.00, 748.1, 698.0)">J</text><text xml:space="preserve" font-family="FiraSans-Regular,Fira Sans" font-size="20.0" fill="#FEFFFF" transform="matrix(0.00, -1.00, -1.00, -0.00, 748.1, 691.9)">S</text></g></g><g><clipPath id="clip0x7fda85075df0"><path d="M 807.0 660.0 L 792.4 660.0 L 827.3 616.6 L 862.2 660.0 L 847.0 660.0 L 847.0 740.0 L 807.0 740.0 Z M 807.3 659.6 "></path></clipPath><g clip-path="url(#clip0x7fda85075df0)"><image xlink:href="../../CB4EAC8E-8850-4736-B759-79FBA24E8723/assets/8E13FF0D2A86B705C84DE77C8D855D85.png" width="256.00" height="256.00" transform="matrix(0.00, -0.50, -0.50, 0.00, 862.2, 740.0)"></image></g></g><g><clipPath id="clip0x7fda851e3710"><path d="M 862.2 744.2 L 862.2 616.6 L 792.4 616.6 L 792.4 744.2 Z M 862.2 744.2 "></path></clipPath><g clip-path="url(#clip0x7fda851e3710)"><text xml:space="preserve" font-family="FiraSans-Regular,Fira Sans" font-size="20.0" fill="#FEFFFF" transform="matrix(0.00, -1.00, -1.00, -0.00, 822.2, 711.7)">J</text><text xml:space="preserve" font-family="FiraSans-Regular,Fira Sans" font-size="20.0" fill="#FEFFFF" transform="matrix(0.00, -1.00, -1.00, -0.00, 822.2, 705.6)">S</text><text xml:space="preserve" font-family="FiraSans-Regular,Fira Sans" font-size="20.0" fill="#FEFFFF" transform="matrix(0.00, -1.00, -1.00, -0.00, 822.2, 694.7)">O</text><text xml:space="preserve" font-family="FiraSans-Regular,Fira Sans" font-size="20.0" fill="#FEFFFF" transform="matrix(0.00, -1.00, -1.00, -0.00, 822.2, 680.9)">N</text></g></g><g><clipPath id="clip0x7fda851e5e70"><path d="M 1163.0 659.0 L 1148.3 659.0 L 1183.2 615.7 L 1218.0 659.0 L 1203.0 659.0 L 1203.0 739.0 L 1163.0 739.0 Z M 1163.1 658.7 "></path></clipPath><g clip-path="url(#clip0x7fda851e5e70)"><image xlink:href="../../CB4EAC8E-8850-4736-B759-79FBA24E8723/assets/8E13FF0D2A86B705C84DE77C8D855D85.png" width="256.00" height="256.00" transform="matrix(0.00, -0.50, -0.50, 0.00, 1218.0, 739.0)"></image></g></g><g><clipPath id="clip0x7fda84f90e90"><path d="M 1218.0 743.2 L 1218.0 615.7 L 1148.3 615.7 L 1148.3 743.2 Z M 1218.0 743.2 "></path></clipPath><g clip-path="url(#clip0x7fda84f90e90)"><text xml:space="preserve" font-family="FiraSans-Regular,Fira Sans" font-size="20.0" fill="#FEFFFF" transform="matrix(0.00, -1.00, -1.00, -0.00, 1178.0, 713.2)">H</text><text xml:space="preserve" font-family="FiraSans-Regular,Fira Sans" font-size="20.0" fill="#FEFFFF" transform="matrix(0.00, -1.00, -1.00, -0.00, 1178.0, 699.6)">T</text><text xml:space="preserve" font-family="FiraSans-Regular,Fira Sans" font-size="20.0" fill="#FEFFFF" transform="matrix(0.00, -1.00, -1.00, -0.00, 1178.0, 689.7)">M</text><text xml:space="preserve" font-family="FiraSans-Regular,Fira Sans" font-size="20.0" fill="#FEFFFF" transform="matrix(0.00, -1.00, -1.00, -0.00, 1178.0, 673.8)">L</text></g></g></g></svg>