<?xml version="1.0" encoding="UTF-8" standalone="no"?><svg xmlns="http://www.w3.org/2000/svg" xmlns:xlink="http://www.w3.org/1999/xlink" clip-rule="evenodd" stroke-miterlimit="10" viewBox="0 0 437 41"><desc>SVG generated by Keynote</desc><defs></defs><g transform="matrix(1.00, 0.00, -0.00, -1.00, 0.0, 41.0)"><text xml:space="preserve" font-family="Marion-Regular,Marion" font-size="44.0" fill="#FEFFFF" transform="matrix(1.00, 0.00, -0.00, -1.00, -1.1, 9.4)">C</text><text xml:space="preserve" font-family="Marion-Regular,Marion" font-size="44.0" fill="#FEFFFF" transform="matrix(1.00, 0.00, -0.00, -1.00, 27.7, 9.4)">o</text><text xml:space="preserve" font-family="Marion-Regular,Marion" font-size="44.0" fill="#FEFFFF" transform="matrix(1.00, 0.00, -0.00, -1.00, 48.2, 9.4)">m</text><text xml:space="preserve" font-family="Marion-Regular,Marion" font-size="44.0" fill="#FEFFFF" transform="matrix(1.00, 0.00, -0.00, -1.00, 83.4, 9.4)">b</text><text xml:space="preserve" font-family="Marion-Regular,Marion" font-size="44.0" fill="#FEFFFF" transform="matrix(1.00, 0.00, -0.00, -1.00, 105.1, 9.4)">i</text><text xml:space="preserve" font-family="Marion-Regular,Marion" font-size="44.0" fill="#FEFFFF" transform="matrix(1.00, 0.00, -0.00, -1.00, 118.1, 9.4)">n</text><text xml:space="preserve" font-family="Marion-Regular,Marion" font-size="44.0" fill="#FEFFFF" transform="matrix(1.00, 0.00, -0.00, -1.00, 142.4, 9.4)">e</text><text xml:space="preserve" font-family="Marion-Regular,Marion" font-size="44.0" fill="#FEFFFF" transform="matrix(1.00, 0.00, -0.00, -1.00, 161.3, 9.4)"> </text><text xml:space="preserve" font-family="Marion-Regular,Marion" font-size="44.0" fill="#FEFFFF" transform="matrix(1.00, 0.00, -0.00, -1.00, 174.5, 9.4)">t</text><text xml:space="preserve" font-family="Marion-Regular,Marion" font-size="44.0" fill="#FEFFFF" transform="matrix(1.00, 0.00, -0.00, -1.00, 187.6, 9.4)">h</text><text xml:space="preserve" font-family="Marion-Regular,Marion" font-size="44.0" fill="#FEFFFF" transform="matrix(1.00, 0.00, -0.00, -1.00, 212.7, 9.4)">e</text><text xml:space="preserve" font-family="Marion-Regular,Marion" font-size="44.0" fill="#FEFFFF" transform="matrix(1.00, 0.00, -0.00, -1.00, 231.6, 9.4)"> </text><text xml:space="preserve" font-family="Marion-Regular,Marion" font-size="44.0" fill="#FEFFFF" transform="matrix(1.00, 0.00, -0.00, -1.00, 244.8, 9.4)">a</text><text xml:space="preserve" font-family="Marion-Regular,Marion" font-size="44.0" fill="#FEFFFF" transform="matrix(1.00, 0.00, -0.00, -1.00, 264.3, 9.4)">d</text><text xml:space="preserve" font-family="Marion-Regular,Marion" font-size="44.0" fill="#FEFFFF" transform="matrix(1.00, 0.00, -0.00, -1.00, 286.3, 9.4)">v</text><text xml:space="preserve" font-family="Marion-Regular,Marion" font-size="44.0" fill="#FEFFFF" transform="matrix(1.00, 0.00, -0.00, -1.00, 306.0, 9.4)">a</text><text xml:space="preserve" font-family="Marion-Regular,Marion" font-size="44.0" fill="#FEFFFF" transform="matrix(1.00, 0.00, -0.00, -1.00, 325.5, 9.4)">n</text><text xml:space="preserve" font-family="Marion-Regular,Marion" font-size="44.0" fill="#FEFFFF" transform="matrix(1.00, 0.00, -0.00, -1.00, 349.8, 9.4)">t</text><text xml:space="preserve" font-family="Marion-Regular,Marion" font-size="44.0" fill="#FEFFFF" transform="matrix(1.00, 0.00, -0.00, -1.00, 362.9, 9.4)">a</text><text xml:space="preserve" font-family="Marion-Regular,Marion" font-size="44.0" fill="#FEFFFF" transform="matrix(1.00, 0.00, -0.00, -1.00, 382.4, 9.4)">g</text><text xml:space="preserve" font-family="Marion-Regular,Marion" font-size="44.0" fill="#FEFFFF" transform="matrix(1.00, 0.00, -0.00, -1.00, 402.2, 9.4)">e</text><text xml:space="preserve" font-family="Marion-Regular,Marion" font-size="44.0" fill="#FEFFFF" transform="matrix(1.00, 0.00, -0.00, -1.00, 421.2, 9.4)">s</text></g></svg>