<?xml version="1.0" encoding="UTF-8" standalone="no"?><svg xmlns="http://www.w3.org/2000/svg" xmlns:xlink="http://www.w3.org/1999/xlink" clip-rule="evenodd" stroke-miterlimit="10" viewBox="0 0 1920 1080"><desc>SVG generated by Keynote</desc><defs></defs><g transform="matrix(1.00, 0.00, -0.00, -1.00, 0.0, 1080.0)"><g><clipPath id="clip0x7fda9cfdb690"><path d="M 0.0 1080.0 L 1920.0 1080.0 L 1920.0 0.0 L 0.0 0.0 Z M 0.0 1080.0 "></path></clipPath><g clip-path="url(#clip0x7fda9cfdb690)"><image xlink:href="../../18DBF37F-4768-4907-A96E-9B8555C8012F/assets/A81AF0278930B93F47F55E5BB6D3A023.png" width="1920.00" height="1080.00" transform="matrix(1.00, 0.00, -0.00, -1.00, 0.0, 1080.0)"></image></g></g><g><clipPath id="clip0x7fda9cfdc970"><path d="M 246.0 1027.0 L 1674.0 1027.0 L 1674.0 339.0 L 246.0 339.0 Z M 246.1 1027.0 "></path></clipPath><g clip-path="url(#clip0x7fda9cfdc970)"><g><clipPath id="clip0x7fda9cfdce00"><path d="M 838.8 373.2 C 801.5 378.1 749.8 406.4 718.5 439.1 C 666.5 493.5 637.1 566.5 633.2 651.3 C 631.0 696.9 632.3 708.2 643.6 746.5 C 658.2 796.1 675.5 832.6 697.4 860.5 C 710.0 876.4 713.0 885.3 714.6 911.2 C 716.3 937.9 718.6 944.1 729.6 952.7 C 745.9 965.6 766.4 962.2 785.9 943.5 C 799.5 930.5 801.9 930.0 855.2 929.9 C 921.2 929.7 941.6 922.4 980.4 884.7 C 1001.1 864.5 1007.7 853.7 1016.3 825.9 C 1022.3 806.4 1026.3 781.8 1025.6 768.4 C 1025.0 755.5 1026.5 742.9 1029.1 740.4 C 1031.6 738.0 1049.6 735.3 1069.1 734.4 C 1097.2 733.2 1106.4 734.6 1113.9 741.4 C 1124.6 751.1 1135.4 752.3 1143.0 744.8 C 1146.6 741.2 1152.1 741.4 1161.3 745.6 C 1172.3 750.6 1175.5 750.3 1180.6 744.0 C 1183.9 739.8 1192.8 734.9 1200.2 733.2 C 1211.2 730.6 1213.8 727.3 1213.8 715.5 C 1213.8 707.6 1219.0 693.3 1225.5 683.8 C 1240.6 661.5 1249.5 604.1 1243.1 569.9 C 1240.6 556.3 1231.8 532.0 1223.6 515.9 C 1206.7 482.9 1208.6 477.6 1236.9 476.7 C 1254.4 476.2 1256.4 477.6 1266.0 497.5 C 1277.7 521.9 1284.9 527.7 1303.2 527.8 C 1324.6 528.0 1330.0 513.8 1328.0 462.4 C 1327.4 447.4 1324.9 442.9 1314.9 439.1 C 1308.0 436.5 1300.1 429.3 1297.3 423.0 C 1294.4 416.7 1282.4 406.5 1270.5 400.2 C 1249.9 389.2 1247.5 389.0 1213.0 395.2 C 1193.2 398.7 1167.4 406.7 1155.7 413.0 C 1129.7 426.8 1123.9 427.0 1101.0 414.7 C 1091.1 409.4 1062.5 398.3 1037.3 390.1 C 997.8 377.1 982.5 374.8 923.8 373.0 C 886.6 371.9 848.3 371.9 838.8 373.2 M 647.3 1275.0 C 635.3 1308.6 623.7 1323.9 619.6 1311.7 C 618.4 1308.0 615.6 1292.8 613.4 1277.8 C 610.1 1255.6 607.5 1250.4 599.0 1249.2 L 588.6 1247.7 L 597.7 1301.0 C 602.7 1330.3 606.9 1356.1 606.9 1358.3 C 606.9 1360.6 612.8 1361.7 620.1 1360.8 C 631.1 1359.5 634.9 1354.6 644.2 1329.6 C 650.2 1313.4 658.2 1300.0 661.8 1300.0 C 665.5 1300.0 674.1 1313.9 680.9 1330.8 C 691.6 1357.4 695.0 1361.6 706.1 1361.7 C 718.6 1361.7 719.0 1360.6 726.7 1306.4 C 731.0 1276.0 733.4 1249.3 732.1 1247.2 C 725.8 1237.0 715.7 1244.7 713.1 1261.8 C 707.5 1299.1 703.0 1314.8 698.2 1314.7 C 695.5 1314.7 686.7 1298.6 678.8 1279.0 C 670.8 1259.4 663.0 1243.3 661.5 1243.3 C 659.9 1243.3 653.5 1257.6 647.3 1275.0 M 755.0 1303.0 L 755.0 1362.0 L 785.9 1362.0 C 824.8 1362.0 838.8 1353.2 838.8 1329.6 C 838.8 1317.7 835.0 1309.2 825.7 1300.6 L 812.7 1288.5 L 828.2 1268.9 C 847.0 1245.2 847.2 1243.3 831.4 1243.3 C 821.8 1243.3 815.5 1249.0 803.8 1268.0 C 795.4 1281.6 786.6 1291.4 784.1 1289.9 C 781.6 1288.4 779.6 1277.3 779.6 1265.2 C 779.6 1245.1 778.6 1243.0 767.3 1243.0 L 755.0 1243.0 L 755.0 1303.0 M 865.3 1250.7 C 863.6 1255.1 864.5 1261.0 867.2 1263.8 C 875.3 1271.9 890.6 1266.5 890.6 1255.6 C 890.6 1243.0 869.8 1239.0 865.3 1250.7 M 947.0 1303.0 L 947.0 1362.0 L 959.5 1362.0 C 971.5 1362.0 971.7 1361.0 973.1 1313.8 L 974.5 1265.9 L 993.0 1261.5 C 1003.5 1259.0 1011.5 1254.1 1011.5 1250.2 C 1011.5 1245.0 1003.6 1243.0 979.4 1243.0 L 947.0 1243.0 L 947.0 1303.0 M 1031.2 1246.7 C 1031.2 1248.6 1040.7 1275.2 1052.2 1305.9 C 1072.7 1360.3 1073.5 1361.6 1088.5 1361.7 C 1103.4 1361.7 1104.2 1360.6 1124.3 1306.2 C 1135.6 1275.7 1144.8 1249.0 1144.8 1247.0 C 1144.7 1238.2 1125.4 1244.4 1118.0 1255.6 C 1111.2 1266.1 1106.1 1268.0 1085.3 1268.0 C 1063.5 1268.0 1060.0 1266.5 1055.9 1255.6 C 1051.7 1244.6 1031.2 1237.2 1031.2 1246.7 M 1196.9 1288.3 C 1211.9 1313.1 1223.0 1336.4 1221.6 1340.1 C 1220.0 1344.3 1211.4 1346.9 1199.1 1346.9 C 1184.7 1346.9 1179.2 1349.0 1179.2 1354.3 C 1179.2 1360.3 1187.5 1362.0 1223.5 1362.0 L 1267.8 1362.0 L 1240.5 1316.7 C 1213.7 1272.4 1210.1 1256.6 1227.3 1258.4 C 1249.6 1260.6 1263.1 1257.7 1263.1 1250.7 C 1263.1 1244.6 1254.6 1243.0 1216.4 1243.0 L 1169.6 1243.0 L 1196.9 1288.3 M 1332.2 1273.2 C 1332.2 1299.9 1330.1 1306.1 1312.3 1332.4 L 1292.4 1362.0 L 1306.1 1362.0 C 1316.5 1362.0 1322.7 1357.1 1331.7 1343.4 L 1343.5 1325.2 L 1359.2 1343.9 C 1370.4 1357.3 1378.0 1362.1 1386.0 1360.9 C 1396.6 1359.3 1396.3 1358.2 1376.9 1331.3 C 1358.7 1305.9 1356.9 1300.5 1356.9 1273.3 C 1356.9 1244.6 1356.3 1243.3 1344.5 1243.3 C 1332.7 1243.3 1332.2 1244.6 1332.2 1273.2 "></path></clipPath><g clip-path="url(#clip0x7fda9cfdce00)"><image xlink:href="6F402D5E9C1D97FCB0FC5B7AA506A74B.jpeg" width="425.00" height="425.00" transform="matrix(2.58, 0.00, -0.00, -2.58, 463.9, 1435.7)"></image></g></g></g></g><text xml:space="preserve" font-family="Marion-Regular,Marion" font-size="112.0" fill="#FEFFFF" transform="matrix(1.00, 0.00, -0.00, -1.00, 668.2, 234.3)">W</text><text xml:space="preserve" font-family="Marion-Regular,Marion" font-size="112.0" fill="#FEFFFF" transform="matrix(1.00, 0.00, -0.00, -1.00, 770.6, 234.3)">h</text><text xml:space="preserve" font-family="Marion-Regular,Marion" font-size="112.0" fill="#FEFFFF" transform="matrix(1.00, 0.00, -0.00, -1.00, 831.7, 234.3)">y</text><text xml:space="preserve" font-family="Marion-Regular,Marion" font-size="112.0" fill="#FEFFFF" transform="matrix(1.00, 0.00, -0.00, -1.00, 880.4, 234.3)"> </text><text xml:space="preserve" font-family="Marion-Regular,Marion" font-size="112.0" fill="#FEFFFF" transform="matrix(1.00, 0.00, -0.00, -1.00, 914.0, 234.3)">b</text><text xml:space="preserve" font-family="Marion-Regular,Marion" font-size="112.0" fill="#FEFFFF" transform="matrix(1.00, 0.00, -0.00, -1.00, 969.4, 234.3)">o</text><text xml:space="preserve" font-family="Marion-Regular,Marion" font-size="112.0" fill="#FEFFFF" transform="matrix(1.00, 0.00, -0.00, -1.00, 1021.5, 234.3)">t</text><text xml:space="preserve" font-family="Marion-Regular,Marion" font-size="112.0" fill="#FEFFFF" transform="matrix(1.00, 0.00, -0.00, -1.00, 1054.8, 234.3)">h</text><text xml:space="preserve" font-family="Marion-Regular,Marion" font-size="112.0" fill="#FEFFFF" transform="matrix(1.00, 0.00, -0.00, -1.00, 1118.6, 234.3)">e</text><text xml:space="preserve" font-family="Marion-Regular,Marion" font-size="112.0" fill="#FEFFFF" transform="matrix(1.00, 0.00, -0.00, -1.00, 1166.8, 234.3)">r</text><text xml:space="preserve" font-family="Marion-Regular,Marion" font-size="112.0" fill="#FEFFFF" transform="matrix(1.00, 0.00, -0.00, -1.00, 1209.5, 234.3)">?</text><text xml:space="preserve" font-family="Marion-Regular,Marion" font-size="44.0" fill="#FEFFFF" transform="matrix(1.00, 0.00, -0.00, -1.00, 691.8, 138.4)">T</text><text xml:space="preserve" font-family="Marion-Regular,Marion" font-size="44.0" fill="#FEFFFF" transform="matrix(1.00, 0.00, -0.00, -1.00, 717.5, 138.4)">h</text><text xml:space="preserve" font-family="Marion-Regular,Marion" font-size="44.0" fill="#FEFFFF" transform="matrix(1.00, 0.00, -0.00, -1.00, 742.6, 138.4)">i</text><text xml:space="preserve" font-family="Marion-Regular,Marion" font-size="44.0" fill="#FEFFFF" transform="matrix(1.00, 0.00, -0.00, -1.00, 755.5, 138.4)">s</text><text xml:space="preserve" font-family="Marion-Regular,Marion" font-size="44.0" fill="#FEFFFF" transform="matrix(1.00, 0.00, -0.00, -1.00, 771.4, 138.4)"> </text><text xml:space="preserve" font-family="Marion-Regular,Marion" font-size="44.0" fill="#FEFFFF" transform="matrix(1.00, 0.00, -0.00, -1.00, 784.6, 138.4)">s</text><text xml:space="preserve" font-family="Marion-Regular,Marion" font-size="44.0" fill="#FEFFFF" transform="matrix(1.00, 0.00, -0.00, -1.00, 800.5, 138.4)">o</text><text xml:space="preserve" font-family="Marion-Regular,Marion" font-size="44.0" fill="#FEFFFF" transform="matrix(1.00, 0.00, -0.00, -1.00, 821.0, 138.4)">u</text><text xml:space="preserve" font-family="Marion-Regular,Marion" font-size="44.0" fill="#FEFFFF" transform="matrix(1.00, 0.00, -0.00, -1.00, 844.6, 138.4)">n</text><text xml:space="preserve" font-family="Marion-Regular,Marion" font-size="44.0" fill="#FEFFFF" transform="matrix(1.00, 0.00, -0.00, -1.00, 869.0, 138.4)">d</text><text xml:space="preserve" font-family="Marion-Regular,Marion" font-size="44.0" fill="#FEFFFF" transform="matrix(1.00, 0.00, -0.00, -1.00, 891.0, 138.4)">s</text><text xml:space="preserve" font-family="Marion-Regular,Marion" font-size="44.0" fill="#FEFFFF" transform="matrix(1.00, 0.00, -0.00, -1.00, 906.9, 138.4)"> </text><text xml:space="preserve" font-family="Marion-Regular,Marion" font-size="44.0" fill="#FEFFFF" transform="matrix(1.00, 0.00, -0.00, -1.00, 920.1, 138.4)">l</text><text xml:space="preserve" font-family="Marion-Regular,Marion" font-size="44.0" fill="#FEFFFF" transform="matrix(1.00, 0.00, -0.00, -1.00, 933.1, 138.4)">i</text><text xml:space="preserve" font-family="Marion-Regular,Marion" font-size="44.0" fill="#FEFFFF" transform="matrix(1.00, 0.00, -0.00, -1.00, 946.0, 138.4)">k</text><text xml:space="preserve" font-family="Marion-Regular,Marion" font-size="44.0" fill="#FEFFFF" transform="matrix(1.00, 0.00, -0.00, -1.00, 968.4, 138.4)">e</text><text xml:space="preserve" font-family="Marion-Regular,Marion" font-size="44.0" fill="#FEFFFF" transform="matrix(1.00, 0.00, -0.00, -1.00, 987.4, 138.4)"> </text><text xml:space="preserve" font-family="Marion-Regular,Marion" font-size="44.0" fill="#FEFFFF" transform="matrix(1.00, 0.00, -0.00, -1.00, 1000.6, 138.4)">a</text><text xml:space="preserve" font-family="Marion-Regular,Marion" font-size="44.0" fill="#FEFFFF" transform="matrix(1.00, 0.00, -0.00, -1.00, 1020.1, 138.4)"> </text><text xml:space="preserve" font-family="Marion-Regular,Marion" font-size="44.0" fill="#FEFFFF" transform="matrix(1.00, 0.00, -0.00, -1.00, 1033.3, 138.4)">l</text><text xml:space="preserve" font-family="Marion-Regular,Marion" font-size="44.0" fill="#FEFFFF" transform="matrix(1.00, 0.00, -0.00, -1.00, 1046.2, 138.4)">o</text><text xml:space="preserve" font-family="Marion-Regular,Marion" font-size="44.0" fill="#FEFFFF" transform="matrix(1.00, 0.00, -0.00, -1.00, 1066.7, 138.4)">t</text><text xml:space="preserve" font-family="Marion-Regular,Marion" font-size="44.0" fill="#FEFFFF" transform="matrix(1.00, 0.00, -0.00, -1.00, 1079.8, 138.4)"> </text><text xml:space="preserve" font-family="Marion-Regular,Marion" font-size="44.0" fill="#FEFFFF" transform="matrix(1.00, 0.00, -0.00, -1.00, 1093.0, 138.4)">o</text><text xml:space="preserve" font-family="Marion-Regular,Marion" font-size="44.0" fill="#FEFFFF" transform="matrix(1.00, 0.00, -0.00, -1.00, 1113.5, 138.4)">f</text><text xml:space="preserve" font-family="Marion-Regular,Marion" font-size="44.0" fill="#FEFFFF" transform="matrix(1.00, 0.00, -0.00, -1.00, 1126.6, 138.4)"> </text><text xml:space="preserve" font-family="Marion-Regular,Marion" font-size="44.0" fill="#FEFFFF" transform="matrix(1.00, 0.00, -0.00, -1.00, 1139.8, 138.4)">w</text><text xml:space="preserve" font-family="Marion-Regular,Marion" font-size="44.0" fill="#FEFFFF" transform="matrix(1.00, 0.00, -0.00, -1.00, 1168.5, 138.4)">o</text><text xml:space="preserve" font-family="Marion-Regular,Marion" font-size="44.0" fill="#FEFFFF" transform="matrix(1.00, 0.00, -0.00, -1.00, 1189.0, 138.4)">r</text><text xml:space="preserve" font-family="Marion-Regular,Marion" font-size="44.0" fill="#FEFFFF" transform="matrix(1.00, 0.00, -0.00, -1.00, 1205.8, 138.4)">k</text></g></svg>