<?xml version="1.0" encoding="UTF-8" standalone="no"?><svg xmlns="http://www.w3.org/2000/svg" xmlns:xlink="http://www.w3.org/1999/xlink" clip-rule="evenodd" stroke-miterlimit="10" viewBox="0 0 1920 1080"><desc>SVG generated by Keynote</desc><defs></defs><g transform="matrix(1.00, 0.00, -0.00, -1.00, 0.0, 1080.0)"><g><clipPath id="clip0x7fdaa116ce70"><path d="M 0.0 1080.0 L 1920.0 1080.0 L 1920.0 0.0 L 0.0 0.0 Z M 0.0 1080.0 "></path></clipPath><g clip-path="url(#clip0x7fdaa116ce70)"><image xlink:href="../../18DBF37F-4768-4907-A96E-9B8555C8012F/assets/A81AF0278930B93F47F55E5BB6D3A023.png" width="1920.00" height="1080.00" transform="matrix(1.00, 0.00, -0.00, -1.00, 0.0, 1080.0)"></image></g></g><text xml:space="preserve" font-family="Marion-Regular,Marion" font-size="112.0" fill="#FEFFFF" transform="matrix(1.00, 0.00, -0.00, -1.00, 645.2, 234.3)">H</text><text xml:space="preserve" font-family="Marion-Regular,Marion" font-size="112.0" fill="#FEFFFF" transform="matrix(1.00, 0.00, -0.00, -1.00, 736.4, 234.3)">y</text><text xml:space="preserve" font-family="Marion-Regular,Marion" font-size="112.0" fill="#FEFFFF" transform="matrix(1.00, 0.00, -0.00, -1.00, 785.2, 234.3)">b</text><text xml:space="preserve" font-family="Marion-Regular,Marion" font-size="112.0" fill="#FEFFFF" transform="matrix(1.00, 0.00, -0.00, -1.00, 840.5, 234.3)">r</text><text xml:space="preserve" font-family="Marion-Regular,Marion" font-size="112.0" fill="#FEFFFF" transform="matrix(1.00, 0.00, -0.00, -1.00, 883.2, 234.3)">i</text><text xml:space="preserve" font-family="Marion-Regular,Marion" font-size="112.0" fill="#FEFFFF" transform="matrix(1.00, 0.00, -0.00, -1.00, 916.1, 234.3)">d</text><text xml:space="preserve" font-family="Marion-Regular,Marion" font-size="112.0" fill="#FEFFFF" transform="matrix(1.00, 0.00, -0.00, -1.00, 972.2, 234.3)"> </text><text xml:space="preserve" font-family="Marion-Regular,Marion" font-size="112.0" fill="#FEFFFF" transform="matrix(1.00, 0.00, -0.00, -1.00, 1005.8, 234.3)">V</text><text xml:space="preserve" font-family="Marion-Regular,Marion" font-size="112.0" fill="#FEFFFF" transform="matrix(1.00, 0.00, -0.00, -1.00, 1079.1, 234.3)">i</text><text xml:space="preserve" font-family="Marion-Regular,Marion" font-size="112.0" fill="#FEFFFF" transform="matrix(1.00, 0.00, -0.00, -1.00, 1112.0, 234.3)">e</text><text xml:space="preserve" font-family="Marion-Regular,Marion" font-size="112.0" fill="#FEFFFF" transform="matrix(1.00, 0.00, -0.00, -1.00, 1160.1, 234.3)">w</text><text xml:space="preserve" font-family="Marion-Regular,Marion" font-size="112.0" fill="#FEFFFF" transform="matrix(1.00, 0.00, -0.00, -1.00, 1234.3, 234.3)">s</text><text xml:space="preserve" font-family="Marion-Regular,Marion" font-size="44.0" fill="#FEFFFF" transform="matrix(1.00, 0.00, -0.00, -1.00, 740.9, 138.4)">C</text><text xml:space="preserve" font-family="Marion-Regular,Marion" font-size="44.0" fill="#FEFFFF" transform="matrix(1.00, 0.00, -0.00, -1.00, 769.7, 138.4)">o</text><text xml:space="preserve" font-family="Marion-Regular,Marion" font-size="44.0" fill="#FEFFFF" transform="matrix(1.00, 0.00, -0.00, -1.00, 790.2, 138.4)">m</text><text xml:space="preserve" font-family="Marion-Regular,Marion" font-size="44.0" fill="#FEFFFF" transform="matrix(1.00, 0.00, -0.00, -1.00, 825.4, 138.4)">b</text><text xml:space="preserve" font-family="Marion-Regular,Marion" font-size="44.0" fill="#FEFFFF" transform="matrix(1.00, 0.00, -0.00, -1.00, 847.1, 138.4)">i</text><text xml:space="preserve" font-family="Marion-Regular,Marion" font-size="44.0" fill="#FEFFFF" transform="matrix(1.00, 0.00, -0.00, -1.00, 860.1, 138.4)">n</text><text xml:space="preserve" font-family="Marion-Regular,Marion" font-size="44.0" fill="#FEFFFF" transform="matrix(1.00, 0.00, -0.00, -1.00, 884.4, 138.4)">e</text><text xml:space="preserve" font-family="Marion-Regular,Marion" font-size="44.0" fill="#FEFFFF" transform="matrix(1.00, 0.00, -0.00, -1.00, 903.3, 138.4)"> </text><text xml:space="preserve" font-family="Marion-Regular,Marion" font-size="44.0" fill="#FEFFFF" transform="matrix(1.00, 0.00, -0.00, -1.00, 916.5, 138.4)">t</text><text xml:space="preserve" font-family="Marion-Regular,Marion" font-size="44.0" fill="#FEFFFF" transform="matrix(1.00, 0.00, -0.00, -1.00, 929.6, 138.4)">h</text><text xml:space="preserve" font-family="Marion-Regular,Marion" font-size="44.0" fill="#FEFFFF" transform="matrix(1.00, 0.00, -0.00, -1.00, 954.7, 138.4)">e</text><text xml:space="preserve" font-family="Marion-Regular,Marion" font-size="44.0" fill="#FEFFFF" transform="matrix(1.00, 0.00, -0.00, -1.00, 973.6, 138.4)"> </text><text xml:space="preserve" font-family="Marion-Regular,Marion" font-size="44.0" fill="#FEFFFF" transform="matrix(1.00, 0.00, -0.00, -1.00, 986.8, 138.4)">a</text><text xml:space="preserve" font-family="Marion-Regular,Marion" font-size="44.0" fill="#FEFFFF" transform="matrix(1.00, 0.00, -0.00, -1.00, 1006.3, 138.4)">d</text><text xml:space="preserve" font-family="Marion-Regular,Marion" font-size="44.0" fill="#FEFFFF" transform="matrix(1.00, 0.00, -0.00, -1.00, 1028.3, 138.4)">v</text><text xml:space="preserve" font-family="Marion-Regular,Marion" font-size="44.0" fill="#FEFFFF" transform="matrix(1.00, 0.00, -0.00, -1.00, 1048.0, 138.4)">a</text><text xml:space="preserve" font-family="Marion-Regular,Marion" font-size="44.0" fill="#FEFFFF" transform="matrix(1.00, 0.00, -0.00, -1.00, 1067.5, 138.4)">n</text><text xml:space="preserve" font-family="Marion-Regular,Marion" font-size="44.0" fill="#FEFFFF" transform="matrix(1.00, 0.00, -0.00, -1.00, 1091.8, 138.4)">t</text><text xml:space="preserve" font-family="Marion-Regular,Marion" font-size="44.0" fill="#FEFFFF" transform="matrix(1.00, 0.00, -0.00, -1.00, 1104.9, 138.4)">a</text><text xml:space="preserve" font-family="Marion-Regular,Marion" font-size="44.0" fill="#FEFFFF" transform="matrix(1.00, 0.00, -0.00, -1.00, 1124.4, 138.4)">g</text><text xml:space="preserve" font-family="Marion-Regular,Marion" font-size="44.0" fill="#FEFFFF" transform="matrix(1.00, 0.00, -0.00, -1.00, 1144.2, 138.4)">e</text><text xml:space="preserve" font-family="Marion-Regular,Marion" font-size="44.0" fill="#FEFFFF" transform="matrix(1.00, 0.00, -0.00, -1.00, 1163.2, 138.4)">s</text><image xlink:href="../../3DD885A1-064A-4ADA-A49D-EBB155ADB1CB/assets/7DFA51415542C13A7E2DE71CF72F37FF.png" width="1200.00" height="1200.00" transform="matrix(0.16, 0.00, -0.00, -0.16, 615.2, 913.0)"></image><image xlink:href="../../3DD885A1-064A-4ADA-A49D-EBB155ADB1CB/assets/7DFA51415542C13A7E2DE71CF72F37FF.png" width="1200.00" height="1200.00" transform="matrix(0.16, 0.00, -0.00, -0.16, 1112.8, 913.0)"></image><g><clipPath id="clip0x7fdaa126db40"><path d="M 32.1 721.3 L 223.9 721.3 L 223.9 913.0 L 32.1 913.0 Z M 32.1 721.3 "></path></clipPath><g clip-path="url(#clip0x7fdaa126db40)"><image xlink:href="../../D19D3AAB-54CF-49EA-A602-4126FDEE64A0/assets/FCA466004326A56B63024895C93693F2.png" width="1200.00" height="1200.00" transform="matrix(0.16, 0.00, -0.00, -0.16, 32.1, 913.0)"></image></g></g><g><clipPath id="clip0x7fdaa105a170"><path d="M 204.0 721.3 L 395.8 721.3 L 395.8 913.0 L 204.0 913.0 Z M 204.0 721.3 "></path></clipPath><g clip-path="url(#clip0x7fdaa105a170)"><image xlink:href="../../D19D3AAB-54CF-49EA-A602-4126FDEE64A0/assets/AB07E20E9A2B3DDA0EA8BAB1AB61A9D8.png" width="1200.00" height="1200.00" transform="matrix(0.16, 0.00, -0.00, -0.16, 204.0, 913.0)"></image></g></g><g><clipPath id="clip0x7fda9cfc5300"><path d="M 1523.5 721.3 L 1715.2 721.3 L 1715.2 913.0 L 1523.5 913.0 Z M 1523.5 721.3 "></path></clipPath><g clip-path="url(#clip0x7fda9cfc5300)"><image xlink:href="../../D19D3AAB-54CF-49EA-A602-4126FDEE64A0/assets/FCA466004326A56B63024895C93693F2.png" width="1200.00" height="1200.00" transform="matrix(0.16, 0.00, -0.00, -0.16, 1523.5, 913.0)"></image></g></g><g><clipPath id="clip0x7fdaa1278bc0"><path d="M 1695.4 721.3 L 1887.1 721.3 L 1887.1 913.0 L 1695.4 913.0 Z M 1695.4 721.3 "></path></clipPath><g clip-path="url(#clip0x7fdaa1278bc0)"><image xlink:href="../../D19D3AAB-54CF-49EA-A602-4126FDEE64A0/assets/AB07E20E9A2B3DDA0EA8BAB1AB61A9D8.png" width="1200.00" height="1200.00" transform="matrix(0.16, 0.00, -0.00, -0.16, 1695.4, 913.0)" opacity="0.50"></image></g></g><text xml:space="preserve" font-family="FiraMono-Regular,Fira Mono" font-size="42.0" fill="#FEFFFF" transform="matrix(1.00, 0.00, -0.00, -1.00, 99.8, 558.1)">/</text><text xml:space="preserve" font-family="FiraMono-Regular,Fira Mono" font-size="42.0" fill="#FEFFFF" transform="matrix(1.00, 0.00, -0.00, -1.00, 125.0, 558.1)">p</text><text xml:space="preserve" font-family="FiraMono-Regular,Fira Mono" font-size="42.0" fill="#FEFFFF" transform="matrix(1.00, 0.00, -0.00, -1.00, 150.2, 558.1)">i</text><text xml:space="preserve" font-family="FiraMono-Regular,Fira Mono" font-size="42.0" fill="#FEFFFF" transform="matrix(1.00, 0.00, -0.00, -1.00, 175.4, 558.1)">c</text><text xml:space="preserve" font-family="FiraMono-Regular,Fira Mono" font-size="42.0" fill="#FEFFFF" transform="matrix(1.00, 0.00, -0.00, -1.00, 200.6, 558.1)">t</text><text xml:space="preserve" font-family="FiraMono-Regular,Fira Mono" font-size="42.0" fill="#FEFFFF" transform="matrix(1.00, 0.00, -0.00, -1.00, 225.8, 558.1)">u</text><text xml:space="preserve" font-family="FiraMono-Regular,Fira Mono" font-size="42.0" fill="#FEFFFF" transform="matrix(1.00, 0.00, -0.00, -1.00, 251.0, 558.1)">r</text><text xml:space="preserve" font-family="FiraMono-Regular,Fira Mono" font-size="42.0" fill="#FEFFFF" transform="matrix(1.00, 0.00, -0.00, -1.00, 276.2, 558.1)">e</text><text xml:space="preserve" font-family="FiraMono-Regular,Fira Mono" font-size="42.0" fill="#FEFFFF" transform="matrix(1.00, 0.00, -0.00, -1.00, 301.4, 558.1)">s</text><text xml:space="preserve" font-family="FiraMono-Regular,Fira Mono" font-size="42.0" fill="#FEFFFF" transform="matrix(1.00, 0.00, -0.00, -1.00, 534.7, 560.8)">/</text><text xml:space="preserve" font-family="FiraMono-Regular,Fira Mono" font-size="42.0" fill="#FEFFFF" transform="matrix(1.00, 0.00, -0.00, -1.00, 559.9, 560.8)">p</text><text xml:space="preserve" font-family="FiraMono-Regular,Fira Mono" font-size="42.0" fill="#FEFFFF" transform="matrix(1.00, 0.00, -0.00, -1.00, 585.1, 560.8)">i</text><text xml:space="preserve" font-family="FiraMono-Regular,Fira Mono" font-size="42.0" fill="#FEFFFF" transform="matrix(1.00, 0.00, -0.00, -1.00, 610.3, 560.8)">c</text><text xml:space="preserve" font-family="FiraMono-Regular,Fira Mono" font-size="42.0" fill="#FEFFFF" transform="matrix(1.00, 0.00, -0.00, -1.00, 635.5, 560.8)">t</text><text xml:space="preserve" font-family="FiraMono-Regular,Fira Mono" font-size="42.0" fill="#FEFFFF" transform="matrix(1.00, 0.00, -0.00, -1.00, 660.7, 560.8)">u</text><text xml:space="preserve" font-family="FiraMono-Regular,Fira Mono" font-size="42.0" fill="#FEFFFF" transform="matrix(1.00, 0.00, -0.00, -1.00, 685.9, 560.8)">r</text><text xml:space="preserve" font-family="FiraMono-Regular,Fira Mono" font-size="42.0" fill="#FEFFFF" transform="matrix(1.00, 0.00, -0.00, -1.00, 711.1, 560.8)">e</text><text xml:space="preserve" font-family="FiraMono-Regular,Fira Mono" font-size="42.0" fill="#FEFFFF" transform="matrix(1.00, 0.00, -0.00, -1.00, 736.3, 560.8)">s</text><text xml:space="preserve" font-family="FiraMono-Regular,Fira Mono" font-size="42.0" fill="#FEFFFF" transform="matrix(1.00, 0.00, -0.00, -1.00, 761.5, 560.8)">/</text><text xml:space="preserve" font-family="FiraMono-Regular,Fira Mono" font-size="42.0" fill="#FEFFFF" transform="matrix(1.00, 0.00, -0.00, -1.00, 786.7, 560.8)">1</text><text xml:space="preserve" font-family="FiraMono-Regular,Fira Mono" font-size="42.0" fill="#FEFFFF" transform="matrix(1.00, 0.00, -0.00, -1.00, 811.9, 560.8)">3</text><text xml:space="preserve" font-family="FiraMono-Regular,Fira Mono" font-size="42.0" fill="#FEFFFF" transform="matrix(1.00, 0.00, -0.00, -1.00, 837.1, 560.8)">3</text><text xml:space="preserve" font-family="FiraMono-Regular,Fira Mono" font-size="42.0" fill="#FEFFFF" transform="matrix(1.00, 0.00, -0.00, -1.00, 862.3, 560.8)">7</text><text xml:space="preserve" font-family="FiraMono-Regular,Fira Mono" font-size="42.0" fill="#FEFFFF" transform="matrix(1.00, 0.00, -0.00, -1.00, 1056.7, 558.1)">/</text><text xml:space="preserve" font-family="FiraMono-Regular,Fira Mono" font-size="42.0" fill="#FEFFFF" transform="matrix(1.00, 0.00, -0.00, -1.00, 1081.9, 558.1)">u</text><text xml:space="preserve" font-family="FiraMono-Regular,Fira Mono" font-size="42.0" fill="#FEFFFF" transform="matrix(1.00, 0.00, -0.00, -1.00, 1107.1, 558.1)">s</text><text xml:space="preserve" font-family="FiraMono-Regular,Fira Mono" font-size="42.0" fill="#FEFFFF" transform="matrix(1.00, 0.00, -0.00, -1.00, 1132.3, 558.1)">e</text><text xml:space="preserve" font-family="FiraMono-Regular,Fira Mono" font-size="42.0" fill="#FEFFFF" transform="matrix(1.00, 0.00, -0.00, -1.00, 1157.5, 558.1)">r</text><text xml:space="preserve" font-family="FiraMono-Regular,Fira Mono" font-size="42.0" fill="#FEFFFF" transform="matrix(1.00, 0.00, -0.00, -1.00, 1182.7, 558.1)">s</text><text xml:space="preserve" font-family="FiraMono-Regular,Fira Mono" font-size="42.0" fill="#FEFFFF" transform="matrix(1.00, 0.00, -0.00, -1.00, 1207.9, 558.1)">/</text><text xml:space="preserve" font-family="FiraMono-Regular,Fira Mono" font-size="42.0" fill="#FEFFFF" transform="matrix(1.00, 0.00, -0.00, -1.00, 1233.1, 558.1)">h</text><text xml:space="preserve" font-family="FiraMono-Regular,Fira Mono" font-size="42.0" fill="#FEFFFF" transform="matrix(1.00, 0.00, -0.00, -1.00, 1258.3, 558.1)">o</text><text xml:space="preserve" font-family="FiraMono-Regular,Fira Mono" font-size="42.0" fill="#FEFFFF" transform="matrix(1.00, 0.00, -0.00, -1.00, 1283.5, 558.1)">d</text><text xml:space="preserve" font-family="FiraMono-Regular,Fira Mono" font-size="42.0" fill="#FEFFFF" transform="matrix(1.00, 0.00, -0.00, -1.00, 1308.7, 558.1)">o</text><text xml:space="preserve" font-family="FiraMono-Regular,Fira Mono" font-size="42.0" fill="#FEFFFF" transform="matrix(1.00, 0.00, -0.00, -1.00, 1333.9, 558.1)">r</text><image xlink:href="../../D19D3AAB-54CF-49EA-A602-4126FDEE64A0/assets/1FC12689F5C40A328D24CEBF056B280D.png" width="1200.00" height="1200.00" transform="matrix(0.08, 0.00, -0.00, -0.08, 1406.6, 553.4)"></image><text xml:space="preserve" font-family="FiraMono-Regular,Fira Mono" font-size="42.0" fill="#FEFFFF" transform="matrix(1.00, 0.00, -0.00, -1.00, 1554.1, 558.1)">/</text><text xml:space="preserve" font-family="FiraMono-Regular,Fira Mono" font-size="42.0" fill="#FEFFFF" transform="matrix(1.00, 0.00, -0.00, -1.00, 1579.3, 558.1)">u</text><text xml:space="preserve" font-family="FiraMono-Regular,Fira Mono" font-size="42.0" fill="#FEFFFF" transform="matrix(1.00, 0.00, -0.00, -1.00, 1604.5, 558.1)">s</text><text xml:space="preserve" font-family="FiraMono-Regular,Fira Mono" font-size="42.0" fill="#FEFFFF" transform="matrix(1.00, 0.00, -0.00, -1.00, 1629.7, 558.1)">e</text><text xml:space="preserve" font-family="FiraMono-Regular,Fira Mono" font-size="42.0" fill="#FEFFFF" transform="matrix(1.00, 0.00, -0.00, -1.00, 1654.9, 558.1)">r</text><text xml:space="preserve" font-family="FiraMono-Regular,Fira Mono" font-size="42.0" fill="#FEFFFF" transform="matrix(1.00, 0.00, -0.00, -1.00, 1680.1, 558.1)">s</text><text xml:space="preserve" font-family="FiraMono-Regular,Fira Mono" font-size="42.0" fill="#FEFFFF" transform="matrix(1.00, 0.00, -0.00, -1.00, 1705.3, 558.1)">/</text><text xml:space="preserve" font-family="FiraMono-Regular,Fira Mono" font-size="42.0" fill="#FEFFFF" transform="matrix(1.00, 0.00, -0.00, -1.00, 1730.5, 558.1)">h</text><text xml:space="preserve" font-family="FiraMono-Regular,Fira Mono" font-size="42.0" fill="#FEFFFF" transform="matrix(1.00, 0.00, -0.00, -1.00, 1755.7, 558.1)">o</text><text xml:space="preserve" font-family="FiraMono-Regular,Fira Mono" font-size="42.0" fill="#FEFFFF" transform="matrix(1.00, 0.00, -0.00, -1.00, 1780.9, 558.1)">d</text><text xml:space="preserve" font-family="FiraMono-Regular,Fira Mono" font-size="42.0" fill="#FEFFFF" transform="matrix(1.00, 0.00, -0.00, -1.00, 1806.1, 558.1)">o</text><text xml:space="preserve" font-family="FiraMono-Regular,Fira Mono" font-size="42.0" fill="#FEFFFF" transform="matrix(1.00, 0.00, -0.00, -1.00, 1831.3, 558.1)">r</text><image xlink:href="../../D19D3AAB-54CF-49EA-A602-4126FDEE64A0/assets/52F55890372D195535E1948C0B429B4E.png" width="1200.00" height="1200.00" transform="matrix(0.08, 0.00, -0.00, -0.08, 1406.6, 685.8)"></image><image xlink:href="../../D19D3AAB-54CF-49EA-A602-4126FDEE64A0/assets/A8B26EC2BAD3544C3A21FCE4A41592FE.png" width="1200.00" height="1200.00" transform="matrix(0.08, 0.00, -0.00, -0.08, 380.6, 622.3)"></image><image xlink:href="../../D19D3AAB-54CF-49EA-A602-4126FDEE64A0/assets/A8B26EC2BAD3544C3A21FCE4A41592FE.png" width="1200.00" height="1200.00" transform="matrix(0.08, 0.00, -0.00, -0.08, 922.1, 622.3)"></image></g></svg>