<?xml version="1.0" encoding="UTF-8" standalone="no"?><svg xmlns="http://www.w3.org/2000/svg" xmlns:xlink="http://www.w3.org/1999/xlink" clip-rule="evenodd" stroke-miterlimit="10" viewBox="0 0 1920 1080"><desc>SVG generated by Keynote</desc><defs></defs><g transform="matrix(1.00, 0.00, -0.00, -1.00, 0.0, 1080.0)"><g><clipPath id="clip0x7fda85333280"><path d="M 0.0 1080.0 L 1920.0 1080.0 L 1920.0 0.0 L 0.0 0.0 Z M 0.0 1080.0 "></path></clipPath><g clip-path="url(#clip0x7fda85333280)"><image xlink:href="../../18DBF37F-4768-4907-A96E-9B8555C8012F/assets/A81AF0278930B93F47F55E5BB6D3A023.png" width="1920.00" height="1080.00" transform="matrix(1.00, 0.00, -0.00, -1.00, 0.0, 1080.0)"></image></g></g><g><clipPath id="clip0x7fda85335b50"><path d="M 369.6 387.1 L 595.8 387.1 L 595.8 520.2 L 369.6 520.2 Z M 369.6 387.1 "></path></clipPath><g clip-path="url(#clip0x7fda85335b50)"><text xml:space="preserve" font-family="LucidaHandwriting-Italic,Lucida Handwriting" font-style="italic" font-size="64.0" fill="#FEFFFF" transform="matrix(1.00, 0.00, -0.00, -1.00, 392.2, 431.9)">Y</text><text xml:space="preserve" font-family="LucidaHandwriting-Italic,Lucida Handwriting" font-style="italic" font-size="64.0" fill="#FEFFFF" transform="matrix(1.00, 0.00, -0.00, -1.00, 429.6, 431.9)">e</text><text xml:space="preserve" font-family="LucidaHandwriting-Italic,Lucida Handwriting" font-style="italic" font-size="64.0" fill="#FEFFFF" transform="matrix(1.00, 0.00, -0.00, -1.00, 467.0, 431.9)">s</text><text xml:space="preserve" font-family="LucidaHandwriting-Italic,Lucida Handwriting" font-style="italic" font-size="64.0" fill="#FEFFFF" transform="matrix(1.00, 0.00, -0.00, -1.00, 494.5, 431.9)">,</text><text xml:space="preserve" font-family="LucidaHandwriting-Italic,Lucida Handwriting" font-style="italic" font-size="64.0" fill="#FEFFFF" transform="matrix(1.00, 0.00, -0.00, -1.00, 516.8, 431.9)"> </text><text xml:space="preserve" font-family="LucidaHandwriting-Italic,Lucida Handwriting" font-style="italic" font-size="64.0" fill="#FEFFFF" transform="matrix(1.00, 0.00, -0.00, -1.00, 538.4, 431.9)">I</text></g></g><g><clipPath id="clip0x7fda84ee7dc0"><path d="M 911.1 387.1 L 1550.4 387.1 L 1550.4 520.2 L 911.1 520.2 Z M 911.1 387.1 "></path></clipPath><g clip-path="url(#clip0x7fda84ee7dc0)"><text xml:space="preserve" font-family="LucidaHandwriting-Italic,Lucida Handwriting" font-style="italic" font-size="64.0" fill="#FEFFFF" transform="matrix(1.00, 0.00, -0.00, -1.00, 933.7, 431.9)">y</text><text xml:space="preserve" font-family="LucidaHandwriting-Italic,Lucida Handwriting" font-style="italic" font-size="64.0" fill="#FEFFFF" transform="matrix(1.00, 0.00, -0.00, -1.00, 970.5, 431.9)">o</text><text xml:space="preserve" font-family="LucidaHandwriting-Italic,Lucida Handwriting" font-style="italic" font-size="64.0" fill="#FEFFFF" transform="matrix(1.00, 0.00, -0.00, -1.00, 1013.5, 431.9)">u</text><text xml:space="preserve" font-family="LucidaHandwriting-Italic,Lucida Handwriting" font-style="italic" font-size="64.0" fill="#FEFFFF" transform="matrix(1.00, 0.00, -0.00, -1.00, 1063.4, 431.9)"> </text><text xml:space="preserve" font-family="LucidaHandwriting-Italic,Lucida Handwriting" font-style="italic" font-size="64.0" fill="#FEFFFF" transform="matrix(1.00, 0.00, -0.00, -1.00, 1085.0, 431.9)">a</text><text xml:space="preserve" font-family="LucidaHandwriting-Italic,Lucida Handwriting" font-style="italic" font-size="64.0" fill="#FEFFFF" transform="matrix(1.00, 0.00, -0.00, -1.00, 1135.7, 431.9)"> </text><text xml:space="preserve" font-family="LucidaHandwriting-Italic,Lucida Handwriting" font-style="italic" font-size="64.0" fill="#FEFFFF" transform="matrix(1.00, 0.00, -0.00, -1.00, 1157.3, 431.9)">q</text><text xml:space="preserve" font-family="LucidaHandwriting-Italic,Lucida Handwriting" font-style="italic" font-size="64.0" fill="#FEFFFF" transform="matrix(1.00, 0.00, -0.00, -1.00, 1197.9, 431.9)">u</text><text xml:space="preserve" font-family="LucidaHandwriting-Italic,Lucida Handwriting" font-style="italic" font-size="64.0" fill="#FEFFFF" transform="matrix(1.00, 0.00, -0.00, -1.00, 1247.9, 431.9)">e</text><text xml:space="preserve" font-family="LucidaHandwriting-Italic,Lucida Handwriting" font-style="italic" font-size="64.0" fill="#FEFFFF" transform="matrix(1.00, 0.00, -0.00, -1.00, 1285.3, 431.9)">s</text><text xml:space="preserve" font-family="LucidaHandwriting-Italic,Lucida Handwriting" font-style="italic" font-size="64.0" fill="#FEFFFF" transform="matrix(1.00, 0.00, -0.00, -1.00, 1312.8, 431.9)">t</text><text xml:space="preserve" font-family="LucidaHandwriting-Italic,Lucida Handwriting" font-style="italic" font-size="64.0" fill="#FEFFFF" transform="matrix(1.00, 0.00, -0.00, -1.00, 1341.0, 431.9)">i</text><text xml:space="preserve" font-family="LucidaHandwriting-Italic,Lucida Handwriting" font-style="italic" font-size="64.0" fill="#FEFFFF" transform="matrix(1.00, 0.00, -0.00, -1.00, 1369.4, 431.9)">o</text><text xml:space="preserve" font-family="LucidaHandwriting-Italic,Lucida Handwriting" font-style="italic" font-size="64.0" fill="#FEFFFF" transform="matrix(1.00, 0.00, -0.00, -1.00, 1412.3, 431.9)">n</text><text xml:space="preserve" font-family="LucidaHandwriting-Italic,Lucida Handwriting" font-style="italic" font-size="64.0" fill="#FEFFFF" transform="matrix(1.00, 0.00, -0.00, -1.00, 1463.9, 431.9)">…</text></g></g><g><clipPath id="clip0x7fda84ee88f0"><path d="M 569.0 684.0 L 948.0 684.0 L 948.0 396.0 L 569.0 396.0 Z M 569.4 684.3 "></path></clipPath><g clip-path="url(#clip0x7fda84ee88f0)"><g><clipPath id="clip0x7fda854539c0"><path d="M 569.4 395.7 L 948.4 395.7 L 948.4 684.3 L 569.4 684.3 Z M 569.4 395.7 "></path></clipPath><g clip-path="url(#clip0x7fda854539c0)"><image xlink:href="55A24784F7F44DC21181818686EFF27D.png" width="375.00" height="360.00" transform="matrix(1.00, 0.00, -0.00, -1.00, 571.4, 720.0)"></image></g></g></g></g></g></svg>