<?xml version="1.0" encoding="UTF-8" standalone="no"?><svg xmlns="http://www.w3.org/2000/svg" xmlns:xlink="http://www.w3.org/1999/xlink" clip-rule="evenodd" stroke-miterlimit="10" viewBox="0 0 1920 1080"><desc>SVG generated by Keynote</desc><defs></defs><g transform="matrix(1.00, 0.00, -0.00, -1.00, 0.0, 1080.0)"><g><clipPath id="clip0x7fda84e67f90"><path d="M 0.0 1080.0 L 1920.0 1080.0 L 1920.0 0.0 L 0.0 0.0 Z M 0.0 1080.0 "></path></clipPath><g clip-path="url(#clip0x7fda84e67f90)"><image xlink:href="../../18DBF37F-4768-4907-A96E-9B8555C8012F/assets/A81AF0278930B93F47F55E5BB6D3A023.png" width="1920.00" height="1080.00" transform="matrix(1.00, 0.00, -0.00, -1.00, 0.0, 1080.0)"></image></g></g><text xml:space="preserve" font-family="Marion-Regular,Marion" font-size="112.0" fill="#FEFFFF" transform="matrix(1.00, 0.00, -0.00, -1.00, 340.2, 939.3)">L</text><text xml:space="preserve" font-family="Marion-Regular,Marion" font-size="112.0" fill="#FEFFFF" transform="matrix(1.00, 0.00, -0.00, -1.00, 406.2, 939.3)">o</text><text xml:space="preserve" font-family="Marion-Regular,Marion" font-size="112.0" fill="#FEFFFF" transform="matrix(1.00, 0.00, -0.00, -1.00, 458.4, 939.3)">a</text><text xml:space="preserve" font-family="Marion-Regular,Marion" font-size="112.0" fill="#FEFFFF" transform="matrix(1.00, 0.00, -0.00, -1.00, 508.0, 939.3)">d</text><text xml:space="preserve" font-family="Marion-Regular,Marion" font-size="112.0" fill="#FEFFFF" transform="matrix(1.00, 0.00, -0.00, -1.00, 564.1, 939.3)"> </text><text xml:space="preserve" font-family="Marion-Regular,Marion" font-size="112.0" fill="#FEFFFF" transform="matrix(1.00, 0.00, -0.00, -1.00, 597.7, 939.3)">J</text><text xml:space="preserve" font-family="Marion-Regular,Marion" font-size="112.0" fill="#FEFFFF" transform="matrix(1.00, 0.00, -0.00, -1.00, 647.1, 939.3)">S</text><text xml:space="preserve" font-family="Marion-Regular,Marion" font-size="112.0" fill="#FEFFFF" transform="matrix(1.00, 0.00, -0.00, -1.00, 707.8, 939.3)">O</text><text xml:space="preserve" font-family="Marion-Regular,Marion" font-size="112.0" fill="#FEFFFF" transform="matrix(1.00, 0.00, -0.00, -1.00, 791.4, 939.3)">N</text><text xml:space="preserve" font-family="Marion-Regular,Marion" font-size="112.0" fill="#FEFFFF" transform="matrix(1.00, 0.00, -0.00, -1.00, 874.6, 939.3)"> </text><text xml:space="preserve" font-family="Marion-Regular,Marion" font-size="112.0" fill="#FEFFFF" transform="matrix(1.00, 0.00, -0.00, -1.00, 908.2, 939.3)">S</text><text xml:space="preserve" font-family="Marion-Regular,Marion" font-size="112.0" fill="#FEFFFF" transform="matrix(1.00, 0.00, -0.00, -1.00, 968.9, 939.3)">y</text><text xml:space="preserve" font-family="Marion-Regular,Marion" font-size="112.0" fill="#FEFFFF" transform="matrix(1.00, 0.00, -0.00, -1.00, 1017.6, 939.3)">n</text><text xml:space="preserve" font-family="Marion-Regular,Marion" font-size="112.0" fill="#FEFFFF" transform="matrix(1.00, 0.00, -0.00, -1.00, 1079.6, 939.3)">c</text><text xml:space="preserve" font-family="Marion-Regular,Marion" font-size="112.0" fill="#FEFFFF" transform="matrix(1.00, 0.00, -0.00, -1.00, 1124.7, 939.3)">h</text><text xml:space="preserve" font-family="Marion-Regular,Marion" font-size="112.0" fill="#FEFFFF" transform="matrix(1.00, 0.00, -0.00, -1.00, 1188.5, 939.3)">r</text><text xml:space="preserve" font-family="Marion-Regular,Marion" font-size="112.0" fill="#FEFFFF" transform="matrix(1.00, 0.00, -0.00, -1.00, 1231.2, 939.3)">o</text><text xml:space="preserve" font-family="Marion-Regular,Marion" font-size="112.0" fill="#FEFFFF" transform="matrix(1.00, 0.00, -0.00, -1.00, 1283.4, 939.3)">n</text><text xml:space="preserve" font-family="Marion-Regular,Marion" font-size="112.0" fill="#FEFFFF" transform="matrix(1.00, 0.00, -0.00, -1.00, 1345.3, 939.3)">o</text><text xml:space="preserve" font-family="Marion-Regular,Marion" font-size="112.0" fill="#FEFFFF" transform="matrix(1.00, 0.00, -0.00, -1.00, 1397.5, 939.3)">u</text><text xml:space="preserve" font-family="Marion-Regular,Marion" font-size="112.0" fill="#FEFFFF" transform="matrix(1.00, 0.00, -0.00, -1.00, 1457.6, 939.3)">s</text><text xml:space="preserve" font-family="Marion-Regular,Marion" font-size="112.0" fill="#FEFFFF" transform="matrix(1.00, 0.00, -0.00, -1.00, 1498.1, 939.3)">l</text><text xml:space="preserve" font-family="Marion-Regular,Marion" font-size="112.0" fill="#FEFFFF" transform="matrix(1.00, 0.00, -0.00, -1.00, 1531.0, 939.3)">y</text><text xml:space="preserve" font-family="FiraMono-Regular,Fira Mono" font-size="44.0" fill="#D6601A" transform="matrix(1.00, 0.00, -0.00, -1.00, 137.0, 717.0)">&lt;</text><text xml:space="preserve" font-family="FiraMono-Regular,Fira Mono" font-size="44.0" fill="#D6601A" transform="matrix(1.00, 0.00, -0.00, -1.00, 163.4, 717.0)">s</text><text xml:space="preserve" font-family="FiraMono-Regular,Fira Mono" font-size="44.0" fill="#D6601A" transform="matrix(1.00, 0.00, -0.00, -1.00, 189.8, 717.0)">c</text><text xml:space="preserve" font-family="FiraMono-Regular,Fira Mono" font-size="44.0" fill="#D6601A" transform="matrix(1.00, 0.00, -0.00, -1.00, 216.2, 717.0)">r</text><text xml:space="preserve" font-family="FiraMono-Regular,Fira Mono" font-size="44.0" fill="#D6601A" transform="matrix(1.00, 0.00, -0.00, -1.00, 242.6, 717.0)">i</text><text xml:space="preserve" font-family="FiraMono-Regular,Fira Mono" font-size="44.0" fill="#D6601A" transform="matrix(1.00, 0.00, -0.00, -1.00, 269.0, 717.0)">p</text><text xml:space="preserve" font-family="FiraMono-Regular,Fira Mono" font-size="44.0" fill="#D6601A" transform="matrix(1.00, 0.00, -0.00, -1.00, 295.4, 717.0)">t</text><text xml:space="preserve" font-family="FiraMono-Regular,Fira Mono" font-size="44.0" fill="#000000" transform="matrix(1.00, 0.00, -0.00, -1.00, 321.8, 717.0)"> </text><text xml:space="preserve" font-family="FiraMono-Regular,Fira Mono" font-size="44.0" fill="#96A600" transform="matrix(1.00, 0.00, -0.00, -1.00, 348.2, 717.0)">s</text><text xml:space="preserve" font-family="FiraMono-Regular,Fira Mono" font-size="44.0" fill="#96A600" transform="matrix(1.00, 0.00, -0.00, -1.00, 374.6, 717.0)">r</text><text xml:space="preserve" font-family="FiraMono-Regular,Fira Mono" font-size="44.0" fill="#96A600" transform="matrix(1.00, 0.00, -0.00, -1.00, 401.0, 717.0)">c</text><text xml:space="preserve" font-family="FiraMono-Regular,Fira Mono" font-size="44.0" fill="#94A4A6" transform="matrix(1.00, 0.00, -0.00, -1.00, 427.4, 717.0)">=</text><text xml:space="preserve" font-family="FiraMono-Regular,Fira Mono" font-size="44.0" fill="#E5493C" transform="matrix(1.00, 0.00, -0.00, -1.00, 453.8, 717.0)">"</text><text xml:space="preserve" font-family="FiraMono-Regular,Fira Mono" font-size="44.0" fill="#E5493C" transform="matrix(1.00, 0.00, -0.00, -1.00, 480.2, 717.0)">/</text><text xml:space="preserve" font-family="FiraMono-Regular,Fira Mono" font-size="44.0" fill="#E5493C" transform="matrix(1.00, 0.00, -0.00, -1.00, 506.6, 717.0)">p</text><text xml:space="preserve" font-family="FiraMono-Regular,Fira Mono" font-size="44.0" fill="#E5493C" transform="matrix(1.00, 0.00, -0.00, -1.00, 533.0, 717.0)">i</text><text xml:space="preserve" font-family="FiraMono-Regular,Fira Mono" font-size="44.0" fill="#E5493C" transform="matrix(1.00, 0.00, -0.00, -1.00, 559.4, 717.0)">c</text><text xml:space="preserve" font-family="FiraMono-Regular,Fira Mono" font-size="44.0" fill="#E5493C" transform="matrix(1.00, 0.00, -0.00, -1.00, 585.8, 717.0)">t</text><text xml:space="preserve" font-family="FiraMono-Regular,Fira Mono" font-size="44.0" fill="#E5493C" transform="matrix(1.00, 0.00, -0.00, -1.00, 612.2, 717.0)">u</text><text xml:space="preserve" font-family="FiraMono-Regular,Fira Mono" font-size="44.0" fill="#E5493C" transform="matrix(1.00, 0.00, -0.00, -1.00, 638.6, 717.0)">r</text><text xml:space="preserve" font-family="FiraMono-Regular,Fira Mono" font-size="44.0" fill="#E5493C" transform="matrix(1.00, 0.00, -0.00, -1.00, 665.0, 717.0)">e</text><text xml:space="preserve" font-family="FiraMono-Regular,Fira Mono" font-size="44.0" fill="#E5493C" transform="matrix(1.00, 0.00, -0.00, -1.00, 691.4, 717.0)">s</text><text xml:space="preserve" font-family="FiraMono-Regular,Fira Mono" font-size="44.0" fill="#E5493C" transform="matrix(1.00, 0.00, -0.00, -1.00, 717.8, 717.0)">.</text><text xml:space="preserve" font-family="FiraMono-Regular,Fira Mono" font-size="44.0" fill="#E5493C" transform="matrix(1.00, 0.00, -0.00, -1.00, 744.2, 717.0)">j</text><text xml:space="preserve" font-family="FiraMono-Regular,Fira Mono" font-size="44.0" fill="#E5493C" transform="matrix(1.00, 0.00, -0.00, -1.00, 770.6, 717.0)">s</text><text xml:space="preserve" font-family="FiraMono-Regular,Fira Mono" font-size="44.0" fill="#E5493C" transform="matrix(1.00, 0.00, -0.00, -1.00, 797.0, 717.0)">o</text><text xml:space="preserve" font-family="FiraMono-Regular,Fira Mono" font-size="44.0" fill="#E5493C" transform="matrix(1.00, 0.00, -0.00, -1.00, 823.4, 717.0)">n</text><text xml:space="preserve" font-family="FiraMono-Regular,Fira Mono" font-size="44.0" fill="#E5493C" transform="matrix(1.00, 0.00, -0.00, -1.00, 849.8, 717.0)">p</text><text xml:space="preserve" font-family="FiraMono-Regular,Fira Mono" font-size="44.0" fill="#E5493C" transform="matrix(1.00, 0.00, -0.00, -1.00, 876.2, 717.0)">"</text><text xml:space="preserve" font-family="FiraMono-Regular,Fira Mono" font-size="44.0" fill="#D6601A" transform="matrix(1.00, 0.00, -0.00, -1.00, 902.6, 717.0)">&gt;</text><text xml:space="preserve" font-family="FiraMono-Regular,Fira Mono" font-size="44.0" fill="#D6601A" transform="matrix(1.00, 0.00, -0.00, -1.00, 929.0, 717.0)">&lt;</text><text xml:space="preserve" font-family="FiraMono-Regular,Fira Mono" font-size="44.0" fill="#D6601A" transform="matrix(1.00, 0.00, -0.00, -1.00, 955.4, 717.0)">/</text><text xml:space="preserve" font-family="FiraMono-Regular,Fira Mono" font-size="44.0" fill="#D6601A" transform="matrix(1.00, 0.00, -0.00, -1.00, 981.8, 717.0)">s</text><text xml:space="preserve" font-family="FiraMono-Regular,Fira Mono" font-size="44.0" fill="#D6601A" transform="matrix(1.00, 0.00, -0.00, -1.00, 1008.2, 717.0)">c</text><text xml:space="preserve" font-family="FiraMono-Regular,Fira Mono" font-size="44.0" fill="#D6601A" transform="matrix(1.00, 0.00, -0.00, -1.00, 1034.6, 717.0)">r</text><text xml:space="preserve" font-family="FiraMono-Regular,Fira Mono" font-size="44.0" fill="#D6601A" transform="matrix(1.00, 0.00, -0.00, -1.00, 1061.0, 717.0)">i</text><text xml:space="preserve" font-family="FiraMono-Regular,Fira Mono" font-size="44.0" fill="#D6601A" transform="matrix(1.00, 0.00, -0.00, -1.00, 1087.4, 717.0)">p</text><text xml:space="preserve" font-family="FiraMono-Regular,Fira Mono" font-size="44.0" fill="#D6601A" transform="matrix(1.00, 0.00, -0.00, -1.00, 1113.8, 717.0)">t</text><text xml:space="preserve" font-family="FiraMono-Regular,Fira Mono" font-size="44.0" fill="#D6601A" transform="matrix(1.00, 0.00, -0.00, -1.00, 1140.2, 717.0)">&gt;</text><text xml:space="preserve" font-family="FiraMono-Regular,Fira Mono" font-size="44.0" fill="#D6601A" transform="matrix(1.00, 0.00, -0.00, -1.00, 1166.6, 717.0)"> </text><text xml:space="preserve" font-family="Marion-Italic,Marion" font-style="italic" font-size="72.0" fill="#FEFFFF" transform="matrix(1.00, 0.00, -0.00, -1.00, 843.7, 585.3)">r</text><text xml:space="preserve" font-family="Marion-Italic,Marion" font-style="italic" font-size="72.0" fill="#FEFFFF" transform="matrix(1.00, 0.00, -0.00, -1.00, 865.9, 585.3)">e</text><text xml:space="preserve" font-family="Marion-Italic,Marion" font-style="italic" font-size="72.0" fill="#FEFFFF" transform="matrix(1.00, 0.00, -0.00, -1.00, 891.0, 585.3)">t</text><text xml:space="preserve" font-family="Marion-Italic,Marion" font-style="italic" font-size="72.0" fill="#FEFFFF" transform="matrix(1.00, 0.00, -0.00, -1.00, 909.1, 585.3)">u</text><text xml:space="preserve" font-family="Marion-Italic,Marion" font-style="italic" font-size="72.0" fill="#FEFFFF" transform="matrix(1.00, 0.00, -0.00, -1.00, 940.5, 585.3)">r</text><text xml:space="preserve" font-family="Marion-Italic,Marion" font-style="italic" font-size="72.0" fill="#FEFFFF" transform="matrix(1.00, 0.00, -0.00, -1.00, 962.7, 585.3)">n</text><text xml:space="preserve" font-family="Marion-Italic,Marion" font-style="italic" font-size="72.0" fill="#FEFFFF" transform="matrix(1.00, 0.00, -0.00, -1.00, 994.7, 585.3)">s</text><text xml:space="preserve" font-family="Marion-Italic,Marion" font-style="italic" font-size="72.0" fill="#FEFFFF" transform="matrix(1.00, 0.00, -0.00, -1.00, 1015.2, 585.3)">…</text><text xml:space="preserve" font-family="Marion-Italic,Marion" font-style="italic" font-size="72.0" fill="#D6601A" transform="matrix(1.00, 0.00, -0.00, -1.00, 1076.3, 585.3)"> </text><text xml:space="preserve" font-family="FiraMono-Regular,Fira Mono" font-size="44.0" fill="#A3B0B0" transform="matrix(1.00, 0.00, -0.00, -1.00, 137.0, 462.0)">l</text><text xml:space="preserve" font-family="FiraMono-Regular,Fira Mono" font-size="44.0" fill="#A3B0B0" transform="matrix(1.00, 0.00, -0.00, -1.00, 163.4, 462.0)">o</text><text xml:space="preserve" font-family="FiraMono-Regular,Fira Mono" font-size="44.0" fill="#A3B0B0" transform="matrix(1.00, 0.00, -0.00, -1.00, 189.8, 462.0)">a</text><text xml:space="preserve" font-family="FiraMono-Regular,Fira Mono" font-size="44.0" fill="#A3B0B0" transform="matrix(1.00, 0.00, -0.00, -1.00, 216.2, 462.0)">d</text><text xml:space="preserve" font-family="FiraMono-Regular,Fira Mono" font-size="44.0" fill="#A3B0B0" transform="matrix(1.00, 0.00, -0.00, -1.00, 242.6, 462.0)">D</text><text xml:space="preserve" font-family="FiraMono-Regular,Fira Mono" font-size="44.0" fill="#A3B0B0" transform="matrix(1.00, 0.00, -0.00, -1.00, 269.0, 462.0)">a</text><text xml:space="preserve" font-family="FiraMono-Regular,Fira Mono" font-size="44.0" fill="#A3B0B0" transform="matrix(1.00, 0.00, -0.00, -1.00, 295.4, 462.0)">t</text><text xml:space="preserve" font-family="FiraMono-Regular,Fira Mono" font-size="44.0" fill="#A3B0B0" transform="matrix(1.00, 0.00, -0.00, -1.00, 321.8, 462.0)">a</text><text xml:space="preserve" font-family="FiraMono-Regular,Fira Mono" font-size="44.0" fill="#A3B0B0" transform="matrix(1.00, 0.00, -0.00, -1.00, 348.2, 462.0)">(</text><text xml:space="preserve" font-family="FiraMono-Regular,Fira Mono" font-size="44.0" fill="#A3B0B0" transform="matrix(1.00, 0.00, -0.00, -1.00, 374.6, 462.0)">[</text><text xml:space="preserve" font-family="FiraMono-Regular,Fira Mono" font-size="44.0" fill="#000000" transform="matrix(1.00, 0.00, -0.00, -1.00, 401.0, 462.0)"> </text><text xml:space="preserve" font-family="FiraMono-Regular,Fira Mono" font-size="44.0" fill="#000000" transform="matrix(1.00, 0.00, -0.00, -1.00, 137.0, 394.0)"> </text><text xml:space="preserve" font-family="FiraMono-Regular,Fira Mono" font-size="44.0" fill="#000000" transform="matrix(1.00, 0.00, -0.00, -1.00, 163.4, 394.0)"> </text><text xml:space="preserve" font-family="FiraMono-Regular,Fira Mono" font-size="44.0" fill="#A3B0B0" transform="matrix(1.00, 0.00, -0.00, -1.00, 189.8, 394.0)">{</text><text xml:space="preserve" font-family="FiraMono-Regular,Fira Mono" font-size="44.0" fill="#E5493C" transform="matrix(1.00, 0.00, -0.00, -1.00, 216.2, 394.0)">"</text><text xml:space="preserve" font-family="FiraMono-Regular,Fira Mono" font-size="44.0" fill="#E5493C" transform="matrix(1.00, 0.00, -0.00, -1.00, 242.6, 394.0)">i</text><text xml:space="preserve" font-family="FiraMono-Regular,Fira Mono" font-size="44.0" fill="#E5493C" transform="matrix(1.00, 0.00, -0.00, -1.00, 269.0, 394.0)">m</text><text xml:space="preserve" font-family="FiraMono-Regular,Fira Mono" font-size="44.0" fill="#E5493C" transform="matrix(1.00, 0.00, -0.00, -1.00, 295.4, 394.0)">a</text><text xml:space="preserve" font-family="FiraMono-Regular,Fira Mono" font-size="44.0" fill="#E5493C" transform="matrix(1.00, 0.00, -0.00, -1.00, 321.8, 394.0)">g</text><text xml:space="preserve" font-family="FiraMono-Regular,Fira Mono" font-size="44.0" fill="#E5493C" transform="matrix(1.00, 0.00, -0.00, -1.00, 348.2, 394.0)">e</text><text xml:space="preserve" font-family="FiraMono-Regular,Fira Mono" font-size="44.0" fill="#E5493C" transform="matrix(1.00, 0.00, -0.00, -1.00, 374.6, 394.0)">"</text><text xml:space="preserve" font-family="FiraMono-Regular,Fira Mono" font-size="44.0" fill="#A3B0B0" transform="matrix(1.00, 0.00, -0.00, -1.00, 401.0, 394.0)">:</text><text xml:space="preserve" font-family="FiraMono-Regular,Fira Mono" font-size="44.0" fill="#000000" transform="matrix(1.00, 0.00, -0.00, -1.00, 427.4, 394.0)"> </text><text xml:space="preserve" font-family="FiraMono-Regular,Fira Mono" font-size="44.0" fill="#E5493C" transform="matrix(1.00, 0.00, -0.00, -1.00, 453.8, 394.0)">"</text><text xml:space="preserve" font-family="FiraMono-Regular,Fira Mono" font-size="44.0" fill="#E5493C" transform="matrix(1.00, 0.00, -0.00, -1.00, 480.2, 394.0)">/</text><text xml:space="preserve" font-family="FiraMono-Regular,Fira Mono" font-size="44.0" fill="#E5493C" transform="matrix(1.00, 0.00, -0.00, -1.00, 506.6, 394.0)">p</text><text xml:space="preserve" font-family="FiraMono-Regular,Fira Mono" font-size="44.0" fill="#E5493C" transform="matrix(1.00, 0.00, -0.00, -1.00, 533.0, 394.0)">i</text><text xml:space="preserve" font-family="FiraMono-Regular,Fira Mono" font-size="44.0" fill="#E5493C" transform="matrix(1.00, 0.00, -0.00, -1.00, 559.4, 394.0)">c</text><text xml:space="preserve" font-family="FiraMono-Regular,Fira Mono" font-size="44.0" fill="#E5493C" transform="matrix(1.00, 0.00, -0.00, -1.00, 585.8, 394.0)">t</text><text xml:space="preserve" font-family="FiraMono-Regular,Fira Mono" font-size="44.0" fill="#E5493C" transform="matrix(1.00, 0.00, -0.00, -1.00, 612.2, 394.0)">u</text><text xml:space="preserve" font-family="FiraMono-Regular,Fira Mono" font-size="44.0" fill="#E5493C" transform="matrix(1.00, 0.00, -0.00, -1.00, 638.6, 394.0)">r</text><text xml:space="preserve" font-family="FiraMono-Regular,Fira Mono" font-size="44.0" fill="#E5493C" transform="matrix(1.00, 0.00, -0.00, -1.00, 665.0, 394.0)">e</text><text xml:space="preserve" font-family="FiraMono-Regular,Fira Mono" font-size="44.0" fill="#E5493C" transform="matrix(1.00, 0.00, -0.00, -1.00, 691.4, 394.0)">s</text><text xml:space="preserve" font-family="FiraMono-Regular,Fira Mono" font-size="44.0" fill="#E5493C" transform="matrix(1.00, 0.00, -0.00, -1.00, 717.8, 394.0)">/</text><text xml:space="preserve" font-family="FiraMono-Regular,Fira Mono" font-size="44.0" fill="#E5493C" transform="matrix(1.00, 0.00, -0.00, -1.00, 744.2, 394.0)">1</text><text xml:space="preserve" font-family="FiraMono-Regular,Fira Mono" font-size="44.0" fill="#E5493C" transform="matrix(1.00, 0.00, -0.00, -1.00, 770.6, 394.0)">.</text><text xml:space="preserve" font-family="FiraMono-Regular,Fira Mono" font-size="44.0" fill="#E5493C" transform="matrix(1.00, 0.00, -0.00, -1.00, 797.0, 394.0)">j</text><text xml:space="preserve" font-family="FiraMono-Regular,Fira Mono" font-size="44.0" fill="#E5493C" transform="matrix(1.00, 0.00, -0.00, -1.00, 823.4, 394.0)">p</text><text xml:space="preserve" font-family="FiraMono-Regular,Fira Mono" font-size="44.0" fill="#E5493C" transform="matrix(1.00, 0.00, -0.00, -1.00, 849.8, 394.0)">g</text><text xml:space="preserve" font-family="FiraMono-Regular,Fira Mono" font-size="44.0" fill="#E5493C" transform="matrix(1.00, 0.00, -0.00, -1.00, 876.2, 394.0)">"</text><text xml:space="preserve" font-family="FiraMono-Regular,Fira Mono" font-size="44.0" fill="#A3B0B0" transform="matrix(1.00, 0.00, -0.00, -1.00, 902.6, 394.0)">,</text><text xml:space="preserve" font-family="FiraMono-Regular,Fira Mono" font-size="44.0" fill="#000000" transform="matrix(1.00, 0.00, -0.00, -1.00, 929.0, 394.0)"> </text><text xml:space="preserve" font-family="FiraMono-Regular,Fira Mono" font-size="44.0" fill="#E5493C" transform="matrix(1.00, 0.00, -0.00, -1.00, 955.4, 394.0)">"</text><text xml:space="preserve" font-family="FiraMono-Regular,Fira Mono" font-size="44.0" fill="#E5493C" transform="matrix(1.00, 0.00, -0.00, -1.00, 981.8, 394.0)">u</text><text xml:space="preserve" font-family="FiraMono-Regular,Fira Mono" font-size="44.0" fill="#E5493C" transform="matrix(1.00, 0.00, -0.00, -1.00, 1008.2, 394.0)">p</text><text xml:space="preserve" font-family="FiraMono-Regular,Fira Mono" font-size="44.0" fill="#E5493C" transform="matrix(1.00, 0.00, -0.00, -1.00, 1034.6, 394.0)">l</text><text xml:space="preserve" font-family="FiraMono-Regular,Fira Mono" font-size="44.0" fill="#E5493C" transform="matrix(1.00, 0.00, -0.00, -1.00, 1061.0, 394.0)">o</text><text xml:space="preserve" font-family="FiraMono-Regular,Fira Mono" font-size="44.0" fill="#E5493C" transform="matrix(1.00, 0.00, -0.00, -1.00, 1087.4, 394.0)">a</text><text xml:space="preserve" font-family="FiraMono-Regular,Fira Mono" font-size="44.0" fill="#E5493C" transform="matrix(1.00, 0.00, -0.00, -1.00, 1113.8, 394.0)">d</text><text xml:space="preserve" font-family="FiraMono-Regular,Fira Mono" font-size="44.0" fill="#E5493C" transform="matrix(1.00, 0.00, -0.00, -1.00, 1140.2, 394.0)">e</text><text xml:space="preserve" font-family="FiraMono-Regular,Fira Mono" font-size="44.0" fill="#E5493C" transform="matrix(1.00, 0.00, -0.00, -1.00, 1166.6, 394.0)">d</text><text xml:space="preserve" font-family="FiraMono-Regular,Fira Mono" font-size="44.0" fill="#E5493C" transform="matrix(1.00, 0.00, -0.00, -1.00, 1193.0, 394.0)">B</text><text xml:space="preserve" font-family="FiraMono-Regular,Fira Mono" font-size="44.0" fill="#E5493C" transform="matrix(1.00, 0.00, -0.00, -1.00, 1219.4, 394.0)">y</text><text xml:space="preserve" font-family="FiraMono-Regular,Fira Mono" font-size="44.0" fill="#E5493C" transform="matrix(1.00, 0.00, -0.00, -1.00, 1245.8, 394.0)">"</text><text xml:space="preserve" font-family="FiraMono-Regular,Fira Mono" font-size="44.0" fill="#A3B0B0" transform="matrix(1.00, 0.00, -0.00, -1.00, 1272.2, 394.0)">:</text><text xml:space="preserve" font-family="FiraMono-Regular,Fira Mono" font-size="44.0" fill="#000000" transform="matrix(1.00, 0.00, -0.00, -1.00, 1298.6, 394.0)"> </text><text xml:space="preserve" font-family="FiraMono-Regular,Fira Mono" font-size="44.0" fill="#E5493C" transform="matrix(1.00, 0.00, -0.00, -1.00, 1325.0, 394.0)">"</text><text xml:space="preserve" font-family="FiraMono-Regular,Fira Mono" font-size="44.0" fill="#E5493C" transform="matrix(1.00, 0.00, -0.00, -1.00, 1351.4, 394.0)">/</text><text xml:space="preserve" font-family="FiraMono-Regular,Fira Mono" font-size="44.0" fill="#E5493C" transform="matrix(1.00, 0.00, -0.00, -1.00, 1377.8, 394.0)">u</text><text xml:space="preserve" font-family="FiraMono-Regular,Fira Mono" font-size="44.0" fill="#E5493C" transform="matrix(1.00, 0.00, -0.00, -1.00, 1404.2, 394.0)">s</text><text xml:space="preserve" font-family="FiraMono-Regular,Fira Mono" font-size="44.0" fill="#E5493C" transform="matrix(1.00, 0.00, -0.00, -1.00, 1430.6, 394.0)">e</text><text xml:space="preserve" font-family="FiraMono-Regular,Fira Mono" font-size="44.0" fill="#E5493C" transform="matrix(1.00, 0.00, -0.00, -1.00, 1457.0, 394.0)">r</text><text xml:space="preserve" font-family="FiraMono-Regular,Fira Mono" font-size="44.0" fill="#E5493C" transform="matrix(1.00, 0.00, -0.00, -1.00, 1483.4, 394.0)">s</text><text xml:space="preserve" font-family="FiraMono-Regular,Fira Mono" font-size="44.0" fill="#E5493C" transform="matrix(1.00, 0.00, -0.00, -1.00, 1509.8, 394.0)">/</text><text xml:space="preserve" font-family="FiraMono-Regular,Fira Mono" font-size="44.0" fill="#E5493C" transform="matrix(1.00, 0.00, -0.00, -1.00, 1536.2, 394.0)">h</text><text xml:space="preserve" font-family="FiraMono-Regular,Fira Mono" font-size="44.0" fill="#E5493C" transform="matrix(1.00, 0.00, -0.00, -1.00, 1562.6, 394.0)">o</text><text xml:space="preserve" font-family="FiraMono-Regular,Fira Mono" font-size="44.0" fill="#E5493C" transform="matrix(1.00, 0.00, -0.00, -1.00, 1589.0, 394.0)">d</text><text xml:space="preserve" font-family="FiraMono-Regular,Fira Mono" font-size="44.0" fill="#E5493C" transform="matrix(1.00, 0.00, -0.00, -1.00, 1615.4, 394.0)">o</text><text xml:space="preserve" font-family="FiraMono-Regular,Fira Mono" font-size="44.0" fill="#E5493C" transform="matrix(1.00, 0.00, -0.00, -1.00, 1641.8, 394.0)">r</text><text xml:space="preserve" font-family="FiraMono-Regular,Fira Mono" font-size="44.0" fill="#E5493C" transform="matrix(1.00, 0.00, -0.00, -1.00, 1668.2, 394.0)">"</text><text xml:space="preserve" font-family="FiraMono-Regular,Fira Mono" font-size="44.0" fill="#A3B0B0" transform="matrix(1.00, 0.00, -0.00, -1.00, 1694.6, 394.0)">}</text><text xml:space="preserve" font-family="FiraMono-Regular,Fira Mono" font-size="44.0" fill="#A3B0B0" transform="matrix(1.00, 0.00, -0.00, -1.00, 1721.0, 394.0)">,</text><text xml:space="preserve" font-family="FiraMono-Regular,Fira Mono" font-size="44.0" fill="#000000" transform="matrix(1.00, 0.00, -0.00, -1.00, 1747.4, 394.0)"> </text><text xml:space="preserve" font-family="FiraMono-Regular,Fira Mono" font-size="44.0" fill="#000000" transform="matrix(1.00, 0.00, -0.00, -1.00, 137.0, 326.0)"> </text><text xml:space="preserve" font-family="FiraMono-Regular,Fira Mono" font-size="44.0" fill="#000000" transform="matrix(1.00, 0.00, -0.00, -1.00, 163.4, 326.0)"> </text><text xml:space="preserve" font-family="FiraMono-Regular,Fira Mono" font-size="44.0" fill="#A3B0B0" transform="matrix(1.00, 0.00, -0.00, -1.00, 189.8, 326.0)">{</text><text xml:space="preserve" font-family="FiraMono-Regular,Fira Mono" font-size="44.0" fill="#E5493C" transform="matrix(1.00, 0.00, -0.00, -1.00, 216.2, 326.0)">"</text><text xml:space="preserve" font-family="FiraMono-Regular,Fira Mono" font-size="44.0" fill="#E5493C" transform="matrix(1.00, 0.00, -0.00, -1.00, 242.6, 326.0)">i</text><text xml:space="preserve" font-family="FiraMono-Regular,Fira Mono" font-size="44.0" fill="#E5493C" transform="matrix(1.00, 0.00, -0.00, -1.00, 269.0, 326.0)">m</text><text xml:space="preserve" font-family="FiraMono-Regular,Fira Mono" font-size="44.0" fill="#E5493C" transform="matrix(1.00, 0.00, -0.00, -1.00, 295.4, 326.0)">a</text><text xml:space="preserve" font-family="FiraMono-Regular,Fira Mono" font-size="44.0" fill="#E5493C" transform="matrix(1.00, 0.00, -0.00, -1.00, 321.8, 326.0)">g</text><text xml:space="preserve" font-family="FiraMono-Regular,Fira Mono" font-size="44.0" fill="#E5493C" transform="matrix(1.00, 0.00, -0.00, -1.00, 348.2, 326.0)">e</text><text xml:space="preserve" font-family="FiraMono-Regular,Fira Mono" font-size="44.0" fill="#E5493C" transform="matrix(1.00, 0.00, -0.00, -1.00, 374.6, 326.0)">"</text><text xml:space="preserve" font-family="FiraMono-Regular,Fira Mono" font-size="44.0" fill="#A3B0B0" transform="matrix(1.00, 0.00, -0.00, -1.00, 401.0, 326.0)">:</text><text xml:space="preserve" font-family="FiraMono-Regular,Fira Mono" font-size="44.0" fill="#000000" transform="matrix(1.00, 0.00, -0.00, -1.00, 427.4, 326.0)"> </text><text xml:space="preserve" font-family="FiraMono-Regular,Fira Mono" font-size="44.0" fill="#E5493C" transform="matrix(1.00, 0.00, -0.00, -1.00, 453.8, 326.0)">"</text><text xml:space="preserve" font-family="FiraMono-Regular,Fira Mono" font-size="44.0" fill="#E5493C" transform="matrix(1.00, 0.00, -0.00, -1.00, 480.2, 326.0)">/</text><text xml:space="preserve" font-family="FiraMono-Regular,Fira Mono" font-size="44.0" fill="#E5493C" transform="matrix(1.00, 0.00, -0.00, -1.00, 506.6, 326.0)">p</text><text xml:space="preserve" font-family="FiraMono-Regular,Fira Mono" font-size="44.0" fill="#E5493C" transform="matrix(1.00, 0.00, -0.00, -1.00, 533.0, 326.0)">i</text><text xml:space="preserve" font-family="FiraMono-Regular,Fira Mono" font-size="44.0" fill="#E5493C" transform="matrix(1.00, 0.00, -0.00, -1.00, 559.4, 326.0)">c</text><text xml:space="preserve" font-family="FiraMono-Regular,Fira Mono" font-size="44.0" fill="#E5493C" transform="matrix(1.00, 0.00, -0.00, -1.00, 585.8, 326.0)">t</text><text xml:space="preserve" font-family="FiraMono-Regular,Fira Mono" font-size="44.0" fill="#E5493C" transform="matrix(1.00, 0.00, -0.00, -1.00, 612.2, 326.0)">u</text><text xml:space="preserve" font-family="FiraMono-Regular,Fira Mono" font-size="44.0" fill="#E5493C" transform="matrix(1.00, 0.00, -0.00, -1.00, 638.6, 326.0)">r</text><text xml:space="preserve" font-family="FiraMono-Regular,Fira Mono" font-size="44.0" fill="#E5493C" transform="matrix(1.00, 0.00, -0.00, -1.00, 665.0, 326.0)">e</text><text xml:space="preserve" font-family="FiraMono-Regular,Fira Mono" font-size="44.0" fill="#E5493C" transform="matrix(1.00, 0.00, -0.00, -1.00, 691.4, 326.0)">s</text><text xml:space="preserve" font-family="FiraMono-Regular,Fira Mono" font-size="44.0" fill="#E5493C" transform="matrix(1.00, 0.00, -0.00, -1.00, 717.8, 326.0)">/</text><text xml:space="preserve" font-family="FiraMono-Regular,Fira Mono" font-size="44.0" fill="#E5493C" transform="matrix(1.00, 0.00, -0.00, -1.00, 744.2, 326.0)">2</text><text xml:space="preserve" font-family="FiraMono-Regular,Fira Mono" font-size="44.0" fill="#E5493C" transform="matrix(1.00, 0.00, -0.00, -1.00, 770.6, 326.0)">.</text><text xml:space="preserve" font-family="FiraMono-Regular,Fira Mono" font-size="44.0" fill="#E5493C" transform="matrix(1.00, 0.00, -0.00, -1.00, 797.0, 326.0)">j</text><text xml:space="preserve" font-family="FiraMono-Regular,Fira Mono" font-size="44.0" fill="#E5493C" transform="matrix(1.00, 0.00, -0.00, -1.00, 823.4, 326.0)">p</text><text xml:space="preserve" font-family="FiraMono-Regular,Fira Mono" font-size="44.0" fill="#E5493C" transform="matrix(1.00, 0.00, -0.00, -1.00, 849.8, 326.0)">g</text><text xml:space="preserve" font-family="FiraMono-Regular,Fira Mono" font-size="44.0" fill="#E5493C" transform="matrix(1.00, 0.00, -0.00, -1.00, 876.2, 326.0)">"</text><text xml:space="preserve" font-family="FiraMono-Regular,Fira Mono" font-size="44.0" fill="#A3B0B0" transform="matrix(1.00, 0.00, -0.00, -1.00, 902.6, 326.0)">,</text><text xml:space="preserve" font-family="FiraMono-Regular,Fira Mono" font-size="44.0" fill="#000000" transform="matrix(1.00, 0.00, -0.00, -1.00, 929.0, 326.0)"> </text><text xml:space="preserve" font-family="FiraMono-Regular,Fira Mono" font-size="44.0" fill="#E5493C" transform="matrix(1.00, 0.00, -0.00, -1.00, 955.4, 326.0)">"</text><text xml:space="preserve" font-family="FiraMono-Regular,Fira Mono" font-size="44.0" fill="#E5493C" transform="matrix(1.00, 0.00, -0.00, -1.00, 981.8, 326.0)">u</text><text xml:space="preserve" font-family="FiraMono-Regular,Fira Mono" font-size="44.0" fill="#E5493C" transform="matrix(1.00, 0.00, -0.00, -1.00, 1008.2, 326.0)">p</text><text xml:space="preserve" font-family="FiraMono-Regular,Fira Mono" font-size="44.0" fill="#E5493C" transform="matrix(1.00, 0.00, -0.00, -1.00, 1034.6, 326.0)">l</text><text xml:space="preserve" font-family="FiraMono-Regular,Fira Mono" font-size="44.0" fill="#E5493C" transform="matrix(1.00, 0.00, -0.00, -1.00, 1061.0, 326.0)">o</text><text xml:space="preserve" font-family="FiraMono-Regular,Fira Mono" font-size="44.0" fill="#E5493C" transform="matrix(1.00, 0.00, -0.00, -1.00, 1087.4, 326.0)">a</text><text xml:space="preserve" font-family="FiraMono-Regular,Fira Mono" font-size="44.0" fill="#E5493C" transform="matrix(1.00, 0.00, -0.00, -1.00, 1113.8, 326.0)">d</text><text xml:space="preserve" font-family="FiraMono-Regular,Fira Mono" font-size="44.0" fill="#E5493C" transform="matrix(1.00, 0.00, -0.00, -1.00, 1140.2, 326.0)">e</text><text xml:space="preserve" font-family="FiraMono-Regular,Fira Mono" font-size="44.0" fill="#E5493C" transform="matrix(1.00, 0.00, -0.00, -1.00, 1166.6, 326.0)">d</text><text xml:space="preserve" font-family="FiraMono-Regular,Fira Mono" font-size="44.0" fill="#E5493C" transform="matrix(1.00, 0.00, -0.00, -1.00, 1193.0, 326.0)">B</text><text xml:space="preserve" font-family="FiraMono-Regular,Fira Mono" font-size="44.0" fill="#E5493C" transform="matrix(1.00, 0.00, -0.00, -1.00, 1219.4, 326.0)">y</text><text xml:space="preserve" font-family="FiraMono-Regular,Fira Mono" font-size="44.0" fill="#E5493C" transform="matrix(1.00, 0.00, -0.00, -1.00, 1245.8, 326.0)">"</text><text xml:space="preserve" font-family="FiraMono-Regular,Fira Mono" font-size="44.0" fill="#A3B0B0" transform="matrix(1.00, 0.00, -0.00, -1.00, 1272.2, 326.0)">:</text><text xml:space="preserve" font-family="FiraMono-Regular,Fira Mono" font-size="44.0" fill="#000000" transform="matrix(1.00, 0.00, -0.00, -1.00, 1298.6, 326.0)"> </text><text xml:space="preserve" font-family="FiraMono-Regular,Fira Mono" font-size="44.0" fill="#E5493C" transform="matrix(1.00, 0.00, -0.00, -1.00, 1325.0, 326.0)">"</text><text xml:space="preserve" font-family="FiraMono-Regular,Fira Mono" font-size="44.0" fill="#E5493C" transform="matrix(1.00, 0.00, -0.00, -1.00, 1351.4, 326.0)">/</text><text xml:space="preserve" font-family="FiraMono-Regular,Fira Mono" font-size="44.0" fill="#E5493C" transform="matrix(1.00, 0.00, -0.00, -1.00, 1377.8, 326.0)">u</text><text xml:space="preserve" font-family="FiraMono-Regular,Fira Mono" font-size="44.0" fill="#E5493C" transform="matrix(1.00, 0.00, -0.00, -1.00, 1404.2, 326.0)">s</text><text xml:space="preserve" font-family="FiraMono-Regular,Fira Mono" font-size="44.0" fill="#E5493C" transform="matrix(1.00, 0.00, -0.00, -1.00, 1430.6, 326.0)">e</text><text xml:space="preserve" font-family="FiraMono-Regular,Fira Mono" font-size="44.0" fill="#E5493C" transform="matrix(1.00, 0.00, -0.00, -1.00, 1457.0, 326.0)">r</text><text xml:space="preserve" font-family="FiraMono-Regular,Fira Mono" font-size="44.0" fill="#E5493C" transform="matrix(1.00, 0.00, -0.00, -1.00, 1483.4, 326.0)">s</text><text xml:space="preserve" font-family="FiraMono-Regular,Fira Mono" font-size="44.0" fill="#E5493C" transform="matrix(1.00, 0.00, -0.00, -1.00, 1509.8, 326.0)">/</text><text xml:space="preserve" font-family="FiraMono-Regular,Fira Mono" font-size="44.0" fill="#E5493C" transform="matrix(1.00, 0.00, -0.00, -1.00, 1536.2, 326.0)">t</text><text xml:space="preserve" font-family="FiraMono-Regular,Fira Mono" font-size="44.0" fill="#E5493C" transform="matrix(1.00, 0.00, -0.00, -1.00, 1562.6, 326.0)">h</text><text xml:space="preserve" font-family="FiraMono-Regular,Fira Mono" font-size="44.0" fill="#E5493C" transform="matrix(1.00, 0.00, -0.00, -1.00, 1589.0, 326.0)">e</text><text xml:space="preserve" font-family="FiraMono-Regular,Fira Mono" font-size="44.0" fill="#E5493C" transform="matrix(1.00, 0.00, -0.00, -1.00, 1615.4, 326.0)">o</text><text xml:space="preserve" font-family="FiraMono-Regular,Fira Mono" font-size="44.0" fill="#E5493C" transform="matrix(1.00, 0.00, -0.00, -1.00, 1641.8, 326.0)">n</text><text xml:space="preserve" font-family="FiraMono-Regular,Fira Mono" font-size="44.0" fill="#E5493C" transform="matrix(1.00, 0.00, -0.00, -1.00, 1668.2, 326.0)">"</text><text xml:space="preserve" font-family="FiraMono-Regular,Fira Mono" font-size="44.0" fill="#A3B0B0" transform="matrix(1.00, 0.00, -0.00, -1.00, 1694.6, 326.0)">}</text><text xml:space="preserve" font-family="FiraMono-Regular,Fira Mono" font-size="44.0" fill="#A3B0B0" transform="matrix(1.00, 0.00, -0.00, -1.00, 1721.0, 326.0)">,</text><text xml:space="preserve" font-family="FiraMono-Regular,Fira Mono" font-size="44.0" fill="#000000" transform="matrix(1.00, 0.00, -0.00, -1.00, 1747.4, 326.0)"> </text><text xml:space="preserve" font-family="FiraMono-Regular,Fira Mono" font-size="44.0" fill="#000000" transform="matrix(1.00, 0.00, -0.00, -1.00, 137.0, 258.0)"> </text><text xml:space="preserve" font-family="FiraMono-Regular,Fira Mono" font-size="44.0" fill="#000000" transform="matrix(1.00, 0.00, -0.00, -1.00, 163.4, 258.0)"> </text><text xml:space="preserve" font-family="FiraMono-Regular,Fira Mono" font-size="44.0" fill="#A3B0B0" transform="matrix(1.00, 0.00, -0.00, -1.00, 189.8, 258.0)">{</text><text xml:space="preserve" font-family="FiraMono-Regular,Fira Mono" font-size="44.0" fill="#E5493C" transform="matrix(1.00, 0.00, -0.00, -1.00, 216.2, 258.0)">"</text><text xml:space="preserve" font-family="FiraMono-Regular,Fira Mono" font-size="44.0" fill="#E5493C" transform="matrix(1.00, 0.00, -0.00, -1.00, 242.6, 258.0)">i</text><text xml:space="preserve" font-family="FiraMono-Regular,Fira Mono" font-size="44.0" fill="#E5493C" transform="matrix(1.00, 0.00, -0.00, -1.00, 269.0, 258.0)">m</text><text xml:space="preserve" font-family="FiraMono-Regular,Fira Mono" font-size="44.0" fill="#E5493C" transform="matrix(1.00, 0.00, -0.00, -1.00, 295.4, 258.0)">a</text><text xml:space="preserve" font-family="FiraMono-Regular,Fira Mono" font-size="44.0" fill="#E5493C" transform="matrix(1.00, 0.00, -0.00, -1.00, 321.8, 258.0)">g</text><text xml:space="preserve" font-family="FiraMono-Regular,Fira Mono" font-size="44.0" fill="#E5493C" transform="matrix(1.00, 0.00, -0.00, -1.00, 348.2, 258.0)">e</text><text xml:space="preserve" font-family="FiraMono-Regular,Fira Mono" font-size="44.0" fill="#E5493C" transform="matrix(1.00, 0.00, -0.00, -1.00, 374.6, 258.0)">"</text><text xml:space="preserve" font-family="FiraMono-Regular,Fira Mono" font-size="44.0" fill="#A3B0B0" transform="matrix(1.00, 0.00, -0.00, -1.00, 401.0, 258.0)">:</text><text xml:space="preserve" font-family="FiraMono-Regular,Fira Mono" font-size="44.0" fill="#000000" transform="matrix(1.00, 0.00, -0.00, -1.00, 427.4, 258.0)"> </text><text xml:space="preserve" font-family="FiraMono-Regular,Fira Mono" font-size="44.0" fill="#E5493C" transform="matrix(1.00, 0.00, -0.00, -1.00, 453.8, 258.0)">"</text><text xml:space="preserve" font-family="FiraMono-Regular,Fira Mono" font-size="44.0" fill="#E5493C" transform="matrix(1.00, 0.00, -0.00, -1.00, 480.2, 258.0)">/</text><text xml:space="preserve" font-family="FiraMono-Regular,Fira Mono" font-size="44.0" fill="#E5493C" transform="matrix(1.00, 0.00, -0.00, -1.00, 506.6, 258.0)">p</text><text xml:space="preserve" font-family="FiraMono-Regular,Fira Mono" font-size="44.0" fill="#E5493C" transform="matrix(1.00, 0.00, -0.00, -1.00, 533.0, 258.0)">i</text><text xml:space="preserve" font-family="FiraMono-Regular,Fira Mono" font-size="44.0" fill="#E5493C" transform="matrix(1.00, 0.00, -0.00, -1.00, 559.4, 258.0)">c</text><text xml:space="preserve" font-family="FiraMono-Regular,Fira Mono" font-size="44.0" fill="#E5493C" transform="matrix(1.00, 0.00, -0.00, -1.00, 585.8, 258.0)">t</text><text xml:space="preserve" font-family="FiraMono-Regular,Fira Mono" font-size="44.0" fill="#E5493C" transform="matrix(1.00, 0.00, -0.00, -1.00, 612.2, 258.0)">u</text><text xml:space="preserve" font-family="FiraMono-Regular,Fira Mono" font-size="44.0" fill="#E5493C" transform="matrix(1.00, 0.00, -0.00, -1.00, 638.6, 258.0)">r</text><text xml:space="preserve" font-family="FiraMono-Regular,Fira Mono" font-size="44.0" fill="#E5493C" transform="matrix(1.00, 0.00, -0.00, -1.00, 665.0, 258.0)">e</text><text xml:space="preserve" font-family="FiraMono-Regular,Fira Mono" font-size="44.0" fill="#E5493C" transform="matrix(1.00, 0.00, -0.00, -1.00, 691.4, 258.0)">s</text><text xml:space="preserve" font-family="FiraMono-Regular,Fira Mono" font-size="44.0" fill="#E5493C" transform="matrix(1.00, 0.00, -0.00, -1.00, 717.8, 258.0)">/</text><text xml:space="preserve" font-family="FiraMono-Regular,Fira Mono" font-size="44.0" fill="#E5493C" transform="matrix(1.00, 0.00, -0.00, -1.00, 744.2, 258.0)">3</text><text xml:space="preserve" font-family="FiraMono-Regular,Fira Mono" font-size="44.0" fill="#E5493C" transform="matrix(1.00, 0.00, -0.00, -1.00, 770.6, 258.0)">.</text><text xml:space="preserve" font-family="FiraMono-Regular,Fira Mono" font-size="44.0" fill="#E5493C" transform="matrix(1.00, 0.00, -0.00, -1.00, 797.0, 258.0)">j</text><text xml:space="preserve" font-family="FiraMono-Regular,Fira Mono" font-size="44.0" fill="#E5493C" transform="matrix(1.00, 0.00, -0.00, -1.00, 823.4, 258.0)">p</text><text xml:space="preserve" font-family="FiraMono-Regular,Fira Mono" font-size="44.0" fill="#E5493C" transform="matrix(1.00, 0.00, -0.00, -1.00, 849.8, 258.0)">g</text><text xml:space="preserve" font-family="FiraMono-Regular,Fira Mono" font-size="44.0" fill="#E5493C" transform="matrix(1.00, 0.00, -0.00, -1.00, 876.2, 258.0)">"</text><text xml:space="preserve" font-family="FiraMono-Regular,Fira Mono" font-size="44.0" fill="#A3B0B0" transform="matrix(1.00, 0.00, -0.00, -1.00, 902.6, 258.0)">,</text><text xml:space="preserve" font-family="FiraMono-Regular,Fira Mono" font-size="44.0" fill="#000000" transform="matrix(1.00, 0.00, -0.00, -1.00, 929.0, 258.0)"> </text><text xml:space="preserve" font-family="FiraMono-Regular,Fira Mono" font-size="44.0" fill="#E5493C" transform="matrix(1.00, 0.00, -0.00, -1.00, 955.4, 258.0)">"</text><text xml:space="preserve" font-family="FiraMono-Regular,Fira Mono" font-size="44.0" fill="#E5493C" transform="matrix(1.00, 0.00, -0.00, -1.00, 981.8, 258.0)">u</text><text xml:space="preserve" font-family="FiraMono-Regular,Fira Mono" font-size="44.0" fill="#E5493C" transform="matrix(1.00, 0.00, -0.00, -1.00, 1008.2, 258.0)">p</text><text xml:space="preserve" font-family="FiraMono-Regular,Fira Mono" font-size="44.0" fill="#E5493C" transform="matrix(1.00, 0.00, -0.00, -1.00, 1034.6, 258.0)">l</text><text xml:space="preserve" font-family="FiraMono-Regular,Fira Mono" font-size="44.0" fill="#E5493C" transform="matrix(1.00, 0.00, -0.00, -1.00, 1061.0, 258.0)">o</text><text xml:space="preserve" font-family="FiraMono-Regular,Fira Mono" font-size="44.0" fill="#E5493C" transform="matrix(1.00, 0.00, -0.00, -1.00, 1087.4, 258.0)">a</text><text xml:space="preserve" font-family="FiraMono-Regular,Fira Mono" font-size="44.0" fill="#E5493C" transform="matrix(1.00, 0.00, -0.00, -1.00, 1113.8, 258.0)">d</text><text xml:space="preserve" font-family="FiraMono-Regular,Fira Mono" font-size="44.0" fill="#E5493C" transform="matrix(1.00, 0.00, -0.00, -1.00, 1140.2, 258.0)">e</text><text xml:space="preserve" font-family="FiraMono-Regular,Fira Mono" font-size="44.0" fill="#E5493C" transform="matrix(1.00, 0.00, -0.00, -1.00, 1166.6, 258.0)">d</text><text xml:space="preserve" font-family="FiraMono-Regular,Fira Mono" font-size="44.0" fill="#E5493C" transform="matrix(1.00, 0.00, -0.00, -1.00, 1193.0, 258.0)">B</text><text xml:space="preserve" font-family="FiraMono-Regular,Fira Mono" font-size="44.0" fill="#E5493C" transform="matrix(1.00, 0.00, -0.00, -1.00, 1219.4, 258.0)">y</text><text xml:space="preserve" font-family="FiraMono-Regular,Fira Mono" font-size="44.0" fill="#E5493C" transform="matrix(1.00, 0.00, -0.00, -1.00, 1245.8, 258.0)">"</text><text xml:space="preserve" font-family="FiraMono-Regular,Fira Mono" font-size="44.0" fill="#A3B0B0" transform="matrix(1.00, 0.00, -0.00, -1.00, 1272.2, 258.0)">:</text><text xml:space="preserve" font-family="FiraMono-Regular,Fira Mono" font-size="44.0" fill="#000000" transform="matrix(1.00, 0.00, -0.00, -1.00, 1298.6, 258.0)"> </text><text xml:space="preserve" font-family="FiraMono-Regular,Fira Mono" font-size="44.0" fill="#E5493C" transform="matrix(1.00, 0.00, -0.00, -1.00, 1325.0, 258.0)">"</text><text xml:space="preserve" font-family="FiraMono-Regular,Fira Mono" font-size="44.0" fill="#E5493C" transform="matrix(1.00, 0.00, -0.00, -1.00, 1351.4, 258.0)">/</text><text xml:space="preserve" font-family="FiraMono-Regular,Fira Mono" font-size="44.0" fill="#E5493C" transform="matrix(1.00, 0.00, -0.00, -1.00, 1377.8, 258.0)">u</text><text xml:space="preserve" font-family="FiraMono-Regular,Fira Mono" font-size="44.0" fill="#E5493C" transform="matrix(1.00, 0.00, -0.00, -1.00, 1404.2, 258.0)">s</text><text xml:space="preserve" font-family="FiraMono-Regular,Fira Mono" font-size="44.0" fill="#E5493C" transform="matrix(1.00, 0.00, -0.00, -1.00, 1430.6, 258.0)">e</text><text xml:space="preserve" font-family="FiraMono-Regular,Fira Mono" font-size="44.0" fill="#E5493C" transform="matrix(1.00, 0.00, -0.00, -1.00, 1457.0, 258.0)">r</text><text xml:space="preserve" font-family="FiraMono-Regular,Fira Mono" font-size="44.0" fill="#E5493C" transform="matrix(1.00, 0.00, -0.00, -1.00, 1483.4, 258.0)">s</text><text xml:space="preserve" font-family="FiraMono-Regular,Fira Mono" font-size="44.0" fill="#E5493C" transform="matrix(1.00, 0.00, -0.00, -1.00, 1509.8, 258.0)">/</text><text xml:space="preserve" font-family="FiraMono-Regular,Fira Mono" font-size="44.0" fill="#E5493C" transform="matrix(1.00, 0.00, -0.00, -1.00, 1536.2, 258.0)">j</text><text xml:space="preserve" font-family="FiraMono-Regular,Fira Mono" font-size="44.0" fill="#E5493C" transform="matrix(1.00, 0.00, -0.00, -1.00, 1562.6, 258.0)">o</text><text xml:space="preserve" font-family="FiraMono-Regular,Fira Mono" font-size="44.0" fill="#E5493C" transform="matrix(1.00, 0.00, -0.00, -1.00, 1589.0, 258.0)">f</text><text xml:space="preserve" font-family="FiraMono-Regular,Fira Mono" font-size="44.0" fill="#E5493C" transform="matrix(1.00, 0.00, -0.00, -1.00, 1615.4, 258.0)">f</text><text xml:space="preserve" font-family="FiraMono-Regular,Fira Mono" font-size="44.0" fill="#E5493C" transform="matrix(1.00, 0.00, -0.00, -1.00, 1641.8, 258.0)">r</text><text xml:space="preserve" font-family="FiraMono-Regular,Fira Mono" font-size="44.0" fill="#E5493C" transform="matrix(1.00, 0.00, -0.00, -1.00, 1668.2, 258.0)">e</text><text xml:space="preserve" font-family="FiraMono-Regular,Fira Mono" font-size="44.0" fill="#E5493C" transform="matrix(1.00, 0.00, -0.00, -1.00, 1694.6, 258.0)">y</text><text xml:space="preserve" font-family="FiraMono-Regular,Fira Mono" font-size="44.0" fill="#E5493C" transform="matrix(1.00, 0.00, -0.00, -1.00, 1721.0, 258.0)">"</text><text xml:space="preserve" font-family="FiraMono-Regular,Fira Mono" font-size="44.0" fill="#A3B0B0" transform="matrix(1.00, 0.00, -0.00, -1.00, 1747.4, 258.0)">}</text><text xml:space="preserve" font-family="FiraMono-Regular,Fira Mono" font-size="44.0" fill="#000000" transform="matrix(1.00, 0.00, -0.00, -1.00, 1773.8, 258.0)"> </text><text xml:space="preserve" font-family="FiraMono-Regular,Fira Mono" font-size="44.0" fill="#A3B0B0" transform="matrix(1.00, 0.00, -0.00, -1.00, 137.0, 190.0)">]</text><text xml:space="preserve" font-family="FiraMono-Regular,Fira Mono" font-size="44.0" fill="#A3B0B0" transform="matrix(1.00, 0.00, -0.00, -1.00, 163.4, 190.0)">)</text><text xml:space="preserve" font-family="FiraMono-Regular,Fira Mono" font-size="44.0" fill="#A3B0B0" transform="matrix(1.00, 0.00, -0.00, -1.00, 189.8, 190.0)">;</text></g></svg>