<?xml version="1.0" encoding="UTF-8" standalone="no"?><svg xmlns="http://www.w3.org/2000/svg" xmlns:xlink="http://www.w3.org/1999/xlink" clip-rule="evenodd" stroke-miterlimit="10" viewBox="0 0 1920 1080"><desc>SVG generated by Keynote</desc><defs></defs><g transform="matrix(1.00, 0.00, -0.00, -1.00, 0.0, 1080.0)"><g><clipPath id="clip0x7fdaa1511770"><path d="M 0.0 1080.0 L 1920.0 1080.0 L 1920.0 0.0 L 0.0 0.0 Z M 0.0 1080.0 "></path></clipPath><g clip-path="url(#clip0x7fdaa1511770)"><image xlink:href="../../18DBF37F-4768-4907-A96E-9B8555C8012F/assets/A81AF0278930B93F47F55E5BB6D3A023.png" width="1920.00" height="1080.00" transform="matrix(1.00, 0.00, -0.00, -1.00, 0.0, 1080.0)"></image></g></g><text xml:space="preserve" font-family="Marion-Regular,Marion" font-size="112.0" fill="#FEFFFF" transform="matrix(1.00, 0.00, -0.00, -1.00, 496.0, 939.3)">N</text><text xml:space="preserve" font-family="Marion-Regular,Marion" font-size="112.0" fill="#FEFFFF" transform="matrix(1.00, 0.00, -0.00, -1.00, 579.3, 939.3)">o</text><text xml:space="preserve" font-family="Marion-Regular,Marion" font-size="112.0" fill="#FEFFFF" transform="matrix(1.00, 0.00, -0.00, -1.00, 631.4, 939.3)">d</text><text xml:space="preserve" font-family="Marion-Regular,Marion" font-size="112.0" fill="#FEFFFF" transform="matrix(1.00, 0.00, -0.00, -1.00, 687.6, 939.3)">e</text><text xml:space="preserve" font-family="Marion-Regular,Marion" font-size="112.0" fill="#FEFFFF" transform="matrix(1.00, 0.00, -0.00, -1.00, 735.7, 939.3)">.</text><text xml:space="preserve" font-family="Marion-Regular,Marion" font-size="112.0" fill="#FEFFFF" transform="matrix(1.00, 0.00, -0.00, -1.00, 761.9, 939.3)">j</text><text xml:space="preserve" font-family="Marion-Regular,Marion" font-size="112.0" fill="#FEFFFF" transform="matrix(1.00, 0.00, -0.00, -1.00, 788.7, 939.3)">s</text><text xml:space="preserve" font-family="Marion-Regular,Marion" font-size="112.0" fill="#FEFFFF" transform="matrix(1.00, 0.00, -0.00, -1.00, 829.2, 939.3)"> </text><text xml:space="preserve" font-family="Marion-Regular,Marion" font-size="112.0" fill="#FEFFFF" transform="matrix(1.00, 0.00, -0.00, -1.00, 862.8, 939.3)">F</text><text xml:space="preserve" font-family="Marion-Regular,Marion" font-size="112.0" fill="#FEFFFF" transform="matrix(1.00, 0.00, -0.00, -1.00, 928.2, 939.3)">r</text><text xml:space="preserve" font-family="Marion-Regular,Marion" font-size="112.0" fill="#FEFFFF" transform="matrix(1.00, 0.00, -0.00, -1.00, 970.9, 939.3)">a</text><text xml:space="preserve" font-family="Marion-Regular,Marion" font-size="112.0" fill="#FEFFFF" transform="matrix(1.00, 0.00, -0.00, -1.00, 1020.5, 939.3)">m</text><text xml:space="preserve" font-family="Marion-Regular,Marion" font-size="112.0" fill="#FEFFFF" transform="matrix(1.00, 0.00, -0.00, -1.00, 1110.1, 939.3)">e</text><text xml:space="preserve" font-family="Marion-Regular,Marion" font-size="112.0" fill="#FEFFFF" transform="matrix(1.00, 0.00, -0.00, -1.00, 1158.3, 939.3)">w</text><text xml:space="preserve" font-family="Marion-Regular,Marion" font-size="112.0" fill="#FEFFFF" transform="matrix(1.00, 0.00, -0.00, -1.00, 1231.4, 939.3)">o</text><text xml:space="preserve" font-family="Marion-Regular,Marion" font-size="112.0" fill="#FEFFFF" transform="matrix(1.00, 0.00, -0.00, -1.00, 1283.6, 939.3)">r</text><text xml:space="preserve" font-family="Marion-Regular,Marion" font-size="112.0" fill="#FEFFFF" transform="matrix(1.00, 0.00, -0.00, -1.00, 1326.3, 939.3)">k</text><text xml:space="preserve" font-family="Marion-Regular,Marion" font-size="112.0" fill="#FEFFFF" transform="matrix(1.00, 0.00, -0.00, -1.00, 1383.4, 939.3)">s</text><image xlink:href="../../17A7ACF1-D225-41CC-A1F7-03B972D6B63E/assets/54AA3D35E60DCABD3FD829AA2CD6954B.png" width="375.00" height="360.00" transform="matrix(1.00, 0.00, -0.00, -1.00, 760.3, 676.1)"></image><g><clipPath id="clip0x7fdaa10edea0"><path d="M 400.0 273.0 L 655.0 273.0 L 655.0 208.0 L 400.0 208.0 Z M 399.8 272.5 "></path></clipPath><g clip-path="url(#clip0x7fdaa10edea0)"><image xlink:href="../../17A7ACF1-D225-41CC-A1F7-03B972D6B63E/assets/A82038CAA303A8EB6ABD89CAD15BD0E2.png" width="1185.00" height="300.00" transform="matrix(0.22, 0.00, -0.00, -0.22, 399.8, 272.5)"></image></g></g><image xlink:href="../../17A7ACF1-D225-41CC-A1F7-03B972D6B63E/assets/90D6920399AC0DE73155E605A8CC6ADD.png" width="346.00" height="100.00" transform="matrix(1.00, 0.00, -0.00, -1.00, 1174.2, 724.6)"></image><text xml:space="preserve" font-family="Helvetica-Bold,Helvetica" font-weight="bold" font-size="82.0" fill="#E54E55" transform="matrix(1.00, 0.00, -0.00, -1.00, 620.8, 737.9)">D</text><text xml:space="preserve" font-family="Helvetica-Bold,Helvetica" font-weight="bold" font-size="82.0" fill="#E54E55" transform="matrix(1.00, 0.00, -0.00, -1.00, 680.0, 737.9)">e</text><text xml:space="preserve" font-family="Helvetica-Bold,Helvetica" font-weight="bold" font-size="82.0" fill="#E54E55" transform="matrix(1.00, 0.00, -0.00, -1.00, 725.6, 737.9)">r</text><text xml:space="preserve" font-family="Helvetica-Bold,Helvetica" font-weight="bold" font-size="82.0" fill="#E54E55" transform="matrix(1.00, 0.00, -0.00, -1.00, 757.5, 737.9)">b</text><text xml:space="preserve" font-family="Helvetica-Bold,Helvetica" font-weight="bold" font-size="82.0" fill="#E54E55" transform="matrix(1.00, 0.00, -0.00, -1.00, 807.6, 737.9)">y</text><g><clipPath id="clip0x7fdaa14995d0"><path d="M 851.0 213.0 L 1151.0 213.0 L 1151.0 110.0 L 851.0 110.0 Z M 851.1 212.6 "></path></clipPath><g clip-path="url(#clip0x7fdaa14995d0)"><g><clipPath id="clip0x7fdaa1499a30"><path d="M 886.2 212.6 C 879.0 212.6 871.4 203.6 871.4 195.3 C 871.3 191.6 871.3 187.2 871.2 185.4 C 871.1 183.7 867.1 180.0 862.4 177.2 C 853.5 172.0 850.7 168.2 851.1 161.8 C 851.5 154.6 854.2 151.1 862.6 147.3 C 867.7 145.0 871.0 142.2 871.1 140.2 C 871.7 122.1 872.6 117.8 876.7 114.5 C 879.0 112.6 882.1 111.0 883.4 111.0 C 886.8 111.0 903.1 118.4 904.5 120.6 C 905.1 121.6 908.8 120.3 912.7 117.7 C 931.1 105.5 942.9 112.2 942.0 134.4 C 941.8 140.9 942.4 141.9 949.4 145.5 C 965.0 153.4 966.7 166.9 953.2 175.5 C 941.8 182.8 939.6 185.4 941.7 189.3 C 945.9 197.2 936.7 212.6 927.8 212.6 C 924.2 212.6 912.5 206.6 910.2 203.6 C 908.7 201.6 906.6 202.2 899.7 206.8 C 895.0 210.0 888.9 212.6 886.2 212.6 Z M 887.0 203.6 C 889.3 203.3 892.0 202.2 894.7 200.4 C 897.4 198.6 899.8 196.5 900.0 195.9 C 900.2 195.3 898.7 192.8 896.6 190.3 C 892.3 185.1 891.0 184.5 885.4 185.2 C 881.6 185.7 881.3 186.0 880.7 189.6 C 879.8 195.1 880.3 200.4 881.8 202.2 C 882.9 203.5 884.8 203.9 887.0 203.6 Z M 928.7 203.6 C 930.2 203.4 931.4 202.9 931.9 201.9 C 933.4 198.9 933.7 194.2 933.0 189.4 L 933.0 185.0 L 928.2 185.0 C 922.2 185.0 920.9 185.4 916.4 190.4 C 912.9 194.3 912.6 194.9 913.9 196.8 C 916.6 200.9 924.2 203.9 928.7 203.6 Z M 908.2 187.9 C 908.5 187.8 908.8 187.7 908.9 187.4 C 909.3 186.9 909.1 186.2 908.6 185.8 C 908.0 185.5 907.3 185.7 907.0 186.2 C 906.7 186.7 906.8 187.4 907.4 187.8 C 907.6 187.9 907.9 188.0 908.2 187.9 Z M 995.4 186.0 L 995.0 162.6 C 995.0 141.6 995.7 139.5 998.7 140.1 C 1001.0 140.5 1002.4 143.1 1003.0 148.2 C 1004.3 158.1 1007.5 158.8 1013.0 150.5 C 1017.5 143.5 1025.1 138.2 1027.3 140.3 C 1027.9 141.0 1026.3 144.9 1023.7 148.9 L 1018.8 156.2 L 1023.4 161.5 C 1029.2 168.3 1029.2 175.1 1023.2 181.0 C 1019.3 185.0 1016.7 186.0 1006.9 186.0 L 995.4 186.0 Z M 1138.2 181.7 C 1137.4 181.6 1137.0 180.8 1137.0 179.2 C 1137.0 175.7 1128.0 169.8 1126.5 172.3 C 1125.8 173.4 1122.1 174.2 1118.1 174.2 C 1103.3 174.2 1095.9 155.8 1106.3 144.7 C 1112.0 138.6 1123.3 137.9 1128.2 143.3 C 1130.9 146.4 1131.0 147.2 1128.6 149.2 C 1126.8 150.7 1125.5 150.8 1124.6 149.4 C 1124.0 148.3 1120.8 147.4 1117.7 147.4 C 1113.3 147.4 1111.6 148.6 1110.1 152.6 C 1107.1 160.4 1110.5 166.6 1117.7 166.6 C 1120.8 166.6 1124.0 165.7 1124.6 164.6 C 1125.5 163.2 1126.7 163.3 1128.5 164.8 C 1133.9 169.3 1136.8 165.4 1137.4 152.8 C 1138.0 141.1 1138.1 140.7 1143.5 140.1 C 1151.2 139.2 1153.7 142.4 1148.7 146.7 C 1143.8 151.0 1143.3 161.9 1147.9 166.9 C 1150.9 170.3 1150.8 170.8 1145.6 176.2 C 1141.9 180.1 1139.5 181.9 1138.2 181.7 Z M 1008.6 179.0 C 1013.5 179.1 1015.3 178.8 1017.2 177.2 C 1020.6 174.5 1020.4 169.3 1016.8 166.1 C 1014.6 164.2 1012.8 163.7 1008.4 163.7 C 1001.8 163.7 1001.6 164.1 1002.0 172.6 L 1002.0 179.0 L 1008.6 179.0 Z M 897.4 177.1 L 906.4 177.0 L 915.4 177.0 L 918.4 173.2 C 921.1 169.6 924.9 162.4 924.9 160.7 C 924.9 160.2 922.8 157.0 920.3 153.6 C 916.2 148.0 915.3 147.3 912.1 147.3 C 907.0 147.3 906.8 148.9 911.5 151.9 C 916.9 155.4 918.7 158.2 918.3 163.2 C 917.9 167.6 913.7 172.4 909.0 173.6 C 902.2 175.3 895.1 169.5 895.1 162.2 C 895.1 157.2 896.9 154.6 902.2 151.7 C 904.1 150.7 905.7 149.4 905.8 148.8 C 905.8 148.3 904.0 147.7 901.8 147.5 C 897.8 147.2 897.4 147.4 893.9 152.7 C 887.5 162.2 887.5 161.5 892.8 169.7 L 897.4 177.1 Z M 928.7 175.7 C 929.0 175.6 929.3 175.4 929.5 175.0 C 929.9 174.3 929.8 173.3 929.2 172.8 C 928.5 172.1 927.9 172.2 927.4 173.0 C 927.0 173.6 927.2 174.6 927.7 175.2 C 928.1 175.5 928.4 175.7 928.7 175.7 Z M 885.7 175.6 C 885.9 175.5 886.2 175.4 886.4 175.1 C 886.7 174.6 886.5 173.9 886.0 173.5 C 885.5 173.2 884.8 173.4 884.4 173.9 C 884.1 174.4 884.3 175.1 884.8 175.5 C 885.1 175.6 885.4 175.7 885.7 175.6 Z M 1047.1 174.2 C 1038.7 174.2 1033.4 168.7 1032.3 158.5 C 1031.4 150.8 1031.9 149.0 1036.2 144.7 C 1041.9 139.0 1053.4 137.9 1059.6 142.5 C 1065.1 146.6 1060.9 150.1 1053.8 147.4 C 1049.6 145.8 1047.5 146.0 1043.9 148.4 C 1037.1 152.8 1040.1 155.1 1052.9 155.1 C 1065.5 155.1 1066.6 156.5 1061.5 166.4 C 1058.4 172.5 1055.1 174.2 1047.1 174.2 Z M 1082.7 174.2 C 1078.3 174.1 1073.8 173.0 1071.6 171.1 C 1068.3 168.1 1068.3 167.8 1071.4 165.5 C 1074.6 163.2 1074.6 162.9 1071.4 159.4 C 1067.1 154.6 1067.1 144.4 1071.5 141.8 C 1073.3 140.7 1079.1 139.7 1084.4 140.0 L 1094.0 141.0 L 1095.0 154.8 C 1095.4 163.5 1094.2 169.9 1092.9 171.5 C 1091.3 173.4 1087.1 174.3 1082.7 174.2 Z M 940.0 172.5 C 941.5 172.3 943.9 171.2 948.0 168.9 C 953.3 166.0 954.4 163.9 953.1 158.9 C 952.7 157.2 950.9 155.7 947.2 153.9 C 939.5 150.3 938.5 150.6 935.8 156.8 C 933.8 161.5 933.6 162.5 934.9 164.7 C 935.6 166.2 936.7 168.6 937.2 170.2 C 937.8 171.9 938.5 172.7 940.0 172.5 Z M 874.0 172.4 C 875.2 172.4 875.7 171.7 875.7 170.5 C 875.7 169.7 876.5 168.0 877.6 166.7 C 879.8 163.9 879.7 162.9 876.8 156.3 C 874.4 150.8 873.3 150.4 866.8 153.4 C 861.9 155.6 859.3 158.9 859.3 162.8 C 859.3 165.1 861.7 168.7 863.4 168.7 C 863.6 168.7 866.1 169.7 868.8 170.9 C 871.2 172.0 872.9 172.5 874.0 172.4 Z M 1047.1 168.4 C 1048.1 168.6 1049.2 168.5 1050.1 168.3 C 1053.5 167.6 1056.7 163.5 1055.8 161.2 C 1055.3 160.0 1053.4 159.6 1047.5 159.6 C 1043.3 159.6 1039.7 160.0 1039.4 160.4 C 1038.4 161.9 1041.3 166.3 1044.2 167.7 C 1045.0 168.1 1046.0 168.3 1047.1 168.4 Z M 1081.9 157.1 C 1083.0 157.0 1084.1 156.8 1085.4 156.3 C 1089.1 155.1 1089.5 154.7 1089.2 151.9 C 1089.0 150.2 1087.9 148.0 1086.8 147.1 C 1084.1 144.8 1078.9 144.8 1076.0 147.1 C 1073.9 148.7 1073.8 149.1 1075.2 152.2 C 1076.6 155.6 1078.8 157.2 1081.9 157.1 Z M 885.7 150.0 C 885.9 149.9 886.2 149.7 886.4 149.5 C 886.7 148.9 886.5 148.2 886.0 147.9 C 885.5 147.5 884.8 147.7 884.4 148.2 C 884.1 148.8 884.3 149.5 884.8 149.8 C 885.1 150.0 885.4 150.0 885.7 150.0 Z M 929.8 150.0 C 930.0 149.9 930.3 149.7 930.5 149.5 C 930.8 148.9 930.6 148.2 930.1 147.9 C 929.6 147.5 928.9 147.7 928.5 148.2 C 928.2 148.8 928.4 149.5 928.9 149.8 C 929.2 150.0 929.5 150.0 929.8 150.0 Z M 930.6 138.9 C 931.7 138.8 932.3 138.5 932.5 138.1 C 934.0 135.7 933.5 125.0 931.7 122.2 C 929.5 118.8 925.4 118.8 920.8 122.2 C 918.9 123.6 917.1 125.1 916.8 125.6 C 916.4 126.1 915.1 127.0 913.9 127.7 C 911.6 128.9 911.7 129.0 916.0 133.5 C 919.9 137.5 921.0 138.1 926.1 138.7 C 928.1 138.9 929.5 139.0 930.6 138.9 Z M 906.5 138.9 C 907.6 138.8 908.5 137.9 907.9 137.0 C 907.6 136.5 906.9 136.0 906.4 136.0 C 905.0 136.0 904.2 137.9 905.4 138.6 C 905.7 138.8 906.1 138.9 906.5 138.9 Z M 880.0 138.6 L 886.9 138.0 C 891.3 137.8 894.1 137.5 895.3 136.4 C 896.4 135.4 897.0 134.5 896.7 134.2 C 896.5 133.9 897.4 132.8 898.8 131.7 L 901.3 129.7 L 898.0 126.5 C 896.1 124.7 893.5 122.7 892.2 122.0 C 888.7 120.1 883.4 120.3 881.7 122.4 C 880.6 123.7 879.9 126.4 880.0 131.4 L 880.0 138.6 Z M 872.6 65.0 C 870.8 65.0 865.0 54.4 866.2 53.2 C 867.9 51.5 910.2 51.9 912.4 53.7 C 913.8 54.9 915.1 55.0 915.8 53.8 C 917.4 51.2 953.3 51.1 956.3 53.6 C 958.0 55.0 959.8 54.9 962.6 53.2 C 967.2 50.3 967.7 50.7 969.2 58.8 L 970.4 65.0 L 927.5 65.0 C 886.3 64.7 884.5 64.1 884.0 60.5 C 883.1 54.7 879.0 54.5 876.4 60.1 C 875.2 62.8 873.5 65.0 872.6 65.0 Z M 999.4 64.4 C 984.2 64.3 974.5 64.2 974.2 64.0 C 973.6 63.6 973.5 60.6 974.0 57.4 L 975.0 52.0 L 1003.2 52.0 C 1029.4 52.3 1031.6 52.4 1032.1 55.8 C 1032.9 60.6 1036.4 60.4 1037.1 55.5 C 1037.9 50.8 1040.4 50.4 1042.1 54.7 C 1043.2 57.6 1043.6 57.6 1046.6 54.9 C 1049.5 52.4 1056.7 51.7 1095.9 52.0 L 1142.0 53.0 L 1142.0 58.3 L 1142.0 64.0 L 1058.6 64.0 C 1035.7 64.1 1014.7 64.4 999.4 64.4 Z M 1017.6 45.3 C 1006.7 45.5 995.7 45.0 994.4 43.9 C 992.7 42.5 991.5 42.5 990.7 43.8 C 989.9 45.1 987.9 45.1 984.6 43.8 C 981.4 42.6 978.8 42.6 977.4 43.8 C 976.1 44.8 969.2 45.2 961.8 44.7 C 954.5 44.1 946.6 43.7 944.2 43.6 C 940.8 43.6 940.0 42.4 940.0 38.2 L 940.0 33.0 L 1005.9 33.0 L 1072.0 33.0 L 1071.0 38.9 C 1070.5 44.9 1070.8 44.9 1059.4 45.1 C 1053.2 45.2 1046.6 44.5 1044.9 43.7 C 1043.2 42.8 1041.2 42.7 1040.5 43.4 C 1039.4 44.6 1028.6 45.2 1017.6 45.3 Z M 1017.6 45.3 "></path></clipPath><g clip-path="url(#clip0x7fdaa1499a30)"><image xlink:href="../../17A7ACF1-D225-41CC-A1F7-03B972D6B63E/assets/3807B3371280A809593222D7A4674693.png" width="400.00" height="320.00" transform="matrix(1.00, 0.00, -0.00, -1.00, 805.9, 279.6)"></image></g></g></g></g><g><clipPath id="clip0x7fda948df960"><path d="M 1284.0 447.0 L 1354.0 447.0 L 1354.0 285.0 L 1284.0 285.0 Z M 1283.8 447.0 "></path></clipPath><g clip-path="url(#clip0x7fda948df960)"><g><clipPath id="clip0x7fda94873db0"><path d="M 1304.5 441.8 C 1302.6 441.8 1302.5 440.7 1303.7 432.0 C 1304.2 428.5 1304.5 425.4 1304.6 423.9 C 1304.6 423.4 1304.6 423.1 1304.5 423.0 C 1304.3 422.8 1304.0 420.8 1303.8 418.6 C 1303.8 418.0 1303.8 417.4 1303.7 417.2 C 1303.7 416.9 1303.6 416.4 1303.6 416.2 C 1303.6 415.6 1303.6 415.2 1303.7 415.0 C 1303.7 414.8 1303.8 414.7 1303.8 414.6 C 1303.9 414.6 1303.9 414.5 1303.9 414.4 C 1304.0 414.4 1304.1 414.4 1304.2 414.4 C 1304.3 414.4 1304.3 414.3 1304.5 414.3 C 1304.5 414.3 1304.6 414.3 1304.6 414.3 C 1304.8 414.3 1305.0 414.2 1305.2 414.1 C 1305.5 414.2 1305.8 414.1 1305.8 414.0 C 1305.8 414.0 1305.9 413.8 1305.9 413.7 C 1305.9 413.7 1305.9 413.7 1305.9 413.7 C 1306.3 413.1 1306.8 409.8 1307.1 406.7 C 1307.1 406.6 1307.1 406.6 1307.1 406.6 C 1307.3 405.2 1307.4 403.8 1307.4 402.7 C 1307.4 401.5 1307.4 400.7 1307.2 400.5 C 1307.2 400.5 1307.2 400.5 1307.2 400.5 C 1307.2 400.5 1307.2 400.5 1307.2 400.5 C 1306.9 400.2 1305.4 400.1 1303.2 400.3 C 1302.0 400.5 1301.1 400.8 1300.5 401.0 L 1299.0 401.0 L 1299.0 401.7 C 1299.0 401.7 1299.2 401.7 1299.2 401.7 C 1299.2 401.7 1299.2 401.8 1299.2 401.9 C 1298.7 402.6 1298.6 403.7 1298.7 405.5 C 1298.7 406.3 1298.7 408.8 1298.7 410.7 C 1298.7 411.4 1299.0 412.0 1299.0 412.7 L 1299.0 423.0 L 1297.2 423.0 L 1296.0 423.0 L 1295.0 399.0 C 1294.8 387.5 1295.2 381.6 1295.0 378.3 L 1295.0 375.1 L 1294.0 374.6 C 1293.9 374.4 1294.3 374.3 1294.2 374.2 C 1294.1 374.1 1294.1 374.1 1294.1 374.1 C 1293.9 373.9 1293.8 373.7 1293.8 373.5 C 1293.7 373.5 1293.7 373.4 1293.7 373.3 C 1293.6 373.2 1293.6 373.1 1293.6 373.0 C 1293.6 372.7 1293.5 372.3 1293.5 371.7 C 1293.5 371.2 1293.6 370.5 1293.7 369.4 C 1293.8 368.3 1293.9 366.8 1294.1 364.8 C 1294.2 364.3 1294.2 364.0 1294.3 363.5 C 1294.4 362.6 1294.4 362.1 1294.6 361.1 C 1295.1 356.7 1295.0 355.5 1294.1 351.8 C 1293.9 350.6 1293.7 349.8 1293.5 349.2 C 1293.4 348.8 1293.2 347.8 1293.1 347.8 C 1293.0 347.6 1292.4 347.4 1291.6 347.2 C 1291.6 347.2 1291.5 347.1 1291.5 347.1 C 1289.8 346.6 1289.8 346.5 1290.1 344.3 C 1290.1 344.0 1290.2 343.7 1290.3 343.4 C 1290.4 343.1 1290.5 342.7 1290.6 342.3 C 1290.7 342.1 1290.8 341.8 1290.9 341.6 C 1291.0 341.5 1291.1 341.3 1291.2 341.2 C 1291.3 341.2 1291.3 341.1 1291.4 341.0 C 1291.4 341.0 1291.4 341.0 1291.4 340.9 C 1291.4 340.9 1291.5 340.9 1291.5 340.8 C 1291.5 340.8 1291.5 340.8 1291.5 340.8 C 1291.5 340.7 1291.5 340.6 1291.5 340.6 C 1291.5 340.6 1291.5 340.6 1291.5 340.6 C 1291.5 340.6 1291.5 340.5 1291.5 340.5 C 1291.5 340.4 1291.5 340.3 1291.5 340.1 C 1291.5 340.0 1291.5 339.9 1291.5 339.8 C 1291.4 338.8 1291.0 337.1 1290.1 333.9 C 1289.0 330.1 1287.7 325.0 1287.1 322.6 C 1286.6 320.2 1286.1 318.7 1285.4 317.8 C 1286.1 317.5 1285.9 316.7 1284.8 315.3 C 1283.8 314.2 1283.6 313.7 1284.3 313.1 C 1284.4 313.1 1284.5 313.1 1284.6 313.0 C 1285.1 312.6 1286.5 312.4 1286.8 312.7 C 1287.1 312.9 1287.4 312.9 1287.9 312.7 C 1288.4 312.5 1288.8 312.5 1289.2 312.7 C 1289.6 313.0 1289.8 313.0 1290.2 312.6 C 1290.8 312.0 1291.2 312.3 1290.8 313.0 C 1290.6 313.2 1290.6 313.6 1290.6 313.9 C 1290.7 314.0 1290.7 314.1 1290.8 314.1 C 1290.4 314.8 1290.6 316.1 1291.7 321.1 C 1292.6 324.8 1293.4 327.9 1293.7 328.0 C 1294.5 328.1 1294.7 314.7 1293.9 313.8 C 1293.9 313.7 1293.8 313.7 1293.8 313.7 C 1293.8 313.7 1293.8 313.7 1293.8 313.7 C 1294.2 313.5 1294.2 310.0 1293.9 309.0 L 1295.0 309.0 L 1294.0 306.1 L 1294.0 302.3 C 1293.6 295.3 1293.8 294.6 1294.0 293.8 C 1294.1 293.7 1294.2 293.7 1294.4 293.6 C 1294.5 293.5 1294.5 293.5 1294.6 293.4 C 1294.8 293.4 1295.1 293.3 1295.3 293.2 C 1296.0 293.2 1296.7 293.1 1297.5 293.1 C 1298.2 293.1 1298.9 292.8 1299.7 293.0 L 1300.8 294.0 C 1301.2 294.4 1301.3 295.0 1301.3 297.6 C 1301.3 297.6 1301.3 297.6 1301.3 297.6 C 1301.3 297.6 1301.3 297.6 1301.3 297.6 C 1301.3 299.6 1301.4 300.6 1301.6 301.2 C 1301.6 301.2 1301.7 301.3 1301.7 301.4 C 1301.6 301.5 1301.6 301.7 1301.6 301.9 C 1301.6 302.3 1301.7 302.6 1301.9 302.8 C 1301.4 303.3 1301.2 304.0 1301.6 304.6 C 1301.8 304.9 1301.7 305.6 1301.4 306.2 C 1300.9 307.0 1301.1 307.5 1302.1 308.7 C 1302.3 309.0 1302.4 309.1 1302.6 309.3 C 1302.5 309.4 1302.4 309.4 1302.3 309.4 C 1301.7 309.7 1301.4 310.0 1301.4 310.6 C 1301.3 311.1 1301.4 311.4 1301.6 311.7 C 1301.6 312.1 1301.7 312.4 1301.9 312.6 C 1301.6 313.0 1301.5 313.4 1301.4 314.0 C 1301.2 316.1 1301.9 316.4 1308.7 317.3 C 1311.5 317.6 1318.2 318.4 1323.7 319.1 C 1327.9 319.6 1331.5 319.9 1333.2 320.0 C 1333.8 320.0 1334.1 320.0 1334.2 319.9 C 1334.4 319.7 1335.3 315.7 1336.2 311.0 C 1337.0 307.1 1337.4 304.7 1337.4 303.3 C 1337.7 303.3 1338.0 302.8 1338.0 302.2 C 1338.0 301.9 1337.9 301.6 1337.7 301.5 C 1337.9 301.1 1338.2 300.7 1338.3 300.3 C 1338.4 299.9 1338.4 299.6 1338.3 299.3 C 1338.6 299.3 1338.9 299.3 1339.2 299.2 C 1339.4 299.2 1339.6 299.2 1339.8 299.2 C 1339.8 299.2 1339.9 299.2 1340.0 299.2 C 1342.4 299.1 1344.5 299.2 1344.8 299.5 C 1345.1 299.8 1343.5 307.7 1341.1 318.1 C 1339.5 325.2 1338.1 331.4 1337.3 336.0 C 1337.2 336.2 1337.2 336.5 1337.1 336.7 C 1336.7 338.8 1336.4 340.2 1336.4 341.3 C 1336.3 341.8 1336.4 341.9 1336.3 342.2 C 1336.3 342.2 1336.3 342.2 1336.3 342.3 C 1336.3 342.6 1336.2 343.2 1336.3 343.3 C 1336.4 343.6 1337.4 343.9 1339.0 344.1 C 1339.0 344.1 1339.0 344.1 1339.0 344.1 C 1339.0 344.1 1339.1 344.1 1339.1 344.1 C 1340.1 344.2 1341.1 344.3 1342.8 344.4 C 1350.1 344.8 1351.4 345.1 1351.4 346.1 C 1351.4 346.3 1351.4 346.4 1351.3 346.5 C 1351.2 346.6 1351.0 346.6 1350.9 346.6 C 1350.8 346.7 1350.8 346.7 1350.7 346.7 C 1350.2 346.8 1349.4 346.8 1348.1 346.8 C 1347.4 346.7 1346.9 346.7 1346.4 346.7 C 1346.2 346.7 1346.1 346.8 1345.9 346.8 C 1345.8 346.8 1345.6 346.8 1345.5 346.7 C 1345.2 346.7 1345.0 346.8 1344.8 347.1 C 1344.7 347.1 1344.7 347.2 1344.6 347.2 C 1344.5 347.3 1344.3 347.5 1344.1 347.8 C 1344.0 348.0 1343.8 348.2 1343.6 348.4 C 1343.2 348.7 1342.6 348.8 1341.6 348.9 C 1341.0 348.9 1340.4 348.9 1339.5 348.9 C 1338.3 348.9 1337.3 349.0 1336.6 349.1 C 1336.2 349.2 1335.9 349.2 1335.7 349.3 C 1335.7 349.3 1335.7 349.3 1335.7 349.3 C 1335.4 349.4 1335.2 349.5 1335.2 349.6 C 1335.1 349.7 1335.0 350.2 1334.9 350.4 C 1334.8 350.6 1334.7 350.8 1334.6 351.1 C 1333.7 354.1 1332.1 361.3 1331.4 366.1 C 1331.2 367.4 1331.1 367.7 1331.0 368.6 C 1330.5 371.4 1330.2 372.6 1329.8 372.4 C 1329.3 372.1 1328.4 373.3 1327.8 374.3 C 1327.5 374.5 1327.3 374.9 1327.5 375.5 C 1327.5 375.5 1327.5 375.5 1327.5 375.6 C 1327.6 376.0 1327.4 377.9 1326.9 379.9 C 1325.1 387.9 1323.4 395.3 1322.6 398.8 C 1322.1 400.8 1320.9 406.3 1319.8 410.9 C 1318.7 415.5 1317.6 420.1 1317.5 421.3 C 1317.4 421.3 1317.4 421.3 1317.4 421.3 C 1317.4 421.4 1317.4 421.4 1317.4 421.4 C 1317.3 422.2 1317.0 422.8 1316.6 423.1 C 1316.4 423.3 1316.0 423.3 1315.3 423.3 C 1314.6 423.3 1314.1 423.2 1313.7 423.1 C 1313.6 423.0 1313.4 422.8 1313.3 422.7 C 1313.2 421.8 1314.8 414.2 1317.3 403.9 C 1317.7 402.1 1317.9 400.5 1317.8 400.4 C 1317.5 400.2 1316.3 400.1 1315.0 400.1 C 1314.4 400.1 1313.7 400.1 1313.1 400.2 C 1313.1 400.3 1313.0 400.3 1313.0 400.3 C 1312.6 400.4 1312.2 400.4 1312.2 400.5 C 1312.2 400.6 1312.2 400.7 1312.1 400.8 C 1312.1 400.8 1312.1 400.8 1312.1 400.8 C 1312.0 400.9 1311.9 401.5 1311.9 402.0 C 1311.6 403.0 1311.4 404.5 1311.1 406.3 C 1311.0 407.5 1310.9 408.5 1310.8 409.6 C 1310.7 409.7 1310.7 409.9 1310.7 410.1 C 1310.5 411.8 1310.4 413.3 1310.5 413.6 C 1310.5 413.6 1311.0 413.6 1311.0 413.7 L 1311.0 414.0 L 1311.0 414.0 C 1311.3 414.1 1311.6 414.3 1311.9 414.3 C 1312.1 414.3 1312.3 414.4 1312.5 414.5 C 1312.7 414.6 1312.9 414.7 1312.9 414.9 C 1312.9 415.3 1312.5 415.7 1311.9 416.3 C 1311.7 416.5 1311.6 416.6 1311.4 416.8 C 1311.4 416.9 1311.3 417.0 1311.3 417.2 C 1311.2 417.3 1311.1 417.4 1311.1 417.5 C 1311.1 417.5 1311.1 417.5 1311.1 417.5 C 1310.9 418.0 1310.8 418.5 1310.8 419.1 C 1310.8 421.3 1310.4 422.7 1309.8 423.2 C 1309.7 423.2 1309.6 423.3 1309.5 423.3 C 1309.5 423.3 1309.5 423.3 1309.5 423.3 C 1309.3 423.3 1309.2 423.3 1309.1 423.3 C 1309.0 423.3 1308.9 423.4 1308.8 423.4 C 1308.7 423.5 1308.6 423.7 1308.5 423.9 C 1308.4 424.1 1308.4 424.4 1308.3 424.9 C 1307.9 426.6 1307.3 430.3 1306.1 437.9 C 1305.9 438.7 1305.8 439.3 1305.7 439.8 C 1305.6 440.4 1305.5 440.7 1305.4 441.0 C 1305.3 441.3 1305.1 441.5 1305.0 441.6 C 1304.9 441.7 1304.7 441.8 1304.5 441.8 Z M 1360.1 440.7 C 1360.0 432.7 1359.9 404.7 1359.9 366.1 C 1359.9 327.4 1360.0 299.4 1360.1 291.5 C 1360.3 303.8 1360.4 332.7 1360.4 366.1 C 1360.4 399.5 1360.3 428.3 1360.1 440.7 Z M 1302.1 397.0 C 1303.2 396.9 1304.3 396.8 1304.6 396.5 C 1305.1 396.0 1302.7 385.4 1301.8 384.6 C 1301.6 384.3 1301.3 383.1 1301.3 381.8 C 1301.3 379.6 1300.5 378.3 1300.0 379.6 C 1299.9 380.0 1299.9 384.0 1300.0 388.5 L 1300.0 397.0 L 1302.1 397.0 Z M 1315.3 396.8 C 1316.7 396.9 1317.7 396.7 1318.1 396.3 C 1318.8 395.5 1322.9 376.5 1322.5 376.1 C 1322.4 375.9 1320.7 375.8 1318.9 375.8 C 1315.1 375.8 1315.4 375.6 1314.5 380.6 C 1313.8 385.3 1313.8 387.2 1314.8 388.0 C 1315.8 388.8 1315.8 390.7 1314.8 390.3 C 1313.8 389.9 1312.8 392.3 1313.0 394.8 C 1313.2 396.6 1313.3 396.7 1315.3 396.8 Z M 1308.5 392.2 C 1308.6 392.3 1308.7 392.3 1308.8 392.2 C 1309.0 392.1 1309.1 391.6 1309.0 391.3 C 1308.9 390.5 1308.3 390.3 1308.1 390.9 C 1307.9 391.3 1308.2 392.0 1308.5 392.2 Z M 1309.3 387.9 C 1309.4 387.8 1309.4 387.8 1309.5 387.6 C 1309.6 387.4 1309.5 386.9 1309.4 386.5 C 1309.3 386.4 1309.3 386.3 1309.3 386.2 C 1309.3 386.2 1309.3 386.2 1309.3 386.2 C 1309.4 386.2 1309.5 386.3 1309.5 386.2 C 1309.6 386.2 1309.7 386.2 1309.7 386.1 C 1309.8 386.0 1309.8 385.8 1309.6 385.7 C 1309.5 385.6 1309.3 385.6 1309.2 385.8 C 1309.2 385.8 1309.2 385.9 1309.2 385.9 C 1309.2 385.8 1309.1 385.7 1309.1 385.7 C 1309.1 385.6 1308.8 385.1 1308.3 384.7 C 1307.2 383.5 1306.5 383.6 1306.8 384.8 C 1306.8 385.0 1307.0 385.4 1307.2 385.7 C 1307.2 385.8 1307.3 385.9 1307.4 385.9 C 1307.6 386.2 1307.8 386.5 1308.1 386.8 C 1308.9 387.7 1309.2 388.0 1309.3 387.9 Z M 1309.6 383.6 C 1310.1 383.5 1309.9 382.3 1310.0 379.5 L 1311.0 377.0 L 1307.9 376.0 C 1304.8 375.8 1304.5 376.5 1305.0 378.4 C 1305.3 379.4 1305.8 379.9 1306.9 380.1 C 1308.1 380.3 1308.4 380.6 1308.5 381.5 C 1308.5 382.1 1308.8 382.9 1309.1 383.3 C 1309.3 383.5 1309.5 383.6 1309.6 383.6 Z M 1328.3 342.6 C 1330.5 342.4 1330.7 341.3 1331.3 336.8 C 1331.6 334.6 1332.2 331.0 1332.7 328.7 C 1333.1 326.4 1333.3 324.3 1333.2 324.1 C 1333.1 323.9 1332.1 323.6 1331.0 323.4 C 1325.5 322.6 1323.0 322.5 1322.7 323.1 C 1322.0 324.1 1320.2 341.1 1320.7 341.6 C 1321.0 341.9 1323.1 342.2 1325.4 342.4 C 1326.7 342.5 1327.6 342.6 1328.3 342.6 Z M 1312.9 341.8 C 1314.2 341.8 1315.0 341.8 1315.1 341.7 C 1315.6 341.1 1317.9 323.3 1317.5 322.4 C 1317.3 321.9 1315.2 321.5 1310.7 321.1 C 1303.3 320.3 1301.7 320.3 1301.2 320.8 C 1300.5 321.4 1300.8 340.4 1301.4 340.8 C 1302.0 341.2 1309.2 341.7 1312.9 341.8 Z M 1293.5 313.4 C 1293.2 313.2 1292.9 313.1 1292.6 313.1 C 1292.7 312.8 1293.3 312.8 1293.4 313.3 C 1293.4 313.3 1293.5 313.4 1293.5 313.4 Z M 1315.8 306.1 C 1315.7 306.1 1315.7 306.0 1315.6 305.9 C 1315.7 305.9 1315.8 305.9 1315.8 305.8 C 1315.8 305.9 1315.8 305.9 1315.8 305.9 C 1315.9 306.0 1315.9 306.0 1315.9 306.0 C 1315.9 306.0 1315.8 306.0 1315.8 306.0 C 1315.8 306.1 1315.8 306.1 1315.8 306.1 Z M 1315.8 306.1 "></path></clipPath><g clip-path="url(#clip0x7fda94873db0)"><g><clipPath id="clip0x7fda948b9d90"><path d="M 1283.8 285.1 L 1354.3 285.1 L 1354.3 447.0 L 1283.8 447.0 Z M 1283.8 285.1 "></path></clipPath><g clip-path="url(#clip0x7fda948b9d90)"><image xlink:href="../../17A7ACF1-D225-41CC-A1F7-03B972D6B63E/assets/0BE5FFDCB44C4431D021600A8FDBEB10.png" width="426.00" height="587.00" transform="matrix(0.28, 0.00, -0.00, -0.28, 1242.8, 447.0)"></image></g></g></g></g></g></g><g><clipPath id="clip0x7fdaa14a0270"><path d="M 1359.0 379.0 L 1490.0 379.0 L 1490.0 324.0 L 1359.0 324.0 Z M 1358.9 379.0 "></path></clipPath><g clip-path="url(#clip0x7fdaa14a0270)"><g><clipPath id="clip0x7fdaa14a06b0"><path d="M 1478.6 379.0 C 1472.2 379.0 1471.3 378.3 1474.6 375.7 L 1477.0 373.8 L 1477.0 356.0 C 1477.0 354.5 1477.0 353.4 1477.0 351.6 C 1477.0 344.1 1476.8 339.4 1476.5 335.9 C 1476.2 330.0 1475.7 327.4 1474.3 326.8 C 1473.0 326.3 1472.0 325.5 1472.0 325.2 C 1472.0 324.7 1488.1 324.7 1489.4 325.2 C 1489.7 325.3 1488.9 325.8 1487.6 326.3 C 1486.5 326.8 1485.7 327.8 1485.1 329.0 L 1485.0 329.0 L 1485.0 329.6 C 1483.7 332.9 1482.8 339.5 1483.0 355.9 L 1484.0 377.0 C 1483.9 377.4 1483.7 378.9 1483.6 379.0 C 1483.6 379.0 1483.4 379.0 1483.4 379.0 L 1478.6 379.0 Z M 1360.3 373.0 C 1359.9 373.0 1359.3 372.6 1359.1 372.0 C 1358.9 371.4 1359.7 370.9 1360.8 370.9 C 1364.2 370.9 1365.0 368.7 1364.9 355.6 C 1365.0 353.8 1365.0 352.3 1365.0 350.0 C 1365.1 343.7 1365.2 339.7 1365.0 336.5 L 1365.0 328.8 L 1361.8 327.5 C 1360.2 326.8 1358.9 325.9 1358.9 325.5 C 1358.9 325.1 1366.8 325.0 1376.3 325.0 L 1393.3 325.0 C 1393.5 325.1 1393.9 325.0 1394.0 325.1 L 1394.0 328.3 C 1394.9 333.9 1395.0 335.4 1393.4 335.4 C 1392.0 335.4 1391.4 334.3 1391.7 332.2 C 1391.9 330.2 1388.3 329.7 1380.9 330.0 L 1373.0 330.0 L 1373.0 333.7 C 1372.6 335.2 1372.8 337.4 1373.0 340.8 L 1373.0 347.1 L 1373.0 348.0 L 1377.6 348.0 C 1381.7 348.3 1382.7 348.3 1384.4 346.1 C 1385.6 344.7 1386.7 343.5 1387.0 343.5 C 1387.2 343.5 1387.3 346.2 1387.4 348.9 C 1387.2 349.6 1387.2 350.4 1387.4 351.2 C 1387.3 354.0 1387.2 356.7 1387.0 356.7 C 1386.7 356.7 1385.7 355.8 1384.8 354.7 C 1383.6 353.3 1381.5 352.2 1377.9 352.0 L 1373.0 352.0 L 1373.0 353.2 L 1373.0 358.4 C 1372.8 361.3 1372.6 363.3 1373.0 364.7 L 1373.0 368.0 L 1380.4 369.0 C 1388.1 369.3 1391.1 367.9 1390.1 365.3 C 1389.8 364.4 1390.2 363.8 1391.2 363.8 C 1392.5 363.8 1393.0 364.8 1393.0 368.3 L 1393.0 373.0 L 1376.9 373.0 C 1368.2 373.0 1360.7 373.0 1360.3 373.0 Z M 1451.4 359.8 C 1449.1 359.7 1446.9 359.1 1444.6 358.1 C 1432.3 352.3 1432.0 332.5 1444.2 326.1 C 1450.8 322.7 1465.8 324.6 1465.8 328.8 C 1465.8 330.2 1465.2 330.3 1462.5 329.7 C 1453.1 327.3 1445.5 330.2 1443.2 337.0 C 1441.1 343.2 1441.7 343.5 1455.0 343.5 C 1468.6 343.5 1469.3 344.0 1466.8 351.0 C 1464.7 356.9 1458.2 360.3 1451.4 359.8 Z M 1401.1 359.0 L 1401.0 354.2 C 1401.0 351.0 1401.5 349.6 1402.5 349.6 C 1403.3 349.6 1404.2 350.5 1404.4 351.6 C 1404.7 352.7 1406.2 354.1 1407.7 354.7 C 1411.1 355.9 1417.2 356.0 1417.9 354.8 C 1418.6 353.8 1408.7 337.9 1403.5 331.7 C 1401.6 329.4 1400.0 326.9 1400.0 326.1 C 1400.0 325.1 1403.2 325.2 1414.3 325.0 L 1429.0 324.0 L 1429.0 327.5 C 1430.0 332.4 1430.0 334.4 1428.4 334.4 C 1427.6 334.4 1426.8 333.5 1426.5 332.4 C 1426.2 331.3 1424.7 329.9 1423.2 329.3 C 1419.8 328.1 1412.7 328.0 1411.9 329.2 C 1411.3 330.2 1419.7 344.3 1425.2 351.3 C 1430.9 358.7 1430.8 359.0 1414.9 359.0 L 1401.1 359.0 Z M 1454.1 355.7 C 1455.1 355.6 1456.1 355.4 1457.0 355.1 C 1459.0 354.3 1461.9 349.2 1461.0 348.2 C 1459.9 347.2 1444.4 347.5 1443.7 348.6 C 1443.4 349.2 1444.4 351.0 1446.1 352.7 C 1448.4 354.9 1451.2 356.0 1454.1 355.7 Z M 1454.1 355.7 "></path></clipPath><g clip-path="url(#clip0x7fdaa14a06b0)"><g><clipPath id="clip0x7fdaa14a0f90"><path d="M 1358.9 324.3 L 1489.5 324.3 L 1489.5 379.0 L 1358.9 379.0 Z M 1358.9 324.3 "></path></clipPath><g clip-path="url(#clip0x7fdaa14a0f90)"><image xlink:href="../../17A7ACF1-D225-41CC-A1F7-03B972D6B63E/assets/9F72803E5734985FDA63AC1FF850C038.png" width="149.00" height="74.00" transform="matrix(1.00, 0.00, -0.00, -1.00, 1349.7, 386.1)"></image></g></g></g></g></g></g><g><clipPath id="clip0x7fdaa16247a0"><path d="M 456.6 471.7 L 557.5 471.7 L 557.5 582.1 L 456.6 582.1 Z M 456.6 471.7 "></path></clipPath><g clip-path="url(#clip0x7fdaa16247a0)"><image xlink:href="../../17A7ACF1-D225-41CC-A1F7-03B972D6B63E/assets/CDC1B7B0C0C72CA6FEB22B9D18F69726.png" width="117.00" height="128.00" transform="matrix(0.86, 0.00, -0.00, -0.86, 456.6, 582.1)"></image></g></g><g><clipPath id="clip0x7fdaa10efdd0"><path d="M 565.0 541.0 L 666.0 541.0 L 666.0 513.0 L 565.0 513.0 Z M 564.8 540.9 "></path></clipPath><g clip-path="url(#clip0x7fdaa10efdd0)"><g><clipPath id="clip0x7fdaa10f0210"><path d="M 576.5 541.0 C 565.6 540.9 565.2 540.8 564.9 538.7 C 564.6 536.7 565.1 536.3 568.5 536.0 L 572.0 536.0 L 573.0 525.0 L 573.0 514.0 L 576.5 514.0 C 579.1 514.0 579.6 514.7 579.9 517.4 C 580.4 522.1 581.6 522.4 584.0 518.4 C 585.2 516.4 587.2 514.3 588.5 513.8 C 594.1 511.4 601.9 515.4 602.8 521.2 C 603.4 524.5 604.9 523.6 606.6 518.9 C 608.0 515.2 608.9 514.2 611.1 514.0 C 613.2 513.7 614.1 514.3 615.4 516.8 C 616.3 518.5 617.2 519.9 617.5 519.9 C 617.7 519.9 618.7 518.5 619.6 516.9 C 622.1 512.0 625.6 512.6 628.2 518.4 C 629.3 520.9 630.4 523.0 630.7 523.0 C 631.1 523.0 632.0 521.4 632.8 519.5 C 634.8 514.7 638.6 512.3 643.3 513.1 C 645.3 513.4 647.8 514.4 648.7 515.3 C 650.3 516.7 650.7 516.7 651.8 515.3 C 652.6 514.5 654.2 513.8 655.6 513.8 C 657.8 513.8 658.0 514.2 658.0 519.2 C 658.0 525.3 659.4 527.8 663.2 528.3 C 665.1 528.5 665.7 529.2 665.7 531.2 C 665.7 533.7 665.4 533.7 658.8 534.0 C 652.7 534.1 651.8 533.9 651.8 532.3 C 651.8 529.2 650.6 529.0 648.2 531.7 C 645.4 534.7 639.3 535.2 635.8 532.7 C 633.9 531.4 633.5 531.4 632.3 532.7 C 630.1 535.4 626.5 534.6 625.3 531.2 C 624.7 529.5 624.0 528.1 623.7 528.1 C 623.4 528.1 622.5 529.5 621.6 531.2 C 619.4 535.4 615.6 535.4 613.4 531.2 C 611.4 527.4 611.0 527.4 609.7 531.2 C 608.8 533.6 608.0 534.3 605.7 534.3 C 603.6 534.3 602.7 533.6 602.3 532.0 C 601.7 529.8 601.7 529.8 599.5 531.7 C 598.3 532.8 595.2 533.9 592.6 534.2 C 588.1 534.8 588.0 535.0 588.0 537.9 L 588.0 541.0 L 576.5 541.0 Z M 640.8 529.9 C 641.3 529.9 641.9 529.8 642.3 529.5 C 643.2 529.0 643.9 528.1 643.8 527.6 C 643.7 526.3 638.9 525.7 638.1 526.9 C 637.4 528.1 639.1 529.7 640.8 529.9 Z M 592.2 528.9 C 593.1 529.1 594.0 528.9 594.9 528.1 C 595.8 527.4 596.5 525.6 596.5 524.0 C 596.5 522.5 595.6 520.5 594.5 519.5 C 592.6 517.8 592.5 517.8 590.8 520.3 C 588.5 523.8 589.8 528.2 592.2 528.9 Z M 592.2 528.9 "></path></clipPath><g clip-path="url(#clip0x7fdaa10f0210)"><g><clipPath id="clip0x7fdaa10f1110"><path d="M 564.8 512.9 L 665.7 512.9 L 665.7 540.9 L 564.8 540.9 Z M 564.8 512.9 "></path></clipPath><g clip-path="url(#clip0x7fdaa10f1110)"><image xlink:href="../../17A7ACF1-D225-41CC-A1F7-03B972D6B63E/assets/F85D7C5B6A12314C53768B4942A64CC2.png" width="120.00" height="42.00" transform="matrix(1.00, 0.00, -0.00, -1.00, 557.5, 547.6)"></image></g></g></g></g></g></g></g></svg>