<?xml version="1.0" encoding="UTF-8" standalone="no"?><svg xmlns="http://www.w3.org/2000/svg" xmlns:xlink="http://www.w3.org/1999/xlink" clip-rule="evenodd" stroke-miterlimit="10" viewBox="0 0 303 106"><desc>SVG generated by Keynote</desc><defs></defs><g transform="matrix(1.00, 0.00, -0.00, -1.00, 0.0, 106.0)"><g><clipPath id="clip0x7fdaa13f2190"><path d="M 1.0 105.0 L 301.0 105.0 L 301.0 2.0 L 1.0 2.0 Z M 1.1 104.6 "></path></clipPath><g clip-path="url(#clip0x7fdaa13f2190)"><g><clipPath id="clip0x7fdaa13f25d0"><path d="M 36.2 104.6 C 29.0 104.6 21.4 95.6 21.4 87.3 C 21.3 83.6 21.3 79.2 21.2 77.4 C 21.1 75.7 17.1 72.0 12.4 69.2 C 3.5 64.0 0.7 60.2 1.1 53.8 C 1.5 46.6 4.2 43.1 12.6 39.3 C 17.7 37.0 21.0 34.2 21.1 32.2 C 21.7 14.1 22.6 9.8 26.7 6.5 C 29.0 4.6 32.1 3.0 33.4 3.0 C 36.8 3.0 53.1 10.4 54.5 12.6 C 55.1 13.6 58.8 12.3 62.7 9.7 C 81.1 -2.5 92.9 4.2 92.0 26.4 C 91.8 32.9 92.4 33.9 99.4 37.5 C 115.0 45.4 116.7 58.9 103.2 67.5 C 91.8 74.8 89.6 77.4 91.7 81.3 C 95.9 89.2 86.7 104.6 77.8 104.6 C 74.2 104.6 62.5 98.6 60.2 95.6 C 58.7 93.6 56.6 94.2 49.7 98.8 C 45.0 102.0 38.9 104.6 36.2 104.6 Z M 37.0 95.6 C 39.3 95.3 42.0 94.2 44.7 92.4 C 47.4 90.6 49.8 88.5 50.0 87.9 C 50.2 87.3 48.7 84.8 46.6 82.3 C 42.3 77.1 41.0 76.5 35.4 77.2 C 31.6 77.7 31.3 78.0 30.7 81.6 C 29.8 87.1 30.3 92.4 31.8 94.2 C 32.9 95.5 34.8 95.9 37.0 95.6 Z M 78.7 95.6 C 80.2 95.4 81.4 94.9 81.9 93.9 C 83.4 90.9 83.7 86.2 83.0 81.4 L 83.0 77.0 L 78.2 77.0 C 72.2 77.0 70.9 77.4 66.4 82.4 C 62.9 86.3 62.6 86.9 63.9 88.8 C 66.6 92.9 74.2 95.9 78.7 95.6 Z M 58.2 79.9 C 58.5 79.8 58.8 79.7 58.9 79.4 C 59.3 78.9 59.1 78.2 58.6 77.8 C 58.0 77.5 57.3 77.7 57.0 78.2 C 56.7 78.7 56.8 79.4 57.4 79.8 C 57.6 79.9 57.9 80.0 58.2 79.9 Z M 145.4 78.0 L 145.0 54.6 C 145.0 33.6 145.7 31.5 148.7 32.1 C 151.0 32.5 152.4 35.1 153.0 40.2 C 154.3 50.1 157.5 50.8 163.0 42.5 C 167.5 35.5 175.1 30.2 177.3 32.3 C 177.9 33.0 176.3 36.9 173.7 40.9 L 168.8 48.2 L 173.4 53.5 C 179.2 60.3 179.2 67.1 173.2 73.0 C 169.3 77.0 166.7 78.0 156.9 78.0 L 145.4 78.0 Z M 288.2 73.7 C 287.4 73.6 287.0 72.8 287.0 71.2 C 287.0 67.7 278.0 61.8 276.5 64.3 C 275.8 65.4 272.1 66.2 268.1 66.2 C 253.3 66.2 245.9 47.8 256.3 36.7 C 262.0 30.6 273.3 29.9 278.2 35.3 C 280.9 38.4 281.0 39.2 278.6 41.2 C 276.8 42.7 275.5 42.8 274.6 41.4 C 274.0 40.3 270.8 39.4 267.7 39.4 C 263.3 39.4 261.6 40.6 260.1 44.6 C 257.1 52.4 260.5 58.6 267.7 58.6 C 270.8 58.6 274.0 57.7 274.6 56.6 C 275.5 55.2 276.7 55.3 278.5 56.8 C 283.9 61.3 286.8 57.4 287.4 44.8 C 288.0 33.1 288.1 32.7 293.5 32.1 C 301.2 31.2 303.7 34.4 298.7 38.7 C 293.8 43.0 293.3 53.9 297.9 58.9 C 300.9 62.3 300.8 62.8 295.6 68.2 C 291.9 72.1 289.5 73.9 288.2 73.7 Z M 158.6 71.0 C 163.5 71.1 165.3 70.8 167.2 69.2 C 170.6 66.5 170.4 61.3 166.8 58.1 C 164.6 56.2 162.8 55.7 158.4 55.7 C 151.8 55.7 151.6 56.1 152.0 64.6 L 152.0 71.0 L 158.6 71.0 Z M 47.4 69.1 L 56.4 69.0 L 65.4 69.0 L 68.4 65.2 C 71.1 61.6 74.9 54.4 74.9 52.7 C 74.9 52.2 72.8 49.0 70.3 45.6 C 66.2 40.0 65.3 39.3 62.1 39.3 C 57.0 39.3 56.8 40.9 61.5 43.9 C 66.9 47.4 68.7 50.2 68.3 55.2 C 67.9 59.6 63.7 64.4 59.0 65.6 C 52.2 67.3 45.1 61.5 45.1 54.2 C 45.1 49.2 46.9 46.6 52.2 43.7 C 54.1 42.7 55.7 41.4 55.8 40.8 C 55.8 40.3 54.0 39.7 51.8 39.5 C 47.8 39.2 47.4 39.4 43.9 44.7 C 37.5 54.2 37.5 53.5 42.8 61.7 L 47.4 69.1 Z M 78.7 67.7 C 79.0 67.6 79.3 67.4 79.5 67.0 C 79.9 66.3 79.8 65.3 79.2 64.8 C 78.5 64.1 77.9 64.2 77.4 65.0 C 77.0 65.6 77.2 66.6 77.7 67.2 C 78.1 67.5 78.4 67.7 78.7 67.7 Z M 35.7 67.6 C 35.9 67.5 36.2 67.4 36.4 67.1 C 36.7 66.6 36.5 65.9 36.0 65.5 C 35.5 65.2 34.8 65.4 34.4 65.9 C 34.1 66.4 34.3 67.1 34.8 67.5 C 35.1 67.6 35.4 67.7 35.7 67.6 Z M 197.1 66.2 C 188.7 66.2 183.4 60.7 182.3 50.5 C 181.4 42.8 181.9 41.0 186.2 36.7 C 191.9 31.0 203.4 29.9 209.6 34.5 C 215.1 38.6 210.9 42.1 203.8 39.4 C 199.6 37.8 197.5 38.0 193.9 40.4 C 187.1 44.8 190.1 47.1 202.9 47.1 C 215.5 47.1 216.6 48.5 211.5 58.4 C 208.4 64.5 205.1 66.2 197.1 66.2 Z M 232.7 66.2 C 228.3 66.1 223.8 65.0 221.6 63.1 C 218.3 60.1 218.3 59.8 221.4 57.5 C 224.6 55.2 224.6 54.9 221.4 51.4 C 217.1 46.6 217.1 36.4 221.5 33.8 C 223.3 32.7 229.1 31.7 234.4 32.0 L 244.0 33.0 L 245.0 46.8 C 245.4 55.5 244.2 61.9 242.9 63.5 C 241.3 65.4 237.1 66.3 232.7 66.2 Z M 90.0 64.5 C 91.5 64.3 93.9 63.2 98.0 60.9 C 103.3 58.0 104.4 55.9 103.1 50.9 C 102.7 49.2 100.9 47.7 97.2 45.9 C 89.5 42.3 88.5 42.6 85.8 48.8 C 83.8 53.5 83.6 54.5 84.9 56.7 C 85.6 58.2 86.7 60.6 87.2 62.2 C 87.8 63.9 88.5 64.7 90.0 64.5 Z M 24.0 64.4 C 25.2 64.4 25.7 63.7 25.7 62.5 C 25.7 61.7 26.5 60.0 27.6 58.7 C 29.8 55.9 29.7 54.9 26.8 48.3 C 24.4 42.8 23.3 42.4 16.8 45.4 C 11.9 47.6 9.3 50.9 9.3 54.8 C 9.3 57.1 11.7 60.7 13.4 60.7 C 13.6 60.7 16.1 61.7 18.8 62.9 C 21.2 64.0 22.9 64.5 24.0 64.4 Z M 197.1 60.4 C 198.1 60.6 199.2 60.5 200.1 60.3 C 203.5 59.6 206.7 55.5 205.8 53.2 C 205.3 52.0 203.4 51.6 197.5 51.6 C 193.3 51.6 189.7 52.0 189.4 52.4 C 188.4 53.9 191.3 58.3 194.2 59.7 C 195.0 60.1 196.0 60.3 197.1 60.4 Z M 231.9 49.1 C 233.0 49.0 234.1 48.8 235.4 48.3 C 239.1 47.1 239.5 46.7 239.2 43.9 C 239.0 42.2 237.9 40.0 236.8 39.1 C 234.1 36.8 228.9 36.8 226.0 39.1 C 223.9 40.7 223.8 41.1 225.2 44.2 C 226.6 47.6 228.8 49.2 231.9 49.1 Z M 35.7 42.0 C 35.9 41.9 36.2 41.7 36.4 41.5 C 36.7 40.9 36.5 40.2 36.0 39.9 C 35.5 39.5 34.8 39.7 34.4 40.2 C 34.1 40.8 34.3 41.5 34.8 41.8 C 35.1 42.0 35.4 42.0 35.7 42.0 Z M 79.8 42.0 C 80.0 41.9 80.3 41.7 80.5 41.5 C 80.8 40.9 80.6 40.2 80.1 39.9 C 79.6 39.5 78.9 39.7 78.5 40.2 C 78.2 40.8 78.4 41.5 78.9 41.8 C 79.2 42.0 79.5 42.0 79.8 42.0 Z M 80.6 30.9 C 81.7 30.8 82.3 30.5 82.5 30.1 C 84.0 27.7 83.5 17.0 81.7 14.2 C 79.5 10.8 75.4 10.8 70.8 14.2 C 68.9 15.6 67.1 17.1 66.8 17.6 C 66.4 18.1 65.1 19.0 63.9 19.7 C 61.6 20.9 61.7 21.0 66.0 25.5 C 69.9 29.5 71.0 30.1 76.1 30.7 C 78.1 30.9 79.5 31.0 80.6 30.9 Z M 56.5 30.9 C 57.6 30.8 58.5 29.9 57.9 29.0 C 57.6 28.5 56.9 28.0 56.4 28.0 C 55.0 28.0 54.2 29.9 55.4 30.6 C 55.7 30.8 56.1 30.9 56.5 30.9 Z M 30.0 30.6 L 36.9 30.0 C 41.3 29.8 44.1 29.5 45.3 28.4 C 46.4 27.4 47.0 26.5 46.7 26.2 C 46.5 25.9 47.4 24.8 48.8 23.7 L 51.3 21.7 L 48.0 18.5 C 46.1 16.7 43.5 14.7 42.2 14.0 C 38.7 12.1 33.4 12.3 31.7 14.4 C 30.6 15.7 29.9 18.4 30.0 23.4 L 30.0 30.6 Z M 22.6 -43.0 C 20.8 -43.0 15.0 -53.6 16.2 -54.8 C 17.9 -56.5 60.2 -56.1 62.4 -54.3 C 63.8 -53.1 65.1 -53.0 65.8 -54.2 C 67.4 -56.8 103.3 -56.9 106.3 -54.4 C 108.0 -53.0 109.8 -53.1 112.6 -54.8 C 117.2 -57.7 117.7 -57.3 119.2 -49.2 L 120.4 -43.0 L 77.5 -43.0 C 36.3 -43.3 34.5 -43.9 34.0 -47.5 C 33.1 -53.3 29.0 -53.5 26.4 -47.9 C 25.2 -45.2 23.5 -43.0 22.6 -43.0 Z M 149.4 -43.6 C 134.2 -43.7 124.5 -43.8 124.2 -44.0 C 123.6 -44.4 123.5 -47.4 124.0 -50.6 L 125.0 -56.0 L 153.2 -56.0 C 179.4 -55.7 181.6 -55.6 182.1 -52.2 C 182.9 -47.4 186.4 -47.6 187.1 -52.5 C 187.9 -57.2 190.4 -57.6 192.1 -53.3 C 193.2 -50.4 193.6 -50.4 196.6 -53.1 C 199.5 -55.6 206.7 -56.3 245.9 -56.0 L 292.0 -55.0 L 292.0 -49.7 L 292.0 -44.0 L 208.6 -44.0 C 185.7 -43.9 164.7 -43.6 149.4 -43.6 Z M 167.6 -62.7 C 156.7 -62.5 145.7 -63.0 144.4 -64.1 C 142.7 -65.5 141.5 -65.5 140.7 -64.2 C 139.9 -62.9 137.9 -62.9 134.6 -64.2 C 131.4 -65.4 128.8 -65.4 127.4 -64.2 C 126.1 -63.2 119.2 -62.8 111.8 -63.3 C 104.5 -63.9 96.6 -64.3 94.2 -64.4 C 90.8 -64.4 90.0 -65.6 90.0 -69.8 L 90.0 -75.0 L 155.9 -75.0 L 222.0 -75.0 L 221.0 -69.1 C 220.5 -63.1 220.8 -63.1 209.4 -62.9 C 203.2 -62.8 196.6 -63.5 194.9 -64.3 C 193.2 -65.2 191.2 -65.3 190.5 -64.6 C 189.4 -63.4 178.6 -62.8 167.6 -62.7 Z M 167.6 -62.7 "></path></clipPath><g clip-path="url(#clip0x7fdaa13f25d0)"><image xlink:href="3807B3371280A809593222D7A4674693.png" width="400.00" height="320.00" transform="matrix(1.00, 0.00, -0.00, -1.00, -44.1, 171.6)"></image></g></g></g></g></g></svg>