<?xml version="1.0" encoding="UTF-8" standalone="no"?><svg xmlns="http://www.w3.org/2000/svg" xmlns:xlink="http://www.w3.org/1999/xlink" clip-rule="evenodd" stroke-miterlimit="10" viewBox="0 0 207 163"><desc>SVG generated by Keynote</desc><defs></defs><g transform="matrix(1.00, 0.00, -0.00, -1.00, 0.0, 163.0)"><g><clipPath id="clip0x7fdaa150fdc0"><path d="M 1.0 162.0 L 71.0 162.0 L 71.0 0.0 L 1.0 0.0 Z M 0.8 162.0 "></path></clipPath><g clip-path="url(#clip0x7fdaa150fdc0)"><g><clipPath id="clip0x7fdaa1510200"><path d="M 21.5 156.8 C 19.6 156.8 19.5 155.7 20.7 147.0 C 21.2 143.5 21.5 140.4 21.6 138.9 C 21.6 138.4 21.6 138.1 21.5 138.0 C 21.3 137.8 21.0 135.8 20.8 133.6 C 20.8 133.0 20.8 132.4 20.7 132.2 C 20.7 131.9 20.6 131.4 20.6 131.2 C 20.6 130.6 20.6 130.2 20.7 130.0 C 20.7 129.8 20.8 129.7 20.8 129.6 C 20.9 129.6 20.9 129.5 20.9 129.4 C 21.0 129.4 21.1 129.4 21.2 129.4 C 21.3 129.4 21.3 129.3 21.5 129.3 C 21.5 129.3 21.6 129.3 21.6 129.3 C 21.8 129.3 22.0 129.2 22.2 129.1 C 22.5 129.2 22.8 129.1 22.8 129.0 C 22.8 129.0 22.9 128.8 22.9 128.7 C 22.9 128.7 22.9 128.7 22.9 128.7 C 23.3 128.1 23.8 124.8 24.1 121.7 C 24.1 121.6 24.1 121.6 24.1 121.6 C 24.3 120.2 24.4 118.8 24.4 117.7 C 24.4 116.5 24.4 115.7 24.2 115.5 C 24.2 115.5 24.2 115.5 24.2 115.5 C 24.2 115.5 24.2 115.5 24.2 115.5 C 23.9 115.2 22.4 115.1 20.2 115.3 C 19.0 115.5 18.1 115.8 17.5 116.0 L 16.0 116.0 L 16.0 116.7 C 16.0 116.7 16.2 116.7 16.2 116.7 C 16.2 116.7 16.2 116.8 16.2 116.9 C 15.7 117.6 15.6 118.7 15.7 120.5 C 15.7 121.3 15.7 123.8 15.7 125.7 C 15.7 126.4 16.0 127.0 16.0 127.7 L 16.0 138.0 L 14.2 138.0 L 13.0 138.0 L 12.0 114.0 C 11.8 102.5 12.2 96.6 12.0 93.3 L 12.0 90.1 L 11.0 89.6 C 10.9 89.4 11.3 89.3 11.2 89.2 C 11.1 89.1 11.1 89.1 11.1 89.1 C 10.9 88.9 10.8 88.7 10.8 88.5 C 10.7 88.5 10.7 88.4 10.7 88.3 C 10.6 88.2 10.6 88.1 10.6 88.0 C 10.6 87.7 10.5 87.3 10.5 86.7 C 10.5 86.2 10.6 85.5 10.7 84.4 C 10.8 83.3 10.9 81.8 11.1 79.8 C 11.2 79.3 11.2 79.0 11.3 78.5 C 11.4 77.6 11.4 77.1 11.6 76.1 C 12.1 71.7 12.0 70.5 11.1 66.8 C 10.9 65.6 10.7 64.8 10.4 64.2 C 10.4 63.8 10.2 62.8 10.1 62.8 C 10.0 62.6 9.4 62.4 8.6 62.2 C 8.6 62.2 8.5 62.1 8.5 62.1 C 6.8 61.6 6.8 61.5 7.1 59.3 C 7.1 59.0 7.2 58.7 7.3 58.4 C 7.4 58.1 7.5 57.7 7.6 57.3 C 7.7 57.1 7.8 56.8 7.9 56.6 C 8.0 56.5 8.1 56.3 8.2 56.2 C 8.3 56.2 8.3 56.1 8.4 56.0 C 8.4 56.0 8.4 56.0 8.4 55.9 C 8.4 55.9 8.5 55.9 8.5 55.8 C 8.5 55.8 8.5 55.8 8.5 55.8 C 8.5 55.7 8.5 55.6 8.5 55.6 C 8.5 55.6 8.5 55.6 8.5 55.6 C 8.5 55.6 8.5 55.5 8.5 55.5 C 8.5 55.4 8.5 55.3 8.5 55.1 C 8.5 55.0 8.5 54.9 8.5 54.8 C 8.4 53.8 8.0 52.1 7.1 48.9 C 6.0 45.1 4.7 40.0 4.1 37.6 C 3.6 35.2 3.1 33.7 2.4 32.8 C 3.1 32.5 2.9 31.7 1.8 30.3 C 0.8 29.2 0.6 28.7 1.3 28.1 C 1.4 28.1 1.5 28.1 1.6 28.0 C 2.1 27.6 3.5 27.4 3.8 27.7 C 4.1 27.9 4.4 27.9 4.9 27.7 C 5.4 27.5 5.8 27.5 6.2 27.7 C 6.6 28.0 6.8 28.0 7.2 27.6 C 7.8 27.0 8.2 27.3 7.8 28.0 C 7.6 28.2 7.6 28.6 7.6 28.9 C 7.7 29.0 7.7 29.1 7.8 29.1 C 7.4 29.8 7.6 31.1 8.7 36.1 C 9.6 39.8 10.4 42.9 10.7 43.0 C 11.5 43.1 11.7 29.7 10.9 28.8 C 10.9 28.7 10.8 28.7 10.8 28.7 C 10.8 28.7 10.8 28.7 10.8 28.7 C 11.2 28.5 11.2 25.0 10.9 24.0 L 12.0 24.0 L 11.0 21.1 L 11.0 17.3 C 10.6 10.3 10.8 9.6 11.0 8.8 C 11.1 8.7 11.2 8.7 11.4 8.6 C 11.5 8.5 11.5 8.5 11.6 8.4 C 11.8 8.4 12.1 8.3 12.3 8.2 C 13.0 8.2 13.7 8.1 14.5 8.1 C 15.2 8.1 15.9 7.8 16.7 8.0 L 17.8 9.0 C 18.2 9.4 18.3 10.0 18.3 12.6 C 18.3 12.6 18.3 12.6 18.3 12.6 C 18.3 12.6 18.3 12.6 18.3 12.6 C 18.3 14.6 18.4 15.6 18.6 16.2 C 18.6 16.2 18.7 16.3 18.7 16.4 C 18.6 16.5 18.6 16.7 18.6 16.9 C 18.6 17.3 18.7 17.6 18.9 17.8 C 18.4 18.3 18.2 19.0 18.6 19.6 C 18.8 19.9 18.7 20.6 18.4 21.2 C 17.9 22.0 18.1 22.5 19.1 23.7 C 19.3 24.0 19.4 24.1 19.6 24.3 C 19.5 24.4 19.4 24.4 19.3 24.4 C 18.7 24.7 18.4 25.0 18.4 25.6 C 18.3 26.1 18.4 26.4 18.6 26.7 C 18.6 27.1 18.7 27.4 18.9 27.6 C 18.6 28.0 18.5 28.4 18.4 29.0 C 18.2 31.1 18.9 31.4 25.7 32.3 C 28.5 32.6 35.2 33.4 40.7 34.1 C 44.9 34.6 48.5 34.9 50.2 35.0 C 50.8 35.0 51.1 35.0 51.2 34.9 C 51.4 34.7 52.3 30.7 53.2 26.0 C 54.0 22.1 54.4 19.7 54.4 18.3 C 54.7 18.3 55.0 17.8 55.0 17.2 C 55.0 16.9 54.9 16.6 54.7 16.5 C 54.9 16.1 55.2 15.7 55.3 15.3 C 55.4 14.9 55.4 14.6 55.3 14.3 C 55.6 14.3 55.9 14.3 56.2 14.2 C 56.4 14.2 56.6 14.2 56.8 14.2 C 56.8 14.2 56.9 14.2 57.0 14.2 C 59.4 14.1 61.5 14.2 61.8 14.5 C 62.1 14.8 60.5 22.7 58.1 33.1 C 56.5 40.2 55.1 46.4 54.3 51.0 C 54.2 51.2 54.2 51.5 54.1 51.7 C 53.7 53.8 53.4 55.2 53.4 56.3 C 53.3 56.8 53.4 56.9 53.3 57.2 C 53.3 57.2 53.3 57.2 53.3 57.3 C 53.3 57.6 53.2 58.2 53.3 58.3 C 53.4 58.6 54.4 58.9 56.0 59.1 C 56.0 59.1 56.0 59.1 56.0 59.1 C 56.0 59.1 56.1 59.1 56.1 59.1 C 57.1 59.2 58.1 59.3 59.8 59.4 C 67.1 59.8 68.4 60.1 68.4 61.1 C 68.4 61.3 68.4 61.4 68.3 61.5 C 68.2 61.6 68.0 61.6 67.9 61.6 C 67.8 61.7 67.8 61.7 67.7 61.7 C 67.2 61.8 66.4 61.8 65.1 61.8 C 64.4 61.7 63.9 61.7 63.4 61.7 C 63.2 61.7 63.1 61.8 62.9 61.8 C 62.8 61.8 62.6 61.8 62.5 61.7 C 62.2 61.7 62.0 61.8 61.8 62.1 C 61.7 62.1 61.7 62.2 61.6 62.2 C 61.5 62.3 61.3 62.5 61.1 62.8 C 61.0 63.0 60.8 63.2 60.6 63.4 C 60.2 63.7 59.6 63.8 58.6 63.9 C 58.0 63.9 57.4 63.9 56.5 63.9 C 55.3 63.9 54.3 64.0 53.6 64.1 C 53.2 64.2 52.9 64.2 52.7 64.3 C 52.7 64.3 52.7 64.3 52.7 64.3 C 52.4 64.4 52.2 64.5 52.2 64.6 C 52.1 64.7 52.0 65.2 51.9 65.4 C 51.8 65.6 51.7 65.8 51.6 66.1 C 50.7 69.1 49.1 76.3 48.4 81.1 C 48.2 82.4 48.1 82.7 48.0 83.6 C 47.5 86.4 47.2 87.6 46.8 87.4 C 46.3 87.1 45.4 88.3 44.8 89.3 C 44.5 89.5 44.3 89.9 44.5 90.5 C 44.5 90.5 44.5 90.5 44.5 90.6 C 44.6 91.0 44.4 92.9 43.9 94.9 C 42.1 102.9 40.4 110.3 39.6 113.8 C 39.1 115.8 37.9 121.3 36.8 125.9 C 35.7 130.5 34.6 135.1 34.5 136.3 C 34.4 136.3 34.4 136.3 34.4 136.3 C 34.4 136.4 34.4 136.4 34.4 136.4 C 34.3 137.2 34.0 137.8 33.6 138.1 C 33.4 138.3 33.0 138.3 32.3 138.3 C 31.6 138.3 31.1 138.2 30.7 138.1 C 30.6 138.0 30.4 137.8 30.3 137.7 C 30.2 136.8 31.8 129.2 34.3 118.9 C 34.7 117.1 34.9 115.5 34.8 115.4 C 34.5 115.2 33.3 115.1 32.0 115.1 C 31.4 115.1 30.7 115.1 30.1 115.2 C 30.1 115.3 30.0 115.3 30.0 115.3 C 29.6 115.4 29.2 115.4 29.2 115.5 C 29.2 115.6 29.2 115.7 29.1 115.8 C 29.1 115.8 29.1 115.8 29.1 115.8 C 29.0 115.9 28.9 116.5 28.9 117.0 C 28.6 118.0 28.4 119.5 28.1 121.3 C 28.0 122.5 27.9 123.5 27.8 124.6 C 27.7 124.7 27.7 124.9 27.7 125.1 C 27.5 126.8 27.4 128.3 27.5 128.6 C 27.5 128.6 28.0 128.6 28.0 128.7 L 28.0 129.0 L 28.0 129.0 C 28.3 129.1 28.6 129.3 28.9 129.3 C 29.1 129.3 29.3 129.4 29.5 129.5 C 29.7 129.6 29.9 129.7 29.9 129.9 C 29.9 130.3 29.5 130.7 28.9 131.3 C 28.7 131.5 28.6 131.6 28.4 131.8 C 28.4 131.9 28.3 132.0 28.3 132.2 C 28.2 132.3 28.1 132.4 28.1 132.5 C 28.1 132.5 28.1 132.5 28.1 132.5 C 27.9 133.0 27.8 133.5 27.8 134.1 C 27.8 136.3 27.4 137.7 26.8 138.2 C 26.7 138.2 26.6 138.3 26.5 138.3 C 26.5 138.3 26.5 138.3 26.5 138.3 C 26.3 138.3 26.2 138.3 26.1 138.3 C 26.0 138.3 25.9 138.4 25.8 138.4 C 25.7 138.5 25.6 138.7 25.5 138.9 C 25.4 139.1 25.4 139.4 25.3 139.9 C 24.9 141.6 24.3 145.3 23.1 152.9 C 22.9 153.7 22.8 154.3 22.7 154.8 C 22.6 155.4 22.5 155.7 22.4 156.0 C 22.3 156.3 22.1 156.5 22.0 156.6 C 21.9 156.7 21.7 156.8 21.5 156.8 Z M 77.1 155.7 C 77.0 147.7 76.9 119.7 76.9 81.1 C 76.9 42.4 77.0 14.4 77.1 6.5 C 77.3 18.8 77.4 47.7 77.4 81.1 C 77.4 114.5 77.3 143.3 77.1 155.7 Z M 19.1 112.0 C 20.2 111.9 21.3 111.8 21.6 111.5 C 22.1 111.0 19.7 100.4 18.8 99.6 C 18.6 99.3 18.3 98.1 18.3 96.8 C 18.3 94.6 17.5 93.3 17.0 94.6 C 16.9 95.0 16.9 99.0 17.0 103.5 L 17.0 112.0 L 19.1 112.0 Z M 32.3 111.8 C 33.7 111.9 34.7 111.7 35.1 111.3 C 35.7 110.5 39.9 91.5 39.5 91.1 C 39.4 90.9 37.7 90.8 35.9 90.8 C 32.1 90.8 32.4 90.6 31.5 95.6 C 30.8 100.3 30.8 102.2 31.8 103.0 C 32.8 103.8 32.8 105.7 31.8 105.3 C 30.8 104.9 29.8 107.3 30.0 109.8 C 30.2 111.6 30.3 111.7 32.3 111.8 Z M 25.5 107.2 C 25.6 107.3 25.7 107.3 25.8 107.2 C 26.0 107.1 26.1 106.6 26.0 106.3 C 25.9 105.5 25.3 105.3 25.1 105.9 C 24.9 106.3 25.2 107.0 25.5 107.2 Z M 26.3 102.9 C 26.4 102.8 26.4 102.8 26.5 102.6 C 26.6 102.4 26.6 101.9 26.4 101.5 C 26.3 101.4 26.3 101.3 26.3 101.2 C 26.3 101.2 26.3 101.2 26.3 101.2 C 26.4 101.2 26.5 101.3 26.5 101.2 C 26.6 101.2 26.7 101.2 26.7 101.1 C 26.8 101.0 26.8 100.8 26.6 100.7 C 26.5 100.6 26.3 100.6 26.2 100.8 C 26.2 100.8 26.2 100.9 26.2 100.9 C 26.2 100.8 26.1 100.7 26.1 100.7 C 26.1 100.6 25.8 100.1 25.3 99.7 C 24.2 98.5 23.5 98.6 23.8 99.8 C 23.8 100.0 24.0 100.4 24.2 100.7 C 24.2 100.8 24.3 100.9 24.4 100.9 C 24.6 101.2 24.8 101.5 25.1 101.8 C 25.9 102.7 26.2 103.0 26.3 102.9 Z M 26.6 98.6 C 27.1 98.5 26.9 97.3 27.0 94.5 L 28.0 92.0 L 24.9 91.0 C 21.8 90.8 21.5 91.5 22.0 93.4 C 22.3 94.4 22.8 94.9 23.9 95.1 C 25.1 95.3 25.4 95.6 25.5 96.5 C 25.5 97.1 25.8 97.9 26.1 98.3 C 26.3 98.5 26.5 98.6 26.6 98.6 Z M 45.3 57.6 C 47.5 57.4 47.7 56.3 48.3 51.8 C 48.6 49.6 49.2 46.0 49.7 43.7 C 50.1 41.4 50.3 39.3 50.2 39.1 C 50.1 38.9 49.1 38.6 48.0 38.4 C 42.5 37.6 40.0 37.5 39.7 38.1 C 39.0 39.1 37.2 56.1 37.7 56.6 C 37.9 56.9 40.1 57.2 42.4 57.4 C 43.7 57.5 44.6 57.6 45.3 57.6 Z M 29.9 56.8 C 31.2 56.8 32.0 56.8 32.1 56.7 C 32.6 56.1 34.9 38.3 34.5 37.4 C 34.3 36.9 32.2 36.5 27.7 36.1 C 20.3 35.3 18.7 35.3 18.2 35.8 C 17.5 36.4 17.8 55.4 18.4 55.8 C 19.0 56.2 26.2 56.7 29.9 56.8 Z M 10.5 28.4 C 10.2 28.2 9.9 28.1 9.6 28.1 C 9.7 27.8 10.3 27.8 10.4 28.3 C 10.4 28.3 10.5 28.4 10.5 28.4 Z M 32.8 21.1 C 32.7 21.1 32.7 21.0 32.6 20.9 C 32.7 20.9 32.8 20.9 32.8 20.8 C 32.8 20.9 32.8 20.9 32.8 20.9 C 32.9 21.0 32.9 21.0 32.9 21.0 C 32.9 21.0 32.8 21.0 32.8 21.0 C 32.8 21.1 32.8 21.1 32.8 21.1 Z M 32.8 21.1 "></path></clipPath><g clip-path="url(#clip0x7fdaa1510200)"><g><clipPath id="clip0x7fdaa15121b0"><path d="M 0.8 0.1 L 71.3 0.1 L 71.3 162.0 L 0.8 162.0 Z M 0.8 0.1 "></path></clipPath><g clip-path="url(#clip0x7fdaa15121b0)"><image xlink:href="0BE5FFDCB44C4431D021600A8FDBEB10.png" width="426.00" height="587.00" transform="matrix(0.28, 0.00, -0.00, -0.28, -40.2, 162.0)"></image></g></g></g></g></g></g><g><clipPath id="clip0x7fdaa150b7a0"><path d="M 76.0 94.0 L 207.0 94.0 L 207.0 39.0 L 76.0 39.0 Z M 75.9 94.0 "></path></clipPath><g clip-path="url(#clip0x7fdaa150b7a0)"><g><clipPath id="clip0x7fdaa150bef0"><path d="M 195.6 94.0 C 189.2 94.0 188.3 93.3 191.6 90.7 L 194.0 88.8 L 194.0 71.0 C 194.0 69.5 194.0 68.4 194.0 66.6 C 194.0 59.1 193.8 54.4 193.5 50.9 C 193.2 45.0 192.7 42.4 191.3 41.8 C 190.0 41.3 189.0 40.5 189.0 40.2 C 189.0 39.7 205.1 39.7 206.4 40.2 C 206.7 40.3 205.9 40.8 204.6 41.3 C 203.5 41.8 202.7 42.8 202.1 44.0 L 202.0 44.0 L 202.0 44.6 C 200.7 47.9 199.8 54.5 200.0 70.9 L 201.0 92.0 C 200.9 92.4 200.7 93.9 200.6 94.0 C 200.6 94.0 200.4 94.0 200.4 94.0 L 195.6 94.0 Z M 77.3 88.0 C 76.9 88.0 76.3 87.6 76.1 87.0 C 75.9 86.4 76.7 85.9 77.8 85.9 C 81.2 85.9 82.0 83.7 81.9 70.6 C 82.0 68.8 82.0 67.3 82.0 65.0 C 82.1 58.7 82.2 54.7 82.0 51.5 L 82.0 43.8 L 78.8 42.5 C 77.2 41.8 75.9 40.9 75.9 40.5 C 75.9 40.1 83.8 40.0 93.3 40.0 L 110.3 40.0 C 110.5 40.1 110.9 40.0 111.0 40.1 L 111.0 43.3 C 111.9 48.9 112.0 50.4 110.4 50.4 C 109.0 50.4 108.4 49.3 108.7 47.2 C 108.9 45.2 105.3 44.7 97.9 45.0 L 90.0 45.0 L 90.0 48.7 C 89.6 50.2 89.8 52.4 90.0 55.8 L 90.0 62.1 L 90.0 63.0 L 94.6 63.0 C 98.7 63.3 99.7 63.3 101.4 61.1 C 102.6 59.7 103.7 58.5 104.0 58.5 C 104.2 58.5 104.3 61.2 104.4 63.9 C 104.2 64.6 104.2 65.4 104.4 66.2 C 104.3 69.0 104.2 71.7 104.0 71.7 C 103.7 71.7 102.7 70.8 101.8 69.7 C 100.6 68.3 98.5 67.2 94.9 67.0 L 90.0 67.0 L 90.0 68.2 L 90.0 73.4 C 89.8 76.3 89.6 78.3 90.0 79.7 L 90.0 83.0 L 97.4 84.0 C 105.1 84.3 108.1 82.9 107.1 80.3 C 106.8 79.4 107.2 78.8 108.2 78.8 C 109.5 78.8 110.0 79.8 110.0 83.3 L 110.0 88.0 L 93.9 88.0 C 85.2 88.0 77.7 88.0 77.3 88.0 Z M 168.4 74.8 C 166.1 74.7 163.9 74.1 161.6 73.1 C 149.3 67.3 149.0 47.5 161.2 41.1 C 167.8 37.7 182.8 39.6 182.8 43.8 C 182.8 45.2 182.2 45.3 179.5 44.7 C 170.1 42.3 162.5 45.2 160.2 52.0 C 158.1 58.2 158.7 58.5 172.0 58.5 C 185.6 58.5 186.3 59.0 183.8 66.0 C 181.7 71.9 175.2 75.3 168.4 74.8 Z M 118.1 74.0 L 118.0 69.2 C 118.0 66.0 118.5 64.6 119.5 64.6 C 120.3 64.6 121.2 65.5 121.4 66.6 C 121.7 67.7 123.2 69.1 124.7 69.7 C 128.1 70.9 134.2 71.0 134.9 69.8 C 135.6 68.8 125.7 52.9 120.5 46.7 C 118.6 44.4 117.0 41.9 117.0 41.1 C 117.0 40.1 120.2 40.2 131.3 40.0 L 146.0 39.0 L 146.0 42.5 C 147.0 47.4 147.0 49.4 145.4 49.4 C 144.6 49.4 143.8 48.5 143.5 47.4 C 143.2 46.3 141.7 44.9 140.2 44.3 C 136.8 43.1 129.7 43.0 128.9 44.2 C 128.3 45.2 136.7 59.3 142.2 66.3 C 147.9 73.7 147.8 74.0 131.9 74.0 L 118.1 74.0 Z M 171.1 70.7 C 172.1 70.6 173.1 70.4 174.0 70.1 C 176.0 69.3 178.9 64.2 178.0 63.2 C 176.9 62.2 161.4 62.5 160.7 63.6 C 160.4 64.2 161.4 66.0 163.1 67.7 C 165.4 69.9 168.2 71.0 171.1 70.7 Z M 171.1 70.7 "></path></clipPath><g clip-path="url(#clip0x7fdaa150bef0)"><g><clipPath id="clip0x7fdaa150c780"><path d="M 75.9 39.3 L 206.5 39.3 L 206.5 94.0 L 75.9 94.0 Z M 75.9 39.3 "></path></clipPath><g clip-path="url(#clip0x7fdaa150c780)"><image xlink:href="9F72803E5734985FDA63AC1FF850C038.png" width="149.00" height="74.00" transform="matrix(1.00, 0.00, -0.00, -1.00, 66.7, 101.1)"></image></g></g></g></g></g></g></g></svg>