<?xml version="1.0" encoding="UTF-8" standalone="no"?><svg xmlns="http://www.w3.org/2000/svg" xmlns:xlink="http://www.w3.org/1999/xlink" clip-rule="evenodd" stroke-miterlimit="10" viewBox="0 0 1920 1080"><desc>SVG generated by Keynote</desc><defs></defs><g transform="matrix(1.00, 0.00, -0.00, -1.00, 0.0, 1080.0)"><g><clipPath id="clip0x7fda9cdfb6b0"><path d="M 0.0 1080.0 L 1920.0 1080.0 L 1920.0 0.0 L 0.0 0.0 Z M 0.0 1080.0 "></path></clipPath><g clip-path="url(#clip0x7fda9cdfb6b0)"><image xlink:href="../../18DBF37F-4768-4907-A96E-9B8555C8012F/assets/A81AF0278930B93F47F55E5BB6D3A023.png" width="1920.00" height="1080.00" transform="matrix(1.00, 0.00, -0.00, -1.00, 0.0, 1080.0)"></image></g></g><text xml:space="preserve" font-family="Marion-Regular,Marion" font-size="112.0" fill="#FEFFFF" transform="matrix(1.00, 0.00, -0.00, -1.00, 607.5, 234.3)">O</text><text xml:space="preserve" font-family="Marion-Regular,Marion" font-size="112.0" fill="#FEFFFF" transform="matrix(1.00, 0.00, -0.00, -1.00, 691.1, 234.3)">n</text><text xml:space="preserve" font-family="Marion-Regular,Marion" font-size="112.0" fill="#FEFFFF" transform="matrix(1.00, 0.00, -0.00, -1.00, 753.0, 234.3)">e</text><text xml:space="preserve" font-family="Marion-Regular,Marion" font-size="112.0" fill="#FEFFFF" transform="matrix(1.00, 0.00, -0.00, -1.00, 801.2, 234.3)"> </text><text xml:space="preserve" font-family="Marion-Regular,Marion" font-size="112.0" fill="#FEFFFF" transform="matrix(1.00, 0.00, -0.00, -1.00, 834.8, 234.3)">P</text><text xml:space="preserve" font-family="Marion-Regular,Marion" font-size="112.0" fill="#FEFFFF" transform="matrix(1.00, 0.00, -0.00, -1.00, 905.2, 234.3)">a</text><text xml:space="preserve" font-family="Marion-Regular,Marion" font-size="112.0" fill="#FEFFFF" transform="matrix(1.00, 0.00, -0.00, -1.00, 954.8, 234.3)">g</text><text xml:space="preserve" font-family="Marion-Regular,Marion" font-size="112.0" fill="#FEFFFF" transform="matrix(1.00, 0.00, -0.00, -1.00, 1005.4, 234.3)">e</text><text xml:space="preserve" font-family="Marion-Regular,Marion" font-size="112.0" fill="#FEFFFF" transform="matrix(1.00, 0.00, -0.00, -1.00, 1053.5, 234.3)"> </text><text xml:space="preserve" font-family="Marion-Regular,Marion" font-size="112.0" fill="#FEFFFF" transform="matrix(1.00, 0.00, -0.00, -1.00, 1087.1, 234.3)">A</text><text xml:space="preserve" font-family="Marion-Regular,Marion" font-size="112.0" fill="#FEFFFF" transform="matrix(1.00, 0.00, -0.00, -1.00, 1160.6, 234.3)">p</text><text xml:space="preserve" font-family="Marion-Regular,Marion" font-size="112.0" fill="#FEFFFF" transform="matrix(1.00, 0.00, -0.00, -1.00, 1216.3, 234.3)">p</text><text xml:space="preserve" font-family="Marion-Regular,Marion" font-size="112.0" fill="#FEFFFF" transform="matrix(1.00, 0.00, -0.00, -1.00, 1271.9, 234.3)">s</text><text xml:space="preserve" font-family="Marion-Italic,Marion" font-style="italic" font-size="44.0" fill="#FEFFFF" transform="matrix(1.00, 0.00, -0.00, -1.00, 768.6, 138.4)">e</text><text xml:space="preserve" font-family="Marion-Italic,Marion" font-style="italic" font-size="44.0" fill="#FEFFFF" transform="matrix(1.00, 0.00, -0.00, -1.00, 783.9, 138.4)">.</text><text xml:space="preserve" font-family="Marion-Italic,Marion" font-style="italic" font-size="44.0" fill="#FEFFFF" transform="matrix(1.00, 0.00, -0.00, -1.00, 793.2, 138.4)">g</text><text xml:space="preserve" font-family="Marion-Italic,Marion" font-style="italic" font-size="44.0" fill="#FEFFFF" transform="matrix(1.00, 0.00, -0.00, -1.00, 808.8, 138.4)">.</text><text xml:space="preserve" font-family="Marion-Regular,Marion" font-size="44.0" fill="#FEFFFF" transform="matrix(1.00, 0.00, -0.00, -1.00, 818.1, 138.4)"> </text><text xml:space="preserve" font-family="Marion-Regular,Marion" font-size="44.0" fill="#FEFFFF" transform="matrix(1.00, 0.00, -0.00, -1.00, 831.3, 138.4)">B</text><text xml:space="preserve" font-family="Marion-Regular,Marion" font-size="44.0" fill="#FEFFFF" transform="matrix(1.00, 0.00, -0.00, -1.00, 861.0, 138.4)">a</text><text xml:space="preserve" font-family="Marion-Regular,Marion" font-size="44.0" fill="#FEFFFF" transform="matrix(1.00, 0.00, -0.00, -1.00, 880.5, 138.4)">c</text><text xml:space="preserve" font-family="Marion-Regular,Marion" font-size="44.0" fill="#FEFFFF" transform="matrix(1.00, 0.00, -0.00, -1.00, 898.2, 138.4)">k</text><text xml:space="preserve" font-family="Marion-Regular,Marion" font-size="44.0" fill="#FEFFFF" transform="matrix(1.00, 0.00, -0.00, -1.00, 920.6, 138.4)">b</text><text xml:space="preserve" font-family="Marion-Regular,Marion" font-size="44.0" fill="#FEFFFF" transform="matrix(1.00, 0.00, -0.00, -1.00, 942.4, 138.4)">o</text><text xml:space="preserve" font-family="Marion-Regular,Marion" font-size="44.0" fill="#FEFFFF" transform="matrix(1.00, 0.00, -0.00, -1.00, 962.9, 138.4)">n</text><text xml:space="preserve" font-family="Marion-Regular,Marion" font-size="44.0" fill="#FEFFFF" transform="matrix(1.00, 0.00, -0.00, -1.00, 987.2, 138.4)">e</text><text xml:space="preserve" font-family="Marion-Regular,Marion" font-size="44.0" fill="#FEFFFF" transform="matrix(1.00, 0.00, -0.00, -1.00, 1006.1, 138.4)">,</text><text xml:space="preserve" font-family="Marion-Regular,Marion" font-size="44.0" fill="#FEFFFF" transform="matrix(1.00, 0.00, -0.00, -1.00, 1017.2, 138.4)"> </text><text xml:space="preserve" font-family="Marion-Regular,Marion" font-size="44.0" fill="#FEFFFF" transform="matrix(1.00, 0.00, -0.00, -1.00, 1030.4, 138.4)">E</text><text xml:space="preserve" font-family="Marion-Regular,Marion" font-size="44.0" fill="#FEFFFF" transform="matrix(1.00, 0.00, -0.00, -1.00, 1058.8, 138.4)">m</text><text xml:space="preserve" font-family="Marion-Regular,Marion" font-size="44.0" fill="#FEFFFF" transform="matrix(1.00, 0.00, -0.00, -1.00, 1094.0, 138.4)">b</text><text xml:space="preserve" font-family="Marion-Regular,Marion" font-size="44.0" fill="#FEFFFF" transform="matrix(1.00, 0.00, -0.00, -1.00, 1115.7, 138.4)">e</text><text xml:space="preserve" font-family="Marion-Regular,Marion" font-size="44.0" fill="#FEFFFF" transform="matrix(1.00, 0.00, -0.00, -1.00, 1134.7, 138.4)">r</text><g><clipPath id="clip0x7fdaa1210960"><path d="M 32.4 721.3 L 224.1 721.3 L 224.1 913.0 L 32.4 913.0 Z M 32.4 721.3 "></path></clipPath><g clip-path="url(#clip0x7fdaa1210960)"><image xlink:href="../../D19D3AAB-54CF-49EA-A602-4126FDEE64A0/assets/FCA466004326A56B63024895C93693F2.png" width="1200.00" height="1200.00" transform="matrix(0.16, 0.00, -0.00, -0.16, 32.4, 913.0)"></image></g></g><g><clipPath id="clip0x7fda9cf29150"><path d="M 204.3 721.3 L 396.0 721.3 L 396.0 913.0 L 204.3 913.0 Z M 204.3 721.3 "></path></clipPath><g clip-path="url(#clip0x7fda9cf29150)"><image xlink:href="../../D19D3AAB-54CF-49EA-A602-4126FDEE64A0/assets/AB07E20E9A2B3DDA0EA8BAB1AB61A9D8.png" width="1200.00" height="1200.00" transform="matrix(0.16, 0.00, -0.00, -0.16, 204.3, 913.0)"></image></g></g><image xlink:href="../../3DD885A1-064A-4ADA-A49D-EBB155ADB1CB/assets/7DFA51415542C13A7E2DE71CF72F37FF.png" width="1200.00" height="1200.00" transform="matrix(0.16, 0.00, -0.00, -0.16, 615.4, 913.0)"></image><image xlink:href="../../3DD885A1-064A-4ADA-A49D-EBB155ADB1CB/assets/7DFA51415542C13A7E2DE71CF72F37FF.png" width="1200.00" height="1200.00" transform="matrix(0.16, 0.00, -0.00, -0.16, 1112.8, 913.0)"></image><g><clipPath id="clip0x7fdaa1126bf0"><path d="M 1523.5 721.3 L 1715.2 721.3 L 1715.2 913.0 L 1523.5 913.0 Z M 1523.5 721.3 "></path></clipPath><g clip-path="url(#clip0x7fdaa1126bf0)"><image xlink:href="../../D19D3AAB-54CF-49EA-A602-4126FDEE64A0/assets/FCA466004326A56B63024895C93693F2.png" width="1200.00" height="1200.00" transform="matrix(0.16, 0.00, -0.00, -0.16, 1523.5, 913.0)"></image></g></g><g><clipPath id="clip0x7fdaa1035ca0"><path d="M 1695.4 721.3 L 1887.1 721.3 L 1887.1 913.0 L 1695.4 913.0 Z M 1695.4 721.3 "></path></clipPath><g clip-path="url(#clip0x7fdaa1035ca0)"><image xlink:href="../../D19D3AAB-54CF-49EA-A602-4126FDEE64A0/assets/AB07E20E9A2B3DDA0EA8BAB1AB61A9D8.png" width="1200.00" height="1200.00" transform="matrix(0.16, 0.00, -0.00, -0.16, 1695.4, 913.0)" opacity="0.50"></image></g></g><text xml:space="preserve" font-family="FiraMono-Regular,Fira Mono" font-size="42.0" fill="#FEFFFF" transform="matrix(1.00, 0.00, -0.00, -1.00, 99.8, 558.1)">/</text><text xml:space="preserve" font-family="FiraMono-Regular,Fira Mono" font-size="42.0" fill="#FEFFFF" transform="matrix(1.00, 0.00, -0.00, -1.00, 125.0, 558.1)">p</text><text xml:space="preserve" font-family="FiraMono-Regular,Fira Mono" font-size="42.0" fill="#FEFFFF" transform="matrix(1.00, 0.00, -0.00, -1.00, 150.2, 558.1)">i</text><text xml:space="preserve" font-family="FiraMono-Regular,Fira Mono" font-size="42.0" fill="#FEFFFF" transform="matrix(1.00, 0.00, -0.00, -1.00, 175.4, 558.1)">c</text><text xml:space="preserve" font-family="FiraMono-Regular,Fira Mono" font-size="42.0" fill="#FEFFFF" transform="matrix(1.00, 0.00, -0.00, -1.00, 200.6, 558.1)">t</text><text xml:space="preserve" font-family="FiraMono-Regular,Fira Mono" font-size="42.0" fill="#FEFFFF" transform="matrix(1.00, 0.00, -0.00, -1.00, 225.8, 558.1)">u</text><text xml:space="preserve" font-family="FiraMono-Regular,Fira Mono" font-size="42.0" fill="#FEFFFF" transform="matrix(1.00, 0.00, -0.00, -1.00, 251.0, 558.1)">r</text><text xml:space="preserve" font-family="FiraMono-Regular,Fira Mono" font-size="42.0" fill="#FEFFFF" transform="matrix(1.00, 0.00, -0.00, -1.00, 276.2, 558.1)">e</text><text xml:space="preserve" font-family="FiraMono-Regular,Fira Mono" font-size="42.0" fill="#FEFFFF" transform="matrix(1.00, 0.00, -0.00, -1.00, 301.4, 558.1)">s</text><text xml:space="preserve" font-family="FiraMono-Regular,Fira Mono" font-size="42.0" fill="#FEFFFF" transform="matrix(1.00, 0.00, -0.00, -1.00, 534.7, 560.8)">/</text><text xml:space="preserve" font-family="FiraMono-Regular,Fira Mono" font-size="42.0" fill="#FEFFFF" transform="matrix(1.00, 0.00, -0.00, -1.00, 559.9, 560.8)">p</text><text xml:space="preserve" font-family="FiraMono-Regular,Fira Mono" font-size="42.0" fill="#FEFFFF" transform="matrix(1.00, 0.00, -0.00, -1.00, 585.1, 560.8)">i</text><text xml:space="preserve" font-family="FiraMono-Regular,Fira Mono" font-size="42.0" fill="#FEFFFF" transform="matrix(1.00, 0.00, -0.00, -1.00, 610.3, 560.8)">c</text><text xml:space="preserve" font-family="FiraMono-Regular,Fira Mono" font-size="42.0" fill="#FEFFFF" transform="matrix(1.00, 0.00, -0.00, -1.00, 635.5, 560.8)">t</text><text xml:space="preserve" font-family="FiraMono-Regular,Fira Mono" font-size="42.0" fill="#FEFFFF" transform="matrix(1.00, 0.00, -0.00, -1.00, 660.7, 560.8)">u</text><text xml:space="preserve" font-family="FiraMono-Regular,Fira Mono" font-size="42.0" fill="#FEFFFF" transform="matrix(1.00, 0.00, -0.00, -1.00, 685.9, 560.8)">r</text><text xml:space="preserve" font-family="FiraMono-Regular,Fira Mono" font-size="42.0" fill="#FEFFFF" transform="matrix(1.00, 0.00, -0.00, -1.00, 711.1, 560.8)">e</text><text xml:space="preserve" font-family="FiraMono-Regular,Fira Mono" font-size="42.0" fill="#FEFFFF" transform="matrix(1.00, 0.00, -0.00, -1.00, 736.3, 560.8)">s</text><text xml:space="preserve" font-family="FiraMono-Regular,Fira Mono" font-size="42.0" fill="#FEFFFF" transform="matrix(1.00, 0.00, -0.00, -1.00, 761.5, 560.8)">/</text><text xml:space="preserve" font-family="FiraMono-Regular,Fira Mono" font-size="42.0" fill="#FEFFFF" transform="matrix(1.00, 0.00, -0.00, -1.00, 786.7, 560.8)">1</text><text xml:space="preserve" font-family="FiraMono-Regular,Fira Mono" font-size="42.0" fill="#FEFFFF" transform="matrix(1.00, 0.00, -0.00, -1.00, 811.9, 560.8)">3</text><text xml:space="preserve" font-family="FiraMono-Regular,Fira Mono" font-size="42.0" fill="#FEFFFF" transform="matrix(1.00, 0.00, -0.00, -1.00, 837.1, 560.8)">3</text><text xml:space="preserve" font-family="FiraMono-Regular,Fira Mono" font-size="42.0" fill="#FEFFFF" transform="matrix(1.00, 0.00, -0.00, -1.00, 862.3, 560.8)">7</text><text xml:space="preserve" font-family="FiraMono-Regular,Fira Mono" font-size="42.0" fill="#FEFFFF" transform="matrix(1.00, 0.00, -0.00, -1.00, 1056.7, 558.1)">/</text><text xml:space="preserve" font-family="FiraMono-Regular,Fira Mono" font-size="42.0" fill="#FEFFFF" transform="matrix(1.00, 0.00, -0.00, -1.00, 1081.9, 558.1)">u</text><text xml:space="preserve" font-family="FiraMono-Regular,Fira Mono" font-size="42.0" fill="#FEFFFF" transform="matrix(1.00, 0.00, -0.00, -1.00, 1107.1, 558.1)">s</text><text xml:space="preserve" font-family="FiraMono-Regular,Fira Mono" font-size="42.0" fill="#FEFFFF" transform="matrix(1.00, 0.00, -0.00, -1.00, 1132.3, 558.1)">e</text><text xml:space="preserve" font-family="FiraMono-Regular,Fira Mono" font-size="42.0" fill="#FEFFFF" transform="matrix(1.00, 0.00, -0.00, -1.00, 1157.5, 558.1)">r</text><text xml:space="preserve" font-family="FiraMono-Regular,Fira Mono" font-size="42.0" fill="#FEFFFF" transform="matrix(1.00, 0.00, -0.00, -1.00, 1182.7, 558.1)">s</text><text xml:space="preserve" font-family="FiraMono-Regular,Fira Mono" font-size="42.0" fill="#FEFFFF" transform="matrix(1.00, 0.00, -0.00, -1.00, 1207.9, 558.1)">/</text><text xml:space="preserve" font-family="FiraMono-Regular,Fira Mono" font-size="42.0" fill="#FEFFFF" transform="matrix(1.00, 0.00, -0.00, -1.00, 1233.1, 558.1)">h</text><text xml:space="preserve" font-family="FiraMono-Regular,Fira Mono" font-size="42.0" fill="#FEFFFF" transform="matrix(1.00, 0.00, -0.00, -1.00, 1258.3, 558.1)">o</text><text xml:space="preserve" font-family="FiraMono-Regular,Fira Mono" font-size="42.0" fill="#FEFFFF" transform="matrix(1.00, 0.00, -0.00, -1.00, 1283.5, 558.1)">d</text><text xml:space="preserve" font-family="FiraMono-Regular,Fira Mono" font-size="42.0" fill="#FEFFFF" transform="matrix(1.00, 0.00, -0.00, -1.00, 1308.7, 558.1)">o</text><text xml:space="preserve" font-family="FiraMono-Regular,Fira Mono" font-size="42.0" fill="#FEFFFF" transform="matrix(1.00, 0.00, -0.00, -1.00, 1333.9, 558.1)">r</text><image xlink:href="../../D19D3AAB-54CF-49EA-A602-4126FDEE64A0/assets/1FC12689F5C40A328D24CEBF056B280D.png" width="1200.00" height="1200.00" transform="matrix(0.08, 0.00, -0.00, -0.08, 1406.6, 553.4)"></image><text xml:space="preserve" font-family="FiraMono-Regular,Fira Mono" font-size="42.0" fill="#FEFFFF" transform="matrix(1.00, 0.00, -0.00, -1.00, 1554.1, 558.1)">/</text><text xml:space="preserve" font-family="FiraMono-Regular,Fira Mono" font-size="42.0" fill="#FEFFFF" transform="matrix(1.00, 0.00, -0.00, -1.00, 1579.3, 558.1)">u</text><text xml:space="preserve" font-family="FiraMono-Regular,Fira Mono" font-size="42.0" fill="#FEFFFF" transform="matrix(1.00, 0.00, -0.00, -1.00, 1604.5, 558.1)">s</text><text xml:space="preserve" font-family="FiraMono-Regular,Fira Mono" font-size="42.0" fill="#FEFFFF" transform="matrix(1.00, 0.00, -0.00, -1.00, 1629.7, 558.1)">e</text><text xml:space="preserve" font-family="FiraMono-Regular,Fira Mono" font-size="42.0" fill="#FEFFFF" transform="matrix(1.00, 0.00, -0.00, -1.00, 1654.9, 558.1)">r</text><text xml:space="preserve" font-family="FiraMono-Regular,Fira Mono" font-size="42.0" fill="#FEFFFF" transform="matrix(1.00, 0.00, -0.00, -1.00, 1680.1, 558.1)">s</text><text xml:space="preserve" font-family="FiraMono-Regular,Fira Mono" font-size="42.0" fill="#FEFFFF" transform="matrix(1.00, 0.00, -0.00, -1.00, 1705.3, 558.1)">/</text><text xml:space="preserve" font-family="FiraMono-Regular,Fira Mono" font-size="42.0" fill="#FEFFFF" transform="matrix(1.00, 0.00, -0.00, -1.00, 1730.5, 558.1)">h</text><text xml:space="preserve" font-family="FiraMono-Regular,Fira Mono" font-size="42.0" fill="#FEFFFF" transform="matrix(1.00, 0.00, -0.00, -1.00, 1755.7, 558.1)">o</text><text xml:space="preserve" font-family="FiraMono-Regular,Fira Mono" font-size="42.0" fill="#FEFFFF" transform="matrix(1.00, 0.00, -0.00, -1.00, 1780.9, 558.1)">d</text><text xml:space="preserve" font-family="FiraMono-Regular,Fira Mono" font-size="42.0" fill="#FEFFFF" transform="matrix(1.00, 0.00, -0.00, -1.00, 1806.1, 558.1)">o</text><text xml:space="preserve" font-family="FiraMono-Regular,Fira Mono" font-size="42.0" fill="#FEFFFF" transform="matrix(1.00, 0.00, -0.00, -1.00, 1831.3, 558.1)">r</text><image xlink:href="../../D19D3AAB-54CF-49EA-A602-4126FDEE64A0/assets/52F55890372D195535E1948C0B429B4E.png" width="1200.00" height="1200.00" transform="matrix(0.08, 0.00, -0.00, -0.08, 1406.6, 685.8)"></image><image xlink:href="../../D19D3AAB-54CF-49EA-A602-4126FDEE64A0/assets/A8B26EC2BAD3544C3A21FCE4A41592FE.png" width="1200.00" height="1200.00" transform="matrix(0.08, 0.00, -0.00, -0.08, 380.6, 622.3)"></image><image xlink:href="../../D19D3AAB-54CF-49EA-A602-4126FDEE64A0/assets/A8B26EC2BAD3544C3A21FCE4A41592FE.png" width="1200.00" height="1200.00" transform="matrix(0.08, 0.00, -0.00, -0.08, 922.1, 622.3)"></image><image xlink:href="../../3DD885A1-064A-4ADA-A49D-EBB155ADB1CB/assets/DD642AACB82F5B963EE2B459E80434D7.png" width="202.00" height="202.00" transform="matrix(1.00, 0.00, -0.00, -1.00, 113.3, 818.0)" opacity="0.50"></image><g><clipPath id="clip0x7fdaa10015f0"><path d="M 118.0 815.0 L 310.0 815.0 L 310.0 623.0 L 118.0 623.0 Z M 118.3 815.0 "></path></clipPath><g clip-path="url(#clip0x7fdaa10015f0)"><g><clipPath id="clip0x7fdaa1028090"><path d="M 251.1 815.7 L 251.0 798.2 L 251.0 780.0 L 259.5 780.0 C 262.3 780.0 264.9 780.6 268.2 780.5 C 273.7 780.5 278.2 780.6 281.3 780.7 C 284.1 780.8 285.4 781.0 285.6 781.3 C 285.1 781.9 277.9 789.1 268.6 798.5 L 259.2 807.9 L 251.1 815.7 Z M 141.3 815.0 L 141.0 721.1 L 141.0 627.0 C 141.1 626.9 142.0 627.1 142.2 627.0 L 213.7 627.0 L 286.0 627.0 L 286.0 648.8 L 286.0 671.0 L 241.4 671.0 C 207.9 671.0 196.3 671.0 195.4 671.9 C 193.7 673.6 193.7 712.8 195.4 714.4 C 196.3 715.3 207.9 716.0 241.4 716.0 L 286.0 716.0 L 286.0 746.5 L 286.0 777.0 L 283.8 778.0 L 268.2 778.0 C 262.3 778.0 259.6 777.8 256.4 778.0 L 249.0 778.0 C 247.4 776.8 247.1 780.6 247.4 798.5 C 247.5 806.6 247.7 811.0 248.0 813.7 L 248.0 815.0 L 194.7 815.0 L 141.3 815.0 Z M 247.1 698.7 C 244.7 698.8 242.3 698.2 241.0 697.0 C 238.7 695.0 238.5 688.0 240.7 684.9 C 242.9 681.8 250.2 681.8 253.1 684.9 C 255.8 687.8 255.9 694.0 253.2 696.7 C 251.9 697.9 249.5 698.6 247.1 698.7 Z M 215.7 699.0 C 212.0 698.7 210.8 696.4 213.8 695.3 C 214.9 694.8 215.2 693.6 215.0 690.4 C 214.7 686.9 214.3 686.1 212.5 685.9 C 211.2 685.7 210.2 684.9 210.2 684.1 C 210.2 682.4 216.2 682.2 218.0 683.9 C 218.7 684.6 219.0 688.0 219.0 691.9 L 219.0 699.0 L 215.7 699.0 Z M 261.6 698.7 C 259.2 698.7 259.1 698.5 259.1 690.7 C 259.1 684.3 259.4 682.7 260.6 682.7 C 261.7 682.7 262.1 683.8 262.1 686.2 C 262.1 691.1 263.7 691.3 266.7 686.7 C 268.3 684.4 270.2 682.7 271.3 682.7 C 272.0 682.7 272.4 683.0 272.7 683.8 C 272.7 684.0 272.8 684.0 272.8 684.2 C 273.0 685.5 273.1 687.6 273.1 691.0 C 273.1 694.3 273.1 696.4 272.8 697.4 C 272.6 698.5 272.1 698.6 271.4 698.5 C 270.4 698.3 269.5 697.2 269.3 696.2 C 268.6 692.6 267.3 692.4 265.7 695.6 C 264.5 697.8 263.4 698.7 261.6 698.7 Z M 230.8 698.5 C 225.5 698.8 223.2 697.6 223.2 694.2 C 223.2 691.6 225.0 689.9 228.6 688.9 C 232.3 687.9 231.2 686.2 226.9 686.3 C 223.9 686.4 223.2 686.0 223.2 684.5 C 223.2 683.0 224.0 682.7 227.7 682.7 C 233.8 682.7 236.2 684.1 236.2 687.7 C 236.2 690.9 235.3 691.7 231.0 692.6 C 226.7 693.5 227.6 695.2 232.2 695.1 C 235.4 695.0 236.2 695.3 236.0 696.6 C 235.7 697.7 234.3 698.3 230.8 698.5 Z M 247.2 695.5 C 249.0 695.3 250.2 693.0 249.9 689.8 C 249.5 685.6 247.1 684.6 244.9 687.7 C 243.0 690.4 243.2 693.7 245.3 695.0 C 246.0 695.4 246.6 695.6 247.2 695.5 Z M 247.2 695.5 "></path></clipPath><g clip-path="url(#clip0x7fdaa1028090)"><image xlink:href="../../3DD885A1-064A-4ADA-A49D-EBB155ADB1CB/assets/F9A18ACAF2B22417A57F050715BBBEAA.png" width="193.00" height="234.00" transform="matrix(0.99, 0.00, -0.00, -0.99, 118.3, 835.4)"></image></g></g></g></g><g opacity="0.50"><g><clipPath id="clip0x7fda9cf418c0"><path d="M 1603.0 615.0 L 1808.0 615.0 L 1808.0 824.0 L 1603.0 824.0 Z M 1603.0 615.0 "></path></clipPath><g clip-path="url(#clip0x7fda9cf418c0)"><image xlink:href="../../3DD885A1-064A-4ADA-A49D-EBB155ADB1CB/assets/DD642AACB82F5B963EE2B459E80434D7.png" width="202.00" height="202.00" transform="matrix(1.00, 0.00, -0.00, -1.00, 1604.9, 818.3)" opacity="0.50"></image></g></g><g><clipPath id="clip0x7fdaa1222890"><path d="M 1610.0 815.0 L 1802.0 815.0 L 1802.0 624.0 L 1610.0 624.0 Z M 1609.9 815.3 "></path></clipPath><g clip-path="url(#clip0x7fdaa1222890)"><g><clipPath id="clip0x7fdaa1222d20"><path d="M 1742.8 816.0 L 1743.0 798.5 L 1743.0 781.0 L 1751.2 781.0 C 1753.9 781.0 1756.6 780.9 1759.9 780.9 C 1765.3 780.8 1769.8 780.9 1772.9 781.0 C 1775.7 781.2 1777.0 781.4 1777.2 781.6 C 1776.7 782.2 1769.6 789.5 1760.2 798.8 L 1750.8 808.2 L 1742.8 816.0 Z M 1632.9 816.0 L 1633.0 721.5 L 1633.0 627.3 C 1633.1 627.3 1633.6 627.1 1633.8 627.0 L 1705.3 627.0 L 1778.0 627.0 L 1778.0 649.1 L 1778.0 671.0 L 1733.0 671.0 C 1699.5 671.0 1687.9 671.4 1687.0 672.3 C 1685.3 674.0 1685.3 713.1 1687.0 714.8 C 1687.9 715.7 1699.5 716.0 1733.0 716.0 L 1778.0 716.0 L 1778.0 746.9 L 1778.0 778.0 L 1775.4 778.0 L 1759.8 778.0 C 1753.9 778.0 1751.2 777.8 1748.1 778.0 L 1740.6 778.0 C 1739.0 776.8 1738.7 781.0 1739.0 798.8 C 1739.1 807.0 1739.7 811.4 1740.0 814.1 L 1740.0 816.0 L 1686.3 816.0 L 1632.9 816.0 Z M 1738.7 699.0 C 1736.3 699.1 1733.9 698.6 1732.6 697.4 C 1730.3 695.3 1730.1 688.4 1732.3 685.3 C 1734.5 682.1 1741.8 682.1 1744.7 685.2 C 1747.4 688.1 1747.5 694.3 1744.8 697.0 C 1743.5 698.3 1741.1 699.0 1738.7 699.0 Z M 1707.3 699.0 C 1703.6 699.0 1702.4 696.8 1705.4 695.6 C 1706.5 695.2 1706.8 693.9 1706.6 690.8 C 1706.4 687.2 1705.9 686.5 1704.1 686.2 C 1702.8 686.0 1701.8 685.3 1701.8 684.5 C 1701.8 682.7 1707.9 682.5 1709.6 684.3 C 1710.3 685.0 1711.0 688.3 1711.0 692.2 L 1711.0 699.0 L 1707.3 699.0 Z M 1753.2 699.0 C 1750.8 699.0 1750.8 698.9 1750.8 691.0 C 1750.8 684.6 1751.0 683.1 1752.2 683.1 C 1753.3 683.1 1753.7 684.1 1753.7 686.5 C 1753.7 691.5 1755.3 691.7 1758.3 687.1 C 1759.9 684.8 1761.8 683.1 1762.9 683.1 C 1763.6 683.1 1764.0 683.3 1764.3 684.2 C 1764.3 684.3 1764.4 684.4 1764.4 684.5 C 1764.7 685.8 1764.7 688.0 1764.7 691.3 C 1764.7 694.7 1764.7 696.7 1764.5 697.7 C 1764.2 698.8 1763.8 699.0 1763.0 698.8 C 1762.0 698.6 1761.1 697.6 1760.9 696.5 C 1760.2 692.9 1758.9 692.7 1757.3 695.9 C 1756.1 698.1 1755.0 699.0 1753.2 699.0 Z M 1722.4 698.8 C 1717.1 699.2 1714.8 697.9 1714.8 694.5 C 1714.8 691.9 1716.6 690.2 1720.2 689.2 C 1724.0 688.2 1722.9 686.5 1718.5 686.6 C 1715.5 686.7 1714.8 686.4 1714.8 684.9 C 1714.8 683.4 1715.6 683.1 1719.3 683.1 C 1725.5 683.1 1727.8 684.4 1727.8 688.0 C 1727.8 691.2 1726.9 692.0 1722.6 692.9 C 1718.3 693.8 1719.2 695.5 1723.8 695.4 C 1727.0 695.4 1727.8 695.7 1727.6 696.9 C 1727.4 698.1 1725.9 698.6 1722.4 698.8 Z M 1738.8 695.8 C 1740.6 695.6 1741.8 693.3 1741.5 690.1 C 1741.1 685.9 1738.7 684.9 1736.5 688.0 C 1734.6 690.7 1734.8 694.0 1736.9 695.3 C 1737.6 695.8 1738.2 695.9 1738.8 695.8 Z M 1738.8 695.8 "></path></clipPath><g clip-path="url(#clip0x7fdaa1222d20)"><g><clipPath id="clip0x7fdaa12240f0"><path d="M 1603.0 615.0 L 1808.0 615.0 L 1808.0 824.0 L 1603.0 824.0 Z M 1603.0 615.0 "></path></clipPath><g clip-path="url(#clip0x7fdaa12240f0)"><image xlink:href="../../3DD885A1-064A-4ADA-A49D-EBB155ADB1CB/assets/F9A18ACAF2B22417A57F050715BBBEAA.png" width="193.00" height="234.00" transform="matrix(0.99, 0.00, -0.00, -0.99, 1609.9, 835.7)"></image></g></g></g></g></g></g></g></g></svg>