<?xml version="1.0" encoding="UTF-8" standalone="no"?><svg xmlns="http://www.w3.org/2000/svg" xmlns:xlink="http://www.w3.org/1999/xlink" clip-rule="evenodd" stroke-miterlimit="10" viewBox="0 0 383 41"><desc>SVG generated by Keynote</desc><defs></defs><g transform="matrix(1.00, 0.00, -0.00, -1.00, 0.0, 41.0)"><text xml:space="preserve" font-family="Marion-Italic,Marion" font-style="italic" font-size="44.0" fill="#FEFFFF" transform="matrix(1.00, 0.00, -0.00, -1.00, -1.4, 9.4)">e</text><text xml:space="preserve" font-family="Marion-Italic,Marion" font-style="italic" font-size="44.0" fill="#FEFFFF" transform="matrix(1.00, 0.00, -0.00, -1.00, 13.9, 9.4)">.</text><text xml:space="preserve" font-family="Marion-Italic,Marion" font-style="italic" font-size="44.0" fill="#FEFFFF" transform="matrix(1.00, 0.00, -0.00, -1.00, 23.2, 9.4)">g</text><text xml:space="preserve" font-family="Marion-Italic,Marion" font-style="italic" font-size="44.0" fill="#FEFFFF" transform="matrix(1.00, 0.00, -0.00, -1.00, 38.8, 9.4)">.</text><text xml:space="preserve" font-family="Marion-Regular,Marion" font-size="44.0" fill="#FEFFFF" transform="matrix(1.00, 0.00, -0.00, -1.00, 48.1, 9.4)"> </text><text xml:space="preserve" font-family="Marion-Regular,Marion" font-size="44.0" fill="#FEFFFF" transform="matrix(1.00, 0.00, -0.00, -1.00, 61.3, 9.4)">B</text><text xml:space="preserve" font-family="Marion-Regular,Marion" font-size="44.0" fill="#FEFFFF" transform="matrix(1.00, 0.00, -0.00, -1.00, 91.0, 9.4)">a</text><text xml:space="preserve" font-family="Marion-Regular,Marion" font-size="44.0" fill="#FEFFFF" transform="matrix(1.00, 0.00, -0.00, -1.00, 110.5, 9.4)">c</text><text xml:space="preserve" font-family="Marion-Regular,Marion" font-size="44.0" fill="#FEFFFF" transform="matrix(1.00, 0.00, -0.00, -1.00, 128.2, 9.4)">k</text><text xml:space="preserve" font-family="Marion-Regular,Marion" font-size="44.0" fill="#FEFFFF" transform="matrix(1.00, 0.00, -0.00, -1.00, 150.6, 9.4)">b</text><text xml:space="preserve" font-family="Marion-Regular,Marion" font-size="44.0" fill="#FEFFFF" transform="matrix(1.00, 0.00, -0.00, -1.00, 172.4, 9.4)">o</text><text xml:space="preserve" font-family="Marion-Regular,Marion" font-size="44.0" fill="#FEFFFF" transform="matrix(1.00, 0.00, -0.00, -1.00, 192.9, 9.4)">n</text><text xml:space="preserve" font-family="Marion-Regular,Marion" font-size="44.0" fill="#FEFFFF" transform="matrix(1.00, 0.00, -0.00, -1.00, 217.2, 9.4)">e</text><text xml:space="preserve" font-family="Marion-Regular,Marion" font-size="44.0" fill="#FEFFFF" transform="matrix(1.00, 0.00, -0.00, -1.00, 236.1, 9.4)">,</text><text xml:space="preserve" font-family="Marion-Regular,Marion" font-size="44.0" fill="#FEFFFF" transform="matrix(1.00, 0.00, -0.00, -1.00, 247.2, 9.4)"> </text><text xml:space="preserve" font-family="Marion-Regular,Marion" font-size="44.0" fill="#FEFFFF" transform="matrix(1.00, 0.00, -0.00, -1.00, 260.4, 9.4)">E</text><text xml:space="preserve" font-family="Marion-Regular,Marion" font-size="44.0" fill="#FEFFFF" transform="matrix(1.00, 0.00, -0.00, -1.00, 288.8, 9.4)">m</text><text xml:space="preserve" font-family="Marion-Regular,Marion" font-size="44.0" fill="#FEFFFF" transform="matrix(1.00, 0.00, -0.00, -1.00, 324.0, 9.4)">b</text><text xml:space="preserve" font-family="Marion-Regular,Marion" font-size="44.0" fill="#FEFFFF" transform="matrix(1.00, 0.00, -0.00, -1.00, 345.7, 9.4)">e</text><text xml:space="preserve" font-family="Marion-Regular,Marion" font-size="44.0" fill="#FEFFFF" transform="matrix(1.00, 0.00, -0.00, -1.00, 364.7, 9.4)">r</text></g></svg>