<?xml version="1.0" encoding="UTF-8" standalone="no"?><svg xmlns="http://www.w3.org/2000/svg" xmlns:xlink="http://www.w3.org/1999/xlink" clip-rule="evenodd" stroke-miterlimit="10" viewBox="0 0 1920 1080"><desc>SVG generated by Keynote</desc><defs></defs><g transform="matrix(1.00, 0.00, -0.00, -1.00, 0.0, 1080.0)"><g><clipPath id="clip0x7fdaa12eb560"><path d="M 0.0 1080.0 L 1920.0 1080.0 L 1920.0 0.0 L 0.0 0.0 Z M 0.0 1080.0 "></path></clipPath><g clip-path="url(#clip0x7fdaa12eb560)"><image xlink:href="../../18DBF37F-4768-4907-A96E-9B8555C8012F/assets/A81AF0278930B93F47F55E5BB6D3A023.png" width="1920.00" height="1080.00" transform="matrix(1.00, 0.00, -0.00, -1.00, 0.0, 1080.0)"></image></g></g><text xml:space="preserve" font-family="FiraSans-Book,Fira Sans" font-size="38.0" fill="#FEFFFE" transform="matrix(1.00, 0.00, -0.00, -1.00, 1324.7, 331.0)">–</text><text xml:space="preserve" font-family="FiraSans-Book,Fira Sans" font-size="38.0" fill="#FEFFFE" transform="matrix(1.00, 0.00, -0.00, -1.00, 1344.5, 331.0)"> </text><text xml:space="preserve" font-family="FiraSans-Book,Fira Sans" font-size="38.0" fill="#FEFFFE" transform="matrix(1.00, 0.00, -0.00, -1.00, 1354.7, 331.0)">I</text><text xml:space="preserve" font-family="FiraSans-Book,Fira Sans" font-size="38.0" fill="#FEFFFE" transform="matrix(1.00, 0.00, -0.00, -1.00, 1365.8, 331.0)">s</text><text xml:space="preserve" font-family="FiraSans-Book,Fira Sans" font-size="38.0" fill="#FEFFFE" transform="matrix(1.00, 0.00, -0.00, -1.00, 1383.5, 331.0)">o</text><text xml:space="preserve" font-family="FiraSans-Book,Fira Sans" font-size="38.0" fill="#FEFFFE" transform="matrix(1.00, 0.00, -0.00, -1.00, 1405.6, 331.0)">m</text><text xml:space="preserve" font-family="FiraSans-Book,Fira Sans" font-size="38.0" fill="#FEFFFE" transform="matrix(1.00, 0.00, -0.00, -1.00, 1438.1, 331.0)">o</text><text xml:space="preserve" font-family="FiraSans-Book,Fira Sans" font-size="38.0" fill="#FEFFFE" transform="matrix(1.00, 0.00, -0.00, -1.00, 1460.2, 331.0)">r</text><text xml:space="preserve" font-family="FiraSans-Book,Fira Sans" font-size="38.0" fill="#FEFFFE" transform="matrix(1.00, 0.00, -0.00, -1.00, 1474.7, 331.0)">p</text><text xml:space="preserve" font-family="FiraSans-Book,Fira Sans" font-size="38.0" fill="#FEFFFE" transform="matrix(1.00, 0.00, -0.00, -1.00, 1497.2, 331.0)">h</text><text xml:space="preserve" font-family="FiraSans-Book,Fira Sans" font-size="38.0" fill="#FEFFFE" transform="matrix(1.00, 0.00, -0.00, -1.00, 1519.4, 331.0)">i</text><text xml:space="preserve" font-family="FiraSans-Book,Fira Sans" font-size="38.0" fill="#FEFFFE" transform="matrix(1.00, 0.00, -0.00, -1.00, 1530.0, 331.0)">c</text><text xml:space="preserve" font-family="FiraSans-Book,Fira Sans" font-size="38.0" fill="#FEFFFE" transform="matrix(1.00, 0.00, -0.00, -1.00, 1548.1, 331.0)"> </text><text xml:space="preserve" font-family="FiraSans-Book,Fira Sans" font-size="38.0" fill="#FEFFFE" transform="matrix(1.00, 0.00, -0.00, -1.00, 1558.3, 331.0)">J</text><text xml:space="preserve" font-family="FiraSans-Book,Fira Sans" font-size="38.0" fill="#FEFFFE" transform="matrix(1.00, 0.00, -0.00, -1.00, 1569.8, 331.0)">a</text><text xml:space="preserve" font-family="FiraSans-Book,Fira Sans" font-size="38.0" fill="#FEFFFE" transform="matrix(1.00, 0.00, -0.00, -1.00, 1590.0, 331.0)">v</text><text xml:space="preserve" font-family="FiraSans-Book,Fira Sans" font-size="38.0" fill="#FEFFFE" transform="matrix(1.00, 0.00, -0.00, -1.00, 1608.5, 331.0)">a</text><text xml:space="preserve" font-family="FiraSans-Book,Fira Sans" font-size="38.0" fill="#FEFFFE" transform="matrix(1.00, 0.00, -0.00, -1.00, 1629.1, 331.0)">S</text><text xml:space="preserve" font-family="FiraSans-Book,Fira Sans" font-size="38.0" fill="#FEFFFE" transform="matrix(1.00, 0.00, -0.00, -1.00, 1649.8, 331.0)">c</text><text xml:space="preserve" font-family="FiraSans-Book,Fira Sans" font-size="38.0" fill="#FEFFFE" transform="matrix(1.00, 0.00, -0.00, -1.00, 1667.9, 331.0)">r</text><text xml:space="preserve" font-family="FiraSans-Book,Fira Sans" font-size="38.0" fill="#FEFFFE" transform="matrix(1.00, 0.00, -0.00, -1.00, 1682.4, 331.0)">i</text><text xml:space="preserve" font-family="FiraSans-Book,Fira Sans" font-size="38.0" fill="#FEFFFE" transform="matrix(1.00, 0.00, -0.00, -1.00, 1693.0, 331.0)">p</text><text xml:space="preserve" font-family="FiraSans-Book,Fira Sans" font-size="38.0" fill="#FEFFFE" transform="matrix(1.00, 0.00, -0.00, -1.00, 1715.5, 331.0)">t</text><text xml:space="preserve" font-family="Marion-Regular,Marion" font-size="90.0" fill="#FEFFFF" transform="matrix(1.00, 0.00, -0.00, -1.00, 263.3, 693.3)">“</text><text xml:space="preserve" font-family="Marion-Regular,Marion" font-size="90.0" fill="#FEFFFF" transform="matrix(1.00, 0.00, -0.00, -1.00, 298.0, 693.3)">s</text><text xml:space="preserve" font-family="Marion-Regular,Marion" font-size="90.0" fill="#FEFFFF" transform="matrix(1.00, 0.00, -0.00, -1.00, 330.6, 693.3)">p</text><text xml:space="preserve" font-family="Marion-Regular,Marion" font-size="90.0" fill="#FEFFFF" transform="matrix(1.00, 0.00, -0.00, -1.00, 375.4, 693.3)">e</text><text xml:space="preserve" font-family="Marion-Regular,Marion" font-size="90.0" fill="#FEFFFF" transform="matrix(1.00, 0.00, -0.00, -1.00, 414.1, 693.3)">n</text><text xml:space="preserve" font-family="Marion-Regular,Marion" font-size="90.0" fill="#FEFFFF" transform="matrix(1.00, 0.00, -0.00, -1.00, 463.8, 693.3)">t</text><text xml:space="preserve" font-family="Marion-Regular,Marion" font-size="90.0" fill="#FEFFFF" transform="matrix(1.00, 0.00, -0.00, -1.00, 490.6, 693.3)"> </text><text xml:space="preserve" font-family="Marion-Italic,Marion" font-style="italic" font-size="90.0" fill="#FEFFFF" transform="matrix(1.00, 0.00, -0.00, -1.00, 517.6, 693.3)">a</text><text xml:space="preserve" font-family="Marion-Italic,Marion" font-style="italic" font-size="90.0" fill="#FEFFFF" transform="matrix(1.00, 0.00, -0.00, -1.00, 555.2, 693.3)"> </text><text xml:space="preserve" font-family="Marion-Italic,Marion" font-style="italic" font-size="90.0" fill="#FEFFFF" transform="matrix(1.00, 0.00, -0.00, -1.00, 577.0, 693.3)">y</text><text xml:space="preserve" font-family="Marion-Italic,Marion" font-style="italic" font-size="90.0" fill="#FEFFFF" transform="matrix(1.00, 0.00, -0.00, -1.00, 610.1, 693.3)">e</text><text xml:space="preserve" font-family="Marion-Italic,Marion" font-style="italic" font-size="90.0" fill="#FEFFFF" transform="matrix(1.00, 0.00, -0.00, -1.00, 641.4, 693.3)">a</text><text xml:space="preserve" font-family="Marion-Italic,Marion" font-style="italic" font-size="90.0" fill="#FEFFFF" transform="matrix(1.00, 0.00, -0.00, -1.00, 679.0, 693.3)">r</text><text xml:space="preserve" font-family="Marion-Italic,Marion" font-style="italic" font-size="90.0" fill="#FEFFFF" transform="matrix(1.00, 0.00, -0.00, -1.00, 706.7, 693.3)"> </text><text xml:space="preserve" font-family="Marion-Italic,Marion" font-style="italic" font-size="90.0" fill="#FEFFFF" transform="matrix(1.00, 0.00, -0.00, -1.00, 728.5, 693.3)">a</text><text xml:space="preserve" font-family="Marion-Italic,Marion" font-style="italic" font-size="90.0" fill="#FEFFFF" transform="matrix(1.00, 0.00, -0.00, -1.00, 766.1, 693.3)">n</text><text xml:space="preserve" font-family="Marion-Italic,Marion" font-style="italic" font-size="90.0" fill="#FEFFFF" transform="matrix(1.00, 0.00, -0.00, -1.00, 806.2, 693.3)">d</text><text xml:space="preserve" font-family="Marion-Italic,Marion" font-style="italic" font-size="90.0" fill="#FEFFFF" transform="matrix(1.00, 0.00, -0.00, -1.00, 845.2, 693.3)"> </text><text xml:space="preserve" font-family="Marion-Italic,Marion" font-style="italic" font-size="90.0" fill="#FEFFFF" transform="matrix(1.00, 0.00, -0.00, -1.00, 866.9, 693.3)">4</text><text xml:space="preserve" font-family="Marion-Italic,Marion" font-style="italic" font-size="90.0" fill="#FEFFFF" transform="matrix(1.00, 0.00, -0.00, -1.00, 906.6, 693.3)">0</text><text xml:space="preserve" font-family="Marion-Italic,Marion" font-style="italic" font-size="90.0" fill="#FEFFFF" transform="matrix(1.00, 0.00, -0.00, -1.00, 946.9, 693.3)"> </text><text xml:space="preserve" font-family="Marion-Italic,Marion" font-style="italic" font-size="90.0" fill="#FEFFFF" transform="matrix(1.00, 0.00, -0.00, -1.00, 968.6, 693.3)">e</text><text xml:space="preserve" font-family="Marion-Italic,Marion" font-style="italic" font-size="90.0" fill="#FEFFFF" transform="matrix(1.00, 0.00, -0.00, -1.00, 1000.0, 693.3)">n</text><text xml:space="preserve" font-family="Marion-Italic,Marion" font-style="italic" font-size="90.0" fill="#FEFFFF" transform="matrix(1.00, 0.00, -0.00, -1.00, 1040.0, 693.3)">g</text><text xml:space="preserve" font-family="Marion-Italic,Marion" font-style="italic" font-size="90.0" fill="#FEFFFF" transform="matrix(1.00, 0.00, -0.00, -1.00, 1072.0, 693.3)">i</text><text xml:space="preserve" font-family="Marion-Italic,Marion" font-style="italic" font-size="90.0" fill="#FEFFFF" transform="matrix(1.00, 0.00, -0.00, -1.00, 1092.1, 693.3)">n</text><text xml:space="preserve" font-family="Marion-Italic,Marion" font-style="italic" font-size="90.0" fill="#FEFFFF" transform="matrix(1.00, 0.00, -0.00, -1.00, 1132.2, 693.3)">e</text><text xml:space="preserve" font-family="Marion-Italic,Marion" font-style="italic" font-size="90.0" fill="#FEFFFF" transform="matrix(1.00, 0.00, -0.00, -1.00, 1163.5, 693.3)">e</text><text xml:space="preserve" font-family="Marion-Italic,Marion" font-style="italic" font-size="90.0" fill="#FEFFFF" transform="matrix(1.00, 0.00, -0.00, -1.00, 1194.8, 693.3)">r</text><text xml:space="preserve" font-family="Marion-Italic,Marion" font-style="italic" font-size="90.0" fill="#FEFFFF" transform="matrix(1.00, 0.00, -0.00, -1.00, 1222.5, 693.3)">s</text><text xml:space="preserve" font-family="Marion-Regular,Marion" font-size="90.0" fill="#FEFFFF" transform="matrix(1.00, 0.00, -0.00, -1.00, 1248.2, 693.3)"> </text><text xml:space="preserve" font-family="Marion-Regular,Marion" font-size="90.0" fill="#FEFFFF" transform="matrix(1.00, 0.00, -0.00, -1.00, 1275.2, 693.3)">r</text><text xml:space="preserve" font-family="Marion-Regular,Marion" font-size="90.0" fill="#FEFFFF" transform="matrix(1.00, 0.00, -0.00, -1.00, 1309.5, 693.3)">e</text><text xml:space="preserve" font-family="Marion-Regular,Marion" font-size="90.0" fill="#FEFFFF" transform="matrix(1.00, 0.00, -0.00, -1.00, 1348.2, 693.3)">b</text><text xml:space="preserve" font-family="Marion-Regular,Marion" font-size="90.0" fill="#FEFFFF" transform="matrix(1.00, 0.00, -0.00, -1.00, 1392.6, 693.3)">u</text><text xml:space="preserve" font-family="Marion-Regular,Marion" font-size="90.0" fill="#FEFFFF" transform="matrix(1.00, 0.00, -0.00, -1.00, 1440.9, 693.3)">i</text><text xml:space="preserve" font-family="Marion-Regular,Marion" font-size="90.0" fill="#FEFFFF" transform="matrix(1.00, 0.00, -0.00, -1.00, 1467.3, 693.3)">l</text><text xml:space="preserve" font-family="Marion-Regular,Marion" font-size="90.0" fill="#FEFFFF" transform="matrix(1.00, 0.00, -0.00, -1.00, 1493.8, 693.3)">d</text><text xml:space="preserve" font-family="Marion-Regular,Marion" font-size="90.0" fill="#FEFFFF" transform="matrix(1.00, 0.00, -0.00, -1.00, 1538.9, 693.3)">i</text><text xml:space="preserve" font-family="Marion-Regular,Marion" font-size="90.0" fill="#FEFFFF" transform="matrix(1.00, 0.00, -0.00, -1.00, 1565.3, 693.3)">n</text><text xml:space="preserve" font-family="Marion-Regular,Marion" font-size="90.0" fill="#FEFFFF" transform="matrix(1.00, 0.00, -0.00, -1.00, 1615.1, 693.3)">g</text><text xml:space="preserve" font-family="Marion-Regular,Marion" font-size="90.0" fill="#FEFFFF" transform="matrix(1.00, 0.00, -0.00, -1.00, 1655.7, 693.3)"> </text><text xml:space="preserve" font-family="Marion-Regular,Marion" font-size="90.0" fill="#FEFFFF" transform="matrix(1.00, 0.00, -0.00, -1.00, 217.3, 598.3)">t</text><text xml:space="preserve" font-family="Marion-Regular,Marion" font-size="90.0" fill="#FEFFFF" transform="matrix(1.00, 0.00, -0.00, -1.00, 244.0, 598.3)">h</text><text xml:space="preserve" font-family="Marion-Regular,Marion" font-size="90.0" fill="#FEFFFF" transform="matrix(1.00, 0.00, -0.00, -1.00, 295.3, 598.3)">e</text><text xml:space="preserve" font-family="Marion-Regular,Marion" font-size="90.0" fill="#FEFFFF" transform="matrix(1.00, 0.00, -0.00, -1.00, 334.0, 598.3)">i</text><text xml:space="preserve" font-family="Marion-Regular,Marion" font-size="90.0" fill="#FEFFFF" transform="matrix(1.00, 0.00, -0.00, -1.00, 360.5, 598.3)">r</text><text xml:space="preserve" font-family="Marion-Regular,Marion" font-size="90.0" fill="#FEFFFF" transform="matrix(1.00, 0.00, -0.00, -1.00, 394.8, 598.3)"> </text><text xml:space="preserve" font-family="Marion-Regular,Marion" font-size="90.0" fill="#FEFFFF" transform="matrix(1.00, 0.00, -0.00, -1.00, 421.8, 598.3)">s</text><text xml:space="preserve" font-family="Marion-Regular,Marion" font-size="90.0" fill="#FEFFFF" transform="matrix(1.00, 0.00, -0.00, -1.00, 454.4, 598.3)">i</text><text xml:space="preserve" font-family="Marion-Regular,Marion" font-size="90.0" fill="#FEFFFF" transform="matrix(1.00, 0.00, -0.00, -1.00, 480.8, 598.3)">t</text><text xml:space="preserve" font-family="Marion-Regular,Marion" font-size="90.0" fill="#FEFFFF" transform="matrix(1.00, 0.00, -0.00, -1.00, 507.6, 598.3)">e</text><text xml:space="preserve" font-family="Marion-Regular,Marion" font-size="90.0" fill="#FEFFFF" transform="matrix(1.00, 0.00, -0.00, -1.00, 546.3, 598.3)"> </text><text xml:space="preserve" font-family="Marion-Regular,Marion" font-size="90.0" fill="#FEFFFF" transform="matrix(1.00, 0.00, -0.00, -1.00, 573.3, 598.3)">t</text><text xml:space="preserve" font-family="Marion-Regular,Marion" font-size="90.0" fill="#FEFFFF" transform="matrix(1.00, 0.00, -0.00, -1.00, 600.0, 598.3)">o</text><text xml:space="preserve" font-family="Marion-Regular,Marion" font-size="90.0" fill="#FEFFFF" transform="matrix(1.00, 0.00, -0.00, -1.00, 641.9, 598.3)"> </text><text xml:space="preserve" font-family="Marion-Regular,Marion" font-size="90.0" fill="#FEFFFF" transform="matrix(1.00, 0.00, -0.00, -1.00, 668.9, 598.3)">r</text><text xml:space="preserve" font-family="Marion-Regular,Marion" font-size="90.0" fill="#FEFFFF" transform="matrix(1.00, 0.00, -0.00, -1.00, 703.2, 598.3)">e</text><text xml:space="preserve" font-family="Marion-Regular,Marion" font-size="90.0" fill="#FEFFFF" transform="matrix(1.00, 0.00, -0.00, -1.00, 741.9, 598.3)">n</text><text xml:space="preserve" font-family="Marion-Regular,Marion" font-size="90.0" fill="#FEFFFF" transform="matrix(1.00, 0.00, -0.00, -1.00, 791.7, 598.3)">d</text><text xml:space="preserve" font-family="Marion-Regular,Marion" font-size="90.0" fill="#FEFFFF" transform="matrix(1.00, 0.00, -0.00, -1.00, 836.8, 598.3)">e</text><text xml:space="preserve" font-family="Marion-Regular,Marion" font-size="90.0" fill="#FEFFFF" transform="matrix(1.00, 0.00, -0.00, -1.00, 875.5, 598.3)">r</text><text xml:space="preserve" font-family="Marion-Regular,Marion" font-size="90.0" fill="#FEFFFF" transform="matrix(1.00, 0.00, -0.00, -1.00, 909.8, 598.3)"> </text><text xml:space="preserve" font-family="Marion-Regular,Marion" font-size="90.0" fill="#FEFFFF" transform="matrix(1.00, 0.00, -0.00, -1.00, 936.8, 598.3)">o</text><text xml:space="preserve" font-family="Marion-Regular,Marion" font-size="90.0" fill="#FEFFFF" transform="matrix(1.00, 0.00, -0.00, -1.00, 978.7, 598.3)">n</text><text xml:space="preserve" font-family="Marion-Regular,Marion" font-size="90.0" fill="#FEFFFF" transform="matrix(1.00, 0.00, -0.00, -1.00, 1028.5, 598.3)"> </text><text xml:space="preserve" font-family="Marion-Regular,Marion" font-size="90.0" fill="#FEFFFF" transform="matrix(1.00, 0.00, -0.00, -1.00, 1055.5, 598.3)">t</text><text xml:space="preserve" font-family="Marion-Regular,Marion" font-size="90.0" fill="#FEFFFF" transform="matrix(1.00, 0.00, -0.00, -1.00, 1082.2, 598.3)">h</text><text xml:space="preserve" font-family="Marion-Regular,Marion" font-size="90.0" fill="#FEFFFF" transform="matrix(1.00, 0.00, -0.00, -1.00, 1133.5, 598.3)">e</text><text xml:space="preserve" font-family="Marion-Regular,Marion" font-size="90.0" fill="#FEFFFF" transform="matrix(1.00, 0.00, -0.00, -1.00, 1172.2, 598.3)"> </text><text xml:space="preserve" font-family="Marion-Regular,Marion" font-size="90.0" fill="#FEFFFF" transform="matrix(1.00, 0.00, -0.00, -1.00, 1199.2, 598.3)">s</text><text xml:space="preserve" font-family="Marion-Regular,Marion" font-size="90.0" fill="#FEFFFF" transform="matrix(1.00, 0.00, -0.00, -1.00, 1231.8, 598.3)">e</text><text xml:space="preserve" font-family="Marion-Regular,Marion" font-size="90.0" fill="#FEFFFF" transform="matrix(1.00, 0.00, -0.00, -1.00, 1270.5, 598.3)">r</text><text xml:space="preserve" font-family="Marion-Regular,Marion" font-size="90.0" fill="#FEFFFF" transform="matrix(1.00, 0.00, -0.00, -1.00, 1304.8, 598.3)">v</text><text xml:space="preserve" font-family="Marion-Regular,Marion" font-size="90.0" fill="#FEFFFF" transform="matrix(1.00, 0.00, -0.00, -1.00, 1342.5, 598.3)">e</text><text xml:space="preserve" font-family="Marion-Regular,Marion" font-size="90.0" fill="#FEFFFF" transform="matrix(1.00, 0.00, -0.00, -1.00, 1381.2, 598.3)">r</text><text xml:space="preserve" font-family="Marion-Regular,Marion" font-size="90.0" fill="#FEFFFF" transform="matrix(1.00, 0.00, -0.00, -1.00, 1415.5, 598.3)"> </text><text xml:space="preserve" font-family="Marion-Regular,Marion" font-size="90.0" fill="#FEFFFF" transform="matrix(1.00, 0.00, -0.00, -1.00, 1442.5, 598.3)">i</text><text xml:space="preserve" font-family="Marion-Regular,Marion" font-size="90.0" fill="#FEFFFF" transform="matrix(1.00, 0.00, -0.00, -1.00, 1468.9, 598.3)">n</text><text xml:space="preserve" font-family="Marion-Regular,Marion" font-size="90.0" fill="#FEFFFF" transform="matrix(1.00, 0.00, -0.00, -1.00, 1518.7, 598.3)">s</text><text xml:space="preserve" font-family="Marion-Regular,Marion" font-size="90.0" fill="#FEFFFF" transform="matrix(1.00, 0.00, -0.00, -1.00, 1551.3, 598.3)">t</text><text xml:space="preserve" font-family="Marion-Regular,Marion" font-size="90.0" fill="#FEFFFF" transform="matrix(1.00, 0.00, -0.00, -1.00, 1578.0, 598.3)">e</text><text xml:space="preserve" font-family="Marion-Regular,Marion" font-size="90.0" fill="#FEFFFF" transform="matrix(1.00, 0.00, -0.00, -1.00, 1616.7, 598.3)">a</text><text xml:space="preserve" font-family="Marion-Regular,Marion" font-size="90.0" fill="#FEFFFF" transform="matrix(1.00, 0.00, -0.00, -1.00, 1656.6, 598.3)">d</text><text xml:space="preserve" font-family="Marion-Regular,Marion" font-size="90.0" fill="#FEFFFF" transform="matrix(1.00, 0.00, -0.00, -1.00, 1701.7, 598.3)"> </text><text xml:space="preserve" font-family="Marion-Regular,Marion" font-size="90.0" fill="#FEFFFF" transform="matrix(1.00, 0.00, -0.00, -1.00, 210.1, 503.3)">o</text><text xml:space="preserve" font-family="Marion-Regular,Marion" font-size="90.0" fill="#FEFFFF" transform="matrix(1.00, 0.00, -0.00, -1.00, 252.1, 503.3)">f</text><text xml:space="preserve" font-family="Marion-Regular,Marion" font-size="90.0" fill="#FEFFFF" transform="matrix(1.00, 0.00, -0.00, -1.00, 278.9, 503.3)"> </text><text xml:space="preserve" font-family="Marion-Regular,Marion" font-size="90.0" fill="#FEFFFF" transform="matrix(1.00, 0.00, -0.00, -1.00, 305.9, 503.3)">t</text><text xml:space="preserve" font-family="Marion-Regular,Marion" font-size="90.0" fill="#FEFFFF" transform="matrix(1.00, 0.00, -0.00, -1.00, 332.6, 503.3)">h</text><text xml:space="preserve" font-family="Marion-Regular,Marion" font-size="90.0" fill="#FEFFFF" transform="matrix(1.00, 0.00, -0.00, -1.00, 383.9, 503.3)">e</text><text xml:space="preserve" font-family="Marion-Regular,Marion" font-size="90.0" fill="#FEFFFF" transform="matrix(1.00, 0.00, -0.00, -1.00, 422.6, 503.3)"> </text><text xml:space="preserve" font-family="Marion-Regular,Marion" font-size="90.0" fill="#FEFFFF" transform="matrix(1.00, 0.00, -0.00, -1.00, 449.6, 503.3)">c</text><text xml:space="preserve" font-family="Marion-Regular,Marion" font-size="90.0" fill="#FEFFFF" transform="matrix(1.00, 0.00, -0.00, -1.00, 485.9, 503.3)">l</text><text xml:space="preserve" font-family="Marion-Regular,Marion" font-size="90.0" fill="#FEFFFF" transform="matrix(1.00, 0.00, -0.00, -1.00, 512.3, 503.3)">i</text><text xml:space="preserve" font-family="Marion-Regular,Marion" font-size="90.0" fill="#FEFFFF" transform="matrix(1.00, 0.00, -0.00, -1.00, 538.8, 503.3)">e</text><text xml:space="preserve" font-family="Marion-Regular,Marion" font-size="90.0" fill="#FEFFFF" transform="matrix(1.00, 0.00, -0.00, -1.00, 577.5, 503.3)">n</text><text xml:space="preserve" font-family="Marion-Regular,Marion" font-size="90.0" fill="#FEFFFF" transform="matrix(1.00, 0.00, -0.00, -1.00, 627.3, 503.3)">t</text><text xml:space="preserve" font-family="Marion-Regular,Marion" font-size="90.0" fill="#FEFFFF" transform="matrix(1.00, 0.00, -0.00, -1.00, 654.0, 503.3)">,</text><text xml:space="preserve" font-family="Marion-Regular,Marion" font-size="90.0" fill="#FEFFFF" transform="matrix(1.00, 0.00, -0.00, -1.00, 676.7, 503.3)"> </text><text xml:space="preserve" font-family="Marion-Regular,Marion" font-size="90.0" fill="#FEFFFF" transform="matrix(1.00, 0.00, -0.00, -1.00, 703.7, 503.3)">c</text><text xml:space="preserve" font-family="Marion-Regular,Marion" font-size="90.0" fill="#FEFFFF" transform="matrix(1.00, 0.00, -0.00, -1.00, 739.9, 503.3)">l</text><text xml:space="preserve" font-family="Marion-Regular,Marion" font-size="90.0" fill="#FEFFFF" transform="matrix(1.00, 0.00, -0.00, -1.00, 766.4, 503.3)">a</text><text xml:space="preserve" font-family="Marion-Regular,Marion" font-size="90.0" fill="#FEFFFF" transform="matrix(1.00, 0.00, -0.00, -1.00, 806.3, 503.3)">i</text><text xml:space="preserve" font-family="Marion-Regular,Marion" font-size="90.0" fill="#FEFFFF" transform="matrix(1.00, 0.00, -0.00, -1.00, 832.7, 503.3)">m</text><text xml:space="preserve" font-family="Marion-Regular,Marion" font-size="90.0" fill="#FEFFFF" transform="matrix(1.00, 0.00, -0.00, -1.00, 904.7, 503.3)">i</text><text xml:space="preserve" font-family="Marion-Regular,Marion" font-size="90.0" fill="#FEFFFF" transform="matrix(1.00, 0.00, -0.00, -1.00, 931.2, 503.3)">n</text><text xml:space="preserve" font-family="Marion-Regular,Marion" font-size="90.0" fill="#FEFFFF" transform="matrix(1.00, 0.00, -0.00, -1.00, 981.0, 503.3)">g</text><text xml:space="preserve" font-family="Marion-Regular,Marion" font-size="90.0" fill="#FEFFFF" transform="matrix(1.00, 0.00, -0.00, -1.00, 1021.6, 503.3)"> </text><text xml:space="preserve" font-family="Marion-Regular,Marion" font-size="90.0" fill="#FEFFFF" transform="matrix(1.00, 0.00, -0.00, -1.00, 1048.6, 503.3)">a</text><text xml:space="preserve" font-family="Marion-Regular,Marion" font-size="90.0" fill="#FEFFFF" transform="matrix(1.00, 0.00, -0.00, -1.00, 1088.4, 503.3)"> </text><text xml:space="preserve" font-family="Marion-Italic,Marion" font-style="italic" font-size="90.0" fill="#FEFFFF" transform="matrix(1.00, 0.00, -0.00, -1.00, 1115.4, 503.3)">5</text><text xml:space="preserve" font-family="Marion-Italic,Marion" font-style="italic" font-size="90.0" fill="#FEFFFF" transform="matrix(1.00, 0.00, -0.00, -1.00, 1153.0, 503.3)">x</text><text xml:space="preserve" font-family="Marion-Italic,Marion" font-style="italic" font-size="90.0" fill="#FEFFFF" transform="matrix(1.00, 0.00, -0.00, -1.00, 1188.9, 503.3)"> </text><text xml:space="preserve" font-family="Marion-Italic,Marion" font-style="italic" font-size="90.0" fill="#FEFFFF" transform="matrix(1.00, 0.00, -0.00, -1.00, 1210.6, 503.3)">i</text><text xml:space="preserve" font-family="Marion-Italic,Marion" font-style="italic" font-size="90.0" fill="#FEFFFF" transform="matrix(1.00, 0.00, -0.00, -1.00, 1230.7, 503.3)">m</text><text xml:space="preserve" font-family="Marion-Italic,Marion" font-style="italic" font-size="90.0" fill="#FEFFFF" transform="matrix(1.00, 0.00, -0.00, -1.00, 1287.9, 503.3)">p</text><text xml:space="preserve" font-family="Marion-Italic,Marion" font-style="italic" font-size="90.0" fill="#FEFFFF" transform="matrix(1.00, 0.00, -0.00, -1.00, 1325.6, 503.3)">r</text><text xml:space="preserve" font-family="Marion-Italic,Marion" font-style="italic" font-size="90.0" fill="#FEFFFF" transform="matrix(1.00, 0.00, -0.00, -1.00, 1353.3, 503.3)">o</text><text xml:space="preserve" font-family="Marion-Italic,Marion" font-style="italic" font-size="90.0" fill="#FEFFFF" transform="matrix(1.00, 0.00, -0.00, -1.00, 1390.0, 503.3)">v</text><text xml:space="preserve" font-family="Marion-Italic,Marion" font-style="italic" font-size="90.0" fill="#FEFFFF" transform="matrix(1.00, 0.00, -0.00, -1.00, 1423.1, 503.3)">e</text><text xml:space="preserve" font-family="Marion-Italic,Marion" font-style="italic" font-size="90.0" fill="#FEFFFF" transform="matrix(1.00, 0.00, -0.00, -1.00, 1454.5, 503.3)">m</text><text xml:space="preserve" font-family="Marion-Italic,Marion" font-style="italic" font-size="90.0" fill="#FEFFFF" transform="matrix(1.00, 0.00, -0.00, -1.00, 1511.6, 503.3)">e</text><text xml:space="preserve" font-family="Marion-Italic,Marion" font-style="italic" font-size="90.0" fill="#FEFFFF" transform="matrix(1.00, 0.00, -0.00, -1.00, 1542.9, 503.3)">n</text><text xml:space="preserve" font-family="Marion-Italic,Marion" font-style="italic" font-size="90.0" fill="#FEFFFF" transform="matrix(1.00, 0.00, -0.00, -1.00, 1583.0, 503.3)">t</text><text xml:space="preserve" font-family="Marion-Regular,Marion" font-size="90.0" fill="#FEFFFF" transform="matrix(1.00, 0.00, -0.00, -1.00, 1605.7, 503.3)"> </text><text xml:space="preserve" font-family="Marion-Regular,Marion" font-size="90.0" fill="#FEFFFF" transform="matrix(1.00, 0.00, -0.00, -1.00, 1632.7, 503.3)">i</text><text xml:space="preserve" font-family="Marion-Regular,Marion" font-size="90.0" fill="#FEFFFF" transform="matrix(1.00, 0.00, -0.00, -1.00, 1659.1, 503.3)">n</text><text xml:space="preserve" font-family="Marion-Regular,Marion" font-size="90.0" fill="#FEFFFF" transform="matrix(1.00, 0.00, -0.00, -1.00, 1708.9, 503.3)"> </text><text xml:space="preserve" font-family="Marion-Regular,Marion" font-size="90.0" fill="#FEFFFF" transform="matrix(1.00, 0.00, -0.00, -1.00, 527.8, 408.3)">p</text><text xml:space="preserve" font-family="Marion-Regular,Marion" font-size="90.0" fill="#FEFFFF" transform="matrix(1.00, 0.00, -0.00, -1.00, 572.5, 408.3)">e</text><text xml:space="preserve" font-family="Marion-Regular,Marion" font-size="90.0" fill="#FEFFFF" transform="matrix(1.00, 0.00, -0.00, -1.00, 611.2, 408.3)">r</text><text xml:space="preserve" font-family="Marion-Regular,Marion" font-size="90.0" fill="#FEFFFF" transform="matrix(1.00, 0.00, -0.00, -1.00, 645.5, 408.3)">c</text><text xml:space="preserve" font-family="Marion-Regular,Marion" font-size="90.0" fill="#FEFFFF" transform="matrix(1.00, 0.00, -0.00, -1.00, 681.8, 408.3)">e</text><text xml:space="preserve" font-family="Marion-Regular,Marion" font-size="90.0" fill="#FEFFFF" transform="matrix(1.00, 0.00, -0.00, -1.00, 720.5, 408.3)">i</text><text xml:space="preserve" font-family="Marion-Regular,Marion" font-size="90.0" fill="#FEFFFF" transform="matrix(1.00, 0.00, -0.00, -1.00, 746.9, 408.3)">v</text><text xml:space="preserve" font-family="Marion-Regular,Marion" font-size="90.0" fill="#FEFFFF" transform="matrix(1.00, 0.00, -0.00, -1.00, 784.6, 408.3)">e</text><text xml:space="preserve" font-family="Marion-Regular,Marion" font-size="90.0" fill="#FEFFFF" transform="matrix(1.00, 0.00, -0.00, -1.00, 823.3, 408.3)">d</text><text xml:space="preserve" font-family="Marion-Regular,Marion" font-size="90.0" fill="#FEFFFF" transform="matrix(1.00, 0.00, -0.00, -1.00, 868.4, 408.3)"> </text><text xml:space="preserve" font-family="Marion-Regular,Marion" font-size="90.0" fill="#FEFFFF" transform="matrix(1.00, 0.00, -0.00, -1.00, 895.4, 408.3)">l</text><text xml:space="preserve" font-family="Marion-Regular,Marion" font-size="90.0" fill="#FEFFFF" transform="matrix(1.00, 0.00, -0.00, -1.00, 921.9, 408.3)">o</text><text xml:space="preserve" font-family="Marion-Regular,Marion" font-size="90.0" fill="#FEFFFF" transform="matrix(1.00, 0.00, -0.00, -1.00, 963.8, 408.3)">a</text><text xml:space="preserve" font-family="Marion-Regular,Marion" font-size="90.0" fill="#FEFFFF" transform="matrix(1.00, 0.00, -0.00, -1.00, 1003.7, 408.3)">d</text><text xml:space="preserve" font-family="Marion-Regular,Marion" font-size="90.0" fill="#FEFFFF" transform="matrix(1.00, 0.00, -0.00, -1.00, 1048.8, 408.3)">i</text><text xml:space="preserve" font-family="Marion-Regular,Marion" font-size="90.0" fill="#FEFFFF" transform="matrix(1.00, 0.00, -0.00, -1.00, 1075.2, 408.3)">n</text><text xml:space="preserve" font-family="Marion-Regular,Marion" font-size="90.0" fill="#FEFFFF" transform="matrix(1.00, 0.00, -0.00, -1.00, 1125.0, 408.3)">g</text><text xml:space="preserve" font-family="Marion-Regular,Marion" font-size="90.0" fill="#FEFFFF" transform="matrix(1.00, 0.00, -0.00, -1.00, 1165.6, 408.3)"> </text><text xml:space="preserve" font-family="Marion-Regular,Marion" font-size="90.0" fill="#FEFFFF" transform="matrix(1.00, 0.00, -0.00, -1.00, 1192.6, 408.3)">t</text><text xml:space="preserve" font-family="Marion-Regular,Marion" font-size="90.0" fill="#FEFFFF" transform="matrix(1.00, 0.00, -0.00, -1.00, 1219.3, 408.3)">i</text><text xml:space="preserve" font-family="Marion-Regular,Marion" font-size="90.0" fill="#FEFFFF" transform="matrix(1.00, 0.00, -0.00, -1.00, 1245.8, 408.3)">m</text><text xml:space="preserve" font-family="Marion-Regular,Marion" font-size="90.0" fill="#FEFFFF" transform="matrix(1.00, 0.00, -0.00, -1.00, 1317.8, 408.3)">e</text><text xml:space="preserve" font-family="Marion-Regular,Marion" font-size="90.0" fill="#FEFFFF" transform="matrix(1.00, 0.00, -0.00, -1.00, 1356.5, 408.3)">”</text><text xml:space="preserve" font-family="Marion-Regular,Marion" font-size="90.0" fill="#FEFFFF" transform="matrix(1.00, 0.00, -0.00, -1.00, 1391.2, 408.3)"> </text><text xml:space="preserve" font-family="Marion-Regular,Marion" font-size="112.0" fill="#FEFFFF" transform="matrix(1.00, 0.00, -0.00, -1.00, 747.6, 939.3)">T</text><text xml:space="preserve" font-family="Marion-Regular,Marion" font-size="112.0" fill="#FEFFFF" transform="matrix(1.00, 0.00, -0.00, -1.00, 813.0, 939.3)">w</text><text xml:space="preserve" font-family="Marion-Regular,Marion" font-size="112.0" fill="#FEFFFF" transform="matrix(1.00, 0.00, -0.00, -1.00, 887.1, 939.3)">i</text><text xml:space="preserve" font-family="Marion-Regular,Marion" font-size="112.0" fill="#FEFFFF" transform="matrix(1.00, 0.00, -0.00, -1.00, 920.1, 939.3)">t</text><text xml:space="preserve" font-family="Marion-Regular,Marion" font-size="112.0" fill="#FEFFFF" transform="matrix(1.00, 0.00, -0.00, -1.00, 953.3, 939.3)">t</text><text xml:space="preserve" font-family="Marion-Regular,Marion" font-size="112.0" fill="#FEFFFF" transform="matrix(1.00, 0.00, -0.00, -1.00, 986.6, 939.3)">e</text><text xml:space="preserve" font-family="Marion-Regular,Marion" font-size="112.0" fill="#FEFFFF" transform="matrix(1.00, 0.00, -0.00, -1.00, 1034.8, 939.3)">r</text><text xml:space="preserve" font-family="Marion-Regular,Marion" font-size="112.0" fill="#FEFFFF" transform="matrix(1.00, 0.00, -0.00, -1.00, 1077.4, 939.3)">…</text></g></svg>