<?xml version="1.0" encoding="UTF-8" standalone="no"?><svg xmlns="http://www.w3.org/2000/svg" xmlns:xlink="http://www.w3.org/1999/xlink" clip-rule="evenodd" stroke-miterlimit="10" viewBox="0 0 1920 1080"><desc>SVG generated by Keynote</desc><defs></defs><g transform="matrix(1.00, 0.00, -0.00, -1.00, 0.0, 1080.0)"><g><clipPath id="clip0x7fdaa2a0da90"><path d="M 0.0 1080.0 L 1920.0 1080.0 L 1920.0 0.0 L 0.0 0.0 Z M 0.0 1080.0 "></path></clipPath><g clip-path="url(#clip0x7fdaa2a0da90)"><image xlink:href="../../18DBF37F-4768-4907-A96E-9B8555C8012F/assets/A81AF0278930B93F47F55E5BB6D3A023.png" width="1920.00" height="1080.00" transform="matrix(1.00, 0.00, -0.00, -1.00, 0.0, 1080.0)"></image></g></g><text xml:space="preserve" font-family="Marion-Regular,Marion" font-size="112.0" fill="#FEFFFF" transform="matrix(1.00, 0.00, -0.00, -1.00, 553.6, 939.3)">H</text><text xml:space="preserve" font-family="Marion-Regular,Marion" font-size="112.0" fill="#FEFFFF" transform="matrix(1.00, 0.00, -0.00, -1.00, 644.8, 939.3)">i</text><text xml:space="preserve" font-family="Marion-Regular,Marion" font-size="112.0" fill="#FEFFFF" transform="matrix(1.00, 0.00, -0.00, -1.00, 677.8, 939.3)">s</text><text xml:space="preserve" font-family="Marion-Regular,Marion" font-size="112.0" fill="#FEFFFF" transform="matrix(1.00, 0.00, -0.00, -1.00, 718.3, 939.3)">t</text><text xml:space="preserve" font-family="Marion-Regular,Marion" font-size="112.0" fill="#FEFFFF" transform="matrix(1.00, 0.00, -0.00, -1.00, 751.6, 939.3)">o</text><text xml:space="preserve" font-family="Marion-Regular,Marion" font-size="112.0" fill="#FEFFFF" transform="matrix(1.00, 0.00, -0.00, -1.00, 803.8, 939.3)">r</text><text xml:space="preserve" font-family="Marion-Regular,Marion" font-size="112.0" fill="#FEFFFF" transform="matrix(1.00, 0.00, -0.00, -1.00, 846.4, 939.3)">y</text><text xml:space="preserve" font-family="Marion-Regular,Marion" font-size="112.0" fill="#FEFFFF" transform="matrix(1.00, 0.00, -0.00, -1.00, 895.2, 939.3)">.</text><text xml:space="preserve" font-family="Marion-Regular,Marion" font-size="112.0" fill="#FEFFFF" transform="matrix(1.00, 0.00, -0.00, -1.00, 921.4, 939.3)">p</text><text xml:space="preserve" font-family="Marion-Regular,Marion" font-size="112.0" fill="#FEFFFF" transform="matrix(1.00, 0.00, -0.00, -1.00, 977.0, 939.3)">u</text><text xml:space="preserve" font-family="Marion-Regular,Marion" font-size="112.0" fill="#FEFFFF" transform="matrix(1.00, 0.00, -0.00, -1.00, 1037.1, 939.3)">s</text><text xml:space="preserve" font-family="Marion-Regular,Marion" font-size="112.0" fill="#FEFFFF" transform="matrix(1.00, 0.00, -0.00, -1.00, 1077.6, 939.3)">h</text><text xml:space="preserve" font-family="Marion-Regular,Marion" font-size="112.0" fill="#FEFFFF" transform="matrix(1.00, 0.00, -0.00, -1.00, 1141.4, 939.3)">S</text><text xml:space="preserve" font-family="Marion-Regular,Marion" font-size="112.0" fill="#FEFFFF" transform="matrix(1.00, 0.00, -0.00, -1.00, 1202.1, 939.3)">t</text><text xml:space="preserve" font-family="Marion-Regular,Marion" font-size="112.0" fill="#FEFFFF" transform="matrix(1.00, 0.00, -0.00, -1.00, 1235.4, 939.3)">a</text><text xml:space="preserve" font-family="Marion-Regular,Marion" font-size="112.0" fill="#FEFFFF" transform="matrix(1.00, 0.00, -0.00, -1.00, 1285.0, 939.3)">t</text><text xml:space="preserve" font-family="Marion-Regular,Marion" font-size="112.0" fill="#FEFFFF" transform="matrix(1.00, 0.00, -0.00, -1.00, 1318.3, 939.3)">e</text><g><clipPath id="clip0x7fdaa290c960"><path d="M 329.7 633.8 L 427.5 633.8 L 427.5 731.6 L 329.7 731.6 Z M 329.7 633.8 "></path></clipPath><g clip-path="url(#clip0x7fdaa290c960)"><image xlink:href="7FBEFAB75BF4671AF8F84002D54BEEFB.png" width="256.00" height="256.00" transform="matrix(0.38, 0.00, -0.00, -0.38, 329.7, 731.6)"></image></g></g><g><clipPath id="clip0x7fdaa2a0f8e0"><path d="M 455.3 635.5 L 682.5 635.5 L 682.5 729.9 L 455.3 729.9 Z M 455.3 635.5 "></path></clipPath><g clip-path="url(#clip0x7fdaa2a0f8e0)"><text xml:space="preserve" font-family="SourceSansPro-Regular,Source Sans Pro" font-size="50.0" fill="#FEFFFF" transform="matrix(1.00, 0.00, -0.00, -1.00, 471.5, 664.8)">M</text><text xml:space="preserve" font-family="SourceSansPro-Regular,Source Sans Pro" font-size="50.0" fill="#FEFFFF" transform="matrix(1.00, 0.00, -0.00, -1.00, 507.8, 664.8)">a</text><text xml:space="preserve" font-family="SourceSansPro-Regular,Source Sans Pro" font-size="50.0" fill="#FEFFFF" transform="matrix(1.00, 0.00, -0.00, -1.00, 533.4, 664.8)">y</text><text xml:space="preserve" font-family="SourceSansPro-Regular,Source Sans Pro" font-size="50.0" fill="#FEFFFF" transform="matrix(1.00, 0.00, -0.00, -1.00, 556.8, 664.8)"> </text><text xml:space="preserve" font-family="SourceSansPro-Regular,Source Sans Pro" font-size="50.0" fill="#FEFFFF" transform="matrix(1.00, 0.00, -0.00, -1.00, 566.9, 664.8)">2</text><text xml:space="preserve" font-family="SourceSansPro-Regular,Source Sans Pro" font-size="50.0" fill="#FEFFFF" transform="matrix(1.00, 0.00, -0.00, -1.00, 591.7, 664.8)">0</text><text xml:space="preserve" font-family="SourceSansPro-Regular,Source Sans Pro" font-size="50.0" fill="#FEFFFF" transform="matrix(1.00, 0.00, -0.00, -1.00, 616.6, 664.8)">1</text><text xml:space="preserve" font-family="SourceSansPro-Regular,Source Sans Pro" font-size="50.0" fill="#FEFFFF" transform="matrix(1.00, 0.00, -0.00, -1.00, 641.4, 664.8)">0</text></g></g><g><clipPath id="clip0x7fdaa2a19170"><path d="M 329.7 491.1 L 427.5 491.1 L 427.5 588.9 L 329.7 588.9 Z M 329.7 491.1 "></path></clipPath><g clip-path="url(#clip0x7fdaa2a19170)"><image xlink:href="CC7167B183FD026F722A5A6F90EABE71.png" width="1024.00" height="1024.00" transform="matrix(0.10, 0.00, -0.00, -0.10, 329.7, 588.9)"></image></g></g><g><clipPath id="clip0x7fdaa290d9b0"><path d="M 458.1 492.8 L 818.6 492.8 L 818.6 587.2 L 458.1 587.2 Z M 458.1 492.8 "></path></clipPath><g clip-path="url(#clip0x7fdaa290d9b0)"><text xml:space="preserve" font-family="SourceSansPro-Regular,Source Sans Pro" font-size="50.0" fill="#FEFFFF" transform="matrix(1.00, 0.00, -0.00, -1.00, 474.3, 522.1)">N</text><text xml:space="preserve" font-family="SourceSansPro-Regular,Source Sans Pro" font-size="50.0" fill="#FEFFFF" transform="matrix(1.00, 0.00, -0.00, -1.00, 506.6, 522.1)">o</text><text xml:space="preserve" font-family="SourceSansPro-Regular,Source Sans Pro" font-size="50.0" fill="#FEFFFF" transform="matrix(1.00, 0.00, -0.00, -1.00, 533.5, 522.1)">v</text><text xml:space="preserve" font-family="SourceSansPro-Regular,Source Sans Pro" font-size="50.0" fill="#FEFFFF" transform="matrix(1.00, 0.00, -0.00, -1.00, 556.7, 522.1)">e</text><text xml:space="preserve" font-family="SourceSansPro-Regular,Source Sans Pro" font-size="50.0" fill="#FEFFFF" transform="matrix(1.00, 0.00, -0.00, -1.00, 581.5, 522.1)">m</text><text xml:space="preserve" font-family="SourceSansPro-Regular,Source Sans Pro" font-size="50.0" fill="#FEFFFF" transform="matrix(1.00, 0.00, -0.00, -1.00, 622.9, 522.1)">b</text><text xml:space="preserve" font-family="SourceSansPro-Regular,Source Sans Pro" font-size="50.0" fill="#FEFFFF" transform="matrix(1.00, 0.00, -0.00, -1.00, 650.7, 522.1)">e</text><text xml:space="preserve" font-family="SourceSansPro-Regular,Source Sans Pro" font-size="50.0" fill="#FEFFFF" transform="matrix(1.00, 0.00, -0.00, -1.00, 675.5, 522.1)">r</text><text xml:space="preserve" font-family="SourceSansPro-Regular,Source Sans Pro" font-size="50.0" fill="#FEFFFF" transform="matrix(1.00, 0.00, -0.00, -1.00, 692.8, 522.1)"> </text><text xml:space="preserve" font-family="SourceSansPro-Regular,Source Sans Pro" font-size="50.0" fill="#FEFFFF" transform="matrix(1.00, 0.00, -0.00, -1.00, 702.9, 522.1)">2</text><text xml:space="preserve" font-family="SourceSansPro-Regular,Source Sans Pro" font-size="50.0" fill="#FEFFFF" transform="matrix(1.00, 0.00, -0.00, -1.00, 727.8, 522.1)">0</text><text xml:space="preserve" font-family="SourceSansPro-Regular,Source Sans Pro" font-size="50.0" fill="#FEFFFF" transform="matrix(1.00, 0.00, -0.00, -1.00, 752.6, 522.1)">1</text><text xml:space="preserve" font-family="SourceSansPro-Regular,Source Sans Pro" font-size="50.0" fill="#FEFFFF" transform="matrix(1.00, 0.00, -0.00, -1.00, 777.5, 522.1)">0</text></g></g><g><clipPath id="clip0x7fdaa2914120"><path d="M 330.0 446.0 L 428.0 446.0 L 428.0 348.0 L 330.0 348.0 Z M 329.7 446.2 "></path></clipPath><g clip-path="url(#clip0x7fdaa2914120)"><g><clipPath id="clip0x7fdaa29148a0"><path d="M 329.7 348.4 L 427.5 348.4 L 427.5 446.2 L 329.7 446.2 Z M 329.7 348.4 "></path></clipPath><g clip-path="url(#clip0x7fdaa29148a0)"><image xlink:href="BE9035F5D37C79DEC1DC85C10EE3E59F.png" width="2982.00" height="2808.00" transform="matrix(0.04, 0.00, -0.00, -0.04, 315.0, 457.6)"></image></g></g></g></g><g><clipPath id="clip0x7fdaa2a1b040"><path d="M 456.7 350.1 L 727.4 350.1 L 727.4 444.5 L 456.7 444.5 Z M 456.7 350.1 "></path></clipPath><g clip-path="url(#clip0x7fdaa2a1b040)"><text xml:space="preserve" font-family="SourceSansPro-Regular,Source Sans Pro" font-size="50.0" fill="#FEFFFF" transform="matrix(1.00, 0.00, -0.00, -1.00, 472.9, 379.5)">M</text><text xml:space="preserve" font-family="SourceSansPro-Regular,Source Sans Pro" font-size="50.0" fill="#FEFFFF" transform="matrix(1.00, 0.00, -0.00, -1.00, 509.2, 379.5)">a</text><text xml:space="preserve" font-family="SourceSansPro-Regular,Source Sans Pro" font-size="50.0" fill="#FEFFFF" transform="matrix(1.00, 0.00, -0.00, -1.00, 534.8, 379.5)">r</text><text xml:space="preserve" font-family="SourceSansPro-Regular,Source Sans Pro" font-size="50.0" fill="#FEFFFF" transform="matrix(1.00, 0.00, -0.00, -1.00, 551.7, 379.5)">c</text><text xml:space="preserve" font-family="SourceSansPro-Regular,Source Sans Pro" font-size="50.0" fill="#FEFFFF" transform="matrix(1.00, 0.00, -0.00, -1.00, 574.5, 379.5)">h</text><text xml:space="preserve" font-family="SourceSansPro-Regular,Source Sans Pro" font-size="50.0" fill="#FEFFFF" transform="matrix(1.00, 0.00, -0.00, -1.00, 601.7, 379.5)"> </text><text xml:space="preserve" font-family="SourceSansPro-Regular,Source Sans Pro" font-size="50.0" fill="#FEFFFF" transform="matrix(1.00, 0.00, -0.00, -1.00, 611.8, 379.5)">2</text><text xml:space="preserve" font-family="SourceSansPro-Regular,Source Sans Pro" font-size="50.0" fill="#FEFFFF" transform="matrix(1.00, 0.00, -0.00, -1.00, 636.6, 379.5)">0</text><text xml:space="preserve" font-family="SourceSansPro-Regular,Source Sans Pro" font-size="50.0" fill="#FEFFFF" transform="matrix(1.00, 0.00, -0.00, -1.00, 661.5, 379.5)">1</text><text xml:space="preserve" font-family="SourceSansPro-Regular,Source Sans Pro" font-size="50.0" fill="#FEFFFF" transform="matrix(1.00, 0.00, -0.00, -1.00, 686.3, 379.5)">1</text></g></g><g><clipPath id="clip0x7fdaa2a1f5d0"><path d="M 1082.9 633.8 L 1172.8 633.8 L 1172.8 731.6 L 1082.9 731.6 Z M 1082.9 633.8 "></path></clipPath><g clip-path="url(#clip0x7fdaa2a1f5d0)"><image xlink:href="10E3B130D053EADA96A09CC1D4257020.png" width="3056.00" height="3325.00" transform="matrix(0.03, 0.00, -0.00, -0.03, 1082.9, 731.6)"></image></g></g><g><clipPath id="clip0x7fdaa2a209d0"><path d="M 1207.5 635.5 L 1452.8 635.5 L 1452.8 729.9 L 1207.5 729.9 Z M 1207.5 635.5 "></path></clipPath><g clip-path="url(#clip0x7fdaa2a209d0)"><text xml:space="preserve" font-family="SourceSansPro-Regular,Source Sans Pro" font-size="50.0" fill="#FEFFFF" transform="matrix(1.00, 0.00, -0.00, -1.00, 1223.8, 664.8)">J</text><text xml:space="preserve" font-family="SourceSansPro-Regular,Source Sans Pro" font-size="50.0" fill="#FEFFFF" transform="matrix(1.00, 0.00, -0.00, -1.00, 1247.8, 664.8)">u</text><text xml:space="preserve" font-family="SourceSansPro-Regular,Source Sans Pro" font-size="50.0" fill="#FEFFFF" transform="matrix(1.00, 0.00, -0.00, -1.00, 1275.0, 664.8)">n</text><text xml:space="preserve" font-family="SourceSansPro-Regular,Source Sans Pro" font-size="50.0" fill="#FEFFFF" transform="matrix(1.00, 0.00, -0.00, -1.00, 1302.3, 664.8)">e</text><text xml:space="preserve" font-family="SourceSansPro-Regular,Source Sans Pro" font-size="50.0" fill="#FEFFFF" transform="matrix(1.00, 0.00, -0.00, -1.00, 1327.1, 664.8)"> </text><text xml:space="preserve" font-family="SourceSansPro-Regular,Source Sans Pro" font-size="50.0" fill="#FEFFFF" transform="matrix(1.00, 0.00, -0.00, -1.00, 1337.2, 664.8)">2</text><text xml:space="preserve" font-family="SourceSansPro-Regular,Source Sans Pro" font-size="50.0" fill="#FEFFFF" transform="matrix(1.00, 0.00, -0.00, -1.00, 1362.1, 664.8)">0</text><text xml:space="preserve" font-family="SourceSansPro-Regular,Source Sans Pro" font-size="50.0" fill="#FEFFFF" transform="matrix(1.00, 0.00, -0.00, -1.00, 1386.9, 664.8)">1</text><text xml:space="preserve" font-family="SourceSansPro-Regular,Source Sans Pro" font-size="50.0" fill="#FEFFFF" transform="matrix(1.00, 0.00, -0.00, -1.00, 1411.8, 664.8)">1</text></g></g><g><clipPath id="clip0x7fdaa2a25670"><path d="M 1079.0 589.0 L 1177.0 589.0 L 1177.0 491.0 L 1079.0 491.0 Z M 1078.9 588.9 "></path></clipPath><g clip-path="url(#clip0x7fdaa2a25670)"><g><clipPath id="clip0x7fdaa2a25f90"><path d="M 1078.9 491.1 L 1176.8 491.1 L 1176.8 588.9 L 1078.9 588.9 Z M 1078.9 491.1 "></path></clipPath><g clip-path="url(#clip0x7fdaa2a25f90)"><image xlink:href="B99C90BE9DA758F59117BB7B599F6995.png" width="405.00" height="408.00" transform="matrix(0.30, 0.00, -0.00, -0.30, 1082.8, 602.5)"></image></g></g></g></g><g><clipPath id="clip0x7fdaa2a27250"><path d="M 1212.7 492.8 L 1586.5 492.8 L 1586.5 587.2 L 1212.7 587.2 Z M 1212.7 492.8 "></path></clipPath><g clip-path="url(#clip0x7fdaa2a27250)"><text xml:space="preserve" font-family="SourceSansPro-Regular,Source Sans Pro" font-size="50.0" fill="#FEFFFF" transform="matrix(1.00, 0.00, -0.00, -1.00, 1229.0, 522.1)">S</text><text xml:space="preserve" font-family="SourceSansPro-Regular,Source Sans Pro" font-size="50.0" fill="#FEFFFF" transform="matrix(1.00, 0.00, -0.00, -1.00, 1255.7, 522.1)">e</text><text xml:space="preserve" font-family="SourceSansPro-Regular,Source Sans Pro" font-size="50.0" fill="#FEFFFF" transform="matrix(1.00, 0.00, -0.00, -1.00, 1280.5, 522.1)">p</text><text xml:space="preserve" font-family="SourceSansPro-Regular,Source Sans Pro" font-size="50.0" fill="#FEFFFF" transform="matrix(1.00, 0.00, -0.00, -1.00, 1308.2, 522.1)">t</text><text xml:space="preserve" font-family="SourceSansPro-Regular,Source Sans Pro" font-size="50.0" fill="#FEFFFF" transform="matrix(1.00, 0.00, -0.00, -1.00, 1324.6, 522.1)">e</text><text xml:space="preserve" font-family="SourceSansPro-Regular,Source Sans Pro" font-size="50.0" fill="#FEFFFF" transform="matrix(1.00, 0.00, -0.00, -1.00, 1349.4, 522.1)">m</text><text xml:space="preserve" font-family="SourceSansPro-Regular,Source Sans Pro" font-size="50.0" fill="#FEFFFF" transform="matrix(1.00, 0.00, -0.00, -1.00, 1390.9, 522.1)">b</text><text xml:space="preserve" font-family="SourceSansPro-Regular,Source Sans Pro" font-size="50.0" fill="#FEFFFF" transform="matrix(1.00, 0.00, -0.00, -1.00, 1418.6, 522.1)">e</text><text xml:space="preserve" font-family="SourceSansPro-Regular,Source Sans Pro" font-size="50.0" fill="#FEFFFF" transform="matrix(1.00, 0.00, -0.00, -1.00, 1443.4, 522.1)">r</text><text xml:space="preserve" font-family="SourceSansPro-Regular,Source Sans Pro" font-size="50.0" fill="#FEFFFF" transform="matrix(1.00, 0.00, -0.00, -1.00, 1460.8, 522.1)"> </text><text xml:space="preserve" font-family="SourceSansPro-Regular,Source Sans Pro" font-size="50.0" fill="#FEFFFF" transform="matrix(1.00, 0.00, -0.00, -1.00, 1470.9, 522.1)">2</text><text xml:space="preserve" font-family="SourceSansPro-Regular,Source Sans Pro" font-size="50.0" fill="#FEFFFF" transform="matrix(1.00, 0.00, -0.00, -1.00, 1495.7, 522.1)">0</text><text xml:space="preserve" font-family="SourceSansPro-Regular,Source Sans Pro" font-size="50.0" fill="#FEFFFF" transform="matrix(1.00, 0.00, -0.00, -1.00, 1520.6, 522.1)">1</text><text xml:space="preserve" font-family="SourceSansPro-Regular,Source Sans Pro" font-size="50.0" fill="#FEFFFF" transform="matrix(1.00, 0.00, -0.00, -1.00, 1545.4, 522.1)">2</text></g></g><g><clipPath id="clip0x7fdaa2a2e0b0"><path d="M 1078.9 348.4 L 1176.8 348.4 L 1176.8 446.2 L 1078.9 446.2 Z M 1078.9 348.4 "></path></clipPath><g clip-path="url(#clip0x7fdaa2a2e0b0)"><image xlink:href="0EEBD1F8B6BF03D8786DF13DB79EAEB4.png" width="320.00" height="320.00" transform="matrix(0.31, 0.00, -0.00, -0.31, 1078.9, 446.2)"></image></g></g><g><clipPath id="clip0x7fdaa2834cc0"><path d="M 1212.0 350.1 L 1523.3 350.1 L 1523.3 444.5 L 1212.0 444.5 Z M 1212.0 350.1 "></path></clipPath><g clip-path="url(#clip0x7fdaa2834cc0)"><text xml:space="preserve" font-family="SourceSansPro-Regular,Source Sans Pro" font-size="50.0" fill="#FEFFFF" transform="matrix(1.00, 0.00, -0.00, -1.00, 1228.2, 379.5)">O</text><text xml:space="preserve" font-family="SourceSansPro-Regular,Source Sans Pro" font-size="50.0" fill="#FEFFFF" transform="matrix(1.00, 0.00, -0.00, -1.00, 1261.4, 379.5)">c</text><text xml:space="preserve" font-family="SourceSansPro-Regular,Source Sans Pro" font-size="50.0" fill="#FEFFFF" transform="matrix(1.00, 0.00, -0.00, -1.00, 1284.2, 379.5)">t</text><text xml:space="preserve" font-family="SourceSansPro-Regular,Source Sans Pro" font-size="50.0" fill="#FEFFFF" transform="matrix(1.00, 0.00, -0.00, -1.00, 1300.6, 379.5)">o</text><text xml:space="preserve" font-family="SourceSansPro-Regular,Source Sans Pro" font-size="50.0" fill="#FEFFFF" transform="matrix(1.00, 0.00, -0.00, -1.00, 1327.7, 379.5)">b</text><text xml:space="preserve" font-family="SourceSansPro-Regular,Source Sans Pro" font-size="50.0" fill="#FEFFFF" transform="matrix(1.00, 0.00, -0.00, -1.00, 1355.5, 379.5)">e</text><text xml:space="preserve" font-family="SourceSansPro-Regular,Source Sans Pro" font-size="50.0" fill="#FEFFFF" transform="matrix(1.00, 0.00, -0.00, -1.00, 1380.3, 379.5)">r</text><text xml:space="preserve" font-family="SourceSansPro-Regular,Source Sans Pro" font-size="50.0" fill="#FEFFFF" transform="matrix(1.00, 0.00, -0.00, -1.00, 1397.6, 379.5)"> </text><text xml:space="preserve" font-family="SourceSansPro-Regular,Source Sans Pro" font-size="50.0" fill="#FEFFFF" transform="matrix(1.00, 0.00, -0.00, -1.00, 1407.7, 379.5)">2</text><text xml:space="preserve" font-family="SourceSansPro-Regular,Source Sans Pro" font-size="50.0" fill="#FEFFFF" transform="matrix(1.00, 0.00, -0.00, -1.00, 1432.6, 379.5)">0</text><text xml:space="preserve" font-family="SourceSansPro-Regular,Source Sans Pro" font-size="50.0" fill="#FEFFFF" transform="matrix(1.00, 0.00, -0.00, -1.00, 1457.4, 379.5)">1</text><text xml:space="preserve" font-family="SourceSansPro-Regular,Source Sans Pro" font-size="50.0" fill="#FEFFFF" transform="matrix(1.00, 0.00, -0.00, -1.00, 1482.3, 379.5)">2</text></g></g></g></svg>